<svg xmlns="http://www.w3.org/2000/svg" xmlns:xlink="http://www.w3.org/1999/xlink" width="24" height="24" preserveAspectRatio="xMidYMid meet" viewBox="0 0 24 24" style="-ms-transform: rotate(360deg); -webkit-transform: rotate(360deg); transform: rotate(360deg);"><g fill="none"><path d="M9.04 5.493a3 3 0 1 1 5.918.002l2.433-.908a2.359 2.359 0 0 1 1.766 4.372L16 10.334v.84a6.456 6.456 0 0 0-1.5.558V9.843a.75.75 0 0 1 .45-.688l3.608-1.57a.858.858 0 0 0-.643-1.592l-4.78 1.783c-.35.143-.734.222-1.135.222a2.99 2.99 0 0 1-1.17-.237L5.936 5.936a.85.85 0 0 0-.64 1.574l3.755 1.653a.75.75 0 0 1 .448.686v3.735a.75.75 0 0 1-.041.245L7.536 19.4a.82.82 0 0 0 1.545.549l1.65-4.527c.174-.478.551-.764.967-.857a6.526 6.526 0 0 0-.58 4.174l-.628 1.723a2.32 2.32 0 0 1-4.372-1.55L8 13.457v-3.12L4.693 8.884A2.35 2.35 0 0 1 6.461 4.53l2.58.962zm1.46-.495a1.5 1.5 0 0 0 .896 1.373a1.75 1.75 0 0 0 1.187.01A1.5 1.5 0 1 0 10.5 4.997zM23 17.5a5.5 5.5 0 1 1-11 0a5.5 5.5 0 0 1 11 0zm-2.146-2.354a.5.5 0 0 0-.708 0L16.5 18.793l-1.646-1.647a.5.5 0 0 0-.708.708l2 2a.5.5 0 0 0 .708 0l4-4a.5.5 0 0 0 0-.708z" fill="#626262"/></g><rect x="0" y="0" width="24" height="24" fill="rgba(0, 0, 0, 0)" /></svg>