<svg xmlns="http://www.w3.org/2000/svg" xmlns:xlink="http://www.w3.org/1999/xlink" width="24" height="24" preserveAspectRatio="xMidYMid meet" viewBox="0 0 24 24" style="-ms-transform: rotate(360deg); -webkit-transform: rotate(360deg); transform: rotate(360deg);"><g fill="none"><path d="M2 6a2 2 0 0 1 2-2h16a2 2 0 0 1 2 2v12a2 2 0 0 1-2 2h-7.498c.198-.474.34-.977.422-1.5H20a.5.5 0 0 0 .5-.5V6a.5.5 0 0 0-.5-.5H7.5v5.576A6.554 6.554 0 0 0 6 11.02V5.5H4a.5.5 0 0 0-.5.5v5.732A6.517 6.517 0 0 0 2 12.81V6z" fill="#626262"/><path d="M12 7a2 2 0 0 0-2 2v1a2 2 0 0 0 2 2h4a2 2 0 0 0 2-2V9a2 2 0 0 0-2-2h-4zm4 1.5a.5.5 0 0 1 .5.5v1a.5.5 0 0 1-.5.5h-4a.5.5 0 0 1-.5-.5V9a.5.5 0 0 1 .5-.5h4z" fill="#626262"/><path d="M6.5 12a5.5 5.5 0 1 1 0 11a5.5 5.5 0 0 1 0-11zm.501 8.503V18h2.496a.5.5 0 0 0 0-1H7v-2.5a.5.5 0 1 0-1 0V17H3.496a.5.5 0 0 0 0 1H6v2.503a.5.5 0 1 0 1 0z" fill="#626262"/></g><rect x="0" y="0" width="24" height="24" fill="rgba(0, 0, 0, 0)" /></svg>