<svg xmlns="http://www.w3.org/2000/svg" xmlns:xlink="http://www.w3.org/1999/xlink" width="24" height="24" preserveAspectRatio="xMidYMid meet" viewBox="0 0 24 24" style="-ms-transform: rotate(360deg); -webkit-transform: rotate(360deg); transform: rotate(360deg);"><g fill="none"><path d="M11.25 3.001H3.698l-.1.014l-.099.028l-.06.026a.72.72 0 0 0-.219.15l-.04.044l-.061.082l-.037.065l-.04.09l-.018.064l-.014.064l-.01.093v7.534a.75.75 0 0 0 1.493.102l.007-.102V5.559l15.22 15.225a.75.75 0 0 0 .977.073l.084-.073a.75.75 0 0 0 .073-.976l-.073-.084L5.56 4.5l5.69.001a.75.75 0 0 0 .744-.648L12 3.75a.75.75 0 0 0-.648-.743L11.25 3z" fill="#626262"/></g><rect x="0" y="0" width="24" height="24" fill="rgba(0, 0, 0, 0)" /></svg>