<svg xmlns="http://www.w3.org/2000/svg" xmlns:xlink="http://www.w3.org/1999/xlink" width="24" height="24" preserveAspectRatio="xMidYMid meet" viewBox="0 0 24 24" style="-ms-transform: rotate(360deg); -webkit-transform: rotate(360deg); transform: rotate(360deg);"><g fill="none"><path d="M13.748 5.5h7.554l.1.014l.099.028l.06.026a.72.72 0 0 1 .219.15l.04.044l.044.057l.054.09l.039.09l.019.064l.014.064l.009.095v7.532a.75.75 0 0 1-1.493.102l-.006-.102l-.001-5.695l-7.719 7.72a.75.75 0 0 1-.976.073l-.085-.073l-2.97-2.97l-5.47 5.47a.75.75 0 0 1-1.133-.977l.073-.084l6-6a.75.75 0 0 1 .976-.073l.084.073l2.97 2.97L19.438 7h-5.69a.75.75 0 0 1-.742-.648l-.007-.102a.75.75 0 0 1 .648-.743l.102-.007z" fill="#626262"/></g><rect x="0" y="0" width="24" height="24" fill="rgba(0, 0, 0, 0)" /></svg>