<svg xmlns="http://www.w3.org/2000/svg" xmlns:xlink="http://www.w3.org/1999/xlink" width="24" height="24" preserveAspectRatio="xMidYMid meet" viewBox="0 0 24 24" style="-ms-transform: rotate(360deg); -webkit-transform: rotate(360deg); transform: rotate(360deg);"><g fill="none"><path d="M8 8.25a.75.75 0 0 0-1.5 0v3.25c0 .414.336.75.75.75H10a.75.75 0 0 0 0-1.5H8.73A3.502 3.502 0 0 1 12 8.5c1.093 0 2.037.464 2.673 1.23a.75.75 0 1 0 1.154-.96C14.904 7.66 13.537 7 12 7a4.991 4.991 0 0 0-4 2v-.75z" fill="#626262"/><path d="M16 15v.75a.75.75 0 0 0 1.5 0v-3a.75.75 0 0 0-.75-.75H14a.75.75 0 0 0 0 1.5h1.163a3.513 3.513 0 0 1-5.842.765a.75.75 0 1 0-1.142.972A5.013 5.013 0 0 0 16 15z" fill="#626262"/><path d="M12 2c5.523 0 10 4.477 10 10s-4.477 10-10 10S2 17.523 2 12S6.477 2 12 2zM3.5 12a8.5 8.5 0 1 0 17 0a8.5 8.5 0 0 0-17 0z" fill="#626262"/></g><rect x="0" y="0" width="24" height="24" fill="rgba(0, 0, 0, 0)" /></svg>