<svg xmlns="http://www.w3.org/2000/svg" xmlns:xlink="http://www.w3.org/1999/xlink" width="24" height="24" preserveAspectRatio="xMidYMid meet" viewBox="0 0 24 24" style="-ms-transform: rotate(360deg); -webkit-transform: rotate(360deg); transform: rotate(360deg);"><g fill="none"><path d="M10.51 9.5h4.74a.75.75 0 0 0 0-1.5h-6.5a.75.75 0 0 0-.75.75v6.5a.75.75 0 0 0 1.5 0v-4.639l5.222 5.172a.75.75 0 0 0 1.056-1.066L10.509 9.5z" fill="#626262"/><path d="M22 12c0 5.523-4.477 10-10 10S2 17.523 2 12S6.477 2 12 2s10 4.477 10 10zm-10 8.5a8.5 8.5 0 1 0 0-17a8.5 8.5 0 0 0 0 17z" fill="#626262"/></g><rect x="0" y="0" width="24" height="24" fill="rgba(0, 0, 0, 0)" /></svg>