<svg xmlns="http://www.w3.org/2000/svg" xmlns:xlink="http://www.w3.org/1999/xlink" width="24" height="24" preserveAspectRatio="xMidYMid meet" viewBox="0 0 24 24" style="-ms-transform: rotate(360deg); -webkit-transform: rotate(360deg); transform: rotate(360deg);"><g fill="none"><path d="M15.001 8.999H9.004l.001-2.25a.75.75 0 0 0-1.268-.542l-5.503 5.25a.75.75 0 0 0 0 1.086l5.504 5.25l.082.068a.75.75 0 0 0 1.185-.611V15H15v2.25c0 .66.792.998 1.269.542l5.497-5.25a.75.75 0 0 0 0-1.085l-5.497-5.25a.75.75 0 0 0-1.268.543v2.249zm-11.164 3l3.667-3.498l.001 1.248c0 .415.336.75.75.75h7.497l.102-.007a.75.75 0 0 0 .648-.743V8.503L20.161 12l-3.66 3.496V14.25a.75.75 0 0 0-.75-.75H8.255l-.102.007a.75.75 0 0 0-.648.743v1.248L3.836 12z" fill="#626262"/></g><rect x="0" y="0" width="24" height="24" fill="rgba(0, 0, 0, 0)" /></svg>