<svg xmlns="http://www.w3.org/2000/svg" xmlns:xlink="http://www.w3.org/1999/xlink" width="24" height="24" preserveAspectRatio="xMidYMid meet" viewBox="0 0 24 24" style="-ms-transform: rotate(360deg); -webkit-transform: rotate(360deg); transform: rotate(360deg);"><g fill="none"><path d="M13.49 14.5H8.75a.75.75 0 0 0 0 1.5h6.5a.75.75 0 0 0 .75-.75v-6.5a.75.75 0 0 0-1.5 0v4.639L9.278 8.217a.75.75 0 1 0-1.056 1.066l5.269 5.217z" fill="#626262"/><path d="M2 12C2 6.477 6.477 2 12 2s10 4.477 10 10s-4.477 10-10 10S2 17.523 2 12zm10-8.5a8.5 8.5 0 1 0 0 17a8.5 8.5 0 0 0 0-17z" fill="#626262"/></g><rect x="0" y="0" width="24" height="24" fill="rgba(0, 0, 0, 0)" /></svg>