<svg xmlns="http://www.w3.org/2000/svg" xmlns:xlink="http://www.w3.org/1999/xlink" width="24" height="24" preserveAspectRatio="xMidYMid meet" viewBox="0 0 24 24" style="-ms-transform: rotate(360deg); -webkit-transform: rotate(360deg); transform: rotate(360deg);"><g fill="none"><path d="M4.21 10.733a.75.75 0 0 0 1.086 1.034l5.954-6.251V20.25a.75.75 0 0 0 1.5 0V5.516l5.955 6.251a.75.75 0 0 0 1.086-1.034l-7.067-7.42a.995.995 0 0 0-.58-.3a.754.754 0 0 0-.29.001a.995.995 0 0 0-.578.3L4.21 10.733z" fill="#626262"/></g><rect x="0" y="0" width="24" height="24" fill="rgba(0, 0, 0, 0)" /></svg>