<svg xmlns="http://www.w3.org/2000/svg" xmlns:xlink="http://www.w3.org/1999/xlink" width="24" height="24" preserveAspectRatio="xMidYMid meet" viewBox="0 0 24 24" style="-ms-transform: rotate(360deg); -webkit-transform: rotate(360deg); transform: rotate(360deg);"><g fill="none"><path d="M14.783 2.22l4.495 4.494a.75.75 0 0 1 .073.976l-.072.085l-4.495 4.504a.75.75 0 0 1-1.135-.975l.073-.084l3.217-3.223H5.243A.75.75 0 0 1 4.5 7.35l-.007-.101a.75.75 0 0 1 .648-.743l.102-.007l11.697-.001l-3.218-3.217a.75.75 0 0 1-.072-.976l.072-.084a.75.75 0 0 1 .977-.073l.084.073l4.495 4.494l-4.495-4.494zM19.5 16.65l.006.1a.75.75 0 0 1-.648.744l-.102.007L7.063 17.5l3.22 3.22a.75.75 0 0 1 .074.976l-.073.084a.75.75 0 0 1-.976.073l-.085-.072l-4.5-4.497a.75.75 0 0 1-.073-.976l.073-.084l4.5-4.504a.75.75 0 0 1 1.134.976l-.073.084L7.066 16h11.692a.75.75 0 0 1 .743.65l.006.1l-.006-.1z" fill="#626262"/></g><rect x="0" y="0" width="24" height="24" fill="rgba(0, 0, 0, 0)" /></svg>