<svg xmlns="http://www.w3.org/2000/svg" xmlns:xlink="http://www.w3.org/1999/xlink" width="24" height="24" preserveAspectRatio="xMidYMid meet" viewBox="0 0 24 24" style="-ms-transform: rotate(360deg); -webkit-transform: rotate(360deg); transform: rotate(360deg);"><g fill="none"><path d="M7.47 12.281l.084.073a.75.75 0 0 0 .977-.073l2.72-2.72v6.69l.006.102a.75.75 0 0 0 .743.648l.102-.006a.75.75 0 0 0 .648-.744V9.56l2.72 2.722l.085.072a.75.75 0 0 0 .977-1.133l-4-4.001l-.085-.073a.75.75 0 0 0-.976.073l-4.001 4l-.073.085a.75.75 0 0 0 .073.976z" fill="#626262"/><path d="M22 12.001c0-5.523-4.476-10-10-10c-5.522 0-10 4.477-10 10s4.478 10 10 10c5.524 0 10-4.477 10-10zm-18.5 0a8.5 8.5 0 1 1 17 0a8.5 8.5 0 0 1-17 0z" fill="#626262"/></g><rect x="0" y="0" width="24" height="24" fill="rgba(0, 0, 0, 0)" /></svg>