<svg xmlns="http://www.w3.org/2000/svg" xmlns:xlink="http://www.w3.org/1999/xlink" width="24" height="24" preserveAspectRatio="xMidYMid meet" viewBox="0 0 24 24" style="-ms-transform: rotate(360deg); -webkit-transform: rotate(360deg); transform: rotate(360deg);"><g fill="none"><path d="M18.25 3.509a.75.75 0 1 0 0-1.5l-13-.004a.75.75 0 1 0 0 1.5l13 .004zm-6.602 18.488l.102.007a.75.75 0 0 0 .743-.649l.007-.101l-.001-13.685l3.722 3.72a.75.75 0 0 0 .976.072l.085-.072a.75.75 0 0 0 .072-.977l-.073-.084l-4.997-4.996a.75.75 0 0 0-.976-.073l-.085.072l-5.003 4.997a.75.75 0 0 0 .976 1.134l.084-.073l3.719-3.713L11 21.254c0 .38.282.693.648.743z" fill="#626262"/></g><rect x="0" y="0" width="24" height="24" fill="rgba(0, 0, 0, 0)" /></svg>