<svg xmlns="http://www.w3.org/2000/svg" xmlns:xlink="http://www.w3.org/1999/xlink" width="24" height="24" preserveAspectRatio="xMidYMid meet" viewBox="0 0 24 24" style="-ms-transform: rotate(360deg); -webkit-transform: rotate(360deg); transform: rotate(360deg);"><g fill="none"><path d="M19.25 2a.75.75 0 0 0-.743.648l-.007.102v5.69l-4.574-4.56a6.41 6.41 0 0 0-8.878-.179l-.186.18a6.41 6.41 0 0 0 0 9.063l8.845 8.84a.75.75 0 0 0 1.06-1.062l-8.845-8.838a4.91 4.91 0 0 1 6.766-7.112l.178.17L17.438 9.5H11.75a.75.75 0 0 0-.743.648L11 10.25c0 .38.282.694.648.743l.102.007h7.5a.75.75 0 0 0 .743-.648L20 10.25v-7.5a.75.75 0 0 0-.75-.75z" fill="#626262"/></g><rect x="0" y="0" width="24" height="24" fill="rgba(0, 0, 0, 0)" /></svg>