<svg xmlns="http://www.w3.org/2000/svg" xmlns:xlink="http://www.w3.org/1999/xlink" width="24" height="24" preserveAspectRatio="xMidYMid meet" viewBox="0 0 24 24" style="-ms-transform: rotate(360deg); -webkit-transform: rotate(360deg); transform: rotate(360deg);"><g fill="none"><path d="M7.75 5.18a.75.75 0 0 1-.142 1.051a7.251 7.251 0 0 0 3.599 12.976l-.677-.677a.75.75 0 0 1 .977-1.133l.084.073l2 2a.75.75 0 0 1 .073.976l-.073.084l-2 2a.75.75 0 0 1-1.133-.976l.072-.084l.75-.75A8.75 8.75 0 0 1 6.699 5.04a.75.75 0 0 1 1.051.141zm5.72-3.71a.75.75 0 0 1 0 1.06l-.75.75a8.75 8.75 0 0 1 4.85 15.47a.75.75 0 1 1-.956-1.157a7.251 7.251 0 0 0-3.82-12.8l.676.677a.75.75 0 1 1-1.061 1.06l-2-2a.75.75 0 0 1 0-1.06l2-2a.75.75 0 0 1 1.06 0z" fill="#626262"/></g><rect x="0" y="0" width="24" height="24" fill="rgba(0, 0, 0, 0)" /></svg>