<svg xmlns="http://www.w3.org/2000/svg" xmlns:xlink="http://www.w3.org/1999/xlink" width="24" height="24" preserveAspectRatio="xMidYMid meet" viewBox="0 0 24 24" style="-ms-transform: rotate(360deg); -webkit-transform: rotate(360deg); transform: rotate(360deg);"><g fill="none"><path d="M14.647 6.304l.072-.084a.75.75 0 0 1 .977-.073l.084.073l4.997 4.997a.75.75 0 0 1 .073.976l-.073.085l-4.997 5.003a.75.75 0 0 1-1.133-.976l.072-.084l3.711-3.717H3.75a.75.75 0 0 1-.743-.647L3 11.755a.75.75 0 0 1 .648-.743l.102-.007l14.693-.001l-3.724-3.724a.75.75 0 0 1-.072-.976l.072-.084l-.072.084z" fill="#626262"/></g><rect x="0" y="0" width="24" height="24" fill="rgba(0, 0, 0, 0)" /></svg>