<svg xmlns="http://www.w3.org/2000/svg" xmlns:xlink="http://www.w3.org/1999/xlink" width="24" height="24" preserveAspectRatio="xMidYMid meet" viewBox="0 0 24 24" style="-ms-transform: rotate(360deg); -webkit-transform: rotate(360deg); transform: rotate(360deg);"><g fill="none"><path d="M15.28 6.03a.75.75 0 0 1-1.06 0l-1.47-1.47v3.69a.75.75 0 0 1-1.5 0V4.56L9.78 6.03a.75.75 0 0 1-1.06-1.06l2.75-2.75a.75.75 0 0 1 1.06 0l2.75 2.75a.75.75 0 0 1 0 1.06z" fill="#626262"/><path d="M6.03 14.22a.75.75 0 1 1-1.06 1.06l-2.75-2.75a.75.75 0 0 1 0-1.06l2.75-2.75a.75.75 0 0 1 1.06 1.06l-1.47 1.47h3.69a.75.75 0 0 1 0 1.5H4.56l1.47 1.47z" fill="#626262"/><path d="M17.97 15.28a.75.75 0 0 1 0-1.06l1.47-1.47h-3.69a.75.75 0 0 1 0-1.5h3.69l-1.47-1.47a.75.75 0 0 1 1.06-1.06l2.75 2.75a.75.75 0 0 1 0 1.06l-2.75 2.75a.75.75 0 0 1-1.06 0z" fill="#626262"/><path d="M15.28 17.97a.75.75 0 0 0-1.06 0l-1.47 1.47v-3.69a.75.75 0 0 0-1.5 0v3.69l-1.47-1.47a.75.75 0 0 0-1.06 1.06l2.75 2.75a.75.75 0 0 0 1.06 0l2.75-2.75a.75.75 0 0 0 0-1.06z" fill="#626262"/></g><rect x="0" y="0" width="24" height="24" fill="rgba(0, 0, 0, 0)" /></svg>