<svg xmlns="http://www.w3.org/2000/svg" xmlns:xlink="http://www.w3.org/1999/xlink" width="24" height="24" preserveAspectRatio="xMidYMid meet" viewBox="0 0 24 24" style="-ms-transform: rotate(360deg); -webkit-transform: rotate(360deg); transform: rotate(360deg);"><g fill="none"><path d="M21.25 4.5a.75.75 0 0 1 .743.648L22 5.25v13.004a.75.75 0 0 1-1.493.102l-.007-.102V5.25a.75.75 0 0 1 .75-.75zm-8.603 1.804l.073-.084a.75.75 0 0 1 .977-.073l.084.073l4.996 4.997a.75.75 0 0 1 .073.976l-.072.085l-4.997 5.003a.75.75 0 0 1-1.134-.976l.073-.084l3.71-3.717H2.75a.75.75 0 0 1-.743-.647L2 11.755a.75.75 0 0 1 .649-.743l.101-.007l13.694-.001L12.72 7.28a.75.75 0 0 1-.073-.976l.073-.084l-.073.084z" fill="#626262"/></g><rect x="0" y="0" width="24" height="24" fill="rgba(0, 0, 0, 0)" /></svg>