<svg xmlns="http://www.w3.org/2000/svg" xmlns:xlink="http://www.w3.org/1999/xlink" width="24" height="24" preserveAspectRatio="xMidYMid meet" viewBox="0 0 24 24" style="-ms-transform: rotate(360deg); -webkit-transform: rotate(360deg); transform: rotate(360deg);"><g fill="none"><path d="M10.733 19.79a.75.75 0 0 0 1.034-1.086L5.516 12.75H20.25a.75.75 0 0 0 0-1.5H5.516l6.251-5.955a.75.75 0 0 0-1.034-1.086l-7.42 7.067a.995.995 0 0 0-.3.58a.754.754 0 0 0 .001.289a.995.995 0 0 0 .3.579l7.419 7.067z" fill="#626262"/></g><rect x="0" y="0" width="24" height="24" fill="rgba(0, 0, 0, 0)" /></svg>