<svg xmlns="http://www.w3.org/2000/svg" xmlns:xlink="http://www.w3.org/1999/xlink" width="24" height="24" preserveAspectRatio="xMidYMid meet" viewBox="0 0 24 24" style="-ms-transform: rotate(360deg); -webkit-transform: rotate(360deg); transform: rotate(360deg);"><g fill="none"><path d="M12.748 3.001h7.554l.1.014l.099.028l.061.026a.72.72 0 0 1 .218.15l.04.044l.061.082l.037.065l.039.09l.02.064l.013.064l.009.093v7.534a.75.75 0 0 1-1.493.102l-.006-.102l-.001-5.696l-13.94 13.945h5.69a.75.75 0 0 1 .744.65l.007.1a.75.75 0 0 1-.649.744l-.101.007H3.714L3.684 21a.705.705 0 0 1-.187-.04l-.09-.038l-.018-.01a.746.746 0 0 1-.384-.553l-.007-.105V12.75a.75.75 0 0 1 1.493-.102l.007.102v5.692L18.438 4.5l-5.69.001a.75.75 0 0 1-.743-.648l-.007-.102a.75.75 0 0 1 .648-.743L12.748 3z" fill="#626262"/></g><rect x="0" y="0" width="24" height="24" fill="rgba(0, 0, 0, 0)" /></svg>