<svg xmlns="http://www.w3.org/2000/svg" xmlns:xlink="http://www.w3.org/1999/xlink" width="24" height="24" preserveAspectRatio="xMidYMid meet" viewBox="0 0 24 24" style="-ms-transform: rotate(360deg); -webkit-transform: rotate(360deg); transform: rotate(360deg);"><g fill="none"><path d="M2.22 9.22l4.494-4.495a.75.75 0 0 1 .976-.073l.085.072l4.504 4.495a.75.75 0 0 1-.975 1.135l-.084-.073l-3.223-3.217V18.76a.75.75 0 0 1-.648.743l-.101.007a.75.75 0 0 1-.743-.648l-.007-.102l-.001-11.698L3.28 10.28a.75.75 0 0 1-.976.073l-.084-.073a.75.75 0 0 1-.073-.976l.073-.084l4.494-4.495L2.22 9.22zm14.43-4.718l.1-.007a.75.75 0 0 1 .744.648l.007.102l-.001 11.696l3.22-3.221a.75.75 0 0 1 .976-.073l.084.072a.75.75 0 0 1 .073.977l-.072.084l-4.497 4.5a.75.75 0 0 1-.976.073l-.084-.072l-4.504-4.5a.75.75 0 0 1 .976-1.134l.084.072L16 16.938V5.245a.75.75 0 0 1 .65-.743l.1-.007l-.1.007z" fill="#626262"/></g><rect x="0" y="0" width="24" height="24" fill="rgba(0, 0, 0, 0)" /></svg>