<svg xmlns="http://www.w3.org/2000/svg" xmlns:xlink="http://www.w3.org/1999/xlink" width="24" height="24" preserveAspectRatio="xMidYMid meet" viewBox="0 0 24 24" style="-ms-transform: rotate(360deg); -webkit-transform: rotate(360deg); transform: rotate(360deg);"><g fill="none"><path d="M20 21.25a.75.75 0 0 1-.75.75h-6.5A3.75 3.75 0 0 1 9 18.25V4.585l-3.72 3.72a.75.75 0 0 1-.976.072l-.084-.072a.75.75 0 0 1-.073-.977l.073-.084l5-5a.75.75 0 0 1 .976-.073l.084.073l5 5a.75.75 0 0 1-.976 1.133l-.084-.072l-3.72-3.72V18.25a2.25 2.25 0 0 0 2.096 2.244l.154.006h6.5a.75.75 0 0 1 .75.75z" fill="#626262"/></g><rect x="0" y="0" width="24" height="24" fill="rgba(0, 0, 0, 0)" /></svg>