<svg xmlns="http://www.w3.org/2000/svg" xmlns:xlink="http://www.w3.org/1999/xlink" width="24" height="24" preserveAspectRatio="xMidYMid meet" viewBox="0 0 24 24" style="-ms-transform: rotate(360deg); -webkit-transform: rotate(360deg); transform: rotate(360deg);"><g fill="none"><path d="M11.772 3.743a6 6 0 0 1 8.66 8.302l-.19.197l-8.8 8.798l-.036.03a3.723 3.723 0 0 1-5.489-4.973a.764.764 0 0 1 .085-.13l.054-.06l.086-.088l.142-.148l.002.003l7.436-7.454a.75.75 0 0 1 .977-.074l.084.073a.75.75 0 0 1 .074.976l-.073.084l-7.594 7.613a2.23 2.23 0 0 0 3.174 3.106l8.832-8.83A4.502 4.502 0 0 0 13 4.644l-.168.16l-.013.014l-9.536 9.536a.75.75 0 0 1-1.133-.977l.072-.084l9.549-9.55h.002z" fill="#626262"/></g><rect x="0" y="0" width="24" height="24" fill="rgba(0, 0, 0, 0)" /></svg>