<svg xmlns="http://www.w3.org/2000/svg" xmlns:xlink="http://www.w3.org/1999/xlink" width="24" height="24" preserveAspectRatio="xMidYMid meet" viewBox="0 0 24 24" style="-ms-transform: rotate(360deg); -webkit-transform: rotate(360deg); transform: rotate(360deg);"><g fill="none"><path d="M11.772 3.743a6 6 0 0 1 8.867 8.063a6.457 6.457 0 0 0-1.486-.594l.044-.044a4.502 4.502 0 0 0-6.198-6.524l-.168.16l-.013.014l-9.536 9.536a.75.75 0 0 1-1.133-.976l.072-.084l9.549-9.551h.002zm-.56 15.408c.14.534.345 1.041.608 1.512l-.377.378l-.037.03a3.723 3.723 0 0 1-5.489-4.974a.765.765 0 0 1 .085-.13l.054-.06l.086-.087l.142-.148l.002.003l7.436-7.455a.75.75 0 0 1 .977-.074l.084.073a.75.75 0 0 1 .074.976l-.073.085l-7.594 7.613a2.23 2.23 0 0 0 3.174 3.105l.848-.847zM23 17.5a5.5 5.5 0 1 1-11 0a5.5 5.5 0 0 1 11 0zm-8.5-.5a.5.5 0 0 0 0 1h4.793l-1.646 1.646a.5.5 0 0 0 .707.708l2.5-2.5a.5.5 0 0 0 0-.708l-2.5-2.5a.5.5 0 0 0-.707.708L19.293 17H14.5z" fill="#626262"/></g><rect x="0" y="0" width="24" height="24" fill="rgba(0, 0, 0, 0)" /></svg>