<svg xmlns="http://www.w3.org/2000/svg" xmlns:xlink="http://www.w3.org/1999/xlink" width="24" height="24" preserveAspectRatio="xMidYMid meet" viewBox="0 0 24 24" style="-ms-transform: rotate(360deg); -webkit-transform: rotate(360deg); transform: rotate(360deg);"><g fill="none"><path d="M3 18.25a.75.75 0 0 0 1.5 0V5.75a.75.75 0 0 0-1.5 0v12.5z" fill="#626262"/><path d="M19.5 18.25a.75.75 0 0 0 1.5 0V5.75a.75.75 0 0 0-1.5 0v12.5z" fill="#626262"/><path d="M14.146 14.053a.75.75 0 0 0 1.133.977l2.37-2.367a.77.77 0 0 0 .351-.664a.77.77 0 0 0-.35-.664l-2.37-2.367l-.085-.073a.75.75 0 0 0-.976.073l-.073.084a.75.75 0 0 0 .073.976l1.221 1.222h-3.784l-.025.002H8.56l1.221-1.222l.08-.094a.75.75 0 0 0-.007-.882L9.78 8.97l-.094-.08a.75.75 0 0 0-.882.007l-.085.073l-2.37 2.367l-.074.053A.786.786 0 0 0 6 12a.77.77 0 0 0 .35.665l2.37 2.367l.085.073a.75.75 0 0 0 1.049-1.05l-.073-.084l-1.221-1.22h3.784l.025-.001h3.071l-1.221 1.22l-.073.083z" fill="#626262"/></g><rect x="0" y="0" width="24" height="24" fill="rgba(0, 0, 0, 0)" /></svg>