<svg xmlns="http://www.w3.org/2000/svg" xmlns:xlink="http://www.w3.org/1999/xlink" width="24" height="24" preserveAspectRatio="xMidYMid meet" viewBox="0 0 24 24" style="-ms-transform: rotate(360deg); -webkit-transform: rotate(360deg); transform: rotate(360deg);"><g fill="none"><path d="M5.994 4.186a.75.75 0 0 1 .07 1.058L5.403 6h2.862a.75.75 0 0 1 0 1.5H5.403l.661.756a.75.75 0 0 1-1.128.988l-1.75-2a.75.75 0 0 1 0-.988l1.75-2a.75.75 0 0 1 1.058-.07z" fill="#626262"/><path d="M17.95 5.244a.75.75 0 0 1 1.13-.988l1.75 2a.75.75 0 0 1 0 .988l-1.75 2a.75.75 0 0 1-1.13-.988l.662-.756H15.75a.75.75 0 0 1 0-1.5h2.862l-.662-.756z" fill="#626262"/><path d="M6 15.75a.75.75 0 0 1 .75-.75h10.5a.75.75 0 0 1 0 1.5H6.75a.75.75 0 0 1-.75-.75z" fill="#626262"/><path d="M5.75 11A2.75 2.75 0 0 0 3 13.75v4a2.75 2.75 0 0 0 2.75 2.75h12.5A2.75 2.75 0 0 0 21 17.75v-4A2.75 2.75 0 0 0 18.25 11H5.75zM4.5 13.75c0-.69.56-1.25 1.25-1.25h12.5c.69 0 1.25.56 1.25 1.25v4c0 .69-.56 1.25-1.25 1.25H5.75c-.69 0-1.25-.56-1.25-1.25v-4z" fill="#626262"/></g><rect x="0" y="0" width="24" height="24" fill="rgba(0, 0, 0, 0)" /></svg>