<svg xmlns="http://www.w3.org/2000/svg" xmlns:xlink="http://www.w3.org/1999/xlink" width="24" height="24" preserveAspectRatio="xMidYMid meet" viewBox="0 0 24 24" style="-ms-transform: rotate(360deg); -webkit-transform: rotate(360deg); transform: rotate(360deg);"><g fill="none"><path d="M7.375 4.342a.75.75 0 0 1 1.288.051c1.555 2.873 2.34 5.084 2.34 6.688c0 1.685-.61 2.981-1.83 3.797a.75.75 0 1 1-.834-1.246c.778-.521 1.165-1.341 1.165-2.551c0-1.06-.48-2.599-1.447-4.59l-.176-.356l-.25.269A12.76 12.76 0 0 1 6.464 7.47l-.336.265l-.913.697c-1.367 1.078-1.806 1.793-1.7 3.054c.097 1.148.745 1.83 2.103 2.126c.616-1.357.91-2.636.892-3.842a.75.75 0 0 1 1.5-.023c.022 1.464-.334 2.988-1.061 4.566c-.763 1.658-2.079 2.875-3.912 3.633a.75.75 0 1 1-.574-1.386c.964-.399 1.735-.937 2.322-1.62c-1.66-.519-2.622-1.648-2.764-3.328c-.16-1.883.536-2.993 2.272-4.363l.837-.639l.37-.29c.832-.672 1.457-1.334 1.876-1.98zM11.75 6H17a3 3 0 0 1 2.995 2.824L20 9v1l1 .018a1 1 0 0 1 .993.878l.008.122v2a1 1 0 0 1-.866.991l-.134.01L20 14v1a3 3 0 0 1-2.824 2.995L17 18H6.75a.75.75 0 0 1-.102-1.493l.102-.007H17a1.5 1.5 0 0 0 1.493-1.355L18.5 15V9a1.5 1.5 0 0 0-1.356-1.493L17 7.5h-5.25a.75.75 0 0 1-.102-1.493L11.75 6H17h-5.25z" fill="#626262"/></g><rect x="0" y="0" width="24" height="24" fill="rgba(0, 0, 0, 0)" /></svg>