<svg xmlns="http://www.w3.org/2000/svg" xmlns:xlink="http://www.w3.org/1999/xlink" width="24" height="24" preserveAspectRatio="xMidYMid meet" viewBox="0 0 24 24" style="-ms-transform: rotate(360deg); -webkit-transform: rotate(360deg); transform: rotate(360deg);"><g fill="none"><path d="M8 4.5h1v6.238c0 .375-.094.744-.273 1.074l-3.584 6.603A1.75 1.75 0 0 0 6.68 21h10.638a1.75 1.75 0 0 0 1.538-2.585l-3.584-6.603A2.25 2.25 0 0 1 15 10.738V4.5h1A.75.75 0 0 0 16 3H8a.75.75 0 0 0 0 1.5zm2.5 6.238V4.5h3v6.238c0 .625.156 1.24.454 1.79l.8 1.472H9.246l.8-1.473a3.75 3.75 0 0 0 .454-1.789zM8.432 15.5h7.136l1.971 3.63a.25.25 0 0 1-.22.37H6.681a.25.25 0 0 1-.22-.37l1.97-3.63z" fill="#626262"/></g><rect x="0" y="0" width="24" height="24" fill="rgba(0, 0, 0, 0)" /></svg>