<svg xmlns="http://www.w3.org/2000/svg" xmlns:xlink="http://www.w3.org/1999/xlink" width="24" height="24" preserveAspectRatio="xMidYMid meet" viewBox="0 0 24 24" style="-ms-transform: rotate(360deg); -webkit-transform: rotate(360deg); transform: rotate(360deg);"><g fill="none"><path d="M3 12a9 9 0 0 1 13.977-7.5H12a7.5 7.5 0 1 0 0 15V18h6.708A9 9 0 0 1 3 12z" fill="#626262"/><path d="M18.225 5.5H12V7h7.485a9.05 9.05 0 0 0-1.26-1.5z" fill="#626262"/><path d="M12 8h8.064c.238.477.434.979.584 1.5H12V8z" fill="#626262"/><path d="M20.876 10.5H12V12h9c0-.511-.043-1.012-.124-1.5z" fill="#626262"/><path d="M12 13h8.945a8.963 8.963 0 0 1-.297 1.5H12V13z" fill="#626262"/><path d="M20.294 15.5H12V17h7.485a8.98 8.98 0 0 0 .81-1.5z" fill="#626262"/></g><rect x="0" y="0" width="24" height="24" fill="rgba(0, 0, 0, 0)" /></svg>