<svg xmlns="http://www.w3.org/2000/svg" xmlns:xlink="http://www.w3.org/1999/xlink" width="24" height="24" preserveAspectRatio="xMidYMid meet" viewBox="0 0 24 24" style="-ms-transform: rotate(360deg); -webkit-transform: rotate(360deg); transform: rotate(360deg);"><g fill="none"><path d="M12.5 6a.75.75 0 0 0-.695.468l-3.25 8a.75.75 0 1 0 1.39.564L10.77 13h3.46l.825 2.032a.75.75 0 0 0 1.39-.564l-3.25-8A.75.75 0 0 0 12.5 6zm-1.12 5.5l1.12-2.757l1.12 2.757h-2.24z" fill="#626262"/><path d="M4 4.5A2.5 2.5 0 0 1 6.5 2H18a2.5 2.5 0 0 1 2.5 2.5v14.25a.75.75 0 0 1-.75.75H5.5a1 1 0 0 0 1 1h13.25a.75.75 0 0 1 0 1.5H6.5A2.5 2.5 0 0 1 4 19.5v-15zM5.5 18H19V4.5a1 1 0 0 0-1-1H6.5a1 1 0 0 0-1 1V18z" fill="#626262"/></g><rect x="0" y="0" width="24" height="24" fill="rgba(0, 0, 0, 0)" /></svg>