<svg xmlns="http://www.w3.org/2000/svg" xmlns:xlink="http://www.w3.org/1999/xlink" width="24" height="24" preserveAspectRatio="xMidYMid meet" viewBox="0 0 24 24" style="-ms-transform: rotate(360deg); -webkit-transform: rotate(360deg); transform: rotate(360deg);"><g fill="none"><path d="M14 3.75a.75.75 0 0 1-.75.75h-2.5a.75.75 0 0 1 0-1.5h2.5a.75.75 0 0 1 .75.75z" fill="#626262"/><path d="M4.5 10.75a.75.75 0 0 0-1.5 0v2.5a.75.75 0 0 0 1.5 0v-2.5z" fill="#626262"/><path d="M19.5 10.75a.75.75 0 0 1 1.5 0v2.5a.75.75 0 0 1-1.5 0v-2.5z" fill="#626262"/><path d="M6.25 3a.75.75 0 0 1 0 1.5h-.5c-.69 0-1.25.56-1.25 1.25v.5a.75.75 0 0 1-1.5 0v-.5A2.75 2.75 0 0 1 5.75 3h.5z" fill="#626262"/><path d="M17 3.75a.75.75 0 0 1 .75-.75h.5A2.75 2.75 0 0 1 21 5.75v.5a.75.75 0 0 1-1.5 0v-.5c0-.69-.56-1.25-1.25-1.25h-.5a.75.75 0 0 1-.75-.75z" fill="#626262"/><path d="M3 18a1 1 0 1 1 2 0a1 1 0 0 0 1 1h12a1 1 0 0 0 1-1a1 1 0 1 1 2 0a3 3 0 0 1-3 3H6a3 3 0 0 1-3-3z" fill="#626262"/></g><rect x="0" y="0" width="24" height="24" fill="rgba(0, 0, 0, 0)" /></svg>