<svg xmlns="http://www.w3.org/2000/svg" xmlns:xlink="http://www.w3.org/1999/xlink" width="24" height="24" preserveAspectRatio="xMidYMid meet" viewBox="0 0 24 24" style="-ms-transform: rotate(360deg); -webkit-transform: rotate(360deg); transform: rotate(360deg);"><g fill="none"><path d="M3 6.25a.75.75 0 0 0 1.5 0v-.5c0-.69.56-1.25 1.25-1.25h12.5c.69 0 1.25.56 1.25 1.25v.5a.75.75 0 0 0 1.5 0v-.5A2.75 2.75 0 0 0 18.25 3H5.75A2.75 2.75 0 0 0 3 5.75v.5z" fill="#626262"/><path d="M3.75 10a.75.75 0 0 1 .75.75v2.5a.75.75 0 0 1-1.5 0v-2.5a.75.75 0 0 1 .75-.75z" fill="#626262"/><path d="M20.25 10a.75.75 0 0 0-.75.75v2.5a.75.75 0 0 0 1.5 0v-2.5a.75.75 0 0 0-.75-.75z" fill="#626262"/><path d="M3 20.25c0 .414.336.75.75.75h16.5a.75.75 0 0 0 0-1.5H3.75a.75.75 0 0 0-.75.75z" fill="#626262"/><path d="M3.75 18.5a.75.75 0 0 1 0-1.5h16.5a.75.75 0 0 1 0 1.5H3.75z" fill="#626262"/></g><rect x="0" y="0" width="24" height="24" fill="rgba(0, 0, 0, 0)" /></svg>