<svg xmlns="http://www.w3.org/2000/svg" xmlns:xlink="http://www.w3.org/1999/xlink" width="24" height="24" preserveAspectRatio="xMidYMid meet" viewBox="0 0 24 24" style="-ms-transform: rotate(360deg); -webkit-transform: rotate(360deg); transform: rotate(360deg);"><g fill="none"><path d="M17.753 14a2.25 2.25 0 0 1 2.25 2.25v.905a3.75 3.75 0 0 1-1.307 2.846C17.13 21.345 14.89 22 12 22c-2.89 0-5.128-.656-6.691-2a3.75 3.75 0 0 1-1.306-2.843v-.908A2.25 2.25 0 0 1 6.253 14h11.5zm0 1.5h-11.5a.75.75 0 0 0-.75.75v.908c0 .655.286 1.278.784 1.706C7.545 19.945 9.44 20.502 12 20.502c2.56 0 4.458-.557 5.719-1.64a2.25 2.25 0 0 0 .784-1.706v-.906a.75.75 0 0 0-.75-.75zM11.898 2.008L12 2a.75.75 0 0 1 .743.648l.007.102V3.5h3.5a2.25 2.25 0 0 1 2.25 2.25v4.505a2.25 2.25 0 0 1-2.25 2.25h-8.5a2.25 2.25 0 0 1-2.25-2.25V5.75A2.25 2.25 0 0 1 7.75 3.5h3.5v-.749a.75.75 0 0 1 .648-.743L12 2l-.102.007zM16.25 5h-8.5a.75.75 0 0 0-.75.75v4.505c0 .414.336.75.75.75h8.5a.75.75 0 0 0 .75-.75V5.75a.75.75 0 0 0-.75-.75zm-6.5 1.5a1.25 1.25 0 1 1 0 2.5a1.25 1.25 0 0 1 0-2.5zm4.492 0a1.25 1.25 0 1 1 0 2.499a1.25 1.25 0 0 1 0-2.499z" fill="#626262"/></g><rect x="0" y="0" width="24" height="24" fill="rgba(0, 0, 0, 0)" /></svg>