<svg xmlns="http://www.w3.org/2000/svg" xmlns:xlink="http://www.w3.org/1999/xlink" width="24" height="24" preserveAspectRatio="xMidYMid meet" viewBox="0 0 24 24" style="-ms-transform: rotate(360deg); -webkit-transform: rotate(360deg); transform: rotate(360deg);"><g fill="none"><path d="M8 6a1 1 0 1 1-2 0a1 1 0 0 1 2 0z" fill="#626262"/><path d="M7 10a1 1 0 1 0 0-2a1 1 0 0 0 0 2z" fill="#626262"/><path d="M8 12a1 1 0 1 1-2 0a1 1 0 0 1 2 0z" fill="#626262"/><path d="M8 15a1 1 0 1 1-2 0a1 1 0 0 1 2 0z" fill="#626262"/><path d="M7 19a1 1 0 1 0 0-2a1 1 0 0 0 0 2z" fill="#626262"/><path d="M14 16a1 1 0 1 0 0-2a1 1 0 0 0 0 2z" fill="#626262"/><path d="M17 16a1 1 0 1 0 0-2a1 1 0 0 0 0 2z" fill="#626262"/><path d="M17 13a1 1 0 1 0 0-2a1 1 0 0 0 0 2z" fill="#626262"/><path d="M15 12a1 1 0 1 1-2 0a1 1 0 0 1 2 0z" fill="#626262"/><path d="M17 10a1 1 0 1 0 0-2a1 1 0 0 0 0 2z" fill="#626262"/><path d="M15 9a1 1 0 1 1-2 0a1 1 0 0 1 2 0z" fill="#626262"/><path d="M14 5v-.75A2.25 2.25 0 0 0 11.75 2h-6.5A2.25 2.25 0 0 0 3 4.25v16.5c0 .414.336.75.75.75h16.5a.75.75 0 0 0 .75-.75V7.25A2.25 2.25 0 0 0 18.75 5H14zm-9.5-.75a.75.75 0 0 1 .75-.75h6.5a.75.75 0 0 1 .75.75V5h-.25A2.25 2.25 0 0 0 10 7.25V20H4.5V4.25zM14.5 20v-1.5h2V20h-2zm3.5-2.25a.75.75 0 0 0-.75-.75h-3.5a.75.75 0 0 0-.75.75V20h-1.5V7.25a.75.75 0 0 1 .75-.75h6.5a.75.75 0 0 1 .75.75V20H18v-2.25z" fill="#626262"/></g><rect x="0" y="0" width="24" height="24" fill="rgba(0, 0, 0, 0)" /></svg>