<svg xmlns="http://www.w3.org/2000/svg" xmlns:xlink="http://www.w3.org/1999/xlink" width="24" height="24" preserveAspectRatio="xMidYMid meet" viewBox="0 0 24 24" style="-ms-transform: rotate(360deg); -webkit-transform: rotate(360deg); transform: rotate(360deg);"><g fill="none"><path d="M8.5 5.5a1 1 0 1 0 0 2a1 1 0 0 0 0-2z" fill="#626262"/><path d="M7.5 13.5a1 1 0 1 1 2 0a1 1 0 0 1-2 0z" fill="#626262"/><path d="M8.5 9a1 1 0 1 0 0 2a1 1 0 0 0 0-2z" fill="#626262"/><path d="M11 6.5a1 1 0 1 1 2 0a1 1 0 0 1-2 0z" fill="#626262"/><path d="M12 12.5a1 1 0 1 0 0 2a1 1 0 0 0 0-2z" fill="#626262"/><path d="M14.5 13.5a1 1 0 1 1 2 0a1 1 0 0 1-2 0z" fill="#626262"/><path d="M12 9a1 1 0 1 0 0 2a1 1 0 0 0 0-2z" fill="#626262"/><path d="M6.25 2A2.25 2.25 0 0 0 4 4.25v16.5c0 .414.336.75.75.75h14.503a.75.75 0 0 0 .75-.75v-9a2.25 2.25 0 0 0-2.25-2.25H16.5V4.25A2.25 2.25 0 0 0 14.25 2h-8zM5.5 4.25a.75.75 0 0 1 .75-.75h8a.75.75 0 0 1 .75.75v6c0 .414.336.75.75.75h2.003a.75.75 0 0 1 .75.75V20H16.5v-2.75a.75.75 0 0 0-.75-.75h-7.5a.75.75 0 0 0-.75.75V20h-2V4.25zM15 18v2h-2.25v-2H15zm-3.75 0v2H9v-2h2.25z" fill="#626262"/></g><rect x="0" y="0" width="24" height="24" fill="rgba(0, 0, 0, 0)" /></svg>