<svg xmlns="http://www.w3.org/2000/svg" xmlns:xlink="http://www.w3.org/1999/xlink" width="24" height="24" preserveAspectRatio="xMidYMid meet" viewBox="0 0 24 24" style="-ms-transform: rotate(360deg); -webkit-transform: rotate(360deg); transform: rotate(360deg);"><g fill="none"><path d="M2.924 4.129A2.25 2.25 0 0 1 5.171 2h1.158a2.25 2.25 0 0 1 2.246 2.129l.838 15.5A2.25 2.25 0 0 1 7.167 22H4.333a2.25 2.25 0 0 1-2.247-2.371l.838-15.5zM5.171 3.5a.75.75 0 0 0-.749.71l-.838 15.5a.75.75 0 0 0 .75.79h2.833a.75.75 0 0 0 .748-.79l-.837-15.5a.75.75 0 0 0-.75-.71H5.172z" fill="#626262"/><path d="M9.512 22H19.75A2.25 2.25 0 0 0 22 19.75V6a.75.75 0 0 0-1.27-.541l-4.98 4.781V6a.75.75 0 0 0-1.229-.578L9.855 9.284l.101 1.864l4.294-3.554V12a.75.75 0 0 0 1.27.541L20.5 7.76v11.99a.75.75 0 0 1-.75.75h-1V16A1.75 1.75 0 0 0 17 14.25h-4A1.75 1.75 0 0 0 11.25 16v4.5h-.92a3.247 3.247 0 0 1-.818 1.5zm7.738-6v4.25h-4.5V16a.25.25 0 0 1 .25-.25h4a.25.25 0 0 1 .25.25z" fill="#626262"/></g><rect x="0" y="0" width="24" height="24" fill="rgba(0, 0, 0, 0)" /></svg>