<svg xmlns="http://www.w3.org/2000/svg" xmlns:xlink="http://www.w3.org/1999/xlink" width="24" height="24" preserveAspectRatio="xMidYMid meet" viewBox="0 0 24 24" style="-ms-transform: rotate(360deg); -webkit-transform: rotate(360deg); transform: rotate(360deg);"><g fill="none"><path d="M18 2a.75.75 0 0 1 .474.169l.076.07l3.272 3.53l.03.038c.102.136.148.29.148.44L22 8.168c0 .994-.379 1.9-1 2.58V21.25a.75.75 0 0 1-.649.743L20.25 22H3.75a.75.75 0 0 1-.743-.648l-.007-.102V10.748a3.818 3.818 0 0 1-.993-2.353L2 8.167V6.29a.728.728 0 0 1 .096-.408l.065-.095l.04-.046L5.45 2.24a.75.75 0 0 1 .447-.233L6 2h12zm-2.918 8.442l-.012.018A3.827 3.827 0 0 1 11.999 12a3.827 3.827 0 0 1-3.083-1.556A3.825 3.825 0 0 1 5.834 12c-.47 0-.919-.084-1.334-.238v8.738H6v-6.748a.75.75 0 0 1 .648-.743L6.75 13h4.496a.75.75 0 0 1 .743.648l.007.102v6.748h7.502v-8.737a3.827 3.827 0 0 1-4.416-1.32zm-4.587 4.059H7.5v5.998h2.995v-5.998zm6.76-1.5a.75.75 0 0 1 .743.648l.007.102v3.502a.75.75 0 0 1-.649.743l-.101.007h-3.502a.75.75 0 0 1-.743-.648l-.007-.102v-3.502a.75.75 0 0 1 .648-.743l.102-.007h3.502zm-.751 1.5h-2.001v2.002h2v-2.002zM8.166 7.002H3.5v1.165l.006.17l.029.232l.032.156l.05.172l.054.148l.04.094c.032.068.066.134.104.198l.102.162l.055.074l.129.156l.141.144l.097.085l.042.034c.314.25.695.422 1.111.483l.18.019l.16.005c1.235 0 2.246-.959 2.328-2.173l.005-.16V7.003zm6.165 0H9.666v1.165c0 1.18.878 2.157 2.016 2.311l.157.016l.16.005c1.234 0 2.245-.959 2.327-2.173l.005-.16V7.003zm6.167 0h-4.665v1.165c0 1.18.878 2.157 2.017 2.311l.156.016l.16.005c.564 0 1.082-.2 1.485-.534l.09-.078l.116-.113l.146-.17c.054-.069.105-.14.15-.216l.104-.186l.063-.138l.058-.155l.03-.096l.038-.152l.029-.157l.018-.167l.006-.17l-.001-1.165zM9.062 3.499H6.327L4.469 5.502h3.977l.616-2.003zm4.306 0H10.63l-.616 2.003h3.97l-.616-2.003zm4.304 0h-2.735l.617 2.003h3.976l-1.858-2.003z" fill="#626262"/></g><rect x="0" y="0" width="24" height="24" fill="rgba(0, 0, 0, 0)" /></svg>