<svg xmlns="http://www.w3.org/2000/svg" xmlns:xlink="http://www.w3.org/1999/xlink" width="24" height="24" preserveAspectRatio="xMidYMid meet" viewBox="0 0 24 24" style="-ms-transform: rotate(360deg); -webkit-transform: rotate(360deg); transform: rotate(360deg);"><g fill="none"><path d="M15.5 11.75a.75.75 0 0 0-1.5 0v2a.75.75 0 0 0 1.5 0v-2z" fill="#626262"/><path d="M11.75 11a.75.75 0 0 1 .75.75v2a.75.75 0 0 1-1.5 0v-2a.75.75 0 0 1 .75-.75z" fill="#626262"/><path d="M9.5 11.75a.75.75 0 0 0-1.5 0v2a.75.75 0 0 0 1.5 0v-2z" fill="#626262"/><path d="M5.75 15.5a.75.75 0 0 1 .75.75v2.5a.75.75 0 0 1-1.5 0v-2.5a.75.75 0 0 1 .75-.75z" fill="#626262"/><path d="M19 16.25a.75.75 0 0 0-1.5 0v2.5a.75.75 0 0 0 1.5 0v-2.5z" fill="#626262"/><path d="M11.75 2h3.75a.5.5 0 0 1 .5.5v2a.5.5 0 0 1-.5.5h-3v1.018A7 7 0 0 1 19 13h.75A2.25 2.25 0 0 1 22 15.25v6a.75.75 0 0 1-.75.75H2.75a.75.75 0 0 1-.75-.75v-6A2.25 2.25 0 0 1 4.25 13H5a7.002 7.002 0 0 1 6-6.93V2.75a.75.75 0 0 1 .75-.75zM12 7.5A5.5 5.5 0 0 0 6.5 13v.75a.75.75 0 0 1-.75.75h-1.5a.75.75 0 0 0-.75.75v5.25h6v-2.75a.75.75 0 0 1 .75-.75h3.5a.75.75 0 0 1 .75.75v2.75h6v-5.25a.75.75 0 0 0-.75-.75h-1.5a.75.75 0 0 1-.75-.75V13A5.5 5.5 0 0 0 12 7.5zm1 11h-2v2h2v-2z" fill="#626262"/></g><rect x="0" y="0" width="24" height="24" fill="rgba(0, 0, 0, 0)" /></svg>