<svg xmlns="http://www.w3.org/2000/svg" xmlns:xlink="http://www.w3.org/1999/xlink" width="24" height="24" preserveAspectRatio="xMidYMid meet" viewBox="0 0 24 24" style="-ms-transform: rotate(360deg); -webkit-transform: rotate(360deg); transform: rotate(360deg);"><g fill="none"><path d="M6.75 8a.75.75 0 0 0-.75.75v3.5c0 .414.336.75.75.75h10.5a.75.75 0 0 0 .75-.75v-3.5a.75.75 0 0 0-.75-.75H6.75zm.75 3.5v-2h9v2h-9z" fill="#626262"/><path d="M13.75 14a.75.75 0 0 0-.75.75v2.5c0 .414.336.75.75.75h3.5a.75.75 0 0 0 .75-.75v-2.5a.75.75 0 0 0-.75-.75h-3.5zm.75 2.5v-1h2v1h-2z" fill="#626262"/><path d="M4 3a2 2 0 0 0-1 3.732V20.25c0 .414.336.75.75.75h16.5a.75.75 0 0 0 .75-.75V6.732A2 2 0 0 0 20 3H4zm15.5 4v12.5h-8v-4.75a.75.75 0 0 0-.75-.75h-4a.75.75 0 0 0-.75.75v4.75H4.5V7h15zm-16-2a.5.5 0 0 1 .5-.5h16a.5.5 0 0 1 0 1H4a.5.5 0 0 1-.5-.5zM10 19.5H7.5v-4H10v4z" fill="#626262"/></g><rect x="0" y="0" width="24" height="24" fill="rgba(0, 0, 0, 0)" /></svg>