<svg xmlns="http://www.w3.org/2000/svg" xmlns:xlink="http://www.w3.org/1999/xlink" width="24" height="24" preserveAspectRatio="xMidYMid meet" viewBox="0 0 24 24" style="-ms-transform: rotate(360deg); -webkit-transform: rotate(360deg); transform: rotate(360deg);"><g fill="none"><path d="M17.75 3A3.25 3.25 0 0 1 21 6.25v11.5A3.25 3.25 0 0 1 17.75 21H6.25A3.25 3.25 0 0 1 3 17.75V6.25A3.25 3.25 0 0 1 6.25 3h11.5zm0 1.5H6.25A1.75 1.75 0 0 0 4.5 6.25v11.5c0 .966.784 1.75 1.75 1.75h11.5a1.75 1.75 0 0 0 1.75-1.75V6.25a1.75 1.75 0 0 0-1.75-1.75zM7.75 7a.75.75 0 0 1 .743.648l.007.102v1a.75.75 0 0 1-1.493.102L7 8.75v-1A.75.75 0 0 1 7.75 7z" fill="#626262"/><path d="M8.493 15.148A.75.75 0 0 0 7 15.25v1l.007.102A.75.75 0 0 0 8.5 16.25v-1l-.007-.102z" fill="#626262"/><path d="M8.5 11.321a.75.75 0 0 0-1.493.102L7 12.57l.007.102A.75.75 0 0 0 8.5 12.57l.007-1.148l-.007-.102z" fill="#626262"/></g><rect x="0" y="0" width="24" height="24" fill="rgba(0, 0, 0, 0)" /></svg>