<svg xmlns="http://www.w3.org/2000/svg" xmlns:xlink="http://www.w3.org/1999/xlink" width="24" height="24" preserveAspectRatio="xMidYMid meet" viewBox="0 0 24 24" style="-ms-transform: rotate(360deg); -webkit-transform: rotate(360deg); transform: rotate(360deg);"><g fill="none"><path d="M17.75 3A3.25 3.25 0 0 1 21 6.25V11a3.764 3.764 0 0 0-1.5-1.188V8.5h-15v9.25c0 .966.784 1.75 1.75 1.75h5.78c.06.522.217 1.028.458 1.5H6.25A3.25 3.25 0 0 1 3 17.75V6.25A3.25 3.25 0 0 1 6.25 3h11.5zm0 1.5H6.25A1.75 1.75 0 0 0 4.5 6.25V7h15v-.75a1.75 1.75 0 0 0-1.75-1.75z" fill="#626262"/><path d="M23 18.5a1.5 1.5 0 0 0-1.5-1.5h-7a1.5 1.5 0 0 0-1.5 1.5v.5c0 1.971 1.86 4 5 4c3.14 0 5-2.029 5-4v-.5z" fill="#626262"/><path d="M20.75 13.25a2.75 2.75 0 1 0-5.5 0a2.75 2.75 0 0 0 5.5 0z" fill="#626262"/></g><rect x="0" y="0" width="24" height="24" fill="rgba(0, 0, 0, 0)" /></svg>