<svg xmlns="http://www.w3.org/2000/svg" xmlns:xlink="http://www.w3.org/1999/xlink" width="24" height="24" preserveAspectRatio="xMidYMid meet" viewBox="0 0 24 24" style="-ms-transform: rotate(360deg); -webkit-transform: rotate(360deg); transform: rotate(360deg);"><g fill="none"><path d="M2 6.25A2.25 2.25 0 0 1 4.25 4h15.5A2.25 2.25 0 0 1 22 6.25v11.5A2.25 2.25 0 0 1 19.75 20H4.25A2.25 2.25 0 0 1 2 17.75V6.25zm2.25-.75a.75.75 0 0 0-.75.75v11.5c0 .414.336.75.75.75h15.5a.75.75 0 0 0 .75-.75V6.25a.75.75 0 0 0-.75-.75H4.25z" fill="#626262"/><path d="M6.996 15.995a.998.998 0 1 1-1.996 0a.998.998 0 0 1 1.996 0z" fill="#626262"/><path d="M4.996 12.75a.75.75 0 0 1 .75-.75a4.247 4.247 0 0 1 4.247 4.248a.75.75 0 0 1-1.5 0A2.747 2.747 0 0 0 5.746 13.5a.75.75 0 0 1-.75-.75z" fill="#626262"/><path d="M4.996 9.744a.75.75 0 0 1 .75-.75A7.254 7.254 0 0 1 13 16.248a.75.75 0 0 1-1.5 0a5.754 5.754 0 0 0-5.754-5.754a.75.75 0 0 1-.75-.75z" fill="#626262"/></g><rect x="0" y="0" width="24" height="24" fill="rgba(0, 0, 0, 0)" /></svg>