<svg xmlns="http://www.w3.org/2000/svg" xmlns:xlink="http://www.w3.org/1999/xlink" width="24" height="24" preserveAspectRatio="xMidYMid meet" viewBox="0 0 24 24" style="-ms-transform: rotate(360deg); -webkit-transform: rotate(360deg); transform: rotate(360deg);"><g fill="none"><path d="M3.75 17a.75.75 0 0 1 .743.648l.007.102v1.5a.75.75 0 0 1-1.493.102L3 19.25v-1.5a.75.75 0 0 1 .75-.75zm8-6a.75.75 0 0 1 .743.648l.007.102v7.5a.75.75 0 0 1-1.493.102L11 19.25v-7.5a.75.75 0 0 1 .75-.75zm4-3a.75.75 0 0 1 .743.648l.007.102v10.5a.75.75 0 0 1-1.493.102L15 19.25V8.75a.75.75 0 0 1 .75-.75zm3.993-3a.75.75 0 0 1 .75.64l.007.102v13.501a.75.75 0 0 1-1.492.116L19 19.258V5.757A.75.75 0 0 1 19.743 5zM7.75 14a.75.75 0 0 1 .743.648l.007.102v4.499a.75.75 0 0 1-1.493.102L7 19.248V14.75a.75.75 0 0 1 .75-.75z" fill="#626262"/></g><rect x="0" y="0" width="24" height="24" fill="rgba(0, 0, 0, 0)" /></svg>