<svg xmlns="http://www.w3.org/2000/svg" xmlns:xlink="http://www.w3.org/1999/xlink" width="24" height="24" preserveAspectRatio="xMidYMid meet" viewBox="0 0 24 24" style="-ms-transform: rotate(360deg); -webkit-transform: rotate(360deg); transform: rotate(360deg);"><g fill="none"><path d="M3.75 3a.75.75 0 0 1 .75.75v16.5a.75.75 0 0 1-1.5 0V3.75A.75.75 0 0 1 3.75 3z" fill="#626262"/><path d="M20.25 3a.75.75 0 0 0-.75.75v16.5a.75.75 0 0 0 1.5 0V3.75a.75.75 0 0 0-.75-.75z" fill="#626262"/><path d="M14.25 5c.966 0 1.75.784 1.75 1.75v10.5A1.75 1.75 0 0 1 14.25 19h-4.5A1.75 1.75 0 0 1 8 17.25V6.75C8 5.784 8.784 5 9.75 5h4.5zm.25 1.75a.25.25 0 0 0-.25-.25h-4.5a.25.25 0 0 0-.25.25v10.5c0 .138.112.25.25.25h4.5a.25.25 0 0 0 .25-.25V6.75z" fill="#626262"/></g><rect x="0" y="0" width="24" height="24" fill="rgba(0, 0, 0, 0)" /></svg>