<svg xmlns="http://www.w3.org/2000/svg" xmlns:xlink="http://www.w3.org/1999/xlink" width="24" height="24" preserveAspectRatio="xMidYMid meet" viewBox="0 0 24 24" style="-ms-transform: rotate(360deg); -webkit-transform: rotate(360deg); transform: rotate(360deg);"><g fill="none"><path d="M20.25 4.5a.75.75 0 0 0 0-1.5H3.75a.75.75 0 0 0 0 1.5h16.5z" fill="#626262"/><path d="M20.25 21a.75.75 0 0 0 0-1.5H3.75a.75.75 0 0 0 0 1.5h16.5z" fill="#626262"/><path d="M6.75 8A1.75 1.75 0 0 0 5 9.75v4.5c0 .966.784 1.75 1.75 1.75h10.5A1.75 1.75 0 0 0 19 14.25v-4.5A1.75 1.75 0 0 0 17.25 8H6.75zM6.5 9.75a.25.25 0 0 1 .25-.25h10.5a.25.25 0 0 1 .25.25v4.5a.25.25 0 0 1-.25.25H6.75a.25.25 0 0 1-.25-.25v-4.5z" fill="#626262"/></g><rect x="0" y="0" width="24" height="24" fill="rgba(0, 0, 0, 0)" /></svg>