<svg xmlns="http://www.w3.org/2000/svg" xmlns:xlink="http://www.w3.org/1999/xlink" width="24" height="24" preserveAspectRatio="xMidYMid meet" viewBox="0 0 24 24" style="-ms-transform: rotate(360deg); -webkit-transform: rotate(360deg); transform: rotate(360deg);"><g fill="none"><path d="M12 2c5.523 0 10 4.477 10 10c0 .665-.065 1.316-.189 1.944a3.01 3.01 0 0 0-1.32-1.553a8.5 8.5 0 1 0-6.505 7.875V21.5c0 .101.006.201.018.3c-.647.13-1.318.2-2.004.2c-5.523 0-10-4.477-10-10S6.477 2 12 2z" fill="#626262"/><path d="M10.75 13.44l4.47-4.47a.75.75 0 0 1 1.133.976l-.073.084l-5 5a.75.75 0 0 1-.976.073l-.084-.073l-2.5-2.5a.75.75 0 0 1 .976-1.133l.084.073l1.97 1.97z" fill="#626262"/><path d="M19.75 19.5a.75.75 0 1 1-1.5 0a.75.75 0 0 1 1.5 0z" fill="#626262"/><path d="M17 16h-.514a1.5 1.5 0 0 0-1.5 1.5v4a1.5 1.5 0 0 0 1.5 1.5h5a1.5 1.5 0 0 0 1.5-1.5v-4a1.5 1.5 0 0 0-1.5-1.5H21v-1.005a2 2 0 1 0-4 0V16zm1-1.005a1 1 0 1 1 2 0V16h-2v-1.005zM15.986 17.5a.5.5 0 0 1 .5-.5h5a.5.5 0 0 1 .5.5v4a.5.5 0 0 1-.5.5h-5a.5.5 0 0 1-.5-.5v-4z" fill="#626262"/></g><rect x="0" y="0" width="24" height="24" fill="rgba(0, 0, 0, 0)" /></svg>