<svg xmlns="http://www.w3.org/2000/svg" xmlns:xlink="http://www.w3.org/1999/xlink" width="24" height="24" preserveAspectRatio="xMidYMid meet" viewBox="0 0 24 24" style="-ms-transform: rotate(360deg); -webkit-transform: rotate(360deg); transform: rotate(360deg);"><g fill="none"><path d="M16.28 8.72a.75.75 0 0 1 0 1.06l-5 5a.75.75 0 0 1-1.06 0l-2.004-2.004a.75.75 0 1 1 1.06-1.06l1.474 1.473l4.47-4.47a.75.75 0 0 1 1.06 0z" fill="#626262"/><path d="M3.006 5.25A2.25 2.25 0 0 1 5.256 3h13.5a2.25 2.25 0 0 1 2.25 2.25v13.5a2.25 2.25 0 0 1-2.25 2.25h-13.5a2.25 2.25 0 0 1-2.25-2.25V5.25zm2.25-.75a.75.75 0 0 0-.75.75v13.5c0 .414.336.75.75.75h13.5a.75.75 0 0 0 .75-.75V5.25a.75.75 0 0 0-.75-.75h-13.5z" fill="#626262"/></g><rect x="0" y="0" width="24" height="24" fill="rgba(0, 0, 0, 0)" /></svg>