<svg id="b9771151-cbb0-46e5-8b47-c27152627641" data-name="Livello 9" xmlns="http://www.w3.org/2000/svg" viewBox="0 0 24 24">
  <defs>
    <style>
      .a2c9a6b9-e842-43d0-8f34-d40fbbee9d80 {
        opacity: 0;
      }

      .a53553df-8117-45e2-afee-b540240833e0 {
        fill: #626262;
      }
    </style>
  </defs>
  <rect id="f98730ff-bc4d-4f29-a902-3d930d46cf66" data-name="OVERLAY" class="a2c9a6b9-e842-43d0-8f34-d40fbbee9d80" width="24" height="24"/>
  <path class="a53553df-8117-45e2-afee-b540240833e0" d="M16.54,7.28a.75.75,0,0,1-1.06,0L12,3.81,8.54,7.28a.76.76,0,0,1-1.06,0,.75.75,0,0,1,0-1.06l0,0,4-4a.75.75,0,0,1,1.06,0l4,4A.75.75,0,0,1,16.54,7.28Z" transform="translate(0 0)"/>
  <path class="a53553df-8117-45e2-afee-b540240833e0" d="M7.46,16.72a.75.75,0,0,1,1.06,0L12,20.19l3.47-3.47a.75.75,0,0,1,1.06,0,.75.75,0,0,1,0,1.06l0,0-4,4a.75.75,0,0,1-1.06,0l-4-4A.74.74,0,0,1,7.46,16.72Z" transform="translate(0 0)"/>
</svg>
