<svg xmlns="http://www.w3.org/2000/svg" xmlns:xlink="http://www.w3.org/1999/xlink" width="24" height="24" preserveAspectRatio="xMidYMid meet" viewBox="0 0 24 24" style="-ms-transform: rotate(360deg); -webkit-transform: rotate(360deg); transform: rotate(360deg);"><g fill="none"><path d="M12 1.997a.75.75 0 0 1 .75.75V4h2c.966 0 1.75.784 1.75 1.75V11h2.25c.966 0 1.75.784 1.75 1.75v7.5A1.75 1.75 0 0 1 18.75 22H5.25a1.75 1.75 0 0 1-1.75-1.75v-8.429c0-.619.327-1.192.86-1.507L7.5 8.46V5.75C7.5 4.784 8.284 4 9.25 4h2V2.747a.75.75 0 0 1 .75-.75zM9 8.02c.81.12 1.5.806 1.5 1.734V20.5h3v-7.75a1.75 1.75 0 0 1 1.5-1.732V5.75a.25.25 0 0 0-.25-.25h-5.5a.25.25 0 0 0-.25.25V8.02zm6.25 4.481a.25.25 0 0 0-.25.25v7.75h3.75a.25.25 0 0 0 .25-.25v-7.5a.25.25 0 0 0-.25-.25h-3.5zM8.623 9.538l-3.5 2.068A.25.25 0 0 0 5 11.82v8.43c0 .137.112.25.25.25H9V9.752a.25.25 0 0 0-.377-.215z" fill="#626262"/></g><rect x="0" y="0" width="24" height="24" fill="rgba(0, 0, 0, 0)" /></svg>