<svg xmlns="http://www.w3.org/2000/svg" xmlns:xlink="http://www.w3.org/1999/xlink" width="24" height="24" preserveAspectRatio="xMidYMid meet" viewBox="0 0 24 24" style="-ms-transform: rotate(360deg); -webkit-transform: rotate(360deg); transform: rotate(360deg);"><g fill="none"><path d="M15.783 12.22a.75.75 0 0 1-.001 1.06l-2.726 2.722l2.726 2.722a.75.75 0 0 1 .073.977l-.072.084a.75.75 0 0 1-.977.073l-.084-.072l-2.727-2.724l-2.715 2.713a.75.75 0 0 1-1.06-1.061l2.713-2.712l-2.713-2.71a.75.75 0 0 1-.073-.977l.072-.084a.75.75 0 0 1 .977-.073l.084.072l2.715 2.712l2.727-2.723a.75.75 0 0 1 1.06.001zM12 4c3.52 0 5.517 2.273 5.808 5.018h.088c2.266 0 4.102 1.787 4.102 3.991S20.162 17 17.896 17h-2.143a.748.748 0 0 1-.742-.647l-.007-.101c0-.38.282-.692.647-.742l.121-.007h2.124l.169-.005c1.337-.084 2.395-1.166 2.395-2.489c0-1.322-1.058-2.405-2.395-2.49l-.169-.004h-.775l-.101-.007c-.366-.046-.667-.34-.667-.705c0-2.548-2.027-4.338-4.353-4.338c-2.326 0-4.353 1.822-4.353 4.338c0 .366-.3.659-.667.705l-.1.007h-.776l-.169.005c-1.281.08-2.306 1.078-2.39 2.325l-.005.164l.006.164c.083 1.247 1.108 2.244 2.39 2.325l.168.005h2.12v.002l.024-.002c.38 0 .692.282.742.647l.007.102a.749.749 0 0 1-.647.741L8.226 17H6.104c-2.266 0-4.102-1.787-4.102-3.991s1.836-3.991 4.102-3.991h.089C6.485 6.255 8.48 4 12 4z" fill="#626262"/></g><rect x="0" y="0" width="24" height="24" fill="rgba(0, 0, 0, 0)" /></svg>