<svg xmlns="http://www.w3.org/2000/svg" xmlns:xlink="http://www.w3.org/1999/xlink" width="24" height="24" preserveAspectRatio="xMidYMid meet" viewBox="0 0 24 24" style="-ms-transform: rotate(360deg); -webkit-transform: rotate(360deg); transform: rotate(360deg);"><g fill="none"><path d="M11.99 8.002a.75.75 0 0 1 .743.649l.007.101l-.002 9.708l2.657-2.66l.084-.072a.75.75 0 0 1 1.049 1.05l-.073.083l-3.925 3.925l-.084.073a.75.75 0 0 1-.882.007l-.094-.08l-3.925-3.925l-.073-.084a.75.75 0 0 1-.007-.882l.08-.094l.084-.073a.75.75 0 0 1 .882-.007l.094.08l2.636 2.636l-.001-9.685a.75.75 0 0 1 .75-.75zM11.75 2a6.005 6.005 0 0 1 5.689 4.086l.105-.004a3.96 3.96 0 0 1 0 7.92h-2.797a.75.75 0 0 1 0-1.5h2.797a2.46 2.46 0 1 0-.507-4.868a.75.75 0 0 1-.86-.483l-.028-.104l-.048-.203A4.504 4.504 0 0 0 7.4 6.842l-.045.187l-.002.02a.749.749 0 0 1-.411.524l-.099.038l-.041.012l-.061.013a.639.639 0 0 1-.074.009h-.1l-.102-.015a2.462 2.462 0 1 0-.664 4.867l.162.005h2.79a.75.75 0 0 1 .101 1.493l-.102.007h-2.79a3.962 3.962 0 0 1 0-7.923l.102.001A6.004 6.004 0 0 1 11.75 2z" fill="#626262"/></g><rect x="0" y="0" width="24" height="24" fill="rgba(0, 0, 0, 0)" /></svg>