<svg xmlns="http://www.w3.org/2000/svg" xmlns:xlink="http://www.w3.org/1999/xlink" width="24" height="24" preserveAspectRatio="xMidYMid meet" viewBox="0 0 24 24" style="-ms-transform: rotate(360deg); -webkit-transform: rotate(360deg); transform: rotate(360deg);"><g fill="none"><path d="M16.195 12.186a.69.69 0 0 1 .943 0a.615.615 0 0 1 .07.822l-.07.078l-6 5.728a.69.69 0 0 1-.933.009l-.072-.078l-2-2.545a.618.618 0 0 1 .134-.89a.69.69 0 0 1 .861.049l.072.077l1.539 1.959l5.456-5.209zM12 4c3.52 0 5.517 2.273 5.808 5.018h.088c2.266 0 4.102 1.787 4.102 3.991S20.162 17 17.896 17h-3.411l1.568-1.497h1.843l.169-.005c1.337-.084 2.395-1.166 2.395-2.489c0-1.322-1.058-2.405-2.395-2.49l-.169-.004h-.775l-.101-.007c-.366-.046-.667-.34-.667-.705c0-2.548-2.027-4.338-4.353-4.338c-2.326 0-4.353 1.822-4.353 4.338c0 .366-.3.659-.667.705l-.1.007h-.776l-.169.005c-1.281.08-2.306 1.078-2.39 2.325l-.005.164l.006.164c.083 1.247 1.108 2.244 2.39 2.325l.168.005h.927c-.089.445.01.925.316 1.315l.144.182H6.104c-2.266 0-4.102-1.787-4.102-3.991s1.836-3.991 4.102-3.991h.089C6.485 6.255 8.48 4 12 4z" fill="#626262"/></g><rect x="0" y="0" width="24" height="24" fill="rgba(0, 0, 0, 0)" /></svg>