<svg xmlns="http://www.w3.org/2000/svg" xmlns:xlink="http://www.w3.org/1999/xlink" width="24" height="24" preserveAspectRatio="xMidYMid meet" viewBox="0 0 24 24" style="-ms-transform: rotate(360deg); -webkit-transform: rotate(360deg); transform: rotate(360deg);"><g fill="none"><path d="M12.446 8.15l.084.072l3.925 3.925a.75.75 0 0 1-.976 1.133l-.084-.072l-2.657-2.66l.002 9.708a.75.75 0 0 1-1.5 0v-9.685l-2.635 2.637a.75.75 0 0 1-.976.072l-.084-.072a.75.75 0 0 1-.073-.977l.073-.084l3.925-3.925a.75.75 0 0 1 .976-.073zM12 4c3.52 0 5.517 2.273 5.808 5.018h.088c2.266 0 4.102 1.787 4.102 3.991S20.162 17 17.896 17h-3.155l-.094-.007a.749.749 0 0 1 0-1.483l.101-.007h3.148l.169-.005c1.337-.084 2.395-1.166 2.395-2.489c0-1.322-1.058-2.405-2.395-2.49l-.169-.004h-.775l-.101-.007c-.366-.046-.667-.34-.667-.705c0-2.548-2.027-4.338-4.353-4.338c-2.326 0-4.353 1.822-4.353 4.338c0 .366-.3.659-.667.705l-.1.007h-.776l-.169.005c-1.281.08-2.306 1.078-2.39 2.325l-.005.164l.006.164c.083 1.247 1.108 2.244 2.39 2.325l.168.005l3.138.001a.75.75 0 0 1 .751.646l.007.102a.749.749 0 0 1-.647.741l-.11.007h-3.14c-2.265 0-4.101-1.787-4.101-3.991s1.836-3.991 4.102-3.991h.089C6.485 6.255 8.48 4 12 4z" fill="#626262"/></g><rect x="0" y="0" width="24" height="24" fill="rgba(0, 0, 0, 0)" /></svg>