<svg xmlns="http://www.w3.org/2000/svg" xmlns:xlink="http://www.w3.org/1999/xlink" width="24" height="24" preserveAspectRatio="xMidYMid meet" viewBox="0 0 24 24" style="-ms-transform: rotate(360deg); -webkit-transform: rotate(360deg); transform: rotate(360deg);"><g fill="none"><path d="M6.087 10.75a5.752 5.752 0 0 1 11.326 0h.087a4 4 0 0 1 0 8H6a4 4 0 0 1 0-8h.087zM11.75 7.5a4.25 4.25 0 0 0-4.245 4.037a.75.75 0 0 1-.749.713H6a2.5 2.5 0 0 0 0 5h11.5a2.5 2.5 0 0 0 0-5h-.756a.75.75 0 0 1-.75-.713A4.25 4.25 0 0 0 11.75 7.5z" fill="#626262"/></g><rect x="0" y="0" width="24" height="24" fill="rgba(0, 0, 0, 0)" /></svg>