<svg xmlns="http://www.w3.org/2000/svg" xmlns:xlink="http://www.w3.org/1999/xlink" width="24" height="24" preserveAspectRatio="xMidYMid meet" viewBox="0 0 24 24" style="-ms-transform: rotate(360deg); -webkit-transform: rotate(360deg); transform: rotate(360deg);"><g fill="none"><path d="M13.856 8.537a2.99 2.99 0 0 0-.878-2.115l-.922-.922H19.5a1 1 0 0 1 1 1v11a1 1 0 0 1-1 1h-15a1 1 0 0 1-1-1v-3.585l.992.992a3 3 0 0 0 4.243 0l1.274-1.274c.122 1.76 1.483 3.367 3.49 3.367c2.107 0 3.5-1.768 3.5-3.625c0-.693-.213-1.32-.432-1.798a7.982 7.982 0 0 0-.77-1.3c-.263-.366-.521-.675-.713-.891l-.008-.01l-.326-.35l-.013-.013c-.25-.251-.558-.41-.88-.476z" fill="#626262"/></g><rect x="0" y="0" width="24" height="24" fill="rgba(0, 0, 0, 0)" /></svg>