<svg xmlns="http://www.w3.org/2000/svg" xmlns:xlink="http://www.w3.org/1999/xlink" width="24" height="24" preserveAspectRatio="xMidYMid meet" viewBox="0 0 24 24" style="-ms-transform: rotate(360deg); -webkit-transform: rotate(360deg); transform: rotate(360deg);"><g fill="none"><path d="M12 4.5a8.5 8.5 0 0 0-6.016 14.505a.75.75 0 0 1-1.061 1.06A9.971 9.971 0 0 1 2 13C2 7.477 6.477 3 12 3s10 4.477 10 10a9.971 9.971 0 0 1-2.923 7.065a.75.75 0 0 1-1.061-1.06A8.5 8.5 0 0 0 12 4.5z" fill="#626262"/><path d="M12 8a5 5 0 0 0-3.534 8.537a.75.75 0 0 1-1.06 1.061a6.5 6.5 0 1 1 9.188 0a.75.75 0 0 1-1.06-1.06A5 5 0 0 0 12 8z" fill="#626262"/><path d="M12 10.5a2.5 2.5 0 1 0 0 5a2.5 2.5 0 0 0 0-5zM11 13a1 1 0 1 1 2 0a1 1 0 0 1-2 0z" fill="#626262"/></g><rect x="0" y="0" width="24" height="24" fill="rgba(0, 0, 0, 0)" /></svg>