<svg xmlns="http://www.w3.org/2000/svg" xmlns:xlink="http://www.w3.org/1999/xlink" width="24" height="24" preserveAspectRatio="xMidYMid meet" viewBox="0 0 24 24" style="-ms-transform: rotate(360deg); -webkit-transform: rotate(360deg); transform: rotate(360deg);"><g fill="none"><path d="M12 3a2 2 0 0 1 2-2h7a2 2 0 0 1 2 2v6a2 2 0 0 1-2 2h-7a2 2 0 0 1-2-2V3zm2.5 1a.5.5 0 0 0 0 1h6a.5.5 0 0 0 0-1h-6zm0 3a.5.5 0 0 0 0 1h6a.5.5 0 0 0 0-1h-6zM5.25 3H11v1.5H5.25A1.75 1.75 0 0 0 3.5 6.25v8.5c0 .966.784 1.75 1.75 1.75h2.249v3.75l5.015-3.75h6.236a1.75 1.75 0 0 0 1.75-1.75V12h.5c.35 0 .687-.06 1-.17v2.92A3.25 3.25 0 0 1 18.75 18h-5.738L8 21.75a1.25 1.25 0 0 1-1.999-1V18h-.75A3.25 3.25 0 0 1 2 14.75v-8.5A3.25 3.25 0 0 1 5.25 3z" fill="#626262"/></g><rect x="0" y="0" width="24" height="24" fill="rgba(0, 0, 0, 0)" /></svg>