<svg xmlns="http://www.w3.org/2000/svg" xmlns:xlink="http://www.w3.org/1999/xlink" width="24" height="24" preserveAspectRatio="xMidYMid meet" viewBox="0 0 24 24" style="-ms-transform: rotate(360deg); -webkit-transform: rotate(360deg); transform: rotate(360deg);"><g fill="none"><path d="M8.25 4a.75.75 0 0 1 .743.648L9 4.75v2.773l1.874 2.815a.75.75 0 0 1 .117.306l.009.11v4.496a.75.75 0 0 1-.649.743L10.25 16H8.996v3.254a.75.75 0 0 1-1.492.101l-.007-.101L7.496 16L5.5 15.999v3.258a.75.75 0 0 1-1.493.101l-.006-.101L4 15.999L2.75 16a.75.75 0 0 1-.742-.648l-.007-.102v-4.496a.75.75 0 0 1 .071-.32l.055-.096l1.874-2.815V4.75a.75.75 0 0 1 1.493-.102l.007.102v3a.75.75 0 0 1-.072.32l-.054.096l-1.874 2.815V14.5H9.5v-3.52L7.625 8.167a.75.75 0 0 1-.117-.306L7.5 7.75v-3A.75.75 0 0 1 8.25 4zm7.004.001h4.496a.75.75 0 0 1 .743.649l.007.101L20.499 8h.75a.75.75 0 0 1 .744.648L22 8.75v4.496c0 .111-.025.22-.072.32l-.054.096L20 16.477v2.773a.75.75 0 0 1-1.494.102l-.006-.102v-3c0-.11.024-.22.071-.32l.054-.096L20.5 13.02V9.5h-5.998v3.52l1.874 2.814a.749.749 0 0 1 .118.306l.008.11v3a.75.75 0 0 1-1.493.102l-.007-.102v-2.773l-1.874-2.815a.75.75 0 0 1-.118-.306l-.008-.11V8.75a.75.75 0 0 1 .648-.743L13.752 8h.752V4.751a.75.75 0 0 1 .649-.743l.101-.007h4.496h-4.496zM19 5.501h-2.996V8h2.995V5.501z" fill="#626262"/></g><rect x="0" y="0" width="24" height="24" fill="rgba(0, 0, 0, 0)" /></svg>