<svg xmlns="http://www.w3.org/2000/svg" xmlns:xlink="http://www.w3.org/1999/xlink" width="24" height="24" preserveAspectRatio="xMidYMid meet" viewBox="0 0 24 24" style="-ms-transform: rotate(360deg); -webkit-transform: rotate(360deg); transform: rotate(360deg);"><g fill="none"><path d="M17.935 3.005L17.75 3H6.25l-.184.005A3.25 3.25 0 0 0 2.999 6.25v11.5l.005.184A3.25 3.25 0 0 0 6.25 21h5.772a6.471 6.471 0 0 1-.708-1.5H6.25l-.144-.006A1.75 1.75 0 0 1 4.5 17.75L4.5 8H19.5v3.313a6.468 6.468 0 0 1 1.501.71V6.25l-.005-.184a3.25 3.25 0 0 0-3.06-3.06zM6.25 4.5h11.5c.966 0 1.75.784 1.75 1.75v.25h-15v-.25c0-.966.784-1.75 1.75-1.75z" fill="#626262"/><path d="M10.992 10.148a.75.75 0 0 0-.743-.648h-3.5l-.102.007A.75.75 0 0 0 6 10.25v7l.007.102a.75.75 0 0 0 .743.648h3.5l.102-.007a.75.75 0 0 0 .648-.743v-7l-.007-.102zM7.5 11h2v5.5h-2V11z" fill="#626262"/><path d="M17.249 9.5a.75.75 0 0 1 .102 1.493l-.102.007h-4.496a.75.75 0 0 1-.101-1.493l.101-.007h4.496z" fill="#626262"/><path d="M12.947 16.059l-.447-.43c.2-.574.49-1.103.853-1.57l.601.178a2 2 0 0 0 2.511-1.45l.173-.715a5.176 5.176 0 0 1 1.723 0l.173.716a2 2 0 0 0 2.51 1.449l.603-.178c.362.467.652.996.852 1.57l-.447.43a2 2 0 0 0 0 2.882l.447.43c-.2.574-.49 1.103-.852 1.57l-.602-.178a2 2 0 0 0-2.511 1.45l-.173.715a5.175 5.175 0 0 1-1.723 0l-.173-.716a2 2 0 0 0-2.51-1.449l-.602.178a5.544 5.544 0 0 1-.853-1.57l.447-.43a2 2 0 0 0 0-2.882zm6.002 1.441c0-.828-.649-1.5-1.45-1.5c-.8 0-1.45.672-1.45 1.5S16.7 19 17.5 19c.801 0 1.45-.672 1.45-1.5z" fill="#626262"/></g><rect x="0" y="0" width="24" height="24" fill="rgba(0, 0, 0, 0)" /></svg>