<svg xmlns="http://www.w3.org/2000/svg" xmlns:xlink="http://www.w3.org/1999/xlink" width="24" height="24" preserveAspectRatio="xMidYMid meet" viewBox="0 0 24 24" style="-ms-transform: rotate(360deg); -webkit-transform: rotate(360deg); transform: rotate(360deg);"><g fill="none"><path d="M5.25 3.5A1.75 1.75 0 0 0 3.5 5.25v3a.75.75 0 0 1-1.5 0v-3A3.25 3.25 0 0 1 5.25 2h3a.75.75 0 0 1 0 1.5h-3zm0 17a1.75 1.75 0 0 1-1.75-1.75v-3a.75.75 0 0 0-1.5 0v3A3.25 3.25 0 0 0 5.25 22h3a.75.75 0 0 0 0-1.5h-3zM20.5 5.25a1.75 1.75 0 0 0-1.75-1.75h-3a.75.75 0 0 1 0-1.5h3A3.25 3.25 0 0 1 22 5.25v3a.75.75 0 0 1-1.5 0v-3zM18.75 20.5a1.75 1.75 0 0 0 1.75-1.75v-3a.75.75 0 0 1 1.5 0v3A3.25 3.25 0 0 1 18.75 22h-3a.75.75 0 0 1 0-1.5h3zM7.75 6a.75.75 0 0 0-.75.75V8a.75.75 0 0 0 1.5 0v-.5h2.75v9h-1.5a.75.75 0 0 0 0 1.5h4.5a.75.75 0 0 0 0-1.5h-1.5v-9h2.75V8A.75.75 0 0 0 17 8V6.75a.75.75 0 0 0-.75-.75h-8.5z" fill="#626262"/></g><rect x="0" y="0" width="24" height="24" fill="rgba(0, 0, 0, 0)" /></svg>