<svg xmlns="http://www.w3.org/2000/svg" xmlns:xlink="http://www.w3.org/1999/xlink" width="24" height="24" preserveAspectRatio="xMidYMid meet" viewBox="0 0 24 24" style="-ms-transform: rotate(360deg); -webkit-transform: rotate(360deg); transform: rotate(360deg);"><g fill="none"><path d="M10.591 2.512a3.75 3.75 0 0 1 2.818 0l7.498 3.04A1.75 1.75 0 0 1 22 7.172v5.635a6.523 6.523 0 0 0-1.5-1.077V7.173a.25.25 0 0 0-.156-.232l-7.499-3.04a2.25 2.25 0 0 0-1.69 0l-7.499 3.04a.25.25 0 0 0-.156.232v9.651a.25.25 0 0 0 .156.232l7.499 3.04c.144.058.292.1.443.128c.251.543.575 1.045.96 1.495a3.75 3.75 0 0 1-1.967-.234l-7.498-3.039A1.75 1.75 0 0 1 2 16.824V7.173a1.75 1.75 0 0 1 1.093-1.622l7.498-3.04zm2.159 8.246v2.303a6.49 6.49 0 0 0-1.5 2.646v-4.949L6.484 8.95a.75.75 0 1 1 .532-1.402L12 9.438l4.984-1.89a.75.75 0 0 1 .532 1.402l-4.766 1.808zM23 17.498a5.5 5.5 0 1 1-11 0a5.5 5.5 0 0 1 11 0zm-8.5-3.5a.5.5 0 0 0-.5.5v2a.5.5 0 0 0 .5.5h2a.5.5 0 1 0 0-1h-1c.456-.608 1.183-1 2-1c.833 0 1.572.408 2.027 1.036a.5.5 0 0 0 .81-.586a3.496 3.496 0 0 0-2.837-1.45a3.49 3.49 0 0 0-2.5 1.05v-.55a.5.5 0 0 0-.5-.5zm5.5 5.949v.55a.5.5 0 0 0 1 0v-2a.5.5 0 0 0-.5-.5h-2a.5.5 0 1 0 0 1h1c-.456.609-1.183 1-2 1a2.494 2.494 0 0 1-1.911-.887a.5.5 0 1 0-.764.645a3.494 3.494 0 0 0 2.675 1.242a3.49 3.49 0 0 0 2.5-1.05z" fill="#626262"/></g><rect x="0" y="0" width="24" height="24" fill="rgba(0, 0, 0, 0)" /></svg>