<svg xmlns="http://www.w3.org/2000/svg" xmlns:xlink="http://www.w3.org/1999/xlink" width="24" height="24" preserveAspectRatio="xMidYMid meet" viewBox="0 0 24 24" style="-ms-transform: rotate(360deg); -webkit-transform: rotate(360deg); transform: rotate(360deg);"><g fill="none"><path d="M3 3.75a.75.75 0 0 1 1.5 0v6.258l3.65-1.922a.75.75 0 0 1 .73.018l3.82 2.246l5.6-4.2a.75.75 0 0 1 1.2.6V19.5h.75a.75.75 0 0 1 0 1.5H3.75a.75.75 0 0 1-.75-.75v-8.986a.76.76 0 0 1 0-.027V3.75zm1.5 7.953V19.5H18V8.25l-4.8 3.6a.75.75 0 0 1-.83.046L8.48 9.608L4.5 11.703z" fill="#626262"/></g><rect x="0" y="0" width="24" height="24" fill="rgba(0, 0, 0, 0)" /></svg>