<svg xmlns="http://www.w3.org/2000/svg" xmlns:xlink="http://www.w3.org/1999/xlink" width="24" height="24" preserveAspectRatio="xMidYMid meet" viewBox="0 0 24 24" style="-ms-transform: rotate(360deg); -webkit-transform: rotate(360deg); transform: rotate(360deg);"><g fill="none"><path d="M2 3.75A.75.75 0 0 1 2.75 3h6.5a2.25 2.25 0 0 1 2.25 2.25V11h6.25A2.25 2.25 0 0 1 20 13.25v6.25h1.25a.75.75 0 0 1 0 1.5h-6.5a2.25 2.25 0 0 1-2.25-2.25V12.5H6.25A2.25 2.25 0 0 1 4 10.25V4.5H2.75A.75.75 0 0 1 2 3.75zM18.5 19.5v-6.25a.75.75 0 0 0-.75-.75H14v6.25c0 .414.336.75.75.75h3.75zM10 5.25a.75.75 0 0 0-.75-.75H5.5v5.75c0 .414.336.75.75.75H10V5.25z" fill="#626262"/></g><rect x="0" y="0" width="24" height="24" fill="rgba(0, 0, 0, 0)" /></svg>