<svg xmlns="http://www.w3.org/2000/svg" xmlns:xlink="http://www.w3.org/1999/xlink" width="24" height="24" preserveAspectRatio="xMidYMid meet" viewBox="0 0 24 24" style="-ms-transform: rotate(360deg); -webkit-transform: rotate(360deg); transform: rotate(360deg);"><g fill="none"><path d="M3 3.75a.75.75 0 0 1 1.5 0V19.5h15.75a.75.75 0 0 1 0 1.5H3.75a.75.75 0 0 1-.75-.75V3.75z" fill="#626262"/><path d="M17 4a3 3 0 1 0 0 6a3 3 0 0 0 0-6zm-1.5 3a1.5 1.5 0 1 1 3 0a1.5 1.5 0 0 1-3 0z" fill="#626262"/><path d="M6 9a3 3 0 1 1 6 0a3 3 0 0 1-6 0zm3-1.5a1.5 1.5 0 1 0 0 3a1.5 1.5 0 0 0 0-3z" fill="#626262"/><path d="M15 12a3 3 0 1 0 0 6a3 3 0 0 0 0-6zm-1.5 3a1.5 1.5 0 1 1 3 0a1.5 1.5 0 0 1-3 0z" fill="#626262"/></g><rect x="0" y="0" width="24" height="24" fill="rgba(0, 0, 0, 0)" /></svg>