<svg xmlns="http://www.w3.org/2000/svg" xmlns:xlink="http://www.w3.org/1999/xlink" width="24" height="24" preserveAspectRatio="xMidYMid meet" viewBox="0 0 24 24" style="-ms-transform: rotate(360deg); -webkit-transform: rotate(360deg); transform: rotate(360deg);"><g fill="none"><path d="M21 18.251a2.249 2.249 0 0 0-2.25-2.249H5.25a2.249 2.249 0 1 0 0 4.498h13.5A2.249 2.249 0 0 0 21 18.251zm-4-6.5a2.249 2.249 0 0 0-2.25-2.249h-9.5a2.25 2.25 0 1 0 0 4.498h9.5A2.249 2.249 0 0 0 17 11.751zm-4-6.5a2.25 2.25 0 0 0-2.25-2.25l-5.5.001a2.25 2.25 0 0 0 0 4.498h5.5A2.25 2.25 0 0 0 13 5.251zm6.5 13a.75.75 0 0 1-.75.75H5.25a.75.75 0 0 1 0-1.499h13.5c.415 0 .75.335.75.749zm-4-6.5a.75.75 0 0 1-.75.75h-9.5a.75.75 0 0 1 0-1.499h9.5c.415 0 .75.335.75.749zm-4-6.5a.75.75 0 0 1-.75.75h-5.5a.75.75 0 0 1 0-1.5h5.5a.75.75 0 0 1 .75.75z" fill="#626262"/></g><rect x="0" y="0" width="24" height="24" fill="rgba(0, 0, 0, 0)" /></svg>