<svg xmlns="http://www.w3.org/2000/svg" xmlns:xlink="http://www.w3.org/1999/xlink" width="24" height="24" preserveAspectRatio="xMidYMid meet" viewBox="0 0 24 24" style="-ms-transform: rotate(360deg); -webkit-transform: rotate(360deg); transform: rotate(360deg);"><g fill="none"><path d="M15.494 4.249a.82.82 0 0 1-.494-.74c0-.52.507-.892.986-.684a10.037 10.037 0 0 1 5.188 5.189c.208.478-.163.986-.684.986a.82.82 0 0 1-.739-.494a8.533 8.533 0 0 0-4.257-4.257z" fill="#626262"/><path d="M9 3.51c0-.522-.507-.893-.986-.685a10.037 10.037 0 0 0-5.188 5.189c-.208.478.163.986.684.986a.82.82 0 0 0 .739-.494a8.532 8.532 0 0 1 4.257-4.257a.82.82 0 0 0 .494-.74z" fill="#626262"/><path d="M15.494 19.75a.82.82 0 0 0-.494.74c0 .521.507.892.986.684a10.037 10.037 0 0 0 5.188-5.189c.208-.478-.163-.985-.684-.985a.82.82 0 0 0-.739.493a8.533 8.533 0 0 1-4.257 4.258z" fill="#626262"/><path d="M3.51 15c.322 0 .607.2.739.493a8.533 8.533 0 0 0 4.257 4.258a.82.82 0 0 1 .494.738c0 .522-.507.893-.986.685a10.037 10.037 0 0 1-5.188-5.189c-.208-.478.163-.985.684-.985z" fill="#626262"/><path d="M12 6.5c-.193 0-.384.01-.572.029a.75.75 0 1 1-.154-1.492a7.002 7.002 0 0 1 7.552 5.406a.75.75 0 1 1-1.463.332A5.502 5.502 0 0 0 12 6.5z" fill="#626262"/><path d="M9.121 6.4a.75.75 0 0 1-.2 1.042A5.494 5.494 0 0 0 6.5 12c0 1.142.347 2.2.942 3.08a.75.75 0 0 1-1.242.84A6.971 6.971 0 0 1 5 12a6.994 6.994 0 0 1 3.08-5.8a.75.75 0 0 1 1.041.2z" fill="#626262"/><path d="M18.23 12.905c.4.107.637.519.53.919A7.003 7.003 0 0 1 8.75 18.2a.75.75 0 0 1 .697-1.328a5.503 5.503 0 0 0 7.864-3.44a.75.75 0 0 1 .92-.528z" fill="#626262"/><path d="M12 8a4 4 0 1 0 0 8a4 4 0 0 0 0-8zm-2.5 4a2.5 2.5 0 1 1 5 0a2.5 2.5 0 0 1-5 0z" fill="#626262"/></g><rect x="0" y="0" width="24" height="24" fill="rgba(0, 0, 0, 0)" /></svg>