<svg xmlns="http://www.w3.org/2000/svg" xmlns:xlink="http://www.w3.org/1999/xlink" width="24" height="24" preserveAspectRatio="xMidYMid meet" viewBox="0 0 24 24" style="-ms-transform: rotate(360deg); -webkit-transform: rotate(360deg); transform: rotate(360deg);"><g fill="none"><path d="M5.75 3a2.25 2.25 0 0 1 2.248 2.25v13.5a2.25 2.25 0 1 1-4.498 0V5.25A2.25 2.25 0 0 1 5.75 3zm6.5 4a2.25 2.25 0 0 1 2.248 2.25v9.5a2.25 2.25 0 1 1-4.498 0v-9.5A2.25 2.25 0 0 1 12.25 7zm6.5 4a2.25 2.25 0 0 1 2.248 2.25v5.5a2.25 2.25 0 1 1-4.498 0v-5.5A2.249 2.249 0 0 1 18.75 11zm-13-6.5a.75.75 0 0 0-.75.75v13.5a.75.75 0 0 0 1.498 0V5.25a.75.75 0 0 0-.749-.75zm6.5 4a.75.75 0 0 0-.75.75v9.5a.75.75 0 0 0 1.498 0v-9.5a.75.75 0 0 0-.749-.75zm6.5 4a.75.75 0 0 0-.75.75v5.5a.75.75 0 0 0 1.498 0v-5.5a.75.75 0 0 0-.749-.75z" fill="#626262"/></g><rect x="0" y="0" width="24" height="24" fill="rgba(0, 0, 0, 0)" /></svg>