<svg xmlns="http://www.w3.org/2000/svg" xmlns:xlink="http://www.w3.org/1999/xlink" width="24" height="24" preserveAspectRatio="xMidYMid meet" viewBox="0 0 24 24" style="-ms-transform: rotate(360deg); -webkit-transform: rotate(360deg); transform: rotate(360deg);"><g fill="none"><path d="M22.002 4.752a2.752 2.752 0 0 1-2.752 2.752H4.752a2.752 2.752 0 1 1 0-5.504H19.25a2.752 2.752 0 0 1 2.752 2.752zm-2 7a2.752 2.752 0 0 1-2.752 2.752H6.752a2.752 2.752 0 1 1 0-5.504H17.25a2.752 2.752 0 0 1 2.752 2.752zm-3 7a2.752 2.752 0 0 1-2.752 2.752H9.752a2.752 2.752 0 1 1 0-5.504h4.498a2.752 2.752 0 0 1 2.752 2.752zm3.5-14c0-.692-.56-1.252-1.252-1.252H4.752a1.252 1.252 0 1 0 0 2.504H19.25c.692 0 1.252-.56 1.252-1.252zm-2 7c0-.692-.56-1.252-1.252-1.252H6.752a1.252 1.252 0 0 0 0 2.504H17.25c.692 0 1.252-.56 1.252-1.252zm-3 7c0-.691-.56-1.252-1.252-1.252H9.752a1.252 1.252 0 0 0 0 2.504h4.498c.691 0 1.252-.56 1.252-1.252z" fill="#626262"/></g><rect x="0" y="0" width="24" height="24" fill="rgba(0, 0, 0, 0)" /></svg>