<svg xmlns="http://www.w3.org/2000/svg" viewBox="0 0 24 24">
  <defs>
    <style>
      .efd9723f-b266-4f32-afb5-38b1254a5d2f {
        opacity: 0;
      }

      .a8c9ab37-b74e-42d2-9aeb-1a3a1f887b19 {
        fill: #626262;
      }
    </style>
  </defs>
  <g id="f5b34873-df69-4426-8538-ca508672db72" data-name="BOX">
    <rect id="ef809b74-3749-44d8-938f-ec45c94bf4f2" data-name="OVERLAY" class="efd9723f-b266-4f32-afb5-38b1254a5d2f" width="24" height="24"/>
  </g>
  <g id="b21f0718-74ab-4f14-a624-1412f2b9732d" data-name="Livello 9">
    <g>
      <path class="a8c9ab37-b74e-42d2-9aeb-1a3a1f887b19" d="M21.84,20.77l-3.23-3.23h0l-1.39-1.39h0L14.47,13.4h0L13,11.9h0l-2-2h0l-.83-.84h0L7.54,6.47h0L6.06,5H6L3.25,2.18a.75.75,0,0,0-1.11,1L3.91,5H3.63A.77.77,0,0,0,3,5.72v.1a.75.75,0,0,0,.69.65h.6l1.31,13.2v.18A2.64,2.64,0,0,0,8.27,22h7.55a2.69,2.69,0,0,0,2.58-2.35l0-.2,2.35,2.36a.76.76,0,0,0,1.07-1.07Zm-4.95-1.28v.12a1.18,1.18,0,0,1-1.25.92H8.14a1.14,1.14,0,0,1-1.09-1L5.82,6.88l3.66,3.66v6.9a.75.75,0,0,0,1.49-.1V12l2,2v3.4a.75.75,0,0,0,1.49-.1V15.53L17,18.09Z" transform="translate(0 0)"/>
      <path class="a8c9ab37-b74e-42d2-9aeb-1a3a1f887b19" d="M18.18,6.47l-.76,7.73,1.38,1.39.88-9.13h.71A.74.74,0,0,0,21,5.74.76.76,0,0,0,20.28,5H15.22V4.72A3,3,0,0,0,12,2h-.26a3,3,0,0,0-3,3H8.19l1.5,1.5ZM10.24,4.82h0A1.55,1.55,0,0,1,12,3.47h.18A1.55,1.55,0,0,1,13.74,5h-3.5Z" transform="translate(0 0)"/>
      <path class="a8c9ab37-b74e-42d2-9aeb-1a3a1f887b19" d="M13,9.77l1.49,1.49V9.68A.75.75,0,0,0,13.73,9,.77.77,0,0,0,13,9.77Z" transform="translate(0 0)"/>
    </g>
  </g>
</svg>
