<svg xmlns="http://www.w3.org/2000/svg" viewBox="0 0 24 24">
  <defs>
    <style>
      .ff4b9263-59ad-476c-ae2a-bad3a4ec8019 {
        opacity: 0;
      }

      .bb30978e-ce3e-42e5-9d0f-2357a5e20e39 {
        fill: #626262;
      }
    </style>
  </defs>
  <g id="ac8407eb-5fca-47e2-9994-27b0ffe9455f" data-name="BOX">
    <rect id="e93d01c4-fc69-4c77-9a20-33f68df80ecc" data-name="OVERLAY" class="ff4b9263-59ad-476c-ae2a-bad3a4ec8019" width="24" height="24"/>
  </g>
  <g id="b2cfe6e7-757b-44b9-9f80-0a51e6f5d62e" data-name="Livello 10">
    <path class="bb30978e-ce3e-42e5-9d0f-2357a5e20e39" d="M12,1.94a3,3,0,0,1,3.24,2.81v.19h5.06a.75.75,0,0,1,.11,1.49H19.7L18.42,19.65A2.7,2.7,0,0,1,15.84,22H8.29A2.65,2.65,0,0,1,5.6,19.82l0-.18L4.29,6.44h-.6A.75.75,0,0,1,3,5.79v-.1a.76.76,0,0,1,.65-.75H8.75A3,3,0,0,1,12,1.94Zm6.2,4.5H5.8L7.07,19.5a1.15,1.15,0,0,0,1.09,1h7.5a1.2,1.2,0,0,0,1.25-.92l0-.12L18.2,6.44ZM13.75,9a.75.75,0,0,1,.74.65v7.66a.75.75,0,0,1-1.49.1V9.75A.76.76,0,0,1,13.75,9Zm-3.5,0a.75.75,0,0,1,.74.65v7.66a.75.75,0,0,1-1.49.1V9.75A.76.76,0,0,1,10.25,9ZM12,3.44a1.55,1.55,0,0,0-1.74,1.35v.15h3.5A1.55,1.55,0,0,0,12,3.44Z" transform="translate(0 0)"/>
  </g>
</svg>
