<svg xmlns="http://www.w3.org/2000/svg" viewBox="0 0 24 24">
  <defs>
    <style>
      .e4bdf832-76e1-4f1c-ae27-86cf954bb680 {
        opacity: 0;
      }

      .a8398a1f-325a-4476-a04e-22c8be3b2438 {
        fill: #626262;
      }
    </style>
  </defs>
  <g id="a9776027-2d76-47c4-806c-b706e3891b31" data-name="BOX">
    <rect id="bc424d60-617c-4f68-b40d-4147687d2326" data-name="OVERLAY" class="e4bdf832-76e1-4f1c-ae27-86cf954bb680" width="24" height="24"/>
  </g>
  <g id="bf661109-e662-4759-887d-1e80c46bba65" data-name="Livello 10">
    <g>
      <path class="a8398a1f-325a-4476-a04e-22c8be3b2438" d="M10.59,20.53H8.14a1.14,1.14,0,0,1-1.09-1L5.78,6.47h12.4l-.43,4.36a6.08,6.08,0,0,1,1.45.57l.48-4.94h.71A.74.74,0,0,0,21,5.74.76.76,0,0,0,20.28,5H15.22V4.72A3,3,0,0,0,12,2h-.26a3,3,0,0,0-3,3H3.63A.77.77,0,0,0,3,5.72v.1a.75.75,0,0,0,.69.65h.6l1.31,13.2v.18A2.64,2.64,0,0,0,8.27,22h3.6A6.36,6.36,0,0,1,10.59,20.53ZM10.24,4.82h0A1.55,1.55,0,0,1,12,3.47h.18A1.55,1.55,0,0,1,13.74,5h-3.5Z" transform="translate(0 0)"/>
      <path class="a8398a1f-325a-4476-a04e-22c8be3b2438" d="M16.13,11.63a5.5,5.5,0,1,1-5.5,5.5A5.5,5.5,0,0,1,16.13,11.63Zm-2.79,2.58-.07.06-.06.07a.53.53,0,0,0,0,.57l.06.07,2.15,2.15-2.15,2.14-.06.07a.53.53,0,0,0,0,.57l.06.07.07.06a.53.53,0,0,0,.57,0L14,20l2.15-2.15L18.27,20l.07.06a.53.53,0,0,0,.57,0L19,20l.06-.07a.53.53,0,0,0,0-.57L19,19.27l-2.15-2.14L19,15l.06-.07a.53.53,0,0,0,0-.57L19,14.27l-.07-.06a.53.53,0,0,0-.57,0l-.07.06-2.14,2.15L14,14.27l-.07-.06a.51.51,0,0,0-.49,0Z" transform="translate(0 0)"/>
    </g>
  </g>
</svg>
