<svg xmlns="http://www.w3.org/2000/svg" xmlns:xlink="http://www.w3.org/1999/xlink" width="24" height="24" preserveAspectRatio="xMidYMid meet" viewBox="0 0 24 24" style="-ms-transform: rotate(360deg); -webkit-transform: rotate(360deg); transform: rotate(360deg);"><g fill="none"><path d="M12 3a.75.75 0 0 1 .743.648l.007.102v16.5a.75.75 0 0 1-1.493.102l-.007-.102V3.75A.75.75 0 0 1 12 3zM8.255 6a.75.75 0 0 1 .743.648l.007.102v10.5a.75.75 0 0 1-1.493.102l-.007-.102V6.75a.75.75 0 0 1 .75-.75zm7.49 0a.75.75 0 0 1 .743.648l.007.102v10.5a.75.75 0 0 1-1.493.102l-.007-.102V6.75a.75.75 0 0 1 .75-.75zM4.751 9a.75.75 0 0 1 .743.648l.007.102v4.5a.75.75 0 0 1-1.493.102l-.007-.102v-4.5a.75.75 0 0 1 .75-.75zm14.501 0a.75.75 0 0 1 .744.648l.006.102v4.499a.75.75 0 0 1-1.493.101l-.007-.101V9.75a.75.75 0 0 1 .75-.75z" fill="#626262"/></g><rect x="0" y="0" width="24" height="24" fill="rgba(0, 0, 0, 0)" /></svg>