<svg xmlns="http://www.w3.org/2000/svg" xmlns:xlink="http://www.w3.org/1999/xlink" width="24" height="24" preserveAspectRatio="xMidYMid meet" viewBox="0 0 24 24" style="-ms-transform: rotate(360deg); -webkit-transform: rotate(360deg); transform: rotate(360deg);"><g fill="none"><path d="M3.28 2.22a.75.75 0 1 0-1.06 1.06L6.72 7.782a1.25 1.25 0 1 0 1.5 1.5l3.5 3.5a1.25 1.25 0 1 0 1.498 1.498l7.5 7.5a.75.75 0 0 0 1.061-1.06L3.28 2.22z" fill="#626262"/><path d="M18.246 14c0 .298-.104.571-.278.786l-1.758-1.758a1.25 1.25 0 0 1 2.036.972z" fill="#626262"/><path d="M13.25 9c0 .299-.105.573-.28.788L11.212 8.03A1.25 1.25 0 0 1 13.25 9z" fill="#626262"/><path d="M8.254 4c0 .3-.106.575-.282.79L6.214 3.032A1.25 1.25 0 0 1 8.254 4z" fill="#626262"/><path d="M12 17.75a1.25 1.25 0 1 1 0 2.5a1.25 1.25 0 0 1 0-2.5z" fill="#626262"/><path d="M7.004 12.75a1.25 1.25 0 1 1 0 2.5a1.25 1.25 0 0 1 0-2.5z" fill="#626262"/><path d="M16.996 7.75a1.25 1.25 0 1 1 0 2.5a1.25 1.25 0 0 1 0-2.5z" fill="#626262"/><path d="M12 2.75a1.25 1.25 0 1 1 0 2.5a1.25 1.25 0 0 1 0-2.5z" fill="#626262"/><path d="M16.996 2.75a1.25 1.25 0 1 1 0 2.5a1.25 1.25 0 0 1 0-2.5z" fill="#626262"/></g><rect x="0" y="0" width="24" height="24" fill="rgba(0, 0, 0, 0)" /></svg>