<svg xmlns="http://www.w3.org/2000/svg" xmlns:xlink="http://www.w3.org/1999/xlink" width="24" height="24" preserveAspectRatio="xMidYMid meet" viewBox="0 0 24 24" style="-ms-transform: rotate(360deg); -webkit-transform: rotate(360deg); transform: rotate(360deg);"><g fill="none"><path d="M14.298 2.984l6.718 6.718a3.25 3.25 0 0 1 0 4.596l-6.718 6.717a3.25 3.25 0 0 1-4.596 0l-6.718-6.717a3.25 3.25 0 0 1 0-4.596l6.718-6.718a3.25 3.25 0 0 1 4.596 0zm-3.536 1.06l-6.717 6.718a1.75 1.75 0 0 0 0 2.475l6.717 6.718a1.75 1.75 0 0 0 2.475 0l6.718-6.718a1.75 1.75 0 0 0 0-2.475l-6.718-6.717a1.75 1.75 0 0 0-2.475 0zm1.696 3.26l.072-.084a.75.75 0 0 1 .977-.073l.084.073l2 2a.75.75 0 0 1 .073.977l-.073.084l-2 2a.75.75 0 0 1-1.133-.977l.072-.084l.72-.72h-1.5a1.25 1.25 0 0 0-1.244 1.122l-.006.128V15a.75.75 0 0 1-1.493.101L9 15v-3.25a2.75 2.75 0 0 1 2.582-2.745L11.75 9h1.498l-.718-.72a.75.75 0 0 1-.072-.976l.072-.084l-.072.084z" fill="#626262"/></g><rect x="0" y="0" width="24" height="24" fill="rgba(0, 0, 0, 0)" /></svg>