<svg xmlns="http://www.w3.org/2000/svg" xmlns:xlink="http://www.w3.org/1999/xlink" width="24" height="24" preserveAspectRatio="xMidYMid meet" viewBox="0 0 24 24" style="-ms-transform: rotate(360deg); -webkit-transform: rotate(360deg); transform: rotate(360deg);"><g fill="none"><path d="M4.397 4.554l.073-.084a.75.75 0 0 1 .976-.073l.084.073L12 10.939l6.47-6.47a.75.75 0 1 1 1.06 1.061L13.061 12l6.47 6.47a.75.75 0 0 1 .072.976l-.073.084a.75.75 0 0 1-.976.073l-.084-.073L12 13.061l-6.47 6.47a.75.75 0 0 1-1.06-1.061L10.939 12l-6.47-6.47a.75.75 0 0 1-.072-.976l.073-.084l-.073.084z" fill="#626262"/></g><rect x="0" y="0" width="24" height="24" fill="rgba(0, 0, 0, 0)" /></svg>