<svg xmlns="http://www.w3.org/2000/svg" xmlns:xlink="http://www.w3.org/1999/xlink" width="24" height="24" preserveAspectRatio="xMidYMid meet" viewBox="0 0 24 24" style="-ms-transform: rotate(360deg); -webkit-transform: rotate(360deg); transform: rotate(360deg);"><g fill="none"><path d="M20.25 11.993c.966 0 1.75.784 1.75 1.75v2.5a1.75 1.75 0 0 1-1.75 1.75h-2.5a1.75 1.75 0 0 1-1.75-1.75v-2.5c0-.966.784-1.75 1.75-1.75h2.5zm-14 0c.966 0 1.75.784 1.75 1.75v2.5a1.75 1.75 0 0 1-1.75 1.75h-2.5A1.75 1.75 0 0 1 2 16.243v-2.5c0-.966.784-1.75 1.75-1.75h2.5zm7 0c.966 0 1.75.784 1.75 1.75v2.5a1.75 1.75 0 0 1-1.75 1.75h-2.5A1.75 1.75 0 0 1 9 16.243v-2.5c0-.966.784-1.75 1.75-1.75h2.5zm7 1.5h-2.5a.25.25 0 0 0-.25.25v2.5c0 .138.112.25.25.25h2.5a.25.25 0 0 0 .25-.25v-2.5a.25.25 0 0 0-.25-.25zm-14 0h-2.5a.25.25 0 0 0-.25.25v2.5c0 .138.112.25.25.25h2.5a.25.25 0 0 0 .25-.25v-2.5a.25.25 0 0 0-.25-.25zm7 0h-2.5a.25.25 0 0 0-.25.25v2.5c0 .138.112.25.25.25h2.5a.25.25 0 0 0 .25-.25v-2.5a.25.25 0 0 0-.25-.25zm0-8.5c.966 0 1.75.784 1.75 1.75v2.5a1.75 1.75 0 0 1-1.75 1.75h-2.5A1.75 1.75 0 0 1 9 9.243v-2.5c0-.966.784-1.75 1.75-1.75h2.5zm7 0c.966 0 1.75.784 1.75 1.75v2.5a1.75 1.75 0 0 1-1.75 1.75h-2.5A1.75 1.75 0 0 1 16 9.243v-2.5c0-.966.784-1.75 1.75-1.75h2.5zm-14 0c.966 0 1.75.784 1.75 1.75v2.5a1.75 1.75 0 0 1-1.75 1.75h-2.5A1.75 1.75 0 0 1 2 9.243v-2.5A1.75 1.75 0 0 1 3.606 5l.144-.006h2.5zm7 1.5h-2.5a.25.25 0 0 0-.25.25v2.5c0 .138.112.25.25.25h2.5a.25.25 0 0 0 .25-.25v-2.5a.25.25 0 0 0-.25-.25zm7 0h-2.5a.25.25 0 0 0-.25.25v2.5c0 .138.112.25.25.25h2.5a.25.25 0 0 0 .25-.25v-2.5a.25.25 0 0 0-.25-.25zm-14 0h-2.5l-.057.007a.25.25 0 0 0-.193.243v2.5c0 .138.112.25.25.25h2.5a.25.25 0 0 0 .25-.25v-2.5a.25.25 0 0 0-.25-.25z" fill="#626262"/></g><rect x="0" y="0" width="24" height="24" fill="rgba(0, 0, 0, 0)" /></svg>