<svg xmlns="http://www.w3.org/2000/svg" xmlns:xlink="http://www.w3.org/1999/xlink" width="24" height="24" preserveAspectRatio="xMidYMid meet" viewBox="0 0 24 24" style="-ms-transform: rotate(360deg); -webkit-transform: rotate(360deg); transform: rotate(360deg);"><g fill="none"><path d="M2.5 12a.75.75 0 0 1 .75-.75h1.5a.75.75 0 0 1 0 1.5h-1.5A.75.75 0 0 1 2.5 12z" fill="#626262"/><path d="M6.5 12a.75.75 0 0 1 .75-.75h1.5a.75.75 0 0 1 0 1.5h-1.5A.75.75 0 0 1 6.5 12z" fill="#626262"/><path d="M10.5 12a.75.75 0 0 1 .75-.75h1.5a.75.75 0 0 1 0 1.5h-1.5a.75.75 0 0 1-.75-.75z" fill="#626262"/><path d="M14.5 12a.75.75 0 0 1 .75-.75h1.5a.75.75 0 0 1 0 1.5h-1.5a.75.75 0 0 1-.75-.75z" fill="#626262"/><path d="M18.5 12a.75.75 0 0 1 .75-.75h1.5a.75.75 0 0 1 0 1.5h-1.5a.75.75 0 0 1-.75-.75z" fill="#626262"/><path d="M4.75 2a.75.75 0 0 0-.75.75V7a2 2 0 0 0 2 2h12a2 2 0 0 0 2-2V2.75a.75.75 0 0 0-1.5 0V7a.5.5 0 0 1-.5.5H6a.5.5 0 0 1-.5-.5V2.75A.75.75 0 0 0 4.75 2z" fill="#626262"/><path d="M19.25 22a.75.75 0 0 0 .75-.75V17a2 2 0 0 0-2-2H6a2 2 0 0 0-2 2v4.25a.75.75 0 0 0 1.5 0V17a.5.5 0 0 1 .5-.5h12a.5.5 0 0 1 .5.5v4.25c0 .414.336.75.75.75z" fill="#626262"/></g><rect x="0" y="0" width="24" height="24" fill="rgba(0, 0, 0, 0)" /></svg>