<svg xmlns="http://www.w3.org/2000/svg" xmlns:xlink="http://www.w3.org/1999/xlink" width="24" height="24" preserveAspectRatio="xMidYMid meet" viewBox="0 0 24 24" style="-ms-transform: rotate(360deg); -webkit-transform: rotate(360deg); transform: rotate(360deg);"><g fill="none"><path d="M17.744 1.996a2.25 2.25 0 0 1 2.245 2.096l.005.154v15.498A2.25 2.25 0 0 1 17.9 21.99l-.155.005h-11.5A2.25 2.25 0 0 1 4 19.898l-.005-.154V4.246A2.25 2.25 0 0 1 6.09 2.001l.154-.005h11.5zm0 1.5h-11.5a.75.75 0 0 0-.743.648l-.006.102v15.498c0 .38.282.694.648.743l.102.007h11.5a.75.75 0 0 0 .743-.648l.006-.102V4.246a.75.75 0 0 0-.648-.743l-.102-.007z" fill="#626262"/><path d="M7 15.75v1.5c0 .967.783 1.75 1.75 1.75h6.5A1.75 1.75 0 0 0 17 17.25v-1.5A1.75 1.75 0 0 0 15.25 14h-6.5A1.75 1.75 0 0 0 7 15.75zm1.75-.25h6.5a.25.25 0 0 1 .25.25v1.5a.25.25 0 0 1-.25.25h-6.5a.25.25 0 0 1-.25-.25v-1.5a.25.25 0 0 1 .25-.25z" fill="#626262"/></g><rect x="0" y="0" width="24" height="24" fill="rgba(0, 0, 0, 0)" /></svg>