<svg xmlns="http://www.w3.org/2000/svg" xmlns:xlink="http://www.w3.org/1999/xlink" width="24" height="24" preserveAspectRatio="xMidYMid meet" viewBox="0 0 24 24" style="-ms-transform: rotate(360deg); -webkit-transform: rotate(360deg); transform: rotate(360deg);"><g fill="none"><path d="M5.5 4.25a.75.75 0 0 1 .75-.75H12V8a2 2 0 0 0 2 2h4.5v9.75a.75.75 0 0 1-.75.75H13V22h4.75A2.25 2.25 0 0 0 20 19.75V9.664c0-.464-.184-.909-.513-1.237l-5.914-5.914A1.75 1.75 0 0 0 12.336 2H6.25A2.25 2.25 0 0 0 4 4.25V12h1.5V4.25zm8 3.75V4.56l3.94 3.94H14a.5.5 0 0 1-.5-.5z" fill="#626262"/><path d="M4.5 13.75a.75.75 0 0 1-.75.75H2.5v7h1.25a.75.75 0 0 1 0 1.5H2.5A1.5 1.5 0 0 1 1 21.5v-7A1.5 1.5 0 0 1 2.5 13h1.25a.75.75 0 0 1 .75.75z" fill="#626262"/><path d="M9.25 14.5a.75.75 0 0 1 0-1.5h1.25a1.5 1.5 0 0 1 1.5 1.5v7a1.5 1.5 0 0 1-1.5 1.5H9.25a.75.75 0 0 1 0-1.5h1.25v-7H9.25z" fill="#626262"/><path d="M6.5 16.75a.75.75 0 0 1 .75.75V21a.75.75 0 0 1-1.5 0v-3.5a.75.75 0 0 1 .75-.75z" fill="#626262"/><path d="M6.5 16a.75.75 0 1 0 0-1.5a.75.75 0 0 0 0 1.5z" fill="#626262"/></g><rect x="0" y="0" width="24" height="24" fill="rgba(0, 0, 0, 0)" /></svg>