<svg xmlns="http://www.w3.org/2000/svg" xmlns:xlink="http://www.w3.org/1999/xlink" width="24" height="24" preserveAspectRatio="xMidYMid meet" viewBox="0 0 24 24" style="-ms-transform: rotate(360deg); -webkit-transform: rotate(360deg); transform: rotate(360deg);"><g fill="none"><path d="M17.745 1.996a2.25 2.25 0 0 1 2.245 2.096l.005.154v15.498a2.25 2.25 0 0 1-2.096 2.245l-.154.005h-11.5A2.25 2.25 0 0 1 4 19.898l-.005-.154V4.246a2.25 2.25 0 0 1 2.096-2.245l.154-.005h11.5zm0 1.5h-11.5a.75.75 0 0 0-.743.648l-.007.102v15.498c0 .38.282.694.648.743l.102.007h11.5a.75.75 0 0 0 .743-.648l.007-.102V4.246a.75.75 0 0 0-.648-.743l-.102-.007z" fill="#626262"/><path d="M7 6.75C7 5.784 7.784 5 8.75 5h6.5c.967 0 1.75.784 1.75 1.75v1.5A1.75 1.75 0 0 1 15.25 10h-6.5A1.75 1.75 0 0 1 7 8.25v-1.5zm1.75-.25a.25.25 0 0 0-.25.25v1.5c0 .138.112.25.25.25h6.5a.25.25 0 0 0 .25-.25v-1.5a.25.25 0 0 0-.25-.25h-6.5z" fill="#626262"/><path d="M7 15.75c0-.966.784-1.75 1.75-1.75h6.5c.967 0 1.75.784 1.75 1.75v1.5A1.75 1.75 0 0 1 15.25 19h-6.5A1.75 1.75 0 0 1 7 17.25v-1.5zm1.75-.25a.25.25 0 0 0-.25.25v1.5c0 .138.112.25.25.25h6.5a.25.25 0 0 0 .25-.25v-1.5a.25.25 0 0 0-.25-.25h-6.5z" fill="#626262"/></g><rect x="0" y="0" width="24" height="24" fill="rgba(0, 0, 0, 0)" /></svg>