<svg xmlns="http://www.w3.org/2000/svg" xmlns:xlink="http://www.w3.org/1999/xlink" width="24" height="24" preserveAspectRatio="xMidYMid meet" viewBox="0 0 24 24" style="-ms-transform: rotate(360deg); -webkit-transform: rotate(360deg); transform: rotate(360deg);"><g fill="none"><path d="M20.877 2.826l.153.144l.145.153a3.579 3.579 0 0 1-.145 4.908L9.062 19.999a2.25 2.25 0 0 1-1 .58l-5.115 1.395a.75.75 0 0 1-.92-.921l1.394-5.116a2.25 2.25 0 0 1 .58-.999L15.97 2.97a3.579 3.579 0 0 1 4.908-.144zM15 6.06l-9.938 9.938a.75.75 0 0 0-.193.333l-1.05 3.85l3.85-1.05A.75.75 0 0 0 8 18.938L17.94 9L15 6.06zM6.525 11l-1.5 1.5H2.75a.75.75 0 0 1 0-1.5h3.775zm4-4l-1.5 1.5H2.75a.75.75 0 1 1 0-1.5h7.775zm6.505-2.97l-.97.97l2.939 2.94l.97-.97a2.078 2.078 0 1 0-2.939-2.94zM14.525 3l-1.5 1.5H2.75a.75.75 0 1 1 0-1.5h11.775z" fill="#626262"/></g><rect x="0" y="0" width="24" height="24" fill="rgba(0, 0, 0, 0)" /></svg>