<svg xmlns="http://www.w3.org/2000/svg" xmlns:xlink="http://www.w3.org/1999/xlink" width="24" height="24" preserveAspectRatio="xMidYMid meet" viewBox="0 0 24 24" style="-ms-transform: rotate(360deg); -webkit-transform: rotate(360deg); transform: rotate(360deg);"><g fill="none"><path d="M8.31 10.248a.75.75 0 1 0-1.12-.997l-2 2.25a.75.75 0 0 0 0 .997l2 2.25a.75.75 0 1 0 1.12-.996l-.89-1.002h9.16l-.89 1.002a.75.75 0 1 0 1.12.996l2-2.25l.01-.012a.747.747 0 0 0-.012-.987L16.81 9.251a.75.75 0 1 0-1.12.997l.89 1.002H7.42l.89-1.002z" fill="#626262"/><path d="M12.754 4.001v.002h7.498c.966 0 1.75.784 1.75 1.75v12.495a1.75 1.75 0 0 1-1.75 1.75h-8.998v-.002H3.757a1.75 1.75 0 0 1-1.75-1.75V5.751c0-.967.783-1.75 1.75-1.75h8.997zm7.498 1.502h-7.498V10.5h-1.5V5.5H3.757a.25.25 0 0 0-.25.25v12.495c0 .138.112.25.25.25h7.497V13.5h1.5v4.998h7.498a.25.25 0 0 0 .25-.25V5.754a.25.25 0 0 0-.25-.25z" fill="#626262"/></g><rect x="0" y="0" width="24" height="24" fill="rgba(0, 0, 0, 0)" /></svg>