<svg xmlns="http://www.w3.org/2000/svg" xmlns:xlink="http://www.w3.org/1999/xlink" width="24" height="24" preserveAspectRatio="xMidYMid meet" viewBox="0 0 24 24" style="-ms-transform: rotate(360deg); -webkit-transform: rotate(360deg); transform: rotate(360deg);"><g fill="none"><path d="M10.019 6.002a6.632 6.632 0 0 0 .058 1.5H3.75a.25.25 0 0 0-.25.25v12.494c0 .138.112.25.25.25h7.498l-.001-10.167c.416.57.924 1.07 1.5 1.479v8.69h7.498a.25.25 0 0 0 .25-.25v-8.62a6.535 6.535 0 0 0 1.501-1.656V20.25a1.75 1.75 0 0 1-1.75 1.75h-8.998l-.001-.003H3.75A1.75 1.75 0 0 1 2 20.246V7.751c0-.966.784-1.75 1.75-1.75h6.269zm6.22 11.498a.75.75 0 0 1 .101 1.493L16.24 19h-1.5a.75.75 0 0 1-.102-1.493l.102-.007h1.5zm-6.996 0a.75.75 0 0 1 .102 1.493L9.243 19H7.74a.75.75 0 0 1-.102-1.493l.102-.007h1.502zM16.5 1c.293 0 .58.025.86.072l.174.716a2 2 0 0 0 2.511 1.449l.601-.179c.363.467.653.997.854 1.57l-.447.43a2 2 0 0 0 0 2.883l.447.43c-.2.574-.49 1.103-.853 1.57l-.602-.178a2 2 0 0 0-2.51 1.45l-.174.715a5.178 5.178 0 0 1-1.723 0l-.172-.716a2 2 0 0 0-2.511-1.449l-.602.178a5.545 5.545 0 0 1-.853-1.57l.447-.43a2 2 0 0 0 0-2.882l-.447-.43c.2-.574.49-1.103.853-1.57l.602.178a2 2 0 0 0 2.51-1.45l.173-.715c.28-.047.569-.072.862-.072zm0 4c-.8 0-1.45.672-1.45 1.5S15.7 8 16.5 8c.8 0 1.45-.672 1.45-1.5S17.3 5 16.5 5z" fill="#626262"/></g><rect x="0" y="0" width="24" height="24" fill="rgba(0, 0, 0, 0)" /></svg>