<svg xmlns="http://www.w3.org/2000/svg" xmlns:xlink="http://www.w3.org/1999/xlink" width="24" height="24" preserveAspectRatio="xMidYMid meet" viewBox="0 0 24 24" style="-ms-transform: rotate(360deg); -webkit-transform: rotate(360deg); transform: rotate(360deg);"><g fill="none"><path d="M10.019 6.002a6.632 6.632 0 0 0 .058 1.5H3.75a.25.25 0 0 0-.25.25v12.494c0 .138.112.25.25.25h7.498l-.001-10.167c.416.57.924 1.07 1.5 1.479v8.69h7.498a.25.25 0 0 0 .25-.25v-8.62a6.535 6.535 0 0 0 1.501-1.656V20.25a1.75 1.75 0 0 1-1.75 1.75h-8.998l-.001-.003H3.75A1.75 1.75 0 0 1 2 20.246V7.751c0-.966.784-1.75 1.75-1.75h6.269zm6.22 11.498a.75.75 0 0 1 .101 1.493L16.24 19h-1.5a.75.75 0 0 1-.102-1.493l.102-.007h1.5zm-6.996 0a.75.75 0 0 1 .102 1.493L9.243 19H7.74a.75.75 0 0 1-.102-1.493l.102-.007h1.502zM16.505 1a5.5 5.5 0 1 1 0 11a5.5 5.5 0 0 1 0-11zm0 1.998a1.75 1.75 0 0 0-1.726 1.459l-.018.148l-.006.143v.782l-.116.037c-.3.118-.529.376-.606.694l-.022.122l-.006.115v2.5l.006.117a1 1 0 0 0 .764.857l.113.02l.117.006h3l.116-.007a1 1 0 0 0 .857-.764l.02-.112l.007-.117v-2.5l-.008-.126a1 1 0 0 0-.527-.76l-.11-.049l-.105-.033v-.782l-.006-.143a1.75 1.75 0 0 0-1.744-1.607zm0 1a.75.75 0 0 1 .723.55l.02.098l.007.102v.75h-1.5v-.75l.006-.102a.75.75 0 0 1 .744-.648z" fill="#626262"/></g><rect x="0" y="0" width="24" height="24" fill="rgba(0, 0, 0, 0)" /></svg>