<svg xmlns="http://www.w3.org/2000/svg" xmlns:xlink="http://www.w3.org/1999/xlink" width="24" height="24" preserveAspectRatio="xMidYMid meet" viewBox="0 0 24 24" style="-ms-transform: rotate(360deg); -webkit-transform: rotate(360deg); transform: rotate(360deg);"><g fill="none"><path d="M17.767 7.803a.75.75 0 0 1-1.06 1.06l-1.57-1.57a.75.75 0 0 1 1.06-1.06l1.57 1.57zm-8.372 9.433a.75.75 0 0 0 0-1.061l-1.57-1.57a.75.75 0 1 0-1.06 1.06l1.57 1.57a.75.75 0 0 0 1.06 0zM20.938 3.084a1.941 1.941 0 0 0-2.745 0l-.671.671l-.207-.207a2.413 2.413 0 0 0-3.662.291a2.936 2.936 0 0 0-2.613 4.963l.718.718l-2.24 2.239l-.717-.718a2.936 2.936 0 0 0-4.963 2.613a2.413 2.413 0 0 0-.291 3.661l.207.208l-.692.692a1.941 1.941 0 1 0 2.746 2.745l.692-.692l.207.207a2.413 2.413 0 0 0 3.661-.29a2.936 2.936 0 0 0 2.613-4.963l-.717-.718l2.24-2.24l.716.718a2.936 2.936 0 0 0 4.963-2.613a2.413 2.413 0 0 0 .291-3.661l-.207-.207l.671-.671a1.941 1.941 0 0 0 0-2.746zM19.207 5.44l-.624-.624l.67-.67a.441.441 0 0 1 .625.623l-.671.671zm-5.764 5.764l-2.24 2.24l-.624-.625l2.24-2.239l.623.624zm-8.004 8.003l-.692.693a.441.441 0 1 1-.624-.624l.692-.692l.624.623zM14.963 4.61a.913.913 0 0 1 1.291 0l3.16 3.16a.913.913 0 0 1-.362 1.513a.75.75 0 0 0-.45 1.025a1.437 1.437 0 0 1-2.321 1.614l-4.18-4.18a1.436 1.436 0 0 1 1.614-2.321a.75.75 0 0 0 1.025-.45a.906.906 0 0 1 .223-.361zM5.71 12.102c.56-.56 1.47-.56 2.03 0l4.18 4.18a1.436 1.436 0 0 1-1.613 2.322a.75.75 0 0 0-1.026.45a.913.913 0 0 1-1.514.361l-3.16-3.16a.913.913 0 0 1 .362-1.514a.75.75 0 0 0 .45-1.025a1.437 1.437 0 0 1 .29-1.614z" fill="#626262"/></g><rect x="0" y="0" width="24" height="24" fill="rgba(0, 0, 0, 0)" /></svg>