<svg xmlns="http://www.w3.org/2000/svg" xmlns:xlink="http://www.w3.org/1999/xlink" width="24" height="24" preserveAspectRatio="xMidYMid meet" viewBox="0 0 24 24" style="-ms-transform: rotate(360deg); -webkit-transform: rotate(360deg); transform: rotate(360deg);"><g fill="none"><path d="M21.03 2.97a3.578 3.578 0 0 1 0 5.06L9.062 20a2.25 2.25 0 0 1-.999.58l-5.116 1.395a.75.75 0 0 1-.92-.921l1.395-5.116a2.25 2.25 0 0 1 .58-.999L15.97 2.97a3.578 3.578 0 0 1 5.06 0zM15 6.06L5.062 16a.75.75 0 0 0-.193.333l-1.05 3.85l3.85-1.05A.75.75 0 0 0 8 18.938L17.94 9L15 6.06zm2.03-2.03l-.97.97L19 7.94l.97-.97a2.079 2.079 0 0 0-2.94-2.94z" fill="#626262"/></g><rect x="0" y="0" width="24" height="24" fill="rgba(0, 0, 0, 0)" /></svg>