<svg xmlns="http://www.w3.org/2000/svg" xmlns:xlink="http://www.w3.org/1999/xlink" width="24" height="24" preserveAspectRatio="xMidYMid meet" viewBox="0 0 24 24" style="-ms-transform: rotate(360deg); -webkit-transform: rotate(360deg); transform: rotate(360deg);"><g fill="none"><path d="M12 2.005c5.523 0 10 4.477 10 10s-4.477 10-10 10s-10-4.477-10-10s4.477-10 10-10zm0 1.5a8.5 8.5 0 1 0 0 17a8.5 8.5 0 0 0 0-17zM12 13a2.25 2.25 0 1 1 0 4.5a2.25 2.25 0 0 1 0-4.5zM9 8.751a1.25 1.25 0 1 1 0 2.499A1.25 1.25 0 0 1 9 8.75zm6 0a1.25 1.25 0 1 1 0 2.499a1.25 1.25 0 0 1 0-2.499z" fill="#626262"/></g><rect x="0" y="0" width="24" height="24" fill="rgba(0, 0, 0, 0)" /></svg>