<svg xmlns="http://www.w3.org/2000/svg" xmlns:xlink="http://www.w3.org/1999/xlink" width="24" height="24" preserveAspectRatio="xMidYMid meet" viewBox="0 0 24 24" style="-ms-transform: rotate(360deg); -webkit-transform: rotate(360deg); transform: rotate(360deg);"><g fill="none"><path d="M12 1.999c5.524 0 10.002 4.478 10.002 10.002c0 5.523-4.478 10.001-10.002 10.001c-5.524 0-10.002-4.478-10.002-10.001C1.998 6.477 6.476 1.999 12 1.999zm0 1.5a8.502 8.502 0 1 0 0 17.003A8.502 8.502 0 0 0 12 3.5zm0 9.999c1.631 0 3.16.655 4.281 1.796a.75.75 0 0 1-1.07 1.05A4.485 4.485 0 0 0 12 14.999a4.485 4.485 0 0 0-3.216 1.352a.75.75 0 1 1-1.072-1.05A5.985 5.985 0 0 1 12 13.499zM9 8.751a1.25 1.25 0 1 1 0 2.499A1.25 1.25 0 0 1 9 8.75zm6 0a1.25 1.25 0 1 1 0 2.499a1.25 1.25 0 0 1 0-2.499z" fill="#626262"/></g><rect x="0" y="0" width="24" height="24" fill="rgba(0, 0, 0, 0)" /></svg>