<svg xmlns="http://www.w3.org/2000/svg" xmlns:xlink="http://www.w3.org/1999/xlink" width="24" height="24" preserveAspectRatio="xMidYMid meet" viewBox="0 0 24 24" style="-ms-transform: rotate(360deg); -webkit-transform: rotate(360deg); transform: rotate(360deg);"><g fill="none"><path d="M12.65 2.638a2.25 2.25 0 0 1 3.191.024l4.91 5.008a2.25 2.25 0 0 1-.007 3.158l-.687.694a6.454 6.454 0 0 0-1.655-.46l1.275-1.29a.75.75 0 0 0 .003-1.052l-4.91-5.008a.75.75 0 0 0-1.063-.008l-7.004 6.938l4.673 4.674a6.473 6.473 0 0 0-.362 1.758l-5.377-5.376l-1.529 1.514a.75.75 0 0 0 .002 1.069l5.1 5.007a.75.75 0 0 0 1.058-.008l.804-.812c.086.579.249 1.133.477 1.65l-.215.218a2.25 2.25 0 0 1-3.175.022l-5.1-5.007a2.25 2.25 0 0 1-.007-3.204l9.599-9.509zM17.5 23a5.5 5.5 0 1 0 0-11a5.5 5.5 0 0 0 0 11z" fill="#626262"/></g><rect x="0" y="0" width="24" height="24" fill="rgba(0, 0, 0, 0)" /></svg>