<svg xmlns="http://www.w3.org/2000/svg" xmlns:xlink="http://www.w3.org/1999/xlink" width="24" height="24" preserveAspectRatio="xMidYMid meet" viewBox="0 0 24 24" style="-ms-transform: rotate(360deg); -webkit-transform: rotate(360deg); transform: rotate(360deg);"><g fill="none"><path d="M12.71 4.158l9 7a.75.75 0 0 1 0 1.184l-9.001 7a.75.75 0 0 1-1.21-.592v-5.077l-7.29 5.67a.75.75 0 0 1-1.21-.593L3 4.75a.75.75 0 0 1 1.21-.592l7.288 5.669l.002-5.077a.75.75 0 0 1 1.21-.592zM13 6.284l-.001 10.933l7.03-5.467l-7.03-5.466zm-8.5 0l-.001 10.933l7-5.444v-.046l-7-5.443z" fill="#626262"/></g><rect x="0" y="0" width="24" height="24" fill="rgba(0, 0, 0, 0)" /></svg>