<svg xmlns="http://www.w3.org/2000/svg" xmlns:xlink="http://www.w3.org/1999/xlink" width="24" height="24" preserveAspectRatio="xMidYMid meet" viewBox="0 0 24 24" style="-ms-transform: rotate(360deg); -webkit-transform: rotate(360deg); transform: rotate(360deg);"><g fill="none"><path d="M23 7.5a5.5 5.5 0 1 1-11 0a5.5 5.5 0 0 1 11 0zm-7.146-2.354a.5.5 0 0 0-.708.708L16.793 7.5l-1.647 1.646a.5.5 0 0 0 .708.708L17.5 8.207l1.646 1.647a.5.5 0 0 0 .708-.708L18.207 7.5l1.647-1.646a.5.5 0 0 0-.708-.708L17.5 6.793l-1.646-1.647zM13.346 12.5a6.536 6.536 0 0 1-1.324-1.5H7.5a.75.75 0 0 0 0 1.5h5.846zM11 7.5c0-.516.06-1.018.174-1.5H4.5a.75.75 0 0 0 0 1.5H11zm2.5 8.5a.75.75 0 0 1 0 1.5h-3a.75.75 0 0 1 0-1.5h3z" fill="#626262"/></g><rect x="0" y="0" width="24" height="24" fill="rgba(0, 0, 0, 0)" /></svg>