<svg xmlns="http://www.w3.org/2000/svg" xmlns:xlink="http://www.w3.org/1999/xlink" width="24" height="24" preserveAspectRatio="xMidYMid meet" viewBox="0 0 24 24" style="-ms-transform: rotate(360deg); -webkit-transform: rotate(360deg); transform: rotate(360deg);"><g fill="none"><path d="M13.5 16a.75.75 0 0 1 0 1.5h-3a.75.75 0 0 1 0-1.5h3zm3-5a.75.75 0 0 1 0 1.5h-9a.75.75 0 0 1 0-1.5h9zm3-5a.75.75 0 0 1 0 1.5h-15a.75.75 0 0 1 0-1.5h15z" fill="#626262"/></g><rect x="0" y="0" width="24" height="24" fill="rgba(0, 0, 0, 0)" /></svg>