<svg xmlns="http://www.w3.org/2000/svg" xmlns:xlink="http://www.w3.org/1999/xlink" width="24" height="24" preserveAspectRatio="xMidYMid meet" viewBox="0 0 24 24" style="-ms-transform: rotate(360deg); -webkit-transform: rotate(360deg); transform: rotate(360deg);"><g fill="none"><path d="M21.25 4.998a.75.75 0 0 1 .75.75v12.5a.75.75 0 0 1-.75.75h-5.502a2.75 2.75 0 0 1-2.75-2.75v-.252H3.746a1.75 1.75 0 0 1-1.75-1.75V9.75c0-.966.783-1.75 1.75-1.75h9.252v-.252a2.75 2.75 0 0 1 2.75-2.75h5.501zm-.75 1.5h-4.752c-.69 0-1.25.56-1.25 1.25v8.5c0 .69.56 1.25 1.25 1.25H20.5v-11zM12.997 9.5H3.746a.25.25 0 0 0-.25.25v4.496c0 .138.112.25.25.25h9.252V9.5zM5.75 11.25l2.497-.002a.75.75 0 0 1 .103 1.493l-.101.007l-2.497.002a.75.75 0 0 1-.103-1.493l.101-.007l2.497-.002l-2.497.002z" fill="#626262"/></g><rect x="0" y="0" width="24" height="24" fill="rgba(0, 0, 0, 0)" /></svg>