<svg xmlns="http://www.w3.org/2000/svg" xmlns:xlink="http://www.w3.org/1999/xlink" width="24" height="24" preserveAspectRatio="xMidYMid meet" viewBox="0 0 24 24" style="-ms-transform: rotate(360deg); -webkit-transform: rotate(360deg); transform: rotate(360deg);"><g fill="none"><path d="M8.294 14l-1.767 7.068c-.187.746.736 1.256 1.269.701L19.79 9.27A.75.75 0 0 0 19.25 8h-4.46l1.672-5.013A.75.75 0 0 0 15.75 2h-7a.75.75 0 0 0-.721.544l-3 10.5A.75.75 0 0 0 5.75 14h2.544zm4.745-5.487a.75.75 0 0 0 .711.987h3.74l-8.824 9.196l1.316-5.264a.75.75 0 0 0-.727-.932h-2.51l2.57-9h5.394l-1.67 5.013z" fill="#626262"/></g><rect x="0" y="0" width="24" height="24" fill="rgba(0, 0, 0, 0)" /></svg>