<svg xmlns="http://www.w3.org/2000/svg" xmlns:xlink="http://www.w3.org/1999/xlink" width="24" height="24" preserveAspectRatio="xMidYMid meet" viewBox="0 0 24 24" style="-ms-transform: rotate(360deg); -webkit-transform: rotate(360deg); transform: rotate(360deg);"><g fill="none"><path d="M4.22 4.22a.75.75 0 0 1 .976-.073l.084.073l16.5 16.499l.073.084a.75.75 0 0 1-1.05 1.05l-.083-.074L17.94 19h-2.19a2.75 2.75 0 0 1-2.744-2.582L13 16.25v-.252H3.747a1.75 1.75 0 0 1-1.744-1.606l-.006-.144V9.752a1.75 1.75 0 0 1 1.607-1.744l.143-.006L6.94 8L4.22 5.28l-.073-.084a.75.75 0 0 1 .073-.976zM21.252 5a.75.75 0 0 1 .743.648l.007.102v12.5a.747.747 0 0 1-.192.5l-1.309-1.309V6.5h-4.75a1.25 1.25 0 0 0-1.225.998l-.019.124l-.006.128v3.69L13 9.941v-.439l-.44-.001L11.06 8l1.94.001V7.75a2.75 2.75 0 0 1 2.582-2.745L15.751 5h5.5zm-4.813 12.499L14.5 15.56v.69c0 .647.492 1.18 1.123 1.244l.128.006l.688-.001zM8.44 9.501l-4.692.001a.25.25 0 0 0-.22.13l-.023.063l-.007.057v4.496a.25.25 0 0 0 .193.243l.057.007h9.253v-.438L8.44 9.501zM8.25 11.25a.75.75 0 0 1 .103 1.493l-.102.007l-2.497.002a.75.75 0 0 1-.103-1.493l.102-.007l2.497-.002z" fill="#626262"/></g><rect x="0" y="0" width="24" height="24" fill="rgba(0, 0, 0, 0)" /></svg>