<svg xmlns="http://www.w3.org/2000/svg" xmlns:xlink="http://www.w3.org/1999/xlink" width="24" height="24" preserveAspectRatio="xMidYMid meet" viewBox="0 0 24 24" style="-ms-transform: rotate(360deg); -webkit-transform: rotate(360deg); transform: rotate(360deg);"><g fill="none"><path d="M17.133 3.855a.75.75 0 0 1 .367.645v6.25a.75.75 0 0 1-.75.75H5.25a.75.75 0 0 1-.358-1.409l11.5-6.25a.75.75 0 0 1 .741.014zM8.201 10H16V5.761L8.2 10z" fill="#626262"/><path d="M17.5 19.5a.75.75 0 0 1-1.108.659l-11.5-6.25A.75.75 0 0 1 5.25 12.5h11.5a.75.75 0 0 1 .75.75v6.25z" fill="#626262"/></g><rect x="0" y="0" width="24" height="24" fill="rgba(0, 0, 0, 0)" /></svg>