<svg xmlns="http://www.w3.org/2000/svg" xmlns:xlink="http://www.w3.org/1999/xlink" width="24" height="24" preserveAspectRatio="xMidYMid meet" viewBox="0 0 24 24" style="-ms-transform: rotate(360deg); -webkit-transform: rotate(360deg); transform: rotate(360deg);"><g fill="none"><path d="M4.5 17.5a.75.75 0 0 1-.659-1.108l6.25-11.5a.75.75 0 0 1 1.409.358v11.5a.75.75 0 0 1-.75.75H4.5z" fill="#626262"/><path d="M20.145 17.133a.75.75 0 0 1-.645.367h-6.25a.75.75 0 0 1-.75-.75V5.25a.75.75 0 0 1 1.409-.358l6.25 11.5a.75.75 0 0 1-.014.741zM14 8.201V16h4.239L14 8.2z" fill="#626262"/></g><rect x="0" y="0" width="24" height="24" fill="rgba(0, 0, 0, 0)" /></svg>