<svg xmlns="http://www.w3.org/2000/svg" xmlns:xlink="http://www.w3.org/1999/xlink" width="24" height="24" preserveAspectRatio="xMidYMid meet" viewBox="0 0 24 24" style="-ms-transform: rotate(360deg); -webkit-transform: rotate(360deg); transform: rotate(360deg);"><g fill="none"><path d="M12.59 4.276l.063.092l.05.105l5.369 13.5a.75.75 0 0 1-1.35.646l-.044-.092l-1.601-4.028h-6.15l-1.605 4.028a.75.75 0 0 1-.878.45l-.097-.03a.75.75 0 0 1-.45-.878l.031-.097l5.382-13.5c.222-.556.942-.62 1.28-.196zm-.584 2.5L9.525 13h4.955l-2.474-6.223zm5.677-3.705a.75.75 0 0 1 .636 0l.097.054l2.251 1.496l.088.068a.75.75 0 0 1-.821 1.236l-.097-.055L18 4.65l-1.836 1.22l-.097.055a.75.75 0 0 1-.82-1.236l.087-.068l2.25-1.496l.098-.054z" fill="#626262"/></g><rect x="0" y="0" width="24" height="24" fill="rgba(0, 0, 0, 0)" /></svg>