<svg xmlns="http://www.w3.org/2000/svg" xmlns:xlink="http://www.w3.org/1999/xlink" width="24" height="24" preserveAspectRatio="xMidYMid meet" viewBox="0 0 24 24" style="-ms-transform: rotate(360deg); -webkit-transform: rotate(360deg); transform: rotate(360deg);"><g fill="none"><path d="M8.446 16.147l.084.073l2.25 2.25a.75.75 0 0 1 .073.976l-.073.084l-2.25 2.25a.75.75 0 0 1-1.133-.976l.073-.084l.969-.971H3.75a.75.75 0 0 1-.102-1.492l.102-.007l4.689-.001l-.97-.969a.75.75 0 0 1-.072-.976l.073-.084a.75.75 0 0 1 .976-.073zm7.108 0a.75.75 0 0 1 .882-.007l.094.08l.073.084a.75.75 0 0 1 .007.882l-.08.094l-.97.969h4.69a.75.75 0 0 1 .102 1.494l-.102.007l-4.69-.001l.97.97l.073.085a.75.75 0 0 1-1.05 1.049l-.083-.073l-2.25-2.25l-.073-.084a.75.75 0 0 1-.007-.883l.08-.093l2.25-2.25l.084-.073zM8.836 2.279l.062.092l.05.106l4.5 11.5a.75.75 0 0 1-1.353.639l-.043-.093l-1.236-3.156H5.683l-1.235 3.156a.75.75 0 0 1-.874.456l-.097-.03a.75.75 0 0 1-.456-.875l.03-.097l4.5-11.5c.22-.561.946-.627 1.285-.198zm10.759.106a.75.75 0 0 1 1.384.541l-.03.097l-4.5 11.5l-.051.106a.751.751 0 0 1-1.296 0l-.05-.105l-4.5-11.5l-.031-.098a.75.75 0 0 1 .355-.826l.1-.048l.098-.03a.75.75 0 0 1 .826.354l.048.1l3.802 9.716l3.802-9.715l.043-.092zM8.25 4.808L6.27 9.867h3.959L8.25 4.807z" fill="#626262"/></g><rect x="0" y="0" width="24" height="24" fill="rgba(0, 0, 0, 0)" /></svg>