<svg xmlns="http://www.w3.org/2000/svg" xmlns:xlink="http://www.w3.org/1999/xlink" width="24" height="24" preserveAspectRatio="xMidYMid meet" viewBox="0 0 24 24" style="-ms-transform: rotate(360deg); -webkit-transform: rotate(360deg); transform: rotate(360deg);"><g fill="none"><path d="M12.585 7.287l.062.092l.05.105l3.75 9.496a.75.75 0 0 1-1.35.643l-.045-.092l-.997-2.526h-4.11l-.997 2.526a.75.75 0 0 1-.876.453l-.097-.03a.75.75 0 0 1-.454-.876l.031-.098l3.75-9.496c.22-.559.944-.624 1.283-.197zM12 9.8l-1.463 3.705h2.926L12 9.8zm8.877-6.463a.75.75 0 0 1-.122.972l-.088.068l-2.25 1.495a.75.75 0 0 1-.734.055l-.097-.055l-2.251-1.495a.75.75 0 0 1 .733-1.304l.097.054l1.836 1.22l1.836-1.22a.75.75 0 0 1 1.04.21z" fill="#626262"/></g><rect x="0" y="0" width="24" height="24" fill="rgba(0, 0, 0, 0)" /></svg>