<svg xmlns="http://www.w3.org/2000/svg" xmlns:xlink="http://www.w3.org/1999/xlink" width="24" height="24" preserveAspectRatio="xMidYMid meet" viewBox="0 0 24 24" style="-ms-transform: rotate(360deg); -webkit-transform: rotate(360deg); transform: rotate(360deg);"><g fill="none"><path d="M8.5 3.75a.75.75 0 0 0-1.5 0v2.5a.75.75 0 0 1-.75.75h-2.5a.75.75 0 0 0 0 1.5h2.5A2.25 2.25 0 0 0 8.5 6.25v-2.5z" fill="#626262"/><path d="M8.5 20.25a.75.75 0 0 1-1.5 0v-2.5a.75.75 0 0 0-.75-.75h-2.5a.75.75 0 0 1 0-1.5h2.5a2.25 2.25 0 0 1 2.25 2.25v2.5z" fill="#626262"/><path d="M16.25 3a.75.75 0 0 0-.75.75v2.5a2.25 2.25 0 0 0 2.25 2.25h2.5a.75.75 0 0 0 0-1.5h-2.5a.75.75 0 0 1-.75-.75v-2.5a.75.75 0 0 0-.75-.75z" fill="#626262"/><path d="M15.5 20.25a.75.75 0 0 0 1.5 0v-2.5a.75.75 0 0 1 .75-.75h2.5a.75.75 0 0 0 0-1.5h-2.5a2.25 2.25 0 0 0-2.25 2.25v2.5z" fill="#626262"/></g><rect x="0" y="0" width="24" height="24" fill="rgba(0, 0, 0, 0)" /></svg>