<svg xmlns="http://www.w3.org/2000/svg" xmlns:xlink="http://www.w3.org/1999/xlink" width="24" height="24" preserveAspectRatio="xMidYMid meet" viewBox="0 0 24 24" style="-ms-transform: rotate(360deg); -webkit-transform: rotate(360deg); transform: rotate(360deg);"><g fill="none"><path d="M4.5 5.75c0-.69.56-1.25 1.25-1.25h2a.75.75 0 0 0 0-1.5h-2A2.75 2.75 0 0 0 3 5.75v2a.75.75 0 0 0 1.5 0v-2z" fill="#626262"/><path d="M4.5 18.25c0 .69.56 1.25 1.25 1.25h2a.75.75 0 0 1 0 1.5h-2A2.75 2.75 0 0 1 3 18.25v-2a.75.75 0 0 1 1.5 0v2z" fill="#626262"/><path d="M18.25 4.5c.69 0 1.25.56 1.25 1.25v2a.75.75 0 0 0 1.5 0v-2A2.75 2.75 0 0 0 18.25 3h-2a.75.75 0 0 0 0 1.5h2z" fill="#626262"/><path d="M19.5 18.25c0 .69-.56 1.25-1.25 1.25h-2a.75.75 0 0 0 0 1.5h2A2.75 2.75 0 0 0 21 18.25v-2a.75.75 0 0 0-1.5 0v2z" fill="#626262"/></g><rect x="0" y="0" width="24" height="24" fill="rgba(0, 0, 0, 0)" /></svg>