<svg xmlns="http://www.w3.org/2000/svg" xmlns:xlink="http://www.w3.org/1999/xlink" width="24" height="24" preserveAspectRatio="xMidYMid meet" viewBox="0 0 24 24" style="-ms-transform: rotate(360deg); -webkit-transform: rotate(360deg); transform: rotate(360deg);"><g fill="none"><path d="M12 1.999c5.524 0 10.002 4.478 10.002 10.002c0 .175-.005.349-.014.522c-.109.04-.216.094-.32.163l-.96.64a2.497 2.497 0 0 0-.257-.39A8.581 8.581 0 0 0 20.265 10h-3.358c.062.648.095 1.317.095 2.001h-1.5c0-.69-.037-1.36-.105-2H8.603a18.969 18.969 0 0 0 .135 5H11v1.5H9.061c.46 1.705 1.161 2.998 1.94 3.61v.39c0 .558.182 1.073.49 1.49C6.205 21.724 2 17.353 2 12C1.999 6.478 6.476 2 12 2zM7.508 16.501H4.786a8.532 8.532 0 0 0 4.094 3.41c-.522-.82-.953-1.846-1.27-3.015l-.102-.395zM7.094 10H3.736l-.005.017a8.524 8.524 0 0 0-.232 1.984c0 1.056.192 2.067.544 3h3.173A20.3 20.3 0 0 1 7 12c0-.684.032-1.354.095-2.001zM8.88 4.09l-.023.008A8.531 8.531 0 0 0 4.25 8.5h3.048c.314-1.752.86-3.278 1.583-4.41zm3.12-.591l-.117.005C10.62 3.62 9.397 5.622 8.83 8.5h6.342c-.566-2.87-1.783-4.869-3.045-4.995L12 3.5zm3.12.59l.106.175c.67 1.112 1.177 2.572 1.475 4.237h3.048a8.533 8.533 0 0 0-4.339-4.29l-.29-.121z" fill="#626262"/><path d="M12 14.5a1.5 1.5 0 0 1 1.5-1.5h5a1.5 1.5 0 0 1 1.5 1.5v.5l2.223-1.482a.5.5 0 0 1 .777.416v7.132a.5.5 0 0 1-.777.416L20 20v.5a1.5 1.5 0 0 1-1.5 1.5h-5a1.5 1.5 0 0 1-1.5-1.5v-6z" fill="#626262"/></g><rect x="0" y="0" width="24" height="24" fill="rgba(0, 0, 0, 0)" /></svg>