<svg xmlns="http://www.w3.org/2000/svg" xmlns:xlink="http://www.w3.org/1999/xlink" width="24" height="24" preserveAspectRatio="xMidYMid meet" viewBox="0 0 24 24" style="-ms-transform: rotate(360deg); -webkit-transform: rotate(360deg); transform: rotate(360deg);"><g fill="none"><path d="M5 7a2 2 0 1 0 0-4a2 2 0 0 0 0 4z" fill="#626262"/><path d="M19 7a2 2 0 1 0 0-4a2 2 0 0 0 0 4z" fill="#626262"/><path d="M21 19a2 2 0 1 1-4 0a2 2 0 0 1 4 0z" fill="#626262"/><path d="M5 21a2 2 0 1 0 0-4a2 2 0 0 0 0 4z" fill="#626262"/><path d="M7.959 5.5a3.02 3.02 0 0 0-.13-1.5H12.5A2.5 2.5 0 0 1 15 6.5V9h2.5a2.5 2.5 0 0 1 2.5 2.5v4.67a2.997 2.997 0 0 0-1.5-.129V11.5a1 1 0 0 0-1-1H15v2a2.5 2.5 0 0 1-2.5 2.5h-2v2.5a1 1 0 0 0 1 1h4.541a3.018 3.018 0 0 0 .13 1.5H11.5A2.5 2.5 0 0 1 9 17.5V15H6.5A2.5 2.5 0 0 1 4 12.5V7.83a2.995 2.995 0 0 0 1.5.129V12.5a1 1 0 0 0 1 1H9v-2A2.5 2.5 0 0 1 11.5 9h2V6.5a1 1 0 0 0-1-1H7.959zm4.541 8a1 1 0 0 0 1-1v-2h-2a1 1 0 0 0-1 1v2h2z" fill="#626262"/></g><rect x="0" y="0" width="24" height="24" fill="rgba(0, 0, 0, 0)" /></svg>