<svg xmlns="http://www.w3.org/2000/svg" xmlns:xlink="http://www.w3.org/1999/xlink" width="24" height="24" preserveAspectRatio="xMidYMid meet" viewBox="0 0 24 24" style="-ms-transform: rotate(360deg); -webkit-transform: rotate(360deg); transform: rotate(360deg);"><g fill="none"><path d="M3.28 2.22a.75.75 0 1 0-1.06 1.06l1.263 1.264A3.235 3.235 0 0 0 3 6.25v11.5A3.25 3.25 0 0 0 6.25 21h11.5c.626 0 1.21-.177 1.706-.483l1.263 1.264a.75.75 0 0 0 1.061-1.061L3.28 2.22zm8.788 10.909l6.206 6.206l.056.066a1.746 1.746 0 0 1-.58.099H6.25c-.204 0-.4-.035-.582-.099l5.807-5.686l.593-.586zm-.95-.95a2.245 2.245 0 0 0-.692.464l-5.823 5.7a1.747 1.747 0 0 1-.103-.593V6.25c0-.206.036-.404.101-.588l6.518 6.518z" fill="#626262"/><path d="M19.5 16.318V6.25a1.75 1.75 0 0 0-1.75-1.75H7.682L6.182 3H17.75A3.25 3.25 0 0 1 21 6.25v11.568l-1.5-1.5z" fill="#626262"/><path d="M15.252 6.5a2.252 2.252 0 1 1 0 4.504a2.252 2.252 0 0 1 0-4.504zm0 1.5a.752.752 0 1 0 0 1.504a.752.752 0 0 0 0-1.504z" fill="#626262"/></g><rect x="0" y="0" width="24" height="24" fill="rgba(0, 0, 0, 0)" /></svg>