<svg xmlns="http://www.w3.org/2000/svg" xmlns:xlink="http://www.w3.org/1999/xlink" width="24" height="24" preserveAspectRatio="xMidYMid meet" viewBox="0 0 24 24" style="-ms-transform: rotate(360deg); -webkit-transform: rotate(360deg); transform: rotate(360deg);"><g fill="none"><path d="M17.75 3A3.25 3.25 0 0 1 21 6.25v4.011a3.293 3.293 0 0 0-1.5-.254V6.25a1.75 1.75 0 0 0-1.75-1.75H6.25A1.75 1.75 0 0 0 4.5 6.25v11.5c0 .208.036.408.103.594l5.823-5.701a2.25 2.25 0 0 1 3.02-.116l.128.116l1.08 1.057l-1.061 1.06l-1.068-1.045a.75.75 0 0 0-.966-.071l-.084.07l-5.807 5.687c.182.064.378.099.582.099h4.039l-.227.907c-.05.202-.07.4-.063.593H6.25A3.25 3.25 0 0 1 3 17.75V6.25A3.25 3.25 0 0 1 6.25 3h11.5z" fill="#626262"/><path d="M15.252 6.002a2.252 2.252 0 1 1 0 4.504a2.252 2.252 0 0 1 0-4.504zm0 1.5a.752.752 0 1 0 0 1.504a.752.752 0 0 0 0-1.504z" fill="#626262"/><path d="M12.196 17.572l5.902-5.902a2.286 2.286 0 1 1 3.233 3.232l-5.903 5.902a2.685 2.685 0 0 1-1.247.707l-1.831.457a1.087 1.087 0 0 1-1.318-1.318l.457-1.83c.118-.473.363-.904.707-1.248zm6.963-4.842l-5.903 5.902c-.152.152-.26.343-.311.551l-.291 1.163l1.163-.29c.208-.053.399-.16.55-.312l5.903-5.903a.786.786 0 1 0-1.111-1.11z" fill="#626262"/></g><rect x="0" y="0" width="24" height="24" fill="rgba(0, 0, 0, 0)" /></svg>