<svg xmlns="http://www.w3.org/2000/svg" xmlns:xlink="http://www.w3.org/1999/xlink" width="24" height="24" preserveAspectRatio="xMidYMid meet" viewBox="0 0 24 24" style="-ms-transform: rotate(360deg); -webkit-transform: rotate(360deg); transform: rotate(360deg);"><g fill="none"><path d="M20.249 1.998a.75.75 0 0 1 .743.648l.007.102v3.5a1.75 1.75 0 0 1-1.607 1.744l-.143.006h-.263l-3.973 8.962a1.75 1.75 0 0 1-1.092.966c.138.83.117 1.612-.069 2.339a4.354 4.354 0 0 1-.244.702a1.75 1.75 0 0 1-3.211-.039a4.713 4.713 0 0 1-.221-.665a5.49 5.49 0 0 1-.07-2.358a1.738 1.738 0 0 1-.96-.792l-.07-.14l-4.06-8.975H4.75a1.75 1.75 0 0 1-1.744-1.606L3 6.248v-3.5a.75.75 0 0 1 1.493-.102l.007.102v3.5a.25.25 0 0 0 .193.243l.057.007H19.25a.25.25 0 0 0 .243-.193l.007-.057v-3.5a.75.75 0 0 1 .75-.75zM12.409 18h-.792l-.038.185c-.106.59-.089 1.158.051 1.71c.04.16.09.311.15.453a.25.25 0 0 0 .459.006c.066-.147.119-.3.16-.46c.131-.513.147-1.08.045-1.708L12.408 18zm4.936-10.002H6.662l3.78 8.356a.25.25 0 0 0 .17.14l.058.007h2.743a.25.25 0 0 0 .199-.099l.03-.05l3.703-8.354z" fill="#626262"/></g><rect x="0" y="0" width="24" height="24" fill="rgba(0, 0, 0, 0)" /></svg>