<svg xmlns="http://www.w3.org/2000/svg" xmlns:xlink="http://www.w3.org/1999/xlink" width="24" height="24" preserveAspectRatio="xMidYMid meet" viewBox="0 0 24 24" style="-ms-transform: rotate(360deg); -webkit-transform: rotate(360deg); transform: rotate(360deg);"><g fill="none"><path d="M17.252 12h-10.5l-.101.007a.75.75 0 0 0 .101 1.493h10.5l.102-.007A.75.75 0 0 0 17.252 12z" fill="#626262"/><path d="M17.502 9.5a1 1 0 1 0-2 0a1 1 0 0 0 2 0z" fill="#626262"/><path d="M11.507 9.5a1 1 0 1 0-2 0a1 1 0 0 0 2 0z" fill="#626262"/><path d="M8.507 9.5a1 1 0 1 0-2 0a1 1 0 0 0 2 0z" fill="#626262"/><path d="M14.507 9.5a1 1 0 1 0-2 0a1 1 0 0 0 2 0z" fill="#626262"/><path d="M7.002 6.5a1 1 0 1 0-2 0a1 1 0 0 0 2 0z" fill="#626262"/><path d="M9.997 6.5a1 1 0 1 0-2 0a1 1 0 0 0 2 0z" fill="#626262"/><path d="M12.997 6.5a1 1 0 1 0-2 0a1 1 0 0 0 2 0z" fill="#626262"/><path d="M15.997 6.5a1 1 0 1 0-2 0a1 1 0 0 0 2 0z" fill="#626262"/><path d="M18.997 6.5a1 1 0 1 0-2 0a1 1 0 0 0 2 0z" fill="#626262"/><path d="M21.998 4.75a2.25 2.25 0 0 0-2.25-2.25H4.252a2.25 2.25 0 0 0-2.25 2.25v9.505a2.25 2.25 0 0 0 2.25 2.25h6.998V18h.002v1.44l-.84-.842l-.085-.072a.75.75 0 0 0-.976 1.133l2.121 2.121l.084.073a.747.747 0 0 0 .394.145h.105l.103-.014a.747.747 0 0 0 .375-.204l2.121-2.121l.073-.084a.75.75 0 0 0-.073-.977l-.084-.072a.75.75 0 0 0-.977.072l-.84.841v-2.934h6.995a2.25 2.25 0 0 0 2.25-2.25V4.75zM12.75 15.005V15h-1.5v.005H4.252a.75.75 0 0 1-.75-.75V4.75a.75.75 0 0 1 .75-.75h15.496a.75.75 0 0 1 .75.75v9.505a.75.75 0 0 1-.75.75H12.75z" fill="#626262"/></g><rect x="0" y="0" width="24" height="24" fill="rgba(0, 0, 0, 0)" /></svg>