<svg xmlns="http://www.w3.org/2000/svg" xmlns:xlink="http://www.w3.org/1999/xlink" width="24" height="24" preserveAspectRatio="xMidYMid meet" viewBox="0 0 24 24" style="-ms-transform: rotate(360deg); -webkit-transform: rotate(360deg); transform: rotate(360deg);"><g fill="none"><path d="M18.03 11.47l-6.5-6.5a.75.75 0 0 0-1.133.976l.073.084l5.22 5.22H3.75a.75.75 0 0 0-.743.648L3 12c0 .38.282.694.648.743l.102.007h11.94l-5.22 5.22a.75.75 0 0 0-.073.976l.073.084a.75.75 0 0 0 .976.073l.084-.073l6.5-6.5a.75.75 0 0 0 .073-.976l-.073-.084l-6.5-6.5l6.5 6.5zM21 18.5v-13a.75.75 0 0 0-1.5 0v13a.75.75 0 0 0 1.5 0z" fill="#626262"/></g><rect x="0" y="0" width="24" height="24" fill="rgba(0, 0, 0, 0)" /></svg>