<svg xmlns="http://www.w3.org/2000/svg" xmlns:xlink="http://www.w3.org/1999/xlink" width="24" height="24" preserveAspectRatio="xMidYMid meet" viewBox="0 0 24 24" style="-ms-transform: rotate(360deg); -webkit-transform: rotate(360deg); transform: rotate(360deg);"><g fill="none"><path d="M10.75 8.25a1 1 0 1 1-2 0a1 1 0 0 1 2 0z" fill="#626262"/><path d="M13.5 8.25a1 1 0 1 1-2 0a1 1 0 0 1 2 0z" fill="#626262"/><path d="M16.5 8.25a1 1 0 1 1-2 0a1 1 0 0 1 2 0z" fill="#626262"/><path d="M19.5 8.25a1 1 0 1 1-2 0a1 1 0 0 1 2 0z" fill="#626262"/><path d="M9.75 16.75a1 1 0 1 0 0-2a1 1 0 0 0 0 2z" fill="#626262"/><path d="M12.5 16.75a1 1 0 1 0 0-2a1 1 0 0 0 0 2z" fill="#626262"/><path d="M15.5 16.75a1 1 0 1 0 0-2a1 1 0 0 0 0 2z" fill="#626262"/><path d="M18.5 16.75a1 1 0 1 0 0-2a1 1 0 0 0 0 2z" fill="#626262"/><path d="M5 4a3 3 0 0 0-3 3v10a3 3 0 0 0 3 3h14a3 3 0 0 0 3-3V7a3 3 0 0 0-3-3H5zm14 1.5A1.5 1.5 0 0 1 20.5 7v4.25h-13V5.5H19zm1.5 7.25V17a1.5 1.5 0 0 1-1.5 1.5H7.5v-5.75h13zM6 11.25H3.5V7A1.5 1.5 0 0 1 5 5.5h1v5.75zm-2.5 1.5H6v5.75H5A1.5 1.5 0 0 1 3.5 17v-4.25z" fill="#626262"/></g><rect x="0" y="0" width="24" height="24" fill="rgba(0, 0, 0, 0)" /></svg>