<svg xmlns="http://www.w3.org/2000/svg" xmlns:xlink="http://www.w3.org/1999/xlink" width="24" height="24" preserveAspectRatio="xMidYMid meet" viewBox="0 0 24 24" style="-ms-transform: rotate(360deg); -webkit-transform: rotate(360deg); transform: rotate(360deg);"><g fill="none"><path d="M5.99 4.929a.75.75 0 0 1 0 1.06a8.5 8.5 0 0 0 0 12.021a.75.75 0 0 1-1.061 1.06c-3.905-3.905-3.905-10.236 0-14.141a.75.75 0 0 1 1.06 0zm13.081 0c3.905 3.905 3.905 10.236 0 14.142a.75.75 0 0 1-1.06-1.06a8.5 8.5 0 0 0 0-12.022a.75.75 0 1 1 1.06-1.06zM8.818 7.757a.75.75 0 0 1 0 1.06a4.5 4.5 0 0 0 0 6.365a.75.75 0 0 1-1.06 1.06a6 6 0 0 1 0-8.485a.75.75 0 0 1 1.06 0zm7.425 0a6 6 0 0 1 0 8.485a.75.75 0 1 1-1.061-1.06a4.5 4.5 0 0 0 0-6.364a.75.75 0 0 1 1.06-1.06zM12 10.5a1.5 1.5 0 1 1 0 3a1.5 1.5 0 0 1 0-3z" fill="#626262"/></g><rect x="0" y="0" width="24" height="24" fill="rgba(0, 0, 0, 0)" /></svg>