<svg xmlns="http://www.w3.org/2000/svg" xmlns:xlink="http://www.w3.org/1999/xlink" width="24" height="24" preserveAspectRatio="xMidYMid meet" viewBox="0 0 24 24" style="-ms-transform: rotate(360deg); -webkit-transform: rotate(360deg); transform: rotate(360deg);"><g fill="none"><path d="M14.148 4.72a2.499 2.499 0 0 0-4.296 0a5.96 5.96 0 0 0-1.412-.546a4 4 0 0 1 7.12 0a5.959 5.959 0 0 0-1.412.546z" fill="#626262"/><path d="M9.384 7.437a7.95 7.95 0 0 1 1.658-.38a5 5 0 1 0-6.986 6.986a7.952 7.952 0 0 1 .381-1.659a3.5 3.5 0 0 1 4.947-4.947z" fill="#626262"/><path d="M19.943 14.042a5 5 0 1 0-6.986-6.986a7.952 7.952 0 0 1 1.659.381a3.5 3.5 0 0 1 4.947 4.947c.183.53.312 1.085.38 1.658z" fill="#626262"/><path d="M9.5 13.25a.75.75 0 0 1 .75-.75h4.25a.75.75 0 0 1 .495 1.313v.001l-.013.011l-.053.05a9.548 9.548 0 0 0-.925 1.048c-.557.731-1.188 1.77-1.53 3.024a.75.75 0 1 1-1.448-.394c.408-1.496 1.152-2.707 1.783-3.538L12.82 14h-2.57a.75.75 0 0 1-.75-.75z" fill="#626262"/><path d="M12 22a7 7 0 1 0 0-14a7 7 0 0 0 0 14zm0-1.5a5.5 5.5 0 1 1 0-11a5.5 5.5 0 0 1 0 11z" fill="#626262"/></g><rect x="0" y="0" width="24" height="24" fill="rgba(0, 0, 0, 0)" /></svg>