<svg xmlns="http://www.w3.org/2000/svg" xmlns:xlink="http://www.w3.org/1999/xlink" width="24" height="24" preserveAspectRatio="xMidYMid meet" viewBox="0 0 24 24" style="-ms-transform: rotate(360deg); -webkit-transform: rotate(360deg); transform: rotate(360deg);"><g fill="none"><path d="M7 10.25a.75.75 0 0 1 .75-.75h8.5a.75.75 0 0 1 0 1.5h-8.5a.75.75 0 0 1-.75-.75z" fill="#626262"/><path d="M9 3.5h-.25a.75.75 0 0 1 0-1.5h6.5a.75.75 0 0 1 0 1.5H15V5h1.75A3.25 3.25 0 0 1 20 8.25v9a3.25 3.25 0 0 1-3 3.24v.76a.75.75 0 0 1-1.5 0v-.75h-7v.75a.75.75 0 0 1-1.5 0v-.76a3.25 3.25 0 0 1-3-3.24v-9A3.25 3.25 0 0 1 7.25 5H9V3.5zm1.5 0V5h3V3.5h-3zM16.75 19a1.75 1.75 0 0 0 1.75-1.75v-9a1.75 1.75 0 0 0-1.75-1.75h-9.5A1.75 1.75 0 0 0 5.5 8.25v9c0 .966.784 1.75 1.75 1.75h9.5z" fill="#626262"/></g><rect x="0" y="0" width="24" height="24" fill="rgba(0, 0, 0, 0)" /></svg>