<svg xmlns="http://www.w3.org/2000/svg" xmlns:xlink="http://www.w3.org/1999/xlink" width="24" height="24" preserveAspectRatio="xMidYMid meet" viewBox="0 0 24 24" style="-ms-transform: rotate(360deg); -webkit-transform: rotate(360deg); transform: rotate(360deg);"><g fill="none"><path d="M17.5 12a5.5 5.5 0 1 1 0 11a5.5 5.5 0 0 1 0-11zm0 2l-.09.007a.5.5 0 0 0-.402.402L17 14.5V17L14.498 17l-.09.008a.5.5 0 0 0-.402.402l-.008.09l.008.09a.5.5 0 0 0 .402.402l.09.008H17v2.503l.008.09a.5.5 0 0 0 .402.402l.09.008l.09-.008a.5.5 0 0 0 .402-.402l.008-.09V18l2.504.001l.09-.008a.5.5 0 0 0 .402-.402l.008-.09l-.008-.09a.5.5 0 0 0-.403-.402l-.09-.008H18v-2.5l-.008-.09a.5.5 0 0 0-.402-.403L17.5 14zm.25-12a3.25 3.25 0 0 1 3.245 3.066L21 5.25l.001 6.773a6.469 6.469 0 0 0-1.5-.71l-.001-3.94l-8.15 4.29a.75.75 0 0 1-.603.043l-.096-.042L2.5 7.374v7.376a1.75 1.75 0 0 0 1.606 1.744l.144.006h6.826a6.553 6.553 0 0 0-.057 1.5H4.25a3.25 3.25 0 0 1-3.245-3.066L1 14.75v-9.5a3.25 3.25 0 0 1 3.066-3.245L4.25 2h13.5zm0 1.5H4.25a1.75 1.75 0 0 0-1.744 1.606L2.5 5.25v.429l8.5 4.473l8.5-4.474V5.25a1.75 1.75 0 0 0-1.607-1.744L17.75 3.5z" fill="#626262"/></g><rect x="0" y="0" width="24" height="24" fill="rgba(0, 0, 0, 0)" /></svg>