<svg xmlns="http://www.w3.org/2000/svg" xmlns:xlink="http://www.w3.org/1999/xlink" width="24" height="24" preserveAspectRatio="xMidYMid meet" viewBox="0 0 24 24" style="-ms-transform: rotate(360deg); -webkit-transform: rotate(360deg); transform: rotate(360deg);"><g fill="none"><path d="M9.203 4l.047-.002l.046.001a.73.73 0 0 1 .067.007l.016.004c.086.014.17.044.252.092l.051.034l5.07 3.565L19.82 4.14a.75.75 0 0 1 1.174.51l.007.104v10.632a.75.75 0 0 1-.238.548l-.08.066l-5.5 3.866a.744.744 0 0 1-.828.023L9.25 16.297l-5.07 3.565a.75.75 0 0 1-1.174-.51l-.007-.104V8.616a.75.75 0 0 1 .238-.548l.08-.066l5.5-3.866a.762.762 0 0 1 .2-.101l.122-.028l.064-.008zm10.298 2.197l-4 2.812v8.799l4-2.812v-8.8zM8.5 6.193l-4 2.812v8.8l4-2.813V6.193zm1.502 0v8.8l4 2.811V9.005l-4-2.812z" fill="#626262"/></g><rect x="0" y="0" width="24" height="24" fill="rgba(0, 0, 0, 0)" /></svg>