<svg xmlns="http://www.w3.org/2000/svg" xmlns:xlink="http://www.w3.org/1999/xlink" width="24" height="24" preserveAspectRatio="xMidYMid meet" viewBox="0 0 24 24" style="-ms-transform: rotate(360deg); -webkit-transform: rotate(360deg); transform: rotate(360deg);"><g fill="none"><path d="M9.282 8c.966 0 1.75.784 1.75 1.75v4.5A1.75 1.75 0 0 1 9.282 16H3.75A1.75 1.75 0 0 1 2 14.25v-4.5a1.75 1.75 0 0 1 1.606-1.744L3.75 8h5.532zM20.25 8c.966 0 1.75.784 1.75 1.75v4.5A1.75 1.75 0 0 1 20.25 16h-5.532a1.75 1.75 0 0 1-1.75-1.75v-4.5c0-.966.784-1.75 1.75-1.75h5.532zM9.282 9.5H3.75l-.057.007a.25.25 0 0 0-.193.243v4.5c0 .138.112.25.25.25h5.532a.25.25 0 0 0 .25-.25v-4.5a.25.25 0 0 0-.25-.25zm10.968 0h-5.532a.25.25 0 0 0-.25.25v4.5c0 .138.112.25.25.25h5.532a.25.25 0 0 0 .25-.25v-4.5a.25.25 0 0 0-.25-.25z" fill="#626262"/></g><rect x="0" y="0" width="24" height="24" fill="rgba(0, 0, 0, 0)" /></svg>