<svg xmlns="http://www.w3.org/2000/svg" xmlns:xlink="http://www.w3.org/1999/xlink" width="24" height="24" preserveAspectRatio="xMidYMid meet" viewBox="0 0 24 24" style="-ms-transform: rotate(360deg); -webkit-transform: rotate(360deg); transform: rotate(360deg);"><g fill="none"><path d="M3 6.75A.75.75 0 0 1 3.75 6h4.5a.75.75 0 0 1 .53.22L13.56 11h5.878L15.72 7.28a.75.75 0 1 1 1.06-1.06l4.998 5a.75.75 0 0 1 0 1.06l-4.998 5a.75.75 0 1 1-1.06-1.06l3.718-3.72H13.56l-4.78 4.78a.75.75 0 0 1-.531.22h-4.5a.75.75 0 0 1 0-1.5h4.19l4.25-4.25L7.94 7.5H3.75A.75.75 0 0 1 3 6.75z" fill="#626262"/></g><rect x="0" y="0" width="24" height="24" fill="rgba(0, 0, 0, 0)" /></svg>