<svg xmlns="http://www.w3.org/2000/svg" xmlns:xlink="http://www.w3.org/1999/xlink" width="24" height="24" preserveAspectRatio="xMidYMid meet" viewBox="0 0 24 24" style="-ms-transform: rotate(360deg); -webkit-transform: rotate(360deg); transform: rotate(360deg);"><g fill="none"><path d="M21.25 4.002a.75.75 0 0 1 .743.648l.007.102v14.5a.75.75 0 0 1-.648.743l-.102.007H2.75a.75.75 0 0 1-.743-.648L2 19.252v-14.5a.75.75 0 0 1 .648-.743l.102-.007h18.5zM6 12.5H3.5v6h17v-6H18v3.749a.75.75 0 0 1-1.493.102l-.007-.102V12.5h-2v3.749a.75.75 0 0 1-1.493.102L13 16.25V12.5h-2v3.749a.75.75 0 0 1-1.493.102L9.5 16.25V12.5h-2v3.749a.75.75 0 0 1-1.493.102L6 16.25V12.5zm14.5-7h-17v5.5h17V5.5zm-11.25 2a.75.75 0 1 1 0 1.5a.75.75 0 0 1 0-1.5zm8 0a.75.75 0 0 1 .102 1.493l-.102.007h-2.5a.75.75 0 0 1-.102-1.493l.102-.007h2.5zm-11-.001a.75.75 0 1 1 0 1.5a.75.75 0 0 1 0-1.5z" fill="#626262"/></g><rect x="0" y="0" width="24" height="24" fill="rgba(0, 0, 0, 0)" /></svg>