<svg xmlns="http://www.w3.org/2000/svg" xmlns:xlink="http://www.w3.org/1999/xlink" width="24" height="24" preserveAspectRatio="xMidYMid meet" viewBox="0 0 24 24" style="-ms-transform: rotate(360deg); -webkit-transform: rotate(360deg); transform: rotate(360deg);"><g fill="none"><path d="M19.25 18.5h2a.75.75 0 0 1 .102 1.493L21.25 20H20v1.25a.75.75 0 0 1-1.493.102l-.007-.102v-2a.75.75 0 0 1 .648-.743l.102-.007h2h-2zm-16.5 0h2a.75.75 0 0 1 .743.648l.007.102v2a.75.75 0 0 1-1.493.102L4 21.25V20H2.75a.75.75 0 0 1-.102-1.493l.102-.007h2h-2zm14-12.997a.75.75 0 0 1 .75.75V17.75a.75.75 0 0 1-.75.75H7.252a.75.75 0 0 1-.75-.75V6.253a.75.75 0 0 1 .75-.75h9.5zm-.75 1.5H8.002V17h8V7.003zm-6.25 5.511h2.502a.75.75 0 0 1 .102 1.493l-.102.007H9.75a.75.75 0 0 1-.102-1.493l.102-.007h2.502H9.75zm0-3.014h4.502a.75.75 0 0 1 .102 1.493l-.102.007H9.75a.75.75 0 0 1-.102-1.493L9.75 9.5h4.502H9.75zm-5-7.5a.75.75 0 0 1 .743.648l.007.102v2a.75.75 0 0 1-.648.743L4.75 5.5h-2a.75.75 0 0 1-.102-1.493L2.75 4H4V2.75A.75.75 0 0 1 4.75 2zm14.5 0a.75.75 0 0 1 .743.648L20 2.75V4h1.25a.75.75 0 0 1 .102 1.493l-.102.007h-2a.75.75 0 0 1-.743-.648L18.5 4.75v-2a.75.75 0 0 1 .75-.75z" fill="#626262"/></g><rect x="0" y="0" width="24" height="24" fill="rgba(0, 0, 0, 0)" /></svg>