<svg xmlns="http://www.w3.org/2000/svg" xmlns:xlink="http://www.w3.org/1999/xlink" width="24" height="24" preserveAspectRatio="xMidYMid meet" viewBox="0 0 24 24" style="-ms-transform: rotate(360deg); -webkit-transform: rotate(360deg); transform: rotate(360deg);"><g fill="none"><path d="M8.784 15.223a.75.75 0 0 1 .072.977l-.073.084L5.28 19.78a.75.75 0 0 1-.887.128l-.093-.06l-2-1.5a.75.75 0 0 1 .807-1.26l.093.06l1.48 1.11l3.043-3.037a.75.75 0 0 1 1.061.001zM21.238 17a.75.75 0 0 1 .101 1.494l-.101.006h-10.5a.75.75 0 0 1-.102-1.493l.102-.007h10.5zm.012-6a.75.75 0 0 1 .102 1.494l-.102.007h-10.5a.75.75 0 0 1-.102-1.493L10.75 11h10.5zM8.785 3.225a.75.75 0 0 1 .07.977l-.073.083L5.27 7.781a.75.75 0 0 1-.888.128l-.092-.06l-1.99-1.5a.75.75 0 0 1 .809-1.258l.093.06l1.47 1.108L7.724 3.22a.75.75 0 0 1 1.06.003zM21.238 5a.75.75 0 0 1 .101 1.494l-.101.006H10.766a.75.75 0 0 1-.102-1.493L10.766 5h10.472z" fill="#626262"/></g><rect x="0" y="0" width="24" height="24" fill="rgba(0, 0, 0, 0)" /></svg>