<svg xmlns="http://www.w3.org/2000/svg" xmlns:xlink="http://www.w3.org/1999/xlink" width="24" height="24" preserveAspectRatio="xMidYMid meet" viewBox="0 0 24 24" style="-ms-transform: rotate(360deg); -webkit-transform: rotate(360deg); transform: rotate(360deg);"><g fill="none"><path d="M19.698 2.148A.75.75 0 0 1 20 2.75v13.5a.764.764 0 0 1-.004.079a3.5 3.5 0 1 1-1.496-2.702V7.758l-8.5 2.55v7.942a.756.756 0 0 1-.004.079A3.5 3.5 0 1 1 8.5 15.627V5.75a.75.75 0 0 1 .534-.718l10-3a.75.75 0 0 1 .664.116zM10 8.742l8.5-2.55V3.758L10 6.308v2.434zM6.5 16.5a2 2 0 1 0 0 4a2 2 0 0 0 0-4zm8 0a2 2 0 1 0 4 0a2 2 0 0 0-4 0z" fill="#626262"/></g><rect x="0" y="0" width="24" height="24" fill="rgba(0, 0, 0, 0)" /></svg>