<svg xmlns="http://www.w3.org/2000/svg" xmlns:xlink="http://www.w3.org/1999/xlink" width="24" height="24" preserveAspectRatio="xMidYMid meet" viewBox="0 0 24 24" style="-ms-transform: rotate(360deg); -webkit-transform: rotate(360deg); transform: rotate(360deg);"><g fill="none"><path d="M19.25 8.5a2.75 2.75 0 1 0 0-5.5a2.75 2.75 0 0 0 0 5.5z" fill="#626262"/><path d="M15.576 6.503a3.768 3.768 0 0 1-.002-1.5H2.752l-.102.007a.75.75 0 0 0 .102 1.493h12.824z" fill="#626262"/><path d="M21.253 18h-18.5l-.102.007a.75.75 0 0 0 .102 1.493h18.5l.102-.007A.75.75 0 0 0 21.253 18z" fill="#626262"/><path d="M2.753 11.503h18.5a.75.75 0 0 1 .102 1.493l-.102.007h-18.5a.75.75 0 0 1-.102-1.493l.102-.007z" fill="#626262"/></g><rect x="0" y="0" width="24" height="24" fill="rgba(0, 0, 0, 0)" /></svg>