<svg xmlns="http://www.w3.org/2000/svg" xmlns:xlink="http://www.w3.org/1999/xlink" width="24" height="24" preserveAspectRatio="xMidYMid meet" viewBox="0 0 24 24" style="-ms-transform: rotate(360deg); -webkit-transform: rotate(360deg); transform: rotate(360deg);"><g fill="none"><path d="M2.753 18h18.5a.75.75 0 0 1 .101 1.493l-.101.007h-18.5a.75.75 0 0 1-.102-1.494L2.753 18h18.5h-18.5zm0-6.497h18.5a.75.75 0 0 1 .101 1.493l-.101.007h-18.5a.75.75 0 0 1-.102-1.494l.102-.006h18.5h-18.5zm-.001-6.5h18.5a.75.75 0 0 1 .102 1.493l-.102.007h-18.5A.75.75 0 0 1 2.65 5.01l.102-.007h18.5h-18.5z" fill="#626262"/></g><rect x="0" y="0" width="24" height="24" fill="rgba(0, 0, 0, 0)" /></svg>