<svg xmlns="http://www.w3.org/2000/svg" xmlns:xlink="http://www.w3.org/1999/xlink" width="24" height="24" preserveAspectRatio="xMidYMid meet" viewBox="0 0 24 24" style="-ms-transform: rotate(360deg); -webkit-transform: rotate(360deg); transform: rotate(360deg);"><g fill="none"><path d="M6.5 12a5.5 5.5 0 1 1 0 11a5.5 5.5 0 0 1 0-11zM16.749 2a2.25 2.25 0 0 1 2.25 2.25v15.5a2.25 2.25 0 0 1-2.25 2.25h-5.56c.427-.443.791-.948 1.078-1.499l4.482-.001a.75.75 0 0 0 .75-.75V4.25a.75.75 0 0 0-.75-.75H6.25a.75.75 0 0 0-.75.75v6.826a6.457 6.457 0 0 0-1.5.422V4.25A2.25 2.25 0 0 1 6.25 2h10.499zM9.5 17.5h-2l-.09.008a.5.5 0 0 0 0 .984l.09.008h.87a2.126 2.126 0 0 1-3.614.216a.5.5 0 0 0-.82.574a3.116 3.116 0 0 0 2.56 1.334c.949 0 1.809-.426 2.385-1.106l.12-.15L9 20l.008.09a.5.5 0 0 0 .984 0L10 20v-2l-.008-.09a.5.5 0 0 0-.492-.41zm11.25-2.498a.75.75 0 0 1 .743.648l.007.102v1.498a.75.75 0 0 1-.648.743L20.75 18H20v-2.998h.75zm-14.254-.626c-.944 0-1.802.423-2.378 1.1l-.12.148V15l-.007-.09a.5.5 0 0 0-.984 0l-.008.09v2l.008.09a.5.5 0 0 0 .402.402l.09.008l.442.002L5.5 17.5l.09-.008a.5.5 0 0 0 0-.984L5.5 16.5h-.878a2.126 2.126 0 0 1 3.62-.21a.5.5 0 1 0 .82-.57a3.116 3.116 0 0 0-2.566-1.343zm14.254-3.374a.75.75 0 0 1 .743.648l.007.102v1.498a.75.75 0 0 1-.648.743L20.75 14H20v-2.998h.75zm0-4a.75.75 0 0 1 .743.648l.007.102V9.25a.75.75 0 0 1-.648.743L20.75 10H20V7.002h.75zM15.249 5a.75.75 0 0 1 .75.75v2.498a.75.75 0 0 1-.75.75H7.75a.75.75 0 0 1-.75-.75V5.75A.75.75 0 0 1 7.75 5h7.499zm-.75 1.5H8.5v.998h5.999V6.5z" fill="#626262"/></g><rect x="0" y="0" width="24" height="24" fill="rgba(0, 0, 0, 0)" /></svg>