<svg xmlns="http://www.w3.org/2000/svg" xmlns:xlink="http://www.w3.org/1999/xlink" width="24" height="24" preserveAspectRatio="xMidYMid meet" viewBox="0 0 24 24" style="-ms-transform: rotate(360deg); -webkit-transform: rotate(360deg); transform: rotate(360deg);"><g fill="none"><path d="M9 2a4.5 4.5 0 0 0-4.5 4.5v9.4c0 .98.626 1.813 1.5 2.122V6.5a3 3 0 0 1 3-3h5.002A2.251 2.251 0 0 0 11.88 2H9zM7 6.75A2.25 2.25 0 0 1 9.25 4.5H15V2.75a.75.75 0 0 1 1.5 0v18.5a.75.75 0 0 1-1.5 0V20H9.25A2.25 2.25 0 0 1 7 17.75v-11zm8 11.75V6H9.25a.75.75 0 0 0-.75.75v11c0 .414.336.75.75.75H15z" fill="#626262"/></g><rect x="0" y="0" width="24" height="24" fill="rgba(0, 0, 0, 0)" /></svg>