<svg xmlns="http://www.w3.org/2000/svg" xmlns:xlink="http://www.w3.org/1999/xlink" width="24" height="24" preserveAspectRatio="xMidYMid meet" viewBox="0 0 24 24" style="-ms-transform: rotate(360deg); -webkit-transform: rotate(360deg); transform: rotate(360deg);"><g fill="none"><path d="M12 6.5a5.5 5.5 0 1 0-11 0a5.5 5.5 0 0 0 11 0zM7 7l.001 2.504a.5.5 0 0 1-1 0V7H3.496a.5.5 0 0 1 0-1H6V3.5a.5.5 0 0 1 1 0V6h2.503a.5.5 0 0 1 0 1H7.001z" fill="#626262"/><path d="M17.75 4.5h-5.063a6.472 6.472 0 0 0-.709-1.5h5.772A3.25 3.25 0 0 1 21 6.25v6.879a2.25 2.25 0 0 1-.659 1.59l-5.621 5.622a2.25 2.25 0 0 1-1.591.659H6.25A3.25 3.25 0 0 1 3 17.75v-5.772c.463.297.967.536 1.5.709v5.063c0 .966.784 1.75 1.75 1.75H13v-3.25a3.25 3.25 0 0 1 3.066-3.245L16.25 13h3.25V6.25a1.75 1.75 0 0 0-1.75-1.75zm.689 10H16.25a1.75 1.75 0 0 0-1.744 1.607l-.006.143v2.189l3.939-3.939z" fill="#626262"/></g><rect x="0" y="0" width="24" height="24" fill="rgba(0, 0, 0, 0)" /></svg>