<svg xmlns="http://www.w3.org/2000/svg" xmlns:xlink="http://www.w3.org/1999/xlink" width="24" height="24" preserveAspectRatio="xMidYMid meet" viewBox="0 0 24 24" style="-ms-transform: rotate(360deg); -webkit-transform: rotate(360deg); transform: rotate(360deg);"><g fill="none"><path d="M7.25 4.5h3.5a.75.75 0 0 1 .101 1.493L10.75 6h-3.5a2.249 2.249 0 0 0-2.241 2.061L5 8.22l.003 8.53A2.25 2.25 0 0 0 7.1 18.996l.154.005l8.498-.012a2.25 2.25 0 0 0 2.242-2.096l.005-.154v-3.506a.75.75 0 0 1 1.493-.102l.007.102v3.506a3.75 3.75 0 0 1-3.546 3.745l-.2.005l-8.495.012l-.203-.005a3.75 3.75 0 0 1-3.547-3.545l-.005-.199l-.002-8.498l.004-.203a3.75 3.75 0 0 1 3.546-3.545l.2-.005h3.498H7.25zm6.498-1.499l6.554.001l.1.014l.1.028l.057.024a.706.706 0 0 1 .152.09l.07.064l.083.098l.054.09l.039.09l.02.065l.013.064l.01.094v6.532a.75.75 0 0 1-1.494.102l-.006-.102l-.001-4.694l-7.22 7.224a.75.75 0 0 1-.976.072l-.084-.072a.75.75 0 0 1-.073-.977l.073-.084l7.218-7.223h-4.689a.75.75 0 0 1-.743-.648l-.007-.102a.75.75 0 0 1 .648-.743l.102-.007z" fill="#626262"/></g><rect x="0" y="0" width="24" height="24" fill="rgba(0, 0, 0, 0)" /></svg>