<svg xmlns="http://www.w3.org/2000/svg" xmlns:xlink="http://www.w3.org/1999/xlink" width="24" height="24" preserveAspectRatio="xMidYMid meet" viewBox="0 0 24 24" style="-ms-transform: rotate(360deg); -webkit-transform: rotate(360deg); transform: rotate(360deg);"><g fill="none"><path d="M3.28 2.22a.75.75 0 1 0-1.06 1.06L4.568 5.63A3.737 3.737 0 0 0 3.505 8.05l-.004.203l.002 8.498l.005.199a3.75 3.75 0 0 0 3.547 3.545l.203.005l8.496-.012l.199-.005a3.737 3.737 0 0 0 2.411-1.058l2.355 2.355a.75.75 0 0 0 1.061-1.06L3.28 2.22zm14.024 16.145c-.404.385-.95.622-1.552.623L7.254 19l-.154-.005a2.25 2.25 0 0 1-2.097-2.245L5 8.22l.008-.16c.044-.53.272-1.009.62-1.37l5.392 5.39a.75.75 0 0 0 .199.705l.084.072a.75.75 0 0 0 .62.127l5.38 5.38z" fill="#626262"/><path d="M13.062 9.88l1.06 1.06L19.5 5.562v4.694l.008.102A.75.75 0 0 0 21 10.255V3.723l-.01-.095l-.014-.063l-.019-.065l-.039-.09l-.054-.09l-.084-.099l-.069-.062a.706.706 0 0 0-.152-.091l-.057-.024l-.1-.028l-.1-.014h-6.554l-.102.006a.75.75 0 0 0-.648.743l.007.102a.75.75 0 0 0 .743.648h4.689L13.062 9.88z" fill="#626262"/><path d="M19.499 16.317l-1.5-1.5v-1.585a.75.75 0 0 1 1.493-.102l.007.102v3.085z" fill="#626262"/><path d="M7.682 4.5l1.5 1.5h1.567l.102-.007A.75.75 0 0 0 10.75 4.5H7.682z" fill="#626262"/></g><rect x="0" y="0" width="24" height="24" fill="rgba(0, 0, 0, 0)" /></svg>