<svg id="b35c941f-f87f-4431-b8d0-0bd526653e71" data-name="ICONA MIA" xmlns="http://www.w3.org/2000/svg" viewBox="0 0 24 24">
  <defs>
    <style>
      .b1df9689-2ce9-4ebf-ac7c-dbaafc0cccae {
        fill: #626262;
      }

      .a9fee7a7-e6f6-4b63-b73c-e0a3a29675ab {
        fill: #fff;
        opacity: 0;
      }
    </style>
  </defs>
  <path class="b1df9689-2ce9-4ebf-ac7c-dbaafc0cccae" d="M20.25,16h-.5V13.28A2.25,2.25,0,0,0,17.5,11H12.75V8h5.5A1.75,1.75,0,0,0,20,6.25V3.75A1.75,1.75,0,0,0,18.25,2H5.75A1.75,1.75,0,0,0,4,3.75v2.5A1.75,1.75,0,0,0,5.75,8h5.5v3H6.5a2.25,2.25,0,0,0-2.25,2.25V16h-.5A1.75,1.75,0,0,0,2,17.75v2.5A1.75,1.75,0,0,0,3.75,22h2.5A1.75,1.75,0,0,0,8,20.25v-2.5A1.76,1.76,0,0,0,6.25,16h-.5V14.26h0v-1a.75.75,0,0,1,.75-.75h4.75V16h-.5A1.75,1.75,0,0,0,9,17.75H9v2.5A1.75,1.75,0,0,0,10.75,22h2.5A1.75,1.75,0,0,0,15,20.25v-2.5A1.75,1.75,0,0,0,13.25,16h-.5V12.53H17.5a.75.75,0,0,1,.75.75v.46h0V16h-.5A1.76,1.76,0,0,0,16,17.75v2.5A1.75,1.75,0,0,0,17.75,22h2.5A1.75,1.75,0,0,0,22,20.25v-2.5A1.75,1.75,0,0,0,20.25,16ZM5.5,6.25V3.75a.25.25,0,0,1,.25-.25h12.5a.25.25,0,0,1,.25.25v2.5a.25.25,0,0,1-.25.25H5.75A.25.25,0,0,1,5.5,6.25Zm1,11.5v2.5a.25.25,0,0,1-.25.25H3.75a.25.25,0,0,1-.25-.25v-2.5a.25.25,0,0,1,.25-.25h2.5A.25.25,0,0,1,6.5,17.75Zm7,0v2.5a.25.25,0,0,1-.25.25h-2.5a.25.25,0,0,1-.25-.25v-2.5h0a.25.25,0,0,1,.25-.25h2.5A.25.25,0,0,1,13.5,17.75Zm7,2.5a.25.25,0,0,1-.25.25h-2.5a.25.25,0,0,1-.25-.25v-2.5a.25.25,0,0,1,.25-.25h2.5a.25.25,0,0,1,.25.25Z"/>
  <rect class="a9fee7a7-e6f6-4b63-b73c-e0a3a29675ab" width="24" height="24"/>
</svg>
