<svg xmlns="http://www.w3.org/2000/svg" xmlns:xlink="http://www.w3.org/1999/xlink" width="24" height="24" preserveAspectRatio="xMidYMid meet" viewBox="0 0 24 24" style="-ms-transform: rotate(360deg); -webkit-transform: rotate(360deg); transform: rotate(360deg);"><g fill="none"><path d="M17.995 12a.5.5 0 0 0-.5-.5l-4.785-.002l1.646-1.646a.5.5 0 0 0-.707-.707l-2.499 2.5a.5.5 0 0 0 0 .707l2.5 2.499a.5.5 0 0 0 .706-.707l-1.645-1.646l4.784.002a.5.5 0 0 0 .5-.5z" fill="#626262"/><path d="M4.75 20.002A2.75 2.75 0 0 1 2 17.252V6.748a2.75 2.75 0 0 1 2.75-2.75h14.5A2.75 2.75 0 0 1 22 6.748v10.504a2.75 2.75 0 0 1-2.75 2.75H4.75zm-1.25-2.75c0 .69.56 1.25 1.25 1.25h3.254V5.498H4.75c-.69 0-1.25.56-1.25 1.25v10.504zM9.504 5.498v13.004h9.746c.69 0 1.25-.56 1.25-1.25V6.748c0-.69-.56-1.25-1.25-1.25H9.504z" fill="#626262"/></g><rect x="0" y="0" width="24" height="24" fill="rgba(0, 0, 0, 0)" /></svg>