<svg xmlns="http://www.w3.org/2000/svg" xmlns:xlink="http://www.w3.org/1999/xlink" width="24" height="24" preserveAspectRatio="xMidYMid meet" viewBox="0 0 24 24" style="-ms-transform: rotate(360deg); -webkit-transform: rotate(360deg); transform: rotate(360deg);"><g fill="none"><path d="M5.746 3a1.75 1.75 0 0 0-1.75 1.75v14.5c0 .966.784 1.75 1.75 1.75h3.5a1.75 1.75 0 0 0 1.75-1.75V4.75A1.75 1.75 0 0 0 9.246 3h-3.5zm-.25 1.75a.25.25 0 0 1 .25-.25h3.5a.25.25 0 0 1 .25.25v14.5a.25.25 0 0 1-.25.25h-3.5a.25.25 0 0 1-.25-.25V4.75z" fill="#626262"/><path d="M14.746 3a1.75 1.75 0 0 0-1.75 1.75v14.5c0 .966.784 1.75 1.75 1.75h3.5a1.75 1.75 0 0 0 1.75-1.75V4.75A1.75 1.75 0 0 0 18.246 3h-3.5zm-.25 1.75a.25.25 0 0 1 .25-.25h3.5a.25.25 0 0 1 .25.25v14.5a.25.25 0 0 1-.25.25h-3.5a.25.25 0 0 1-.25-.25V4.75z" fill="#626262"/></g><rect x="0" y="0" width="24" height="24" fill="rgba(0, 0, 0, 0)" /></svg>