<svg xmlns="http://www.w3.org/2000/svg" xmlns:xlink="http://www.w3.org/1999/xlink" width="24" height="24" preserveAspectRatio="xMidYMid meet" viewBox="0 0 24 24" style="-ms-transform: rotate(360deg); -webkit-transform: rotate(360deg); transform: rotate(360deg);"><g fill="none"><path d="M12.81 13L4 13a2 2 0 0 0-2 2V16.5l.005.23C2.165 20.044 5.778 21 8.5 21c1.03 0 2.189-.137 3.239-.487c-.23-.44-.413-.91-.537-1.403c-.698.224-1.52.359-2.385.385L8.5 19.5l-.317-.005c-1.263-.039-2.44-.308-3.266-.753C3.95 18.222 3.5 17.509 3.5 16.5v-1.501l.01-.101a.506.506 0 0 1 .136-.253a.51.51 0 0 1 .253-.136l.101-.01h7.732c.287-.55.651-1.055 1.077-1.499z" fill="#626262"/><path d="M13 6.5a4.5 4.5 0 1 0-9 0a4.5 4.5 0 0 0 9 0zm-7.5 0c0-1.654 1.346-3 3-3s3 1.346 3 3s-1.346 3-3 3s-3-1.346-3-3z" fill="#626262"/><path d="M21 7.5a3.5 3.5 0 1 0-7 0a3.5 3.5 0 0 0 7 0zm-5.5 0c0-1.103.897-2 2-2s2 .897 2 2s-.897 2-2 2s-2-.897-2-2z" fill="#626262"/><path d="M23 17.5a5.5 5.5 0 1 1-11 0a5.5 5.5 0 0 1 11 0zM17.5 14a.5.5 0 0 0-.5.5v4a.5.5 0 0 0 1 0v-4a.5.5 0 0 0-.5-.5zm0 7.125a.625.625 0 1 0 0-1.25a.625.625 0 0 0 0 1.25z" fill="#626262"/></g><rect x="0" y="0" width="24" height="24" fill="rgba(0, 0, 0, 0)" /></svg>