<svg xmlns="http://www.w3.org/2000/svg" xmlns:xlink="http://www.w3.org/1999/xlink" width="24" height="24" preserveAspectRatio="xMidYMid meet" viewBox="0 0 24 24" style="-ms-transform: rotate(360deg); -webkit-transform: rotate(360deg); transform: rotate(360deg);"><g fill="none"><path d="M11.91 13.998l7.843.002a2.25 2.25 0 0 1 2.25 2.25v.905A3.75 3.75 0 0 1 20.696 20C19.13 21.344 16.89 22 14 22h-.179c.234-.47.242-1.025.026-1.502l.153.003c2.56 0 4.458-.557 5.719-1.64a2.25 2.25 0 0 0 .784-1.706v-.905a.75.75 0 0 0-.75-.75h-7.776a5.565 5.565 0 0 0-.068-1.502zM6.5 10.5a4.5 4.5 0 0 1 3.46 7.376l2.823 2.814a.75.75 0 0 1-.975 1.135l-.085-.073l-2.903-2.896A4.5 4.5 0 1 1 6.5 10.5zm0 1.5a3 3 0 1 0 0 6a3 3 0 0 0 0-6zM14 2.004a5 5 0 1 1 0 10a5 5 0 0 1 0-10zm0 1.5a3.5 3.5 0 1 0 0 7a3.5 3.5 0 0 0 0-7z" fill="#626262"/></g><rect x="0" y="0" width="24" height="24" fill="rgba(0, 0, 0, 0)" /></svg>