<svg xmlns="http://www.w3.org/2000/svg" xmlns:xlink="http://www.w3.org/1999/xlink" width="24" height="24" preserveAspectRatio="xMidYMid meet" viewBox="0 0 24 24" style="-ms-transform: rotate(360deg); -webkit-transform: rotate(360deg); transform: rotate(360deg);"><g fill="none"><path d="M17.5 12a5.5 5.5 0 1 1 0 11a5.5 5.5 0 0 1 0-11zm-2.646 5.146a.5.5 0 0 0-.707.707l2 2a.5.5 0 0 0 .707 0l4-4a.5.5 0 0 0-.707-.707L16.5 18.793l-1.646-1.647zM12.022 14a6.474 6.474 0 0 0-.708 1.5H4.253a.749.749 0 0 0-.75.75v.577c0 .536.192 1.054.54 1.461c1.253 1.468 3.219 2.214 5.957 2.214c.597 0 1.156-.036 1.68-.106c.245.495.553.953.912 1.366c-.796.16-1.66.24-2.592.24c-3.146 0-5.532-.905-7.098-2.74a3.75 3.75 0 0 1-.898-2.435v-.577a2.249 2.249 0 0 1 2.249-2.25h7.77zM10 2.004a5 5 0 1 1 0 10a5 5 0 0 1 0-10zm0 1.5a3.5 3.5 0 1 0 0 7a3.5 3.5 0 0 0 0-7z" fill="#626262"/></g><rect x="0" y="0" width="24" height="24" fill="rgba(0, 0, 0, 0)" /></svg>