<svg xmlns="http://www.w3.org/2000/svg" xmlns:xlink="http://www.w3.org/1999/xlink" width="24" height="24" preserveAspectRatio="xMidYMid meet" viewBox="0 0 24 24" style="-ms-transform: rotate(360deg); -webkit-transform: rotate(360deg); transform: rotate(360deg);"><g fill="none"><path d="M5.254 14h10.988c.104.172.231.332.38.474l.72.682c-.042.159-.095.318-.16.478a.75.75 0 0 0-.429-.134h-11.5a.75.75 0 0 0-.75.75v.907c0 .656.287 1.279.784 1.706C6.545 19.945 8.44 20.501 11 20.501c.292 0 .575-.007.85-.022c.081.447.294.871.63 1.21l.228.227c-.541.057-1.11.085-1.708.085c-2.89 0-5.128-.657-6.691-2a3.75 3.75 0 0 1-1.305-2.844v-.907A2.25 2.25 0 0 1 5.254 14zm11.757-1.755l.503-1.187c.236-.557.801-.86 1.356-.744l.118.031l.63.202c.626.2 1.104.735 1.259 1.407c.367 1.598-.074 3.543-1.322 5.835c-1.247 2.29-2.614 3.666-4.1 4.13a1.76 1.76 0 0 1-1.663-.343l-.124-.113l-.478-.48a1.36 1.36 0 0 1-.222-1.591l.07-.116l.722-1.06c.284-.417.77-.615 1.237-.515l.127.035l1.332.444a5.081 5.081 0 0 0 1.33-1.52a4.798 4.798 0 0 0 .596-1.59l.038-.269l-1.109-1.053a1.354 1.354 0 0 1-.348-1.372l.048-.131l.503-1.187l-.503 1.187zM11 2.005a5 5 0 1 1 0 10a5 5 0 0 1 0-10zm0 1.5a3.5 3.5 0 1 0 0 7a3.5 3.5 0 0 0 0-7z" fill="#626262"/></g><rect x="0" y="0" width="24" height="24" fill="rgba(0, 0, 0, 0)" /></svg>