<svg xmlns="http://www.w3.org/2000/svg" xmlns:xlink="http://www.w3.org/1999/xlink" width="24" height="24" preserveAspectRatio="xMidYMid meet" viewBox="0 0 24 24" style="-ms-transform: rotate(360deg); -webkit-transform: rotate(360deg); transform: rotate(360deg);"><g fill="none"><path d="M11 15c0-.35.06-.687.17-1H4.253a2.249 2.249 0 0 0-2.249 2.249v.578c0 .892.319 1.756.899 2.435c1.566 1.834 3.952 2.74 7.098 2.74c.397 0 .783-.015 1.156-.044A2.998 2.998 0 0 1 11 21v-.535c-.321.024-.655.036-1 .036c-2.738 0-4.704-.746-5.958-2.213a2.25 2.25 0 0 1-.539-1.462v-.577c0-.414.336-.75.75-.75H11V15zM10 2.005a5 5 0 1 1 0 10a5 5 0 0 1 0-10zm0 1.5a3.5 3.5 0 1 0 0 7a3.5 3.5 0 0 0 0-7zM12 15a2 2 0 0 1 2-2h7a2 2 0 0 1 2 2v6a2 2 0 0 1-2 2h-7a2 2 0 0 1-2-2v-6zm2.5 1a.5.5 0 0 0 0 1h6a.5.5 0 0 0 0-1h-6zm0 3a.5.5 0 0 0 0 1h6a.5.5 0 0 0 0-1h-6z" fill="#626262"/></g><rect x="0" y="0" width="24" height="24" fill="rgba(0, 0, 0, 0)" /></svg>