<svg xmlns="http://www.w3.org/2000/svg" xmlns:xlink="http://www.w3.org/1999/xlink" width="24" height="24" preserveAspectRatio="xMidYMid meet" viewBox="0 0 24 24" style="-ms-transform: rotate(360deg); -webkit-transform: rotate(360deg); transform: rotate(360deg);"><g fill="none"><path d="M17.5 12a5.5 5.5 0 1 1 0 11a5.5 5.5 0 0 1 0-11zm0 7.75a.625.625 0 1 0 0 1.25a.625.625 0 0 0 0-1.25zm0-5.876c-1.048 0-1.864.817-1.853 1.954a.5.5 0 1 0 1-.01c-.006-.579.36-.944.853-.944c.473 0 .854.392.854.95c0 .192-.056.342-.224.56l-.094.117l-.1.113l-.265.29l-.136.157c-.384.457-.535.793-.535 1.31a.5.5 0 1 0 1 0c0-.203.059-.359.239-.59l.085-.104l.1-.116l.267-.29l.134-.155c.378-.45.529-.783.529-1.293c0-1.103-.823-1.95-1.854-1.95zm-5.478.125a6.474 6.474 0 0 0-.708 1.5H4.253a.749.749 0 0 0-.75.75v.577c0 .536.192 1.054.54 1.461c1.253 1.468 3.219 2.214 5.957 2.214c.597 0 1.156-.036 1.68-.106c.245.495.553.953.912 1.366c-.796.16-1.66.24-2.592.24c-3.146 0-5.532-.905-7.098-2.74a3.75 3.75 0 0 1-.898-2.435v-.577a2.249 2.249 0 0 1 2.249-2.25h7.77zM10 2.004a5 5 0 1 1 0 10a5 5 0 0 1 0-10zm0 1.5a3.5 3.5 0 1 0 0 7a3.5 3.5 0 0 0 0-7z" fill="#626262"/></g><rect x="0" y="0" width="24" height="24" fill="rgba(0, 0, 0, 0)" /></svg>