<svg xmlns="http://www.w3.org/2000/svg" xmlns:xlink="http://www.w3.org/1999/xlink" width="24" height="24" preserveAspectRatio="xMidYMid meet" viewBox="0 0 24 24" style="-ms-transform: rotate(360deg); -webkit-transform: rotate(360deg); transform: rotate(360deg);"><g fill="none"><path d="M17.754 14a2.249 2.249 0 0 1 2.25 2.249v.918a2.75 2.75 0 0 1-.513 1.599C17.945 20.929 15.42 22 12 22c-3.422 0-5.945-1.072-7.487-3.237a2.75 2.75 0 0 1-.51-1.595v-.92a2.249 2.249 0 0 1 2.249-2.25h11.501zM12 2.004a5 5 0 1 1 0 10a5 5 0 0 1 0-10z" fill="#626262"/></g><rect x="0" y="0" width="24" height="24" fill="rgba(0, 0, 0, 0)" /></svg>