<svg xmlns="http://www.w3.org/2000/svg" xmlns:xlink="http://www.w3.org/1999/xlink" width="24" height="24" preserveAspectRatio="xMidYMid meet" viewBox="0 0 24 24" style="-ms-transform: rotate(360deg); -webkit-transform: rotate(360deg); transform: rotate(360deg);"><g fill="none"><path d="M17.5 12a5.5 5.5 0 1 1 0 11a5.5 5.5 0 0 1 0-11zm-5.478 2a6.474 6.474 0 0 0-.708 1.5h-7.06a.75.75 0 0 0-.75.75v.907c0 .656.286 1.279.783 1.706C5.545 19.945 7.44 20.501 10 20.501c.599 0 1.162-.03 1.688-.091c.25.5.563.964.93 1.38c-.803.141-1.676.21-2.618.21c-2.89 0-5.128-.656-6.691-2a3.75 3.75 0 0 1-1.305-2.843v-.907A2.25 2.25 0 0 1 4.254 14h7.768zm3.071.966l-.07.058l-.057.07a.5.5 0 0 0 0 .568l.058.069l1.77 1.77l-1.768 1.766l-.057.07a.5.5 0 0 0 0 .568l.058.07l.069.057a.5.5 0 0 0 .568 0l.07-.058l1.766-1.767l1.77 1.77l.069.058a.5.5 0 0 0 .568 0l.07-.058l.058-.07a.5.5 0 0 0 0-.568l-.058-.07l-1.77-1.768l1.772-1.77l.058-.07a.5.5 0 0 0 0-.568l-.058-.069l-.069-.058a.5.5 0 0 0-.569 0l-.069.058l-1.771 1.77l-1.77-1.77l-.07-.058a.5.5 0 0 0-.492-.043l-.076.043zM10 2.004a5 5 0 1 1 0 10a5 5 0 0 1 0-10zm0 1.5a3.5 3.5 0 1 0 0 7a3.5 3.5 0 0 0 0-7z" fill="#626262"/></g><rect x="0" y="0" width="24" height="24" fill="rgba(0, 0, 0, 0)" /></svg>