<svg xmlns="http://www.w3.org/2000/svg" xmlns:xlink="http://www.w3.org/1999/xlink" width="24" height="24" preserveAspectRatio="xMidYMid meet" viewBox="0 0 24 24" style="-ms-transform: rotate(360deg); -webkit-transform: rotate(360deg); transform: rotate(360deg);"><g fill="none"><path d="M11 15.5c0-.563.186-1.082.5-1.5H5.252a2.249 2.249 0 0 0-2.249 2.25v.577c0 .892.319 1.756.899 2.435c1.566 1.834 3.952 2.74 7.098 2.74h.05A2.514 2.514 0 0 1 11 21.5v-.999c-2.738 0-4.704-.745-5.958-2.213a2.25 2.25 0 0 1-.539-1.461v-.578c0-.413.336-.749.75-.749H11z" fill="#626262"/><path d="M11 2.005a5 5 0 1 1 0 10a5 5 0 0 1 0-10zm0 1.5a3.5 3.5 0 1 0 0 7a3.5 3.5 0 0 0 0-7z" fill="#626262"/><path d="M17.51 18.927l-5.491-3.203A2 2 0 0 1 14 14h7a2 2 0 0 1 2 1.97l-5.49 2.957z" fill="#626262"/><path d="M17.737 19.94L23 17.108V21a2 2 0 0 1-2 2h-7a2 2 0 0 1-2-2v-4.13l5.248 3.062a.5.5 0 0 0 .489.009z" fill="#626262"/></g><rect x="0" y="0" width="24" height="24" fill="rgba(0, 0, 0, 0)" /></svg>