<svg xmlns="http://www.w3.org/2000/svg" xmlns:xlink="http://www.w3.org/1999/xlink" width="24" height="24" preserveAspectRatio="xMidYMid meet" viewBox="0 0 24 24" style="-ms-transform: rotate(360deg); -webkit-transform: rotate(360deg); transform: rotate(360deg);"><g fill="none"><path d="M15.75 2A2.25 2.25 0 0 1 18 4.25v15.5A2.25 2.25 0 0 1 15.75 22h-7.5A2.25 2.25 0 0 1 6 19.75V4.25A2.25 2.25 0 0 1 8.25 2h7.5zm0 1.5h-7.5a.75.75 0 0 0-.75.75v15.5c0 .414.336.75.75.75h7.5a.75.75 0 0 0 .75-.75V4.25a.75.75 0 0 0-.75-.75zm-2.501 14a.75.75 0 0 1 .002 1.5l-2.5.004a.75.75 0 0 1-.002-1.5l2.5-.004z" fill="#626262"/></g><rect x="0" y="0" width="24" height="24" fill="rgba(0, 0, 0, 0)" /></svg>