<svg xmlns="http://www.w3.org/2000/svg" xmlns:xlink="http://www.w3.org/1999/xlink" width="24" height="24" preserveAspectRatio="xMidYMid meet" viewBox="0 0 24 24" style="-ms-transform: rotate(360deg); -webkit-transform: rotate(360deg); transform: rotate(360deg);"><g fill="none"><path d="M9.5 2a7.503 7.503 0 0 1 7.179 5.321a7.5 7.5 0 1 1-9.357 9.358A7.5 7.5 0 0 1 9.5 2zm7.486 7.038l.01.22L17 9.5a7.5 7.5 0 0 1-7.962 7.486a6 6 0 1 0 7.947-7.948zM9.5 3.5a6 6 0 0 0-2.486 11.463l-.01-.22L7 14.5a7.5 7.5 0 0 1 7.962-7.486A5.999 5.999 0 0 0 9.5 3.5z" fill="#626262"/></g><rect x="0" y="0" width="24" height="24" fill="rgba(0, 0, 0, 0)" /></svg>