<svg xmlns="http://www.w3.org/2000/svg" xmlns:xlink="http://www.w3.org/1999/xlink" width="24" height="24" preserveAspectRatio="xMidYMid meet" viewBox="0 0 24 24" style="-ms-transform: rotate(360deg); -webkit-transform: rotate(360deg); transform: rotate(360deg);"><g fill="none"><path d="M13.555 2.662a2.25 2.25 0 0 1 3.055-.02l.125.124L21.5 7.85a2.25 2.25 0 0 1-.389 3.407l-.137.085l-4.896 2.798a.75.75 0 0 0-.28.282l-.045.091l-1.802 4.514a.75.75 0 0 1-1.147.322l-.08-.07l-3.237-3.236l-4.951 4.96L3.47 21l.002-1.055l4.953-4.962L5.22 11.78a.75.75 0 0 1 .157-1.18l.095-.046l4.495-1.797a.75.75 0 0 0 .327-.254l.056-.09l2.757-5.168c.116-.217.267-.414.447-.583zm6.85 6.215L15.64 3.791a.75.75 0 0 0-1.166.09l-.043.07l-2.756 5.168a2.25 2.25 0 0 1-.99.959l-.16.072l-3.439 1.374l5.894 5.891l1.38-3.457a2.25 2.25 0 0 1 .813-1.018l.16-.101l4.897-2.798a.75.75 0 0 0 .28-1.023l-.049-.074l-.056-.067z" fill="#626262"/></g><rect x="0" y="0" width="24" height="24" fill="rgba(0, 0, 0, 0)" /></svg>