<svg xmlns="http://www.w3.org/2000/svg" xmlns:xlink="http://www.w3.org/1999/xlink" width="24" height="24" preserveAspectRatio="xMidYMid meet" viewBox="0 0 24 24" style="-ms-transform: rotate(360deg); -webkit-transform: rotate(360deg); transform: rotate(360deg);"><g fill="none"><path d="M3.28 2.22a.75.75 0 1 0-1.06 1.06l6.125 6.125l-2.873 1.149l-.095.045a.75.75 0 0 0-.157 1.181l3.205 3.203l-4.953 4.962L3.47 21l1.065.003l4.951-4.959l3.238 3.236l.08.07a.75.75 0 0 0 1.146-.322l1.147-2.87l5.622 5.622a.75.75 0 0 0 1.061-1.06L3.28 2.22zm10.662 12.783l-.963 2.412l-5.894-5.891L9.5 10.56l4.443 4.443z" fill="#626262"/><path d="M20.23 10.041l-4.46 2.548l1.1 1.1l4.104-2.346l.136-.084a2.25 2.25 0 0 0 .39-3.408l-4.766-5.085l-.125-.124a2.25 2.25 0 0 0-3.502.603l-2.323 4.357l1.108 1.108l2.538-4.759l.043-.07a.749.749 0 0 1 1.166-.09l4.765 5.086l.057.067l.047.074a.75.75 0 0 1-.279 1.023z" fill="#626262"/></g><rect x="0" y="0" width="24" height="24" fill="rgba(0, 0, 0, 0)" /></svg>