<svg xmlns="http://www.w3.org/2000/svg" xmlns:xlink="http://www.w3.org/1999/xlink" width="24" height="24" preserveAspectRatio="xMidYMid meet" viewBox="0 0 24 24" style="-ms-transform: rotate(360deg); -webkit-transform: rotate(360deg); transform: rotate(360deg);"><g fill="none"><path d="M3 20.25a.75.75 0 0 0 1.5 0V3.75a.75.75 0 1 0-1.5 0v16.5z" fill="#626262"/><path d="M18.23 20.475c1.158.83 2.77.002 2.77-1.422V4.83c0-1.384-1.53-2.22-2.695-1.473l-10.47 6.716a1.75 1.75 0 0 0-.074 2.895l10.47 7.507zm1.27-1.422a.25.25 0 0 1-.396.203l-10.47-7.507a.25.25 0 0 1 .011-.413l10.47-6.717a.25.25 0 0 1 .385.21v14.224z" fill="#626262"/></g><rect x="0" y="0" width="24" height="24" fill="rgba(0, 0, 0, 0)" /></svg>