<svg xmlns="http://www.w3.org/2000/svg" xmlns:xlink="http://www.w3.org/1999/xlink" width="24" height="24" preserveAspectRatio="xMidYMid meet" viewBox="0 0 24 24" style="-ms-transform: rotate(360deg); -webkit-transform: rotate(360deg); transform: rotate(360deg);"><g fill="none"><path d="M13.732 17.732l-1.025-1.025l1.06-1.06l1.026 1.025a1 1 0 0 0 1.414 0l3.965-3.965a1 1 0 0 0 0-1.414l-3.965-3.964a1 1 0 0 0-1.414 0l-1.025 1.025l-1.06-1.061l1.024-1.025a2.5 2.5 0 0 1 3.536 0l3.964 3.964a2.5 2.5 0 0 1 0 3.536l-3.964 3.964a2.5 2.5 0 0 1-3.536 0z" fill="#626262"/><path d="M6.732 6.268l-3.964 3.964a2.5 2.5 0 0 0 0 3.536l3.964 3.964a2.5 2.5 0 0 0 3.536 0l3.964-3.964a2.5 2.5 0 0 0 0-3.536l-3.964-3.964a2.5 2.5 0 0 0-3.536 0zM3.83 11.293l3.964-3.964a1 1 0 0 1 1.414 0l3.965 3.964a1 1 0 0 1 0 1.414l-3.965 3.965a1 1 0 0 1-1.414 0l-3.964-3.965a1 1 0 0 1 0-1.414z" fill="#626262"/></g><rect x="0" y="0" width="24" height="24" fill="rgba(0, 0, 0, 0)" /></svg>