<svg xmlns="http://www.w3.org/2000/svg" xmlns:xlink="http://www.w3.org/1999/xlink" width="24" height="24" preserveAspectRatio="xMidYMid meet" viewBox="0 0 24 24" style="-ms-transform: rotate(360deg); -webkit-transform: rotate(360deg); transform: rotate(360deg);"><g fill="none"><path d="M12 4C9.236 4 7 6.236 7 9a.75.75 0 0 0 1.5 0c0-1.936 1.564-3.5 3.5-3.5s3.5 1.564 3.5 3.5c0 .852-.222 1.42-.529 1.86c-.324.463-.767.823-1.302 1.232l-.138.105c-1.01.768-2.281 1.734-2.281 3.803v.25a.75.75 0 0 0 1.5 0V16c0-1.317.714-1.863 1.785-2.682l.046-.035c.527-.403 1.147-.887 1.62-1.564c.49-.701.799-1.57.799-2.719c0-2.764-2.236-5-5-5z" fill="#626262"/><path d="M12 21a1 1 0 1 0 0-2a1 1 0 0 0 0 2z" fill="#626262"/></g><rect x="0" y="0" width="24" height="24" fill="rgba(0, 0, 0, 0)" /></svg>