<svg xmlns="http://www.w3.org/2000/svg" xmlns:xlink="http://www.w3.org/1999/xlink" width="24" height="24" preserveAspectRatio="xMidYMid meet" viewBox="0 0 24 24" style="-ms-transform: rotate(360deg); -webkit-transform: rotate(360deg); transform: rotate(360deg);"><g fill="none"><path d="M7 15.5a1.5 1.5 0 1 1-3 0a1.5 1.5 0 0 1 3 0zm0-7a1.5 1.5 0 1 1-3 0a1.5 1.5 0 0 1 3 0zm7 7a1.5 1.5 0 1 1-3 0a1.5 1.5 0 0 1 3 0zm0-7a1.5 1.5 0 1 1-3 0a1.5 1.5 0 0 1 3 0zm7 7a1.5 1.5 0 1 1-3 0a1.5 1.5 0 0 1 3 0zm0-7a1.5 1.5 0 1 1-3 0a1.5 1.5 0 0 1 3 0z" fill="#626262"/></g><rect x="0" y="0" width="24" height="24" fill="rgba(0, 0, 0, 0)" /></svg>