<svg xmlns="http://www.w3.org/2000/svg" xmlns:xlink="http://www.w3.org/1999/xlink" width="24" height="24" preserveAspectRatio="xMidYMid meet" viewBox="0 0 24 24" style="-ms-transform: rotate(360deg); -webkit-transform: rotate(360deg); transform: rotate(360deg);"><g fill="none"><path d="M3.049 18.979l5.5-14.495c.23-.607 1.052-.643 1.352-.107l.05.107l5.5 14.5a.75.75 0 0 1-1.36.625l-.042-.093L12.335 15H6.163L4.45 19.51a.75.75 0 0 1-.87.465l-.097-.03a.75.75 0 0 1-.465-.87l.03-.097l5.5-14.495l-5.5 14.495zm6.2-12.115L6.733 13.5h5.035L9.25 6.864zm5.595-4.472a.75.75 0 0 1 1.017-.299c2.086 1.14 3.652 2.603 4.682 4.388c1.03 1.784 1.515 3.871 1.459 6.248a.75.75 0 0 1-1.5-.036c.05-2.111-.372-3.927-1.258-5.462c-.886-1.536-2.248-2.809-4.102-3.821a.75.75 0 0 1-.298-1.018zm-.238 3.602a.75.75 0 0 1 1.018-.3c.967.527 1.742 1.295 2.316 2.29c.574.994.851 2.049.825 3.15a.75.75 0 0 1-1.5-.037c.02-.821-.186-1.605-.624-2.364c-.438-.759-1.014-1.329-1.735-1.722a.75.75 0 0 1-.3-1.018z" fill="#626262"/></g><rect x="0" y="0" width="24" height="24" fill="rgba(0, 0, 0, 0)" /></svg>