<svg xmlns="http://www.w3.org/2000/svg" xmlns:xlink="http://www.w3.org/1999/xlink" width="24" height="24" preserveAspectRatio="xMidYMid meet" viewBox="0 0 24 24" style="-ms-transform: rotate(360deg); -webkit-transform: rotate(360deg); transform: rotate(360deg);"><g fill="none"><path d="M21.002 4.75l-.002 14a.75.75 0 0 1-1.21.592l-7.29-5.67v5.078a.75.75 0 0 1-1.21.592l-9-7a.75.75 0 0 1 0-1.184l9.001-7a.75.75 0 0 1 1.21.592L12.5 9.827l7.291-5.67a.75.75 0 0 1 1.21.593zm-10 1.533l-7.03 5.467L11 17.217l.001-10.934zm8.5 0L12.5 11.726v.046l7 5.445l.001-10.934z" fill="#626262"/></g><rect x="0" y="0" width="24" height="24" fill="rgba(0, 0, 0, 0)" /></svg>