<svg xmlns="http://www.w3.org/2000/svg" xmlns:xlink="http://www.w3.org/1999/xlink" width="24" height="24" preserveAspectRatio="xMidYMid meet" viewBox="0 0 24 24" style="-ms-transform: rotate(360deg); -webkit-transform: rotate(360deg); transform: rotate(360deg);"><g fill="none"><path d="M12 3.5A7.5 7.5 0 0 0 4.5 11v.25a.75.75 0 0 1-1.5 0V11a9 9 0 0 1 18 0v.25a.75.75 0 0 1-1.5 0V11A7.5 7.5 0 0 0 12 3.5z" fill="#626262"/><path d="M12 6.5A4.5 4.5 0 0 0 7.5 11v.25a.75.75 0 0 1-1.5 0V11a6 6 0 1 1 12 0v.25a.75.75 0 0 1-1.5 0V11A4.5 4.5 0 0 0 12 6.5z" fill="#626262"/><path d="M12 8a3 3 0 0 0-.75 5.905V16H6a3 3 0 1 0 0 6h12a3 3 0 1 0 0-6h-5.25v-2.095A3.001 3.001 0 0 0 12 8zm-1.5 3a1.5 1.5 0 1 1 3 0a1.5 1.5 0 0 1-3 0zM6 17.5h12a1.5 1.5 0 0 1 0 3H6a1.5 1.5 0 0 1 0-3z" fill="#626262"/></g><rect x="0" y="0" width="24" height="24" fill="rgba(0, 0, 0, 0)" /></svg>