<svg xmlns="http://www.w3.org/2000/svg" xmlns:xlink="http://www.w3.org/1999/xlink" width="24" height="24" preserveAspectRatio="xMidYMid meet" viewBox="0 0 24 24" style="-ms-transform: rotate(360deg); -webkit-transform: rotate(360deg); transform: rotate(360deg);"><g fill="none"><path d="M6.75 7.5c-.405 0-.75-.317-.75-.722v-.055c0-.393.305-.721.698-.723h.052C12.963 6 18 11.037 18 17.25v.052a.711.711 0 0 1-.723.698h-.055c-.405 0-.722-.345-.722-.75c0-5.385-4.365-9.75-9.75-9.75zM13.294 18c.38 0 .701-.287.705-.666L14 17.25A7.25 7.25 0 0 0 6.666 10c-.379.005-.666.327-.666.706v.09c0 .399.351.704.75.704a5.75 5.75 0 0 1 5.75 5.75c0 .399.305.75.704.75h.09zM9 16.5a1.5 1.5 0 1 1-3 0a1.5 1.5 0 0 1 3 0zM6.25 3A3.25 3.25 0 0 0 3 6.25v11.5A3.25 3.25 0 0 0 6.25 21h11.5A3.25 3.25 0 0 0 21 17.75V6.25A3.25 3.25 0 0 0 17.75 3H6.25zM4.5 6.25c0-.966.784-1.75 1.75-1.75h11.5c.966 0 1.75.784 1.75 1.75v11.5a1.75 1.75 0 0 1-1.75 1.75H6.25a1.75 1.75 0 0 1-1.75-1.75V6.25z" fill="#626262"/></g><rect x="0" y="0" width="24" height="24" fill="rgba(0, 0, 0, 0)" /></svg>