<svg xmlns="http://www.w3.org/2000/svg" xmlns:xlink="http://www.w3.org/1999/xlink" width="24" height="24" preserveAspectRatio="xMidYMid meet" viewBox="0 0 24 24" style="-ms-transform: rotate(360deg); -webkit-transform: rotate(360deg); transform: rotate(360deg);"><g fill="none"><path d="M6 6.75A.75.75 0 0 1 6.75 6h2.5a.75.75 0 0 1 0 1.5h-.69l1.72 1.72a.75.75 0 1 1-1.06 1.06L7.5 8.56v.691a.75.75 0 1 1-1.5 0V6.75z" fill="#626262"/><path d="M17.25 18.001a.75.75 0 0 0 .75-.75V14.75a.75.75 0 0 0-1.5 0v.69l-1.72-1.72a.75.75 0 0 0-1.06 1.06l1.72 1.721h-.69a.75.75 0 0 0 0 1.5h2.5z" fill="#626262"/><path d="M17.78 6.22c.142.14.22.332.22.53v2.5a.75.75 0 0 1-1.5 0v-.69l-1.72 1.72a.75.75 0 1 1-1.06-1.06l1.72-1.72h-.69a.75.75 0 0 1 0-1.5h2.5a.75.75 0 0 1 .53.22z" fill="#626262"/><path d="M6 17.25a.75.75 0 0 0 .75.75h2.501a.75.75 0 0 0 0-1.5h-.69l1.72-1.72a.75.75 0 0 0-1.061-1.06L7.5 15.44v-.69a.75.75 0 0 0-1.5 0v2.5z" fill="#626262"/><path d="M3 5.25A2.25 2.25 0 0 1 5.25 3h13.5A2.25 2.25 0 0 1 21 5.25v13.5A2.25 2.25 0 0 1 18.75 21H5.25A2.25 2.25 0 0 1 3 18.75V5.25zm2.25-.75a.75.75 0 0 0-.75.75v13.5c0 .414.336.75.75.75h13.5a.75.75 0 0 0 .75-.75V5.25a.75.75 0 0 0-.75-.75H5.25z" fill="#626262"/></g><rect x="0" y="0" width="24" height="24" fill="rgba(0, 0, 0, 0)" /></svg>