<svg xmlns="http://www.w3.org/2000/svg" xmlns:xlink="http://www.w3.org/1999/xlink" width="24" height="24" preserveAspectRatio="xMidYMid meet" viewBox="0 0 24 24" style="-ms-transform: rotate(360deg); -webkit-transform: rotate(360deg); transform: rotate(360deg);"><g fill="none"><path d="M17.75 3A3.25 3.25 0 0 1 21 6.25v3a.75.75 0 0 1-1.5 0v-3a1.75 1.75 0 0 0-1.75-1.75h-3a.75.75 0 0 1 0-1.5h3z" fill="#626262"/><path d="M6.25 3A3.25 3.25 0 0 0 3 6.25v3a.75.75 0 0 0 1.5 0v-3c0-.966.784-1.75 1.75-1.75h3a.75.75 0 0 0 0-1.5h-3z" fill="#626262"/><path d="M17.75 21A3.25 3.25 0 0 0 21 17.75v-3a.75.75 0 0 0-1.5 0v3a1.75 1.75 0 0 1-1.75 1.75h-3a.75.75 0 0 0 0 1.5h3z" fill="#626262"/><path d="M3 17.75A3.25 3.25 0 0 0 6.25 21h3a.75.75 0 0 0 0-1.5h-3a1.75 1.75 0 0 1-1.75-1.75v-3a.75.75 0 0 0-1.5 0v3z" fill="#626262"/><path d="M12 15a3 3 0 1 0 0-6a3 3 0 0 0 0 6zm0-1.5a1.5 1.5 0 1 1 0-3a1.5 1.5 0 0 1 0 3z" fill="#626262"/><path d="M7.5 8.5a1 1 0 1 0 0-2a1 1 0 0 0 0 2z" fill="#626262"/></g><rect x="0" y="0" width="24" height="24" fill="rgba(0, 0, 0, 0)" /></svg>