<svg xmlns="http://www.w3.org/2000/svg" xmlns:xlink="http://www.w3.org/1999/xlink" width="24" height="24" preserveAspectRatio="xMidYMid meet" viewBox="0 0 24 24" style="-ms-transform: rotate(360deg); -webkit-transform: rotate(360deg); transform: rotate(360deg);"><g fill="none"><path d="M7 5a2 2 0 1 1-4 0a2 2 0 0 1 4 0z" fill="#626262"/><path d="M8 4.75c0 .414.336.75.75.75h6.5a.75.75 0 0 0 0-1.5h-6.5a.75.75 0 0 0-.75.75z" fill="#626262"/><path d="M4.75 8a.75.75 0 0 0-.75.75v6.5a.75.75 0 0 0 1.5 0v-6.5A.75.75 0 0 0 4.75 8z" fill="#626262"/><path d="M19.25 8a.75.75 0 0 0-.75.75v6.5a.75.75 0 0 0 1.5 0v-6.5a.75.75 0 0 0-.75-.75z" fill="#626262"/><path d="M8.75 20a.75.75 0 0 1 0-1.5h6.5a.75.75 0 0 1 0 1.5h-6.5z" fill="#626262"/><path d="M5 21a2 2 0 1 0 0-4a2 2 0 0 0 0 4z" fill="#626262"/><path d="M21 5a2 2 0 1 1-4 0a2 2 0 0 1 4 0z" fill="#626262"/><path d="M19 21a2 2 0 1 0 0-4a2 2 0 0 0 0 4z" fill="#626262"/></g><rect x="0" y="0" width="24" height="24" fill="rgba(0, 0, 0, 0)" /></svg>