<svg xmlns="http://www.w3.org/2000/svg" xmlns:xlink="http://www.w3.org/1999/xlink" width="24" height="24" preserveAspectRatio="xMidYMid meet" viewBox="0 0 24 24" style="-ms-transform: rotate(360deg); -webkit-transform: rotate(360deg); transform: rotate(360deg);"><g fill="none"><path d="M5.694 12L2.299 3.272c-.236-.607.356-1.188.942-.982l.093.04l18 9a.75.75 0 0 1 .097 1.283l-.097.058l-18 9c-.583.291-1.217-.244-1.065-.847l.03-.096L5.694 12L2.299 3.272L5.694 12zM4.402 4.54l2.61 6.71h6.627a.75.75 0 0 1 .743.648l.007.102a.75.75 0 0 1-.649.743l-.101.007H7.01l-2.609 6.71L19.322 12L4.401 4.54z" fill="#626262"/></g><rect x="0" y="0" width="24" height="24" fill="rgba(0, 0, 0, 0)" /></svg>