<svg xmlns="http://www.w3.org/2000/svg" xmlns:xlink="http://www.w3.org/1999/xlink" width="24" height="24" preserveAspectRatio="xMidYMid meet" viewBox="0 0 24 24" style="-ms-transform: rotate(360deg); -webkit-transform: rotate(360deg); transform: rotate(360deg);"><g fill="none"><path d="M7 11.5A.75.75 0 1 0 7 10a.75.75 0 0 0 0 1.5z" fill="#626262"/><path d="M10.25 10.75a.75.75 0 1 1-1.5 0a.75.75 0 0 1 1.5 0z" fill="#626262"/><path d="M8.25 14a.75.75 0 1 0 0-1.5a.75.75 0 0 0 0 1.5z" fill="#626262"/><path d="M11.5 13.25a.75.75 0 1 1-1.5 0a.75.75 0 0 1 1.5 0z" fill="#626262"/><path d="M13.25 14a.75.75 0 1 0 0-1.5a.75.75 0 0 0 0 1.5z" fill="#626262"/><path d="M16.5 13.25a.75.75 0 1 1-1.5 0a.75.75 0 0 1 1.5 0z" fill="#626262"/><path d="M12 11.5a.75.75 0 1 0 0-1.5a.75.75 0 0 0 0 1.5z" fill="#626262"/><path d="M15.25 10.75a.75.75 0 1 1-1.5 0a.75.75 0 0 1 1.5 0z" fill="#626262"/><path d="M17 11.5a.75.75 0 1 0 0-1.5a.75.75 0 0 0 0 1.5z" fill="#626262"/><path d="M4.907 7a2.75 2.75 0 0 0-2.675 3.386l1.071 4.502A2.75 2.75 0 0 0 5.98 17h12.038a2.75 2.75 0 0 0 2.675-2.112l1.074-4.501A2.75 2.75 0 0 0 19.092 7H4.906zm-1.216 3.039a1.25 1.25 0 0 1 1.216-1.54h14.184a1.25 1.25 0 0 1 1.216 1.54l-1.074 4.502a1.25 1.25 0 0 1-1.216.96H5.98a1.25 1.25 0 0 1-1.216-.96L3.69 10.038z" fill="#626262"/></g><rect x="0" y="0" width="24" height="24" fill="rgba(0, 0, 0, 0)" /></svg>