<svg xmlns="http://www.w3.org/2000/svg" xmlns:xlink="http://www.w3.org/1999/xlink" width="24" height="24" preserveAspectRatio="xMidYMid meet" viewBox="0 0 24 24" style="-ms-transform: rotate(360deg); -webkit-transform: rotate(360deg); transform: rotate(360deg);"><g fill="none"><path d="M17 2.498a3.502 3.502 0 1 1-2.597 5.851l-4.558 2.604a3.5 3.5 0 0 1 0 2.093l4.557 2.606a3.502 3.502 0 1 1-.745 1.302L9.1 14.347a3.502 3.502 0 1 1 0-4.698l4.557-2.604A3.502 3.502 0 0 1 17 2.498zm0 13.5a2.002 2.002 0 1 0 0 4.004a2.002 2.002 0 0 0 0-4.004zm-10.498-6a2.002 2.002 0 1 0 0 4.004a2.002 2.002 0 0 0 0-4.004zm10.498-6a2.002 2.002 0 1 0 0 4.004a2.002 2.002 0 0 0 0-4.004z" fill="#626262"/></g><rect x="0" y="0" width="24" height="24" fill="rgba(0, 0, 0, 0)" /></svg>