<svg xmlns="http://www.w3.org/2000/svg" xmlns:xlink="http://www.w3.org/1999/xlink" width="24" height="24" preserveAspectRatio="xMidYMid meet" viewBox="0 0 24 24" style="-ms-transform: rotate(360deg); -webkit-transform: rotate(360deg); transform: rotate(360deg);"><g fill="none"><path d="M4.5 6.25c0-.966.784-1.75 1.75-1.75h11.5c.966 0 1.75.784 1.75 1.75v11.5a1.75 1.75 0 0 1-1.75 1.75h-5.063a6.471 6.471 0 0 1-.709 1.5h5.772A3.25 3.25 0 0 0 21 17.75V6.25A3.25 3.25 0 0 0 17.75 3H6.25A3.25 3.25 0 0 0 3 6.25v5.772a6.472 6.472 0 0 1 1.5-.709V6.25z" fill="#626262"/><path d="M12.5 6.75a.75.75 0 0 0-1.5 0v6c0 .414.336.75.75.75h4.5a.75.75 0 0 0 0-1.5H12.5V6.75z" fill="#626262"/><path d="M12 17.5a5.5 5.5 0 1 1-11 0a5.5 5.5 0 0 1 11 0zm-3.146-1.854a.5.5 0 0 0-.708 0L5.5 18.293l-.896-.897a.5.5 0 0 0-.708.708l1.25 1.25a.5.5 0 0 0 .708 0l3-3a.5.5 0 0 0 0-.708z" fill="#626262"/></g><rect x="0" y="0" width="24" height="24" fill="rgba(0, 0, 0, 0)" /></svg>