<svg xmlns="http://www.w3.org/2000/svg" xmlns:xlink="http://www.w3.org/1999/xlink" width="24" height="24" preserveAspectRatio="xMidYMid meet" viewBox="0 0 24 24" style="-ms-transform: rotate(360deg); -webkit-transform: rotate(360deg); transform: rotate(360deg);"><g fill="none"><path d="M8.5 3.5a5 5 0 0 0-.229 9.995a7.479 7.479 0 0 0-.253 1.487a6.5 6.5 0 1 1 6.964-6.964a7.479 7.479 0 0 0-1.487.253A5 5 0 0 0 8.5 3.5z" fill="#626262"/><path d="M14.278 13.234a.75.75 0 1 0-1.056 1.066l1.215 1.203l-1.217 1.217a.75.75 0 1 0 1.06 1.06l1.22-1.219l1.215 1.219a.75.75 0 0 0 1.062-1.06l-1.215-1.217l1.212-1.204a.75.75 0 0 0-1.057-1.064L15.5 14.444l-1.221-1.21z" fill="#626262"/><path d="M15.5 9a6.5 6.5 0 1 0 0 13a6.5 6.5 0 0 0 0-13zm-5 6.5a5 5 0 1 1 10 0a5 5 0 0 1-10 0z" fill="#626262"/><path d="M11.28 6.72a.75.75 0 0 1 0 1.06l-3 3a.75.75 0 0 1-1.06 0l-1.5-1.502a.75.75 0 0 1 1.061-1.06l.97.971l2.469-2.47a.75.75 0 0 1 1.06 0z" fill="#626262"/></g><rect x="0" y="0" width="24" height="24" fill="rgba(0, 0, 0, 0)" /></svg>