<svg xmlns="http://www.w3.org/2000/svg" xmlns:xlink="http://www.w3.org/1999/xlink" width="24" height="24" preserveAspectRatio="xMidYMid meet" viewBox="0 0 24 24" style="-ms-transform: rotate(360deg); -webkit-transform: rotate(360deg); transform: rotate(360deg);"><g fill="none"><path d="M11.314 3.527a.75.75 0 1 0-.12-1.495C6.049 2.442 2 6.748 2 12c0 5.523 4.477 10 10 10c5.249 0 9.553-4.044 9.967-9.186a.75.75 0 1 0-1.495-.12a8.5 8.5 0 1 1-9.158-9.167z" fill="#626262"/><path d="M17.697 4.674a.75.75 0 0 1 1.06-.046c.214.196.42.402.616.617a.75.75 0 0 1-1.105 1.013a8.552 8.552 0 0 0-.525-.525a.75.75 0 0 1-.046-1.06z" fill="#626262"/><path d="M11.25 6a.75.75 0 0 1 .743.648L12 6.75V12h3.25a.75.75 0 0 1 .102 1.493l-.102.007h-4a.75.75 0 0 1-.743-.649l-.007-.101v-6a.75.75 0 0 1 .75-.75z" fill="#626262"/><path d="M13.781 2.89a.75.75 0 0 1 .925-.52a9.92 9.92 0 0 1 1.074.37a.75.75 0 1 1-.567 1.388c-.296-.121-.6-.226-.912-.313a.75.75 0 0 1-.52-.925z" fill="#626262"/><path d="M21.259 8.215a.75.75 0 1 0-1.389.568a8.405 8.405 0 0 1 .315.915a.75.75 0 1 0 1.444-.405a9.91 9.91 0 0 0-.37-1.078z" fill="#626262"/></g><rect x="0" y="0" width="24" height="24" fill="rgba(0, 0, 0, 0)" /></svg>