<svg xmlns="http://www.w3.org/2000/svg" xmlns:xlink="http://www.w3.org/1999/xlink" width="24" height="24" preserveAspectRatio="xMidYMid meet" viewBox="0 0 24 24" style="-ms-transform: rotate(360deg); -webkit-transform: rotate(360deg); transform: rotate(360deg);"><g fill="none"><path d="M13.378 3.026a9.004 9.004 0 0 1 7.308 13.494a9.004 9.004 0 0 1-15.21.611a.675.675 0 0 1 .328-1.018c3.391-1.214 5.208-2.621 6.262-4.633c1.11-2.118 1.396-4.439.62-7.62a.675.675 0 0 1 .692-.834zm1.011 1.638l.065.39c.417 2.704.065 4.975-1.06 7.122c-1.141 2.18-3 3.704-6.015 4.94a7.504 7.504 0 1 0 7.677-12.283l-.332-.093l-.335-.076zm-3.395-1.01l.006.098V9a2 2 0 1 1-1.499-1.937L9.5 4.764L6 5.83V10a2 2 0 1 1-1.499-1.937L4.5 5.273a.75.75 0 0 1 .43-.678l.102-.04l5-1.52a.75.75 0 0 1 .943.524l.019.094z" fill="#626262"/></g><rect x="0" y="0" width="24" height="24" fill="rgba(0, 0, 0, 0)" /></svg>