<svg xmlns="http://www.w3.org/2000/svg" xmlns:xlink="http://www.w3.org/1999/xlink" width="24" height="24" preserveAspectRatio="xMidYMid meet" viewBox="0 0 24 24" style="-ms-transform: rotate(360deg); -webkit-transform: rotate(360deg); transform: rotate(360deg);"><g fill="none"><path d="M16.78 7.22c.142.14.22.331.22.53v2.5a.75.75 0 0 1-1.5 0v-.69l-1.72 1.72a.75.75 0 1 1-1.06-1.061L14.44 8.5h-.69a.75.75 0 0 1 0-1.5h2.5a.75.75 0 0 1 .53.22z" fill="#626262"/><path d="M7 16.25a.75.75 0 0 0 .75.75h2.501a.75.75 0 0 0 0-1.5h-.69l1.72-1.72a.75.75 0 0 0-1.061-1.06L8.5 14.438v-.69a.75.75 0 0 0-1.5 0v2.5z" fill="#626262"/><path d="M2 6.75A2.75 2.75 0 0 1 4.75 4h14.5A2.75 2.75 0 0 1 22 6.75v10.5A2.75 2.75 0 0 1 19.25 20H4.75A2.75 2.75 0 0 1 2 17.25V6.75zM4.75 5.5c-.69 0-1.25.56-1.25 1.25v10.5c0 .69.56 1.25 1.25 1.25h14.5c.69 0 1.25-.56 1.25-1.25V6.75c0-.69-.56-1.25-1.25-1.25H4.75z" fill="#626262"/></g><rect x="0" y="0" width="24" height="24" fill="rgba(0, 0, 0, 0)" /></svg>