<svg xmlns="http://www.w3.org/2000/svg" xmlns:xlink="http://www.w3.org/1999/xlink" width="24" height="24" preserveAspectRatio="xMidYMid meet" viewBox="0 0 24 24" style="-ms-transform: rotate(360deg); -webkit-transform: rotate(360deg); transform: rotate(360deg);"><g fill="none"><path d="M2 6.75A2.75 2.75 0 0 1 4.75 4h14.5A2.75 2.75 0 0 1 22 6.75v6.06a6.518 6.518 0 0 0-1.5-1.078V6.75c0-.69-.56-1.25-1.25-1.25H4.75c-.69 0-1.25.56-1.25 1.25v10.5c0 .69.56 1.25 1.25 1.25h6.326c.081.523.224 1.026.422 1.5H4.75A2.75 2.75 0 0 1 2 17.25V6.75zm10.5 8.879l.447.43a2 2 0 0 1 0 2.882l-.447.43c.2.574.49 1.103.853 1.57l.602-.178a2 2 0 0 1 2.51 1.45l.173.715a5.175 5.175 0 0 0 1.723 0l.173-.716a2 2 0 0 1 2.51-1.449l.603.178c.362-.467.652-.996.853-1.57l-.448-.43a2 2 0 0 1 0-2.882l.448-.43a5.544 5.544 0 0 0-.853-1.57l-.602.178a2 2 0 0 1-2.511-1.45l-.173-.715a5.176 5.176 0 0 0-1.723 0l-.172.716a2 2 0 0 1-2.511 1.449l-.602-.178a5.549 5.549 0 0 0-.853 1.57zm5 3.371c-.8 0-1.45-.672-1.45-1.5S16.7 16 17.5 16c.8 0 1.45.672 1.45 1.5S18.3 19 17.5 19z" fill="#626262"/></g><rect x="0" y="0" width="24" height="24" fill="rgba(0, 0, 0, 0)" /></svg>