<svg xmlns="http://www.w3.org/2000/svg" xmlns:xlink="http://www.w3.org/1999/xlink" width="24" height="24" preserveAspectRatio="xMidYMid meet" viewBox="0 0 24 24" style="-ms-transform: rotate(360deg); -webkit-transform: rotate(360deg); transform: rotate(360deg);"><g fill="none"><path d="M4.75 4A2.75 2.75 0 0 0 2 6.75v10.5A2.75 2.75 0 0 0 4.75 20h9.003a4.637 4.637 0 0 1-.64-1.5H4.75c-.69 0-1.25-.56-1.25-1.25V6.75c0-.69.56-1.25 1.25-1.25h14.5c.69 0 1.25.56 1.25 1.25v4.874c.945.668 1.5 1.78 1.5 2.876V6.75A2.75 2.75 0 0 0 19.25 4H4.75z" fill="#626262"/><path d="M16.521 20c-.617-.35-1.091-.869-1.336-1.5a2.75 2.75 0 0 1-.185-1a.5.5 0 0 0-1 0c0 .343.052.679.149 1c.166.552.467 1.063.87 1.5c.725.789 1.782 1.34 2.981 1.473V22.5a.5.5 0 0 0 1 0v-1.027c2.25-.25 4-1.973 4-3.973a.5.5 0 0 0-1 0c0 1.75-1.567 3-3.5 3c-.734 0-1.416-.18-1.979-.5z" fill="#626262"/><path d="M18.5 19.5a2.45 2.45 0 0 1-1.995-1A2.536 2.536 0 0 1 16 17v-2.5c0-1.254 1-2.5 2.5-2.5c.865 0 1.563.417 2 1.009c.32.434.5.963.5 1.491V17c0 1.246-1 2.5-2.5 2.5z" fill="#626262"/><path d="M6.75 8a.75.75 0 0 0 0 1.5h4.5a.75.75 0 0 0 0-1.5h-4.5z" fill="#626262"/><path d="M6 11.75a.75.75 0 0 1 .75-.75h6.5a.75.75 0 0 1 0 1.5h-6.5a.75.75 0 0 1-.75-.75z" fill="#626262"/><path d="M6 14.75a.75.75 0 0 1 .75-.75h5.5a.75.75 0 0 1 0 1.5h-5.5a.75.75 0 0 1-.75-.75z" fill="#626262"/></g><rect x="0" y="0" width="24" height="24" fill="rgba(0, 0, 0, 0)" /></svg>