<svg xmlns="http://www.w3.org/2000/svg" xmlns:xlink="http://www.w3.org/1999/xlink" width="24" height="24" preserveAspectRatio="xMidYMid meet" viewBox="0 0 24 24" style="-ms-transform: rotate(360deg); -webkit-transform: rotate(360deg); transform: rotate(360deg);"><g fill="none"><path d="M12 20.5a1.5 1.5 0 1 1-3 0a1.5 1.5 0 0 1 3 0z" fill="#626262"/><path d="M17 20.5a1.5 1.5 0 1 1-3 0a1.5 1.5 0 0 1 3 0z" fill="#626262"/><path d="M22 20.5a1.5 1.5 0 1 1-3 0a1.5 1.5 0 0 1 3 0z" fill="#626262"/><path d="M15.107 18.03l-1.232-3.005H5.75L3.9 19.6c-.133.333-.358.5-.675.5c-.233 0-.408-.058-.525-.175a.733.733 0 0 1-.2-.475v-.075c0-.1.008-.175.025-.225L9.125 3c.133-.333.383-.5.75-.5a.63.63 0 0 1 .425.15c.133.083.233.2.3.35l6.315 15.439a2.488 2.488 0 0 0-1.808-.408zM9.775 5l-3.45 8.55h6.95L9.775 5z" fill="#626262"/></g><rect x="0" y="0" width="24" height="24" fill="rgba(0, 0, 0, 0)" /></svg>