<svg xmlns="http://www.w3.org/2000/svg" xmlns:xlink="http://www.w3.org/1999/xlink" width="24" height="24" preserveAspectRatio="xMidYMid meet" viewBox="0 0 24 24" style="-ms-transform: rotate(360deg); -webkit-transform: rotate(360deg); transform: rotate(360deg);"><g fill="none"><path d="M8.245 13.003a.75.75 0 0 1 .661 1.104l-.057.09l-4.622 6.302h4.018a.75.75 0 0 1 .743.648l.007.102a.75.75 0 0 1-.649.743L8.245 22H2.748a.75.75 0 0 1-.662-1.104l.057-.09l4.621-6.302H2.75a.75.75 0 0 1-.743-.648l-.007-.102a.75.75 0 0 1 .648-.743l.102-.007h5.496zM21.252 2c.6 0 .943.66.639 1.145l-.06.083l-8.492 10.269h7.913a.75.75 0 0 1 .743.648l.007.102a.75.75 0 0 1-.648.743l-.102.007h-9.504a.75.75 0 0 1-.639-1.144l.06-.084l8.49-10.27l-7.911.001a.75.75 0 0 1-.743-.648l-.007-.102a.75.75 0 0 1 .648-.743L11.748 2h9.504z" fill="#626262"/></g><rect x="0" y="0" width="24" height="24" fill="rgba(0, 0, 0, 0)" /></svg>