<svg xmlns="http://www.w3.org/2000/svg" xmlns:xlink="http://www.w3.org/1999/xlink" width="24" height="24" preserveAspectRatio="xMidYMid meet" viewBox="0 0 24 24" style="-ms-transform: rotate(360deg); -webkit-transform: rotate(360deg); transform: rotate(360deg);"><g fill="none"><path d="M12.92 3.316c.806-.717 2.08-.145 2.08.934v15.496c0 1.078-1.274 1.65-2.08.934l-4.492-3.994a.75.75 0 0 0-.498-.19H4.25A2.25 2.25 0 0 1 2 14.247V9.75a2.25 2.25 0 0 1 2.25-2.25h3.68a.75.75 0 0 0 .498-.19l4.491-3.993zm.58 1.49L9.425 8.43A2.25 2.25 0 0 1 7.93 9H4.25a.75.75 0 0 0-.75.75v4.497c0 .415.336.75.75.75h3.68a2.25 2.25 0 0 1 1.495.57l4.075 3.623V4.807z" fill="#626262"/><path d="M16.499 8.25a.75.75 0 0 1 .75-.75h3.503a.75.75 0 0 1 .75.75v1.797a.75.75 0 0 1 .498.707v5a.75.75 0 0 1-.75.75h-.236v2.746a.75.75 0 0 1-1.5 0v-2.747h-.982v2.747a.75.75 0 0 1-1.5 0v-2.747h-.282a.75.75 0 0 1-.75-.75v-5a.75.75 0 0 1 .499-.707V8.25zm4.001 3.254h-3v3.5h3v-3.5zM17.999 9v1h2.003V9h-2.003z" fill="#626262"/></g><rect x="0" y="0" width="24" height="24" fill="rgba(0, 0, 0, 0)" /></svg>