<svg xmlns="http://www.w3.org/2000/svg" xmlns:xlink="http://www.w3.org/1999/xlink" width="24" height="24" preserveAspectRatio="xMidYMid meet" viewBox="0 0 24 24" style="-ms-transform: rotate(360deg); -webkit-transform: rotate(360deg); transform: rotate(360deg);"><g fill="none"><path d="M12.5 2.75a.75.75 0 0 0-1.5 0v18.5a.75.75 0 0 0 1.5 0V2.75zM4.25 4A2.25 2.25 0 0 0 2 6.25v11.5A2.25 2.25 0 0 0 4.25 20H10v-1.5H4.25a.75.75 0 0 1-.75-.75V6.25a.75.75 0 0 1 .75-.75H10V4H4.25zm15 14.5H13.5V20h5.75a2.25 2.25 0 0 0 2.25-2.25V6.25A2.25 2.25 0 0 0 19.25 4H13.5v1.5h5.75a.75.75 0 0 1 .75.75v11.5a.75.75 0 0 1-.75.75z" fill="#626262"/></g><rect x="0" y="0" width="24" height="24" fill="rgba(0, 0, 0, 0)" /></svg>