<svg xmlns="http://www.w3.org/2000/svg" xmlns:xlink="http://www.w3.org/1999/xlink" width="24" height="24" preserveAspectRatio="xMidYMid meet" viewBox="0 0 24 24" style="-ms-transform: rotate(360deg); -webkit-transform: rotate(360deg); transform: rotate(360deg);"><g fill="none"><path d="M21.25 12.5a.75.75 0 0 0 0-1.5H2.75a.75.75 0 0 0 0 1.5h18.5zM20 4.25A2.25 2.25 0 0 0 17.75 2H6.25A2.25 2.25 0 0 0 4 4.25V10h1.5V4.25a.75.75 0 0 1 .75-.75h11.5a.75.75 0 0 1 .75.75V10H20V4.25zm-14.5 15V13.5H4v5.75a2.25 2.25 0 0 0 2.25 2.25h11.5A2.25 2.25 0 0 0 20 19.25V13.5h-1.5v5.75a.75.75 0 0 1-.75.75H6.25a.75.75 0 0 1-.75-.75z" fill="#626262"/></g><rect x="0" y="0" width="24" height="24" fill="rgba(0, 0, 0, 0)" /></svg>