<svg xmlns="http://www.w3.org/2000/svg" xmlns:xlink="http://www.w3.org/1999/xlink" width="24" height="24" preserveAspectRatio="xMidYMid meet" viewBox="0 0 24 24" style="-ms-transform: rotate(360deg); -webkit-transform: rotate(360deg); transform: rotate(360deg);"><g fill="none"><path d="M17.49 6.871a.75.75 0 0 0-.62-.861c-.417-.069-.79.234-.864.638l-.018.09a6.76 6.76 0 0 1-.091.368c-.089.323-.238.79-.477 1.35a12.84 12.84 0 0 1-2.732 4.014a14.112 14.112 0 0 1-5.575 3.4a8.528 8.528 0 0 1-.497.141l-.022.005H6.59v.001a.75.75 0 0 0-.574.892c.142.658.891.574.891.574h.003l.004-.001l.011-.003l.037-.009l.132-.033c.112-.029.27-.073.47-.136a15.613 15.613 0 0 0 6.185-3.771a14.34 14.34 0 0 0 3.049-4.485c.269-.629.44-1.161.544-1.541a8.213 8.213 0 0 0 .137-.578l.007-.037l.002-.011v-.006l.001-.001z" fill="#626262"/><path d="M2.353 12.573c-.684 1.898-.775 3.873.438 5.099l.234.238a629.85 629.85 0 0 0 3.023 3.039c1.28 1.28 3.305 1.3 5.289.66c2.026-.655 4.25-2.061 6.226-4.037s3.382-4.2 4.037-6.226c.64-1.984.62-4.009-.66-5.289a771.079 771.079 0 0 1-2.892-2.912l-.362-.366l-.002.002c-1.225-1.214-3.201-1.124-5.1-.44c-1.965.709-4.149 2.143-6.119 4.113c-1.97 1.97-3.404 4.154-4.112 6.119zm1.41.508c.619-1.714 1.914-3.717 3.763-5.566c1.85-1.85 3.852-3.145 5.566-3.762c1.776-.64 2.97-.473 3.54.098l.003-.002l.348.352a1731.606 1731.606 0 0 0 2.896 2.917c.675.674.875 1.967.293 3.767c-.567 1.757-1.826 3.783-3.67 5.626c-1.843 1.844-3.87 3.103-5.626 3.67c-1.8.582-3.093.382-3.767-.293c-.976-.976-1.79-1.794-2.358-2.367l-.66-.666l-.23-.233h.002c-.572-.572-.74-1.765-.1-3.54z" fill="#626262"/></g><rect x="0" y="0" width="24" height="24" fill="rgba(0, 0, 0, 0)" /></svg>