<svg xmlns="http://www.w3.org/2000/svg" xmlns:xlink="http://www.w3.org/1999/xlink" width="24" height="24" preserveAspectRatio="xMidYMid meet" viewBox="0 0 24 24" style="-ms-transform: rotate(360deg); -webkit-transform: rotate(360deg); transform: rotate(360deg);"><g fill="none"><path d="M10.788 3.103c.495-1.004 1.926-1.004 2.421 0l2.358 4.777l5.273.766c1.107.161 1.549 1.522.748 2.303l-.905.882a6.462 6.462 0 0 0-1.517-.616l1.157-1.128l-5.05-.734a1.35 1.35 0 0 1-1.016-.738l-2.259-4.576L9.74 8.615a1.35 1.35 0 0 1-1.016.738l-5.05.734l3.654 3.562c.318.31.463.757.388 1.195l-.862 5.03l4.149-2.182c.015.542.098 1.068.238 1.57l-3.958 2.08c-.99.521-2.148-.32-1.96-1.423l.901-5.25l-3.815-3.72c-.801-.78-.359-2.142.748-2.303L8.43 7.88l2.358-4.777z" fill="#626262"/><path d="M12.5 15.629l.447.43a2 2 0 0 1 0 2.882l-.447.43c.2.574.49 1.103.853 1.57l.602-.178a2 2 0 0 1 2.51 1.45l.173.715a5.175 5.175 0 0 0 1.723 0l.173-.716a2 2 0 0 1 2.51-1.449l.603.178c.362-.467.652-.996.853-1.57l-.448-.43a2 2 0 0 1 0-2.882l.448-.43a5.544 5.544 0 0 0-.853-1.57l-.602.178a2 2 0 0 1-2.511-1.45l-.173-.715a5.176 5.176 0 0 0-1.723 0l-.172.716a2 2 0 0 1-2.511 1.449l-.602-.178a5.549 5.549 0 0 0-.853 1.57zm5 3.371c-.8 0-1.45-.672-1.45-1.5S16.7 16 17.5 16c.8 0 1.45.672 1.45 1.5S18.3 19 17.5 19z" fill="#626262"/></g><rect x="0" y="0" width="24" height="24" fill="rgba(0, 0, 0, 0)" /></svg>