<svg xmlns="http://www.w3.org/2000/svg" xmlns:xlink="http://www.w3.org/1999/xlink" width="24" height="24" preserveAspectRatio="xMidYMid meet" viewBox="0 0 24 24" style="-ms-transform: rotate(360deg); -webkit-transform: rotate(360deg); transform: rotate(360deg);"><g fill="none"><path d="M13.209 3.103c-.495-1.004-1.926-1.004-2.421 0L8.43 7.88l-5.273.766c-1.107.161-1.55 1.522-.748 2.303l3.815 3.72l-.9 5.25c-.19 1.103.968 1.944 1.959 1.424l4.715-2.48l4.716 2.48c.99.52 2.148-.32 1.96-1.424l-.902-5.25l3.816-3.72c.8-.78.359-2.142-.748-2.303l-5.273-.766l-2.358-4.777zM9.74 8.615l2.258-4.576l2.259 4.576a1.35 1.35 0 0 0 1.016.738l5.05.734l-3.654 3.562a1.35 1.35 0 0 0-.388 1.195l.862 5.03l-4.516-2.375a1.35 1.35 0 0 0-1.257 0l-4.516 2.374l.862-5.029a1.35 1.35 0 0 0-.388-1.195l-3.654-3.562l5.05-.734c.44-.063.82-.34 1.016-.738z" fill="#626262"/><path d="M1.164 3.782a.75.75 0 0 0 .118 1.054l2.5 2a.75.75 0 1 0 .937-1.172l-2.5-2a.75.75 0 0 0-1.055.118z" fill="#626262"/><path d="M22.836 18.218a.75.75 0 0 0-.117-1.054l-2.5-2a.75.75 0 0 0-.938 1.172l2.5 2a.75.75 0 0 0 1.055-.117z" fill="#626262"/><path d="M1.282 17.164a.75.75 0 1 0 .937 1.172l2.5-2a.75.75 0 0 0-.937-1.172l-2.5 2z" fill="#626262"/><path d="M22.836 3.782a.75.75 0 0 1-.117 1.054l-2.5 2a.75.75 0 0 1-.938-1.172l2.5-2a.75.75 0 0 1 1.055.118z" fill="#626262"/></g><rect x="0" y="0" width="24" height="24" fill="rgba(0, 0, 0, 0)" /></svg>