<svg xmlns="http://www.w3.org/2000/svg" xmlns:xlink="http://www.w3.org/1999/xlink" width="24" height="24" preserveAspectRatio="xMidYMid meet" viewBox="0 0 24 24" style="-ms-transform: rotate(360deg); -webkit-transform: rotate(360deg); transform: rotate(360deg);"><g fill="none"><path d="M11.5 9.5V13H8V9.5h3.5z" fill="#626262"/><path d="M11.5 17.5V14H8v3.5h3.5z" fill="#626262"/><path d="M16 9.5V13h-3.5V9.5H16z" fill="#626262"/><path d="M16 17.5V14h-3.5v3.5H16z" fill="#626262"/><path d="M8 6V3.75C8 2.784 8.784 2 9.75 2h4.5c.966 0 1.75.784 1.75 1.75V6h5.25a.75.75 0 0 1 .75.75v11.5A2.75 2.75 0 0 1 19.25 21H4.75A2.75 2.75 0 0 1 2 18.25V6.75A.75.75 0 0 1 2.75 6H8zm1.5-2.25V6h5V3.75a.25.25 0 0 0-.25-.25h-4.5a.25.25 0 0 0-.25.25zm-6 14.5c0 .69.56 1.25 1.25 1.25h14.5c.69 0 1.25-.56 1.25-1.25V7.5h-17v10.75z" fill="#626262"/></g><rect x="0" y="0" width="24" height="24" fill="rgba(0, 0, 0, 0)" /></svg>