<svg xmlns="http://www.w3.org/2000/svg" xmlns:xlink="http://www.w3.org/1999/xlink" width="24" height="24" preserveAspectRatio="xMidYMid meet" viewBox="0 0 24 24" style="-ms-transform: rotate(360deg); -webkit-transform: rotate(360deg); transform: rotate(360deg);"><g fill="none"><path d="M5.75 3A2.75 2.75 0 0 0 3 5.75v12.5A2.75 2.75 0 0 0 5.75 21h6.272a6.471 6.471 0 0 1-.709-1.5H5.75c-.69 0-1.25-.56-1.25-1.25V5.75c0-.69.56-1.25 1.25-1.25h12.5c.69 0 1.25.56 1.25 1.25v5.563a6.471 6.471 0 0 1 1.5.709V5.75A2.75 2.75 0 0 0 18.25 3H5.75z" fill="#626262"/><path d="M17.5 23a5.5 5.5 0 1 0 0-11a5.5 5.5 0 0 0 0 11zm-3.309-3.252a4 4 0 0 1 5.557-5.557l-5.557 5.557zm1.06 1.06l5.558-5.556a4 4 0 0 1-5.557 5.557z" fill="#626262"/></g><rect x="0" y="0" width="24" height="24" fill="rgba(0, 0, 0, 0)" /></svg>