<svg xmlns="http://www.w3.org/2000/svg" xmlns:xlink="http://www.w3.org/1999/xlink" width="24" height="24" preserveAspectRatio="xMidYMid meet" viewBox="0 0 24 24" style="-ms-transform: rotate(360deg); -webkit-transform: rotate(360deg); transform: rotate(360deg);"><g fill="none"><path d="M4.5 3.75v16.5a.75.75 0 0 1-1.5 0V3.75a.75.75 0 0 1 1.5 0z" fill="#626262"/><path d="M14.25 3a2.25 2.25 0 0 1 2.25 2.25v13.5A2.25 2.25 0 0 1 14.25 21h-4.5a2.25 2.25 0 0 1-2.25-2.25V5.25A2.25 2.25 0 0 1 9.75 3h4.5zM15 5.25a.75.75 0 0 0-.75-.75h-4.5a.75.75 0 0 0-.75.75V8.5h6V5.25zM9 14h6v-4H9v4zm0 1.5v3.25c0 .414.336.75.75.75h4.5a.75.75 0 0 0 .75-.75V15.5H9z" fill="#626262"/><path d="M21 20.25V3.75a.75.75 0 0 0-1.5 0v16.5a.75.75 0 0 0 1.5 0z" fill="#626262"/></g><rect x="0" y="0" width="24" height="24" fill="rgba(0, 0, 0, 0)" /></svg>