<svg xmlns="http://www.w3.org/2000/svg" xmlns:xlink="http://www.w3.org/1999/xlink" width="24" height="24" preserveAspectRatio="xMidYMid meet" viewBox="0 0 24 24" style="-ms-transform: rotate(360deg); -webkit-transform: rotate(360deg); transform: rotate(360deg);"><g fill="none"><path d="M3 6.25A3.25 3.25 0 0 1 6.25 3h11.5A3.25 3.25 0 0 1 21 6.25v5.772a6.471 6.471 0 0 0-1.5-.709V10h-4v1.313a6.471 6.471 0 0 0-1.5.709V10h-4v4h2.022a6.467 6.467 0 0 0-.708 1.5H10v4h1.314c.172.534.411 1.037.708 1.5H6.25A3.25 3.25 0 0 1 3 17.75V6.25zM6.25 4.5A1.75 1.75 0 0 0 4.5 6.25V8.5h4v-4H6.25zM4.5 10v4h4v-4h-4zm11-1.5h4V6.25a1.75 1.75 0 0 0-1.75-1.75H15.5v4zm-1.5-4h-4v4h4v-4zm-9.5 11v2.25c0 .966.784 1.75 1.75 1.75H8.5v-4h-4zm8 .129l.447.43a2 2 0 0 1 0 2.882l-.447.43c.2.574.491 1.103.853 1.57l.602-.178a2 2 0 0 1 2.511 1.45l.173.715a5.175 5.175 0 0 0 1.723 0l.172-.716a2 2 0 0 1 2.511-1.449l.602.178c.362-.467.652-.996.853-1.57l-.447-.43a2 2 0 0 1 0-2.882l.447-.43a5.549 5.549 0 0 0-.853-1.57l-.602.178a2 2 0 0 1-2.51-1.45l-.173-.715a5.175 5.175 0 0 0-1.723 0l-.173.716a2 2 0 0 1-2.51 1.449l-.603-.178a5.549 5.549 0 0 0-.853 1.57zm5 3.371c-.8 0-1.45-.672-1.45-1.5S16.7 16 17.5 16c.8 0 1.45.672 1.45 1.5S18.3 19 17.5 19z" fill="#626262"/></g><rect x="0" y="0" width="24" height="24" fill="rgba(0, 0, 0, 0)" /></svg>