<svg xmlns="http://www.w3.org/2000/svg" xmlns:xlink="http://www.w3.org/1999/xlink" width="24" height="24" preserveAspectRatio="xMidYMid meet" viewBox="0 0 24 24" style="-ms-transform: rotate(360deg); -webkit-transform: rotate(360deg); transform: rotate(360deg);"><g fill="none"><path d="M12.5 10H11v4h1.5v-4z" fill="#626262"/><path d="M3 6.25A3.25 3.25 0 0 1 6.25 3h11.5A3.25 3.25 0 0 1 21 6.25v11.5A3.25 3.25 0 0 1 17.75 21H6.25A3.25 3.25 0 0 1 3 17.75V6.25zM6.25 4.5A1.75 1.75 0 0 0 4.5 6.25V7.5H11v-3H6.25zm13.25 12h-7v3h5.25a1.75 1.75 0 0 0 1.75-1.75V16.5zm0-10.25a1.75 1.75 0 0 0-1.75-1.75H12.5v3h7V6.25zM4.5 16.5v1.25c0 .966.784 1.75 1.75 1.75H11v-3H4.5zm0-1.5h15V9h-15v6z" fill="#626262"/></g><rect x="0" y="0" width="24" height="24" fill="rgba(0, 0, 0, 0)" /></svg>