<svg xmlns="http://www.w3.org/2000/svg" xmlns:xlink="http://www.w3.org/1999/xlink" width="24" height="24" preserveAspectRatio="xMidYMid meet" viewBox="0 0 24 24" style="-ms-transform: rotate(360deg); -webkit-transform: rotate(360deg); transform: rotate(360deg);"><g fill="none"><path d="M20.25 4.5a.75.75 0 0 0 0-1.5H3.75a.75.75 0 0 0 0 1.5h16.5z" fill="#626262"/><path d="M20.25 8.5a.75.75 0 0 1 .75.75v8.5A3.25 3.25 0 0 1 17.75 21H6.25A3.25 3.25 0 0 1 3 17.75v-8.5a.75.75 0 0 1 .75-.75h16.5zM14 10h-4v4h4v-4zm-5.5 0h-4v4h4v-4zm0 5.5h-4v2.25c0 .966.784 1.75 1.75 1.75H8.5v-4zm5.5 0h-4v4h4v-4zm1.5 4h2.25a1.75 1.75 0 0 0 1.75-1.75V15.5h-4v4zm4-9.5h-4v4h4v-4z" fill="#626262"/></g><rect x="0" y="0" width="24" height="24" fill="rgba(0, 0, 0, 0)" /></svg>