<svg xmlns="http://www.w3.org/2000/svg" xmlns:xlink="http://www.w3.org/1999/xlink" width="24" height="24" preserveAspectRatio="xMidYMid meet" viewBox="0 0 24 24" style="-ms-transform: rotate(360deg); -webkit-transform: rotate(360deg); transform: rotate(360deg);"><g fill="none"><path d="M3.75 15.5a.75.75 0 0 1-.75-.75v-8.5A3.25 3.25 0 0 1 6.25 3h11.5A3.25 3.25 0 0 1 21 6.25v8.5a.75.75 0 0 1-.75.75H3.75zM10 14h4v-4h-4v4zm0-5.5h4v-4h-4v4zm5.5 5.5h4v-4h-4v4zm0-5.5h4V6.25a1.75 1.75 0 0 0-1.75-1.75H15.5v4zm-7-4H6.25A1.75 1.75 0 0 0 4.5 6.25V8.5h4v-4zm-4 9.5h4v-4h-4v4z" fill="#626262"/><path d="M3.75 19.5a.75.75 0 0 0 0 1.5h16.5a.75.75 0 0 0 0-1.5H3.75z" fill="#626262"/></g><rect x="0" y="0" width="24" height="24" fill="rgba(0, 0, 0, 0)" /></svg>