<svg xmlns="http://www.w3.org/2000/svg" xmlns:xlink="http://www.w3.org/1999/xlink" width="24" height="24" preserveAspectRatio="xMidYMid meet" viewBox="0 0 24 24" style="-ms-transform: rotate(360deg); -webkit-transform: rotate(360deg); transform: rotate(360deg);"><g fill="none"><path d="M3 6.25A3.25 3.25 0 0 1 6.25 3h11.5A3.25 3.25 0 0 1 21 6.25v5.772a6.471 6.471 0 0 0-1.5-.709V10h-4v1.313a6.471 6.471 0 0 0-1.5.709V10h-4v4h2.022a6.471 6.471 0 0 0-.709 1.5H10v4h1.313c.173.534.412 1.037.709 1.5H6.25A3.25 3.25 0 0 1 3 17.75V6.25zM6.25 4.5A1.75 1.75 0 0 0 4.5 6.25V8.5h4v-4H6.25zM4.5 10v4h4v-4h-4zm11-1.5h4V6.25a1.75 1.75 0 0 0-1.75-1.75H15.5v4zm-1.5-4h-4v4h4v-4zm-9.5 11v2.25c0 .966.784 1.75 1.75 1.75H8.5v-4h-4z" fill="#626262"/><path d="M23 17.5a5.5 5.5 0 1 0-11 0a5.5 5.5 0 0 0 11 0zm-5 .5l.001 2.503a.5.5 0 1 1-1 0V18h-2.505a.5.5 0 1 1 0-1H17v-2.5a.5.5 0 0 1 1 0V17h2.503a.5.5 0 1 1 0 1h-2.502z" fill="#626262"/></g><rect x="0" y="0" width="24" height="24" fill="rgba(0, 0, 0, 0)" /></svg>