<svg xmlns="http://www.w3.org/2000/svg" xmlns:xlink="http://www.w3.org/1999/xlink" width="24" height="24" preserveAspectRatio="xMidYMid meet" viewBox="0 0 24 24" style="-ms-transform: rotate(360deg); -webkit-transform: rotate(360deg); transform: rotate(360deg);"><g fill="none"><path d="M15.5 3.75a.75.75 0 0 0-.75-.75h-8.5A3.25 3.25 0 0 0 3 6.25v11.5A3.25 3.25 0 0 0 6.25 21h8.5a.75.75 0 0 0 .75-.75V3.75zM14 10v4h-4v-4h4zm-9.5 4v-4h4v4h-4zM14 8.5h-4v-4h4v4zm-5.5 0h-4V6.25c0-.966.784-1.75 1.75-1.75H8.5v4zm0 11H6.25a1.75 1.75 0 0 1-1.75-1.75V15.5h4v4zm1.5-4h4v4h-4v-4z" fill="#626262"/><path d="M19.5 3.75a.75.75 0 0 1 1.5 0v16.5a.75.75 0 0 1-1.5 0V3.75z" fill="#626262"/></g><rect x="0" y="0" width="24" height="24" fill="rgba(0, 0, 0, 0)" /></svg>