<svg xmlns="http://www.w3.org/2000/svg" xmlns:xlink="http://www.w3.org/1999/xlink" width="24" height="24" preserveAspectRatio="xMidYMid meet" viewBox="0 0 24 24" style="-ms-transform: rotate(360deg); -webkit-transform: rotate(360deg); transform: rotate(360deg);"><g fill="none"><path d="M11.75 7c1.349 0 2.179.97 2.246 2.329l.004.18v2.115l2.22.403a3.25 3.25 0 0 1 2.602 3.857l-.044.18l-1.048 3.923a2.25 2.25 0 0 1-1.689 1.616l-.165.03l-2.418.347a2.25 2.25 0 0 1-2.28-1.123l-.08-.155l-.029-.063a3.464 3.464 0 0 0-1.026-1.283l-.194-.138l-1.883-1.256l-.094-.059l-.098-.052l-2.363-1.175a.75.75 0 0 1-.415-.655c-.025-1.109.465-1.964 1.419-2.44c.702-.352 1.635-.332 2.826.016l.26.08V9.507C9.5 8.055 10.342 7 11.75 7zm0 1.5c-.46 0-.712.275-.746.866L11 9.508v5.245a.75.75 0 0 1-1.036.693c-1.46-.602-2.441-.743-2.879-.524c-.254.127-.42.29-.51.519l-.038.12l1.905.947l.181.097l.175.109l1.883 1.256a4.966 4.966 0 0 1 1.626 1.792l.122.245l.03.062a.75.75 0 0 0 .677.434l.109-.008l2.418-.347a.75.75 0 0 0 .581-.443l.037-.105l1.048-3.924a1.75 1.75 0 0 0-1.239-2.142l-.069-.017l-2.905-.529a.75.75 0 0 1-.608-.63l-.008-.108V9.508c0-.69-.255-1.008-.75-1.008zM11.75 2a7.25 7.25 0 0 1 6.697 10.034a4.203 4.203 0 0 0-1.304-.785a5.75 5.75 0 1 0-10.219 1.13a3.316 3.316 0 0 0-.956.307c-.16.08-.312.17-.454.266A7.25 7.25 0 0 1 11.749 2zm0 2.502A4.749 4.749 0 0 1 16.165 11L15 10.789V9.51l-.004-.195l.002-.063c0-.681-.21-1.313-.567-1.835l-.09-.132C13.784 6.496 12.893 6 11.752 6c-1.176 0-2.086.526-2.64 1.353a3.237 3.237 0 0 0-.61 1.898l.001.11l-.002.147v2.89l-.262-.036a1 1 0 0 1-.617-.32c-.414-.458-.62-1.388-.62-2.791a4.749 4.749 0 0 1 4.748-4.75z" fill="#626262"/></g><rect x="0" y="0" width="24" height="24" fill="rgba(0, 0, 0, 0)" /></svg>