<svg xmlns="http://www.w3.org/2000/svg" xmlns:xlink="http://www.w3.org/1999/xlink" width="24" height="24" preserveAspectRatio="xMidYMid meet" viewBox="0 0 24 24" style="-ms-transform: rotate(360deg); -webkit-transform: rotate(360deg); transform: rotate(360deg);"><g fill="none"><path d="M11.75 6c1.349 0 2.179.969 2.246 2.329l.004.18v2.115l2.22.403a3.252 3.252 0 0 1 2.601 3.857l-.043.18l-1.048 3.922a2.25 2.25 0 0 1-1.689 1.617l-.165.03l-2.418.347a2.25 2.25 0 0 1-2.28-1.124l-.08-.154l-.029-.063a3.465 3.465 0 0 0-1.026-1.283l-.194-.139l-1.883-1.255l-.094-.059l-.098-.052l-2.362-1.176a.75.75 0 0 1-.416-.655c-.025-1.108.465-1.963 1.419-2.44c.702-.351 1.635-.331 2.826.017l.26.079V8.508C9.5 7.055 10.342 6 11.75 6zm0 1.5c-.46 0-.712.275-.746.866L11 8.508v5.244a.75.75 0 0 1-1.036.694c-1.46-.603-2.441-.743-2.878-.524c-.254.127-.42.29-.51.518l-.039.12l1.906.948l.18.097l.175.108l1.883 1.256a4.966 4.966 0 0 1 1.626 1.793l.122.244l.03.063a.75.75 0 0 0 .677.434l.109-.008l2.418-.347a.75.75 0 0 0 .582-.444l.036-.105l1.048-3.923a1.75 1.75 0 0 0-1.239-2.142l-.069-.017l-2.905-.53a.75.75 0 0 1-.608-.63l-.008-.107V8.508c0-.69-.255-1.008-.75-1.008zm-.001-5a5.75 5.75 0 0 1 5.393 7.749l-.144-.053a5.604 5.604 0 0 0-.607-.175a4.986 4.986 0 0 0-.727-.112A4.25 4.25 0 1 0 8.5 10.99a5.66 5.66 0 0 0-.824.123c-.351.085-.588.17-.753.263A5.75 5.75 0 0 1 11.75 2.5z" fill="#626262"/></g><rect x="0" y="0" width="24" height="24" fill="rgba(0, 0, 0, 0)" /></svg>