<svg xmlns="http://www.w3.org/2000/svg" xmlns:xlink="http://www.w3.org/1999/xlink" width="24" height="24" preserveAspectRatio="xMidYMid meet" viewBox="0 0 24 24" style="-ms-transform: rotate(360deg); -webkit-transform: rotate(360deg); transform: rotate(360deg);"><g fill="none"><path d="M11.998 14a2 2 0 1 0 0-4a2 2 0 0 0 0 4z" fill="#626262"/><path d="M5.998 12a6 6 0 1 1 12 0a6 6 0 0 1-12 0zm6-4.5a4.5 4.5 0 1 0 0 9a4.5 4.5 0 0 0 0-9z" fill="#626262"/><path d="M1.996 12c0-5.524 4.478-10.002 10.002-10.002C17.522 1.998 22 6.476 22 12c0 5.524-4.478 10.002-10.002 10.002c-5.524 0-10.002-4.478-10.002-10.002zm10.002-8.502a8.502 8.502 0 1 0 0 17.004a8.502 8.502 0 0 0 0-17.004z" fill="#626262"/></g><rect x="0" y="0" width="24" height="24" fill="rgba(0, 0, 0, 0)" /></svg>