<svg xmlns="http://www.w3.org/2000/svg" xmlns:xlink="http://www.w3.org/1999/xlink" width="24" height="24" preserveAspectRatio="xMidYMid meet" viewBox="0 0 24 24" style="-ms-transform: rotate(360deg); -webkit-transform: rotate(360deg); transform: rotate(360deg);"><g fill="none"><path d="M12 2a3.25 3.25 0 0 1 3.245 3.065l.005.185l.001 7.952l.08.069a4.99 4.99 0 0 1 1.644 3.223l.019.252L17 17a5 5 0 1 1-8.51-3.56l.18-.17l.079-.068l.001-7.952a3.25 3.25 0 0 1 2.884-3.23l.182-.015L12 2zm0 1.5a1.75 1.75 0 0 0-1.744 1.607l-.006.143v8.694l-.309.225a3.5 3.5 0 1 0 4.283.128l-.165-.127l-.307-.225l-.002-8.695A1.75 1.75 0 0 0 12 3.5zM12 8a.75.75 0 0 1 .75.75v5.865a2.501 2.501 0 1 1-1.5 0V8.75A.75.75 0 0 1 12 8z" fill="#626262"/></g><rect x="0" y="0" width="24" height="24" fill="rgba(0, 0, 0, 0)" /></svg>