<svg xmlns="http://www.w3.org/2000/svg" xmlns:xlink="http://www.w3.org/1999/xlink" width="24" height="24" preserveAspectRatio="xMidYMid meet" viewBox="0 0 24 24" style="-ms-transform: rotate(360deg); -webkit-transform: rotate(360deg); transform: rotate(360deg);"><g fill="none"><path d="M17.5 12a5.5 5.5 0 1 1 0 11a5.5 5.5 0 0 1 0-11zm-2.476 3.024a.5.5 0 0 0 0 .707l1.769 1.77l-1.767 1.766a.5.5 0 1 0 .707.708l1.767-1.767l1.77 1.769a.5.5 0 1 0 .707-.707L18.208 17.5l1.771-1.77a.5.5 0 0 0-.707-.707l-1.771 1.77l-1.77-1.77a.5.5 0 0 0-.707 0z" fill="#626262"/><path d="M11.019 17H2.75l-.102.007A.75.75 0 0 0 2.75 18.5h8.326a6.554 6.554 0 0 1-.057-1.5z" fill="#626262"/><path d="M11.732 14.5H2.75a.75.75 0 0 1-.102-1.493L2.75 13h10.06c-.427.444-.79.949-1.078 1.5z" fill="#626262"/><path d="M21.25 9H2.75l-.102.007A.75.75 0 0 0 2.75 10.5h18.5l.102-.007A.75.75 0 0 0 21.25 9z" fill="#626262"/><path d="M21.25 5H2.75l-.102.007A.75.75 0 0 0 2.75 6.5h18.5l.102-.007A.75.75 0 0 0 21.25 5z" fill="#626262"/></g><rect x="0" y="0" width="24" height="24" fill="rgba(0, 0, 0, 0)" /></svg>