<svg xmlns="http://www.w3.org/2000/svg" xmlns:xlink="http://www.w3.org/1999/xlink" width="24" height="24" preserveAspectRatio="xMidYMid meet" viewBox="0 0 24 24" style="-ms-transform: rotate(360deg); -webkit-transform: rotate(360deg); transform: rotate(360deg);"><g fill="none"><path d="M20 2.75a.75.75 0 0 0-1.434-.307l-.002.003a2.379 2.379 0 0 1-.067.132a4.117 4.117 0 0 1-.238.384c-.217.313-.524.663-.906.902a.75.75 0 0 0 .794 1.272c.125-.078.243-.161.353-.248V7.25a.75.75 0 0 0 1.5 0v-4.5z" fill="#626262"/><path d="M14 18.75a.75.75 0 0 0-.75-.75h-9a.75.75 0 0 0 0 1.5h9a.75.75 0 0 0 .75-.75z" fill="#626262"/><path d="M14 12.244a.75.75 0 0 0-.75-.75h-9a.75.75 0 1 0 0 1.5h9a.75.75 0 0 0 .75-.75z" fill="#626262"/><path d="M14 5.75a.75.75 0 0 0-.75-.75h-9a.75.75 0 0 0 0 1.5h9a.75.75 0 0 0 .75-.75z" fill="#626262"/><path d="M19.15 10.52c-.3-.053-.676.066-.87.26a.75.75 0 1 1-1.06-1.06c.556-.556 1.43-.812 2.192-.677c.397.07.805.254 1.115.605c.316.358.473.825.473 1.352c0 .62-.271 1.08-.606 1.42c-.278.283-.63.511-.906.689l-.08.051a5.884 5.884 0 0 0-.481.34h1.323a.75.75 0 0 1 0 1.5h-2.5a.75.75 0 0 1-.75-.75c0-1.314.984-1.953 1.575-2.337l.06-.04c.318-.205.533-.345.69-.504c.134-.136.175-.238.175-.369c0-.223-.061-.318-.098-.36a.42.42 0 0 0-.251-.12z" fill="#626262"/><path d="M16.97 21.28s.093.084.004.005l.006.005l.013.013a1.435 1.435 0 0 0 .15.125c.095.07.227.158.397.243c.341.17.83.329 1.46.329c.64 0 1.196-.181 1.601-.54c.408-.36.61-.857.595-1.359A1.775 1.775 0 0 0 20.77 19c.259-.305.412-.685.425-1.101a1.73 1.73 0 0 0-.594-1.36C20.196 16.181 19.64 16 19 16c-.63 0-1.119.158-1.46.33a2.59 2.59 0 0 0-.51.334a1.435 1.435 0 0 0-.037.033l-.013.013l-.006.005l-.002.003h-.001l-.001.002a.75.75 0 0 0 1.048 1.072a1.102 1.102 0 0 1 .192-.121c.159-.08.42-.171.79-.171c.36 0 .536.1.608.164c.07.061.09.127.088.187a.325.325 0 0 1-.123.23c-.088.077-.263.169-.573.169a.75.75 0 0 0 0 1.5c.31 0 .485.092.573.168c.091.08.121.166.123.231a.232.232 0 0 1-.088.187c-.072.064-.247.164-.608.164a1.75 1.75 0 0 1-.79-.17a1.102 1.102 0 0 1-.192-.122a.75.75 0 0 0-1.048 1.072zm.002-4.563l-.001.002c.007-.006.2-.168 0-.002z" fill="#626262"/></g><rect x="0" y="0" width="24" height="24" fill="rgba(0, 0, 0, 0)" /></svg>