<svg xmlns="http://www.w3.org/2000/svg" xmlns:xlink="http://www.w3.org/1999/xlink" width="24" height="24" preserveAspectRatio="xMidYMid meet" viewBox="0 0 24 24" style="-ms-transform: rotate(360deg); -webkit-transform: rotate(360deg); transform: rotate(360deg);"><path d="M9.75 4h8.504a.75.75 0 0 1 .101 1.493l-.101.006h-3.198L10.036 18.5h4.213a.75.75 0 0 1 .743.648l.006.102a.75.75 0 0 1-.647.743l-.102.007h-9.5a.747.747 0 0 1-.746-.75c0-.38.28-.693.645-.743l.102-.007h3.684l.021-.065L13.45 5.499H9.75a.75.75 0 0 1-.743-.648L9 4.75a.75.75 0 0 1 .648-.743L9.75 4h8.504H9.75z" fill-rule="nonzero" fill="#626262"/><rect x="0" y="0" width="24" height="24" fill="rgba(0, 0, 0, 0)" /></svg>