<svg xmlns="http://www.w3.org/2000/svg" xmlns:xlink="http://www.w3.org/1999/xlink" width="24" height="24" preserveAspectRatio="xMidYMid meet" viewBox="0 0 24 24" style="-ms-transform: rotate(360deg); -webkit-transform: rotate(360deg); transform: rotate(360deg);"><g fill="none"><path d="M3.78 3.22a.75.75 0 0 0-1.06 1.06l1.47 1.47l-1.47 1.47a.75.75 0 0 0 1.06 1.06l2-2a.75.75 0 0 0 0-1.06l-2-2z" fill="#626262"/><path d="M9.75 5a.75.75 0 0 0 0 1.5h11.5a.75.75 0 0 0 0-1.5H9.75z" fill="#626262"/><path d="M2.75 18a.75.75 0 0 0 0 1.5h18.5a.75.75 0 0 0 0-1.5H2.75z" fill="#626262"/><path d="M2 12.25a.75.75 0 0 1 .75-.75h18.5a.75.75 0 0 1 0 1.5H2.75a.75.75 0 0 1-.75-.75z" fill="#626262"/></g><rect x="0" y="0" width="24" height="24" fill="rgba(0, 0, 0, 0)" /></svg>