<svg xmlns="http://www.w3.org/2000/svg" xmlns:xlink="http://www.w3.org/1999/xlink" width="24" height="24" preserveAspectRatio="xMidYMid meet" viewBox="0 0 24 24" style="-ms-transform: rotate(360deg); -webkit-transform: rotate(360deg); transform: rotate(360deg);"><g fill="none"><path d="M6.75 19.5h14.5a.75.75 0 0 0 .102-1.493L21.25 18H6.75a.75.75 0 0 0-.102 1.493l.102.007z" fill="#626262"/><path d="M6.75 4.5h14.5a.75.75 0 0 0 .102-1.493L21.25 3H6.75a.75.75 0 0 0-.102 1.493l.102.007z" fill="#626262"/><path d="M13.75 8a.75.75 0 0 0 0 1.5h7.5a.75.75 0 0 0 0-1.5h-7.5z" fill="#626262"/><path d="M13 13.75a.75.75 0 0 1 .75-.75h7.5a.75.75 0 0 1 0 1.5h-7.5a.75.75 0 0 1-.75-.75z" fill="#626262"/><path d="M11 11.5a4.5 4.5 0 1 1-9 0a4.5 4.5 0 0 1 9 0zm-4-2a.5.5 0 0 0-1 0V11H4.5a.5.5 0 0 0 0 1H6v1.5a.5.5 0 0 0 1 0V12h1.5a.5.5 0 0 0 0-1H7V9.5z" fill="#626262"/></g><rect x="0" y="0" width="24" height="24" fill="rgba(0, 0, 0, 0)" /></svg>