<svg xmlns="http://www.w3.org/2000/svg" xmlns:xlink="http://www.w3.org/1999/xlink" width="24" height="24" preserveAspectRatio="xMidYMid meet" viewBox="0 0 24 24" style="-ms-transform: rotate(360deg); -webkit-transform: rotate(360deg); transform: rotate(360deg);"><g fill="none"><path d="M3.75 5a.75.75 0 0 0 0 1.5h16.5a.75.75 0 0 0 0-1.5H3.75z" fill="#626262"/><path d="M8.75 9a.75.75 0 0 0 0 1.5h11.5a.75.75 0 0 0 0-1.5H8.75z" fill="#626262"/><path d="M8 13.75a.75.75 0 0 1 .75-.75h11.5a.75.75 0 0 1 0 1.5H8.75a.75.75 0 0 1-.75-.75z" fill="#626262"/><path d="M3.75 17a.75.75 0 0 0 0 1.5h16.5a.75.75 0 0 0 0-1.5H3.75z" fill="#626262"/><path d="M3.22 11.03a.75.75 0 1 1 1.06-1.06l1.5 1.5a.75.75 0 0 1 0 1.06l-1.5 1.5a.75.75 0 0 1-1.06-1.06l.97-.97l-.97-.97z" fill="#626262"/></g><rect x="0" y="0" width="24" height="24" fill="rgba(0, 0, 0, 0)" /></svg>