<svg xmlns="http://www.w3.org/2000/svg" xmlns:xlink="http://www.w3.org/1999/xlink" width="24" height="24" preserveAspectRatio="xMidYMid meet" viewBox="0 0 24 24" style="-ms-transform: rotate(360deg); -webkit-transform: rotate(360deg); transform: rotate(360deg);"><g fill="none"><path d="M20.068 18.11l.017.052c.098.293.143.593.143.892c0 .68-.254 1.32-.767 1.806a2.429 2.429 0 0 1-1.723.706c-.51 0-.99-.152-1.404-.428l-.061-.04l-.057-.047a2.97 2.97 0 0 1-.805-1.055l-.012-.025l-.988-2.343H9.612l-.943 2.289c-.17.472-.472.897-.92 1.204c-.42.297-.905.445-1.407.445c-.563 0-1.235-.152-1.765-.681c-.502-.503-.681-1.138-.681-1.721c0-.204.039-.445.064-.599l.028-.168L9.67 4.63l.007-.014a2.68 2.68 0 0 1 .949-1.168a2.385 2.385 0 0 1 1.572-.412a2.54 2.54 0 0 1 1.335.427c.46.307.77.738.944 1.218l5.592 13.43zM13.074 5.216a.945.945 0 0 0-.374-.506a1.035 1.035 0 0 0-.594-.176a.896.896 0 0 0-.638.154a1.182 1.182 0 0 0-.418.528L5.44 18.812a2.7 2.7 0 0 0-.044.352c0 .278.08.498.242.66c.161.161.396.242.704.242a.911.911 0 0 0 .55-.176a.945.945 0 0 0 .374-.506l1.342-3.256h6.798l1.364 3.234c.103.22.235.396.396.528c.176.117.367.176.572.176a.931.931 0 0 0 .682-.286a.948.948 0 0 0 .308-.726c0-.147-.022-.286-.066-.418l-5.588-13.42zm1.496 8.91l-2.574-6.16l-2.552 6.16h5.126zm-2.88-1.5h.628l-.316-.755l-.313.755z" fill="#626262"/></g><rect x="0" y="0" width="24" height="24" fill="rgba(0, 0, 0, 0)" /></svg>