<svg xmlns="http://www.w3.org/2000/svg" xmlns:xlink="http://www.w3.org/1999/xlink" width="24" height="24" preserveAspectRatio="xMidYMid meet" viewBox="0 0 24 24" style="-ms-transform: rotate(360deg); -webkit-transform: rotate(360deg); transform: rotate(360deg);"><g fill="none"><path d="M5 5.75A.75.75 0 0 1 5.75 5h12.5a.75.75 0 0 1 0 1.5H5.75A.75.75 0 0 1 5 5.75z" fill="#626262"/><path d="M5 9.75A.75.75 0 0 1 5.75 9h12.5a.75.75 0 0 1 0 1.5H5.75A.75.75 0 0 1 5 9.75z" fill="#626262"/><path d="M5 13.75a.75.75 0 0 1 .75-.75h12.5a.75.75 0 0 1 0 1.5H5.75a.75.75 0 0 1-.75-.75z" fill="#626262"/><path d="M5 17.75a.75.75 0 0 1 .75-.75h12.5a.75.75 0 0 1 0 1.5H5.75a.75.75 0 0 1-.75-.75z" fill="#626262"/></g><rect x="0" y="0" width="24" height="24" fill="rgba(0, 0, 0, 0)" /></svg>