<svg xmlns="http://www.w3.org/2000/svg" xmlns:xlink="http://www.w3.org/1999/xlink" width="24" height="24" preserveAspectRatio="xMidYMid meet" viewBox="0 0 24 24" style="-ms-transform: rotate(360deg); -webkit-transform: rotate(360deg); transform: rotate(360deg);"><g fill="none"><path d="M3 5a.75.75 0 0 0 0 1.5h9A.75.75 0 0 0 12 5H7.5V3.75a.75.75 0 0 0-1.5 0V5H3z" fill="#626262"/><path d="M3 12.75a.75.75 0 0 0 1.5 0V9.5H5c.922 0 1.949.188 2.72.682c.725.463 1.28 1.227 1.28 2.568a.75.75 0 0 0 1.5 0c0-1.859-.82-3.095-1.97-3.832C7.425 8.212 6.077 8 5 8H3.75a.75.75 0 0 0-.75.75v4z" fill="#626262"/><path d="M18.78 6.22a.75.75 0 1 0-1.06 1.06l.72.72h-5.69a.75.75 0 0 0 0 1.5h5.69l-.72.72a.75.75 0 1 0 1.06 1.06l2-2a.75.75 0 0 0 0-1.06l-2-2z" fill="#626262"/><path d="M18.78 14.22a.75.75 0 1 0-1.06 1.06l.72.72H3.75a.75.75 0 0 0 0 1.5h14.69l-.72.72a.75.75 0 1 0 1.06 1.06l2-2a.75.75 0 0 0 0-1.06l-2-2z" fill="#626262"/></g><rect x="0" y="0" width="24" height="24" fill="rgba(0, 0, 0, 0)" /></svg>