<svg xmlns="http://www.w3.org/2000/svg" xmlns:xlink="http://www.w3.org/1999/xlink" width="24" height="24" preserveAspectRatio="xMidYMid meet" viewBox="0 0 24 24" style="-ms-transform: rotate(360deg); -webkit-transform: rotate(360deg); transform: rotate(360deg);"><g fill="none"><path d="M8.75 8.25a1 1 0 1 1-2 0a1 1 0 0 1 2 0z" fill="#626262"/><path d="M10.5 8.25a.75.75 0 0 1 .75-.75h5.5a.75.75 0 0 1 0 1.5h-5.5a.75.75 0 0 1-.75-.75z" fill="#626262"/><path d="M10.5 12a.75.75 0 0 1 .75-.75h5.5a.75.75 0 1 1 0 1.5h-5.5a.75.75 0 0 1-.75-.75z" fill="#626262"/><path d="M11.25 15a.75.75 0 1 0 0 1.5h5.5a.75.75 0 1 0 0-1.5h-5.5z" fill="#626262"/><path d="M7.75 13a1 1 0 1 0 0-2a1 1 0 0 0 0 2z" fill="#626262"/><path d="M8.75 15.75a1 1 0 1 1-2 0a1 1 0 0 1 2 0z" fill="#626262"/><path d="M5.25 3A2.25 2.25 0 0 0 3 5.25v13.5A2.25 2.25 0 0 0 5.25 21h13.5A2.25 2.25 0 0 0 21 18.75V5.25A2.25 2.25 0 0 0 18.75 3H5.25zM4.5 5.25a.75.75 0 0 1 .75-.75h13.5a.75.75 0 0 1 .75.75v13.5a.75.75 0 0 1-.75.75H5.25a.75.75 0 0 1-.75-.75V5.25z" fill="#626262"/></g><rect x="0" y="0" width="24" height="24" fill="rgba(0, 0, 0, 0)" /></svg>