<svg xmlns="http://www.w3.org/2000/svg" xmlns:xlink="http://www.w3.org/1999/xlink" width="24" height="24" preserveAspectRatio="xMidYMid meet" viewBox="0 0 24 24" style="-ms-transform: rotate(360deg); -webkit-transform: rotate(360deg); transform: rotate(360deg);"><g fill="none"><path d="M19.53 3.22l2 2a.75.75 0 0 1-1.06 1.06l-.72-.72v4.69a.75.75 0 0 1-1.5 0V5.56l-.72.72a.75.75 0 1 1-1.06-1.06l2-2a.748.748 0 0 1 .528-.22h.004a.748.748 0 0 1 .528.22z" fill="#626262"/><path d="M2 5.75A.75.75 0 0 1 2.75 5h8.5a.75.75 0 0 1 0 1.5h-8.5A.75.75 0 0 1 2 5.75z" fill="#626262"/><path d="M2 12.25a.75.75 0 0 1 .75-.75h11.5a.75.75 0 0 1 0 1.5H2.75a.75.75 0 0 1-.75-.75z" fill="#626262"/><path d="M2.75 18a.75.75 0 0 0 0 1.5h8.5a.75.75 0 0 0 0-1.5h-8.5z" fill="#626262"/><path d="M18.25 18.44v-4.69a.75.75 0 0 1 1.5 0v4.69l.72-.72a.75.75 0 1 1 1.06 1.06l-2 2a.748.748 0 0 1-1.06 0l-2-2a.75.75 0 1 1 1.06-1.06l.72.72z" fill="#626262"/></g><rect x="0" y="0" width="24" height="24" fill="rgba(0, 0, 0, 0)" /></svg>