<svg xmlns="http://www.w3.org/2000/svg" xmlns:xlink="http://www.w3.org/1999/xlink" width="24" height="24" preserveAspectRatio="xMidYMid meet" viewBox="0 0 24 24" style="-ms-transform: rotate(360deg); -webkit-transform: rotate(360deg); transform: rotate(360deg);"><g fill="none"><path d="M3.75 4a.75.75 0 0 0 0 1.5h16.5a.75.75 0 0 0 0-1.5H3.75z" fill="#626262"/><path d="M3 8.25a.75.75 0 0 1 .75-.75h4.68A5.009 5.009 0 0 0 7.415 9H3.75A.75.75 0 0 1 3 8.25z" fill="#626262"/><path d="M15.465 9a4.02 4.02 0 0 0-1.527-1.5A3.982 3.982 0 0 0 12 7c-.703 0-1.364.181-1.938.5A4.02 4.02 0 0 0 8.535 9A3.982 3.982 0 0 0 8 11v4.75a.749.749 0 0 0 .75.75a.75.75 0 0 0 .75-.75V11A2.496 2.496 0 0 1 12 8.5a2.496 2.496 0 0 1 2.5 2.5v4.75a.747.747 0 0 0 .75.75a.75.75 0 0 0 .75-.75V11c0-.729-.195-1.412-.535-2z" fill="#626262"/><path d="M3.75 11H7v1.5H3.75a.75.75 0 0 1 0-1.5z" fill="#626262"/><path d="M3.75 14.5H7v1.25c0 .085.006.168.018.25H3.75a.75.75 0 0 1 0-1.5z" fill="#626262"/><path d="M13.5 15.75c0 .085.006.168.018.25h-3.036c.012-.082.018-.165.018-.25V14.5h3v1.25z" fill="#626262"/><path d="M20.25 12.5H17V11h3.25a.75.75 0 0 1 0 1.5z" fill="#626262"/><path d="M17 15.75c0 .085-.006.168-.018.25h3.268a.75.75 0 0 0 0-1.5H17v1.25z" fill="#626262"/><path d="M13.5 12.5h-3V11h3v1.5z" fill="#626262"/><path d="M15.57 7.5A5.01 5.01 0 0 1 16.585 9h3.666a.75.75 0 0 0 0-1.5h-4.68z" fill="#626262"/><path d="M3.75 18a.75.75 0 0 0 0 1.5h16.5a.75.75 0 0 0 0-1.5H3.75z" fill="#626262"/></g><rect x="0" y="0" width="24" height="24" fill="rgba(0, 0, 0, 0)" /></svg>