<svg xmlns="http://www.w3.org/2000/svg" xmlns:xlink="http://www.w3.org/1999/xlink" width="24" height="24" preserveAspectRatio="xMidYMid meet" viewBox="0 0 24 24" style="-ms-transform: rotate(360deg); -webkit-transform: rotate(360deg); transform: rotate(360deg);"><g fill="none"><path d="M3 4.75A.75.75 0 0 1 3.75 4h16.5a.75.75 0 0 1 0 1.5H3.75A.75.75 0 0 1 3 4.75z" fill="#626262"/><path d="M3 18.75a.75.75 0 0 1 .75-.75h16.5a.75.75 0 0 1 0 1.5H3.75a.75.75 0 0 1-.75-.75z" fill="#626262"/><path d="M9.5 11a2.5 2.5 0 0 1 5 0v4.75a.75.75 0 0 0 1.5 0V11a4 4 0 0 0-8 0v4.75a.75.75 0 0 0 1.5 0V11z" fill="#626262"/></g><rect x="0" y="0" width="24" height="24" fill="rgba(0, 0, 0, 0)" /></svg>