<svg xmlns="http://www.w3.org/2000/svg" xmlns:xlink="http://www.w3.org/1999/xlink" width="24" height="24" preserveAspectRatio="xMidYMid meet" viewBox="0 0 24 24" style="-ms-transform: rotate(360deg); -webkit-transform: rotate(360deg); transform: rotate(360deg);"><g fill="none"><path d="M16.5 8a4.25 4.25 0 0 0 0 8.5h.5v4.75a.75.75 0 0 0 1.5 0V9.5h1v11.75a.75.75 0 0 0 1.5 0V9.5h.25a.75.75 0 0 0 0-1.5H16.5zm0 1.5h.5V15h-.5a2.75 2.75 0 1 1 0-5.5z" fill="#626262"/><path d="M2.75 5a.75.75 0 0 0 0 1.5h18.5a.75.75 0 0 0 0-1.5H2.75z" fill="#626262"/><path d="M2.75 10a.75.75 0 0 0 0 1.5h8.553c.076-.53.23-1.034.452-1.5H2.75z" fill="#626262"/><path d="M12.027 15H2.75a.75.75 0 0 0 0 1.5h10.667a5.278 5.278 0 0 1-1.39-1.5z" fill="#626262"/></g><rect x="0" y="0" width="24" height="24" fill="rgba(0, 0, 0, 0)" /></svg>