<svg xmlns="http://www.w3.org/2000/svg" xmlns:xlink="http://www.w3.org/1999/xlink" width="24" height="24" preserveAspectRatio="xMidYMid meet" viewBox="0 0 24 24" style="-ms-transform: rotate(360deg); -webkit-transform: rotate(360deg); transform: rotate(360deg);"><g fill="none"><path d="M20.75 16.001a1.25 1.25 0 1 0 0 2.499a1.25 1.25 0 0 0 0-2.499zm-3.5.5H2.75a.75.75 0 0 0-.102 1.493l.102.007h14.5a.75.75 0 0 0 .102-1.493l-.102-.007zm3.5-5.5a1.25 1.25 0 1 0 0 2.498a1.25 1.25 0 0 0 0-2.498zm-3.5.5H2.75a.75.75 0 0 0-.102 1.493L2.75 13h14.5a.75.75 0 0 0 .102-1.493l-.102-.007zM20.75 6a1.25 1.25 0 1 0 0 2.499a1.25 1.25 0 0 0 0-2.499zm-3.5.5H2.75a.75.75 0 0 0-.102 1.493L2.75 8h14.5a.75.75 0 0 0 .102-1.493L17.25 6.5z" fill="#626262"/></g><rect x="0" y="0" width="24" height="24" fill="rgba(0, 0, 0, 0)" /></svg>