<svg xmlns="http://www.w3.org/2000/svg" xmlns:xlink="http://www.w3.org/1999/xlink" width="24" height="24" preserveAspectRatio="xMidYMid meet" viewBox="0 0 24 24" style="-ms-transform: rotate(360deg); -webkit-transform: rotate(360deg); transform: rotate(360deg);"><g fill="none"><path d="M2.75 17h7.775l-1.5 1.5H2.75a.75.75 0 0 1-.102-1.493L2.75 17z" fill="#626262"/><path d="M2.75 14.5h7.564a1.745 1.745 0 0 1-.241-1.5H2.75l-.102.007A.75.75 0 0 0 2.75 14.5z" fill="#626262"/><path d="M12.72 16.22a.75.75 0 1 1 1.06 1.06l-4.5 4.5a.75.75 0 0 1-1.06-1.06l4.5-4.5z" fill="#626262"/><path d="M2.75 9h10.5a.75.75 0 0 1 .102 1.493l-.102.007H2.75a.75.75 0 0 1-.102-1.493L2.75 9z" fill="#626262"/><path d="M2.75 5h18.5a.75.75 0 0 1 .102 1.493l-.102.007H2.75a.75.75 0 0 1-.102-1.493L2.75 5z" fill="#626262"/><path d="M16.5 8a.75.75 0 0 1 .744.658l.14 1.13a3.25 3.25 0 0 0 2.828 2.829l1.13.139a.75.75 0 0 1 0 1.488l-1.13.14a3.25 3.25 0 0 0-2.829 2.828l-.139 1.13a.75.75 0 0 1-1.488 0l-.14-1.13a3.25 3.25 0 0 0-2.828-2.829l-1.13-.139a.75.75 0 0 1 0-1.488l1.13-.14a3.25 3.25 0 0 0 2.829-2.828l.139-1.13A.75.75 0 0 1 16.5 8zm0 3.774a4.761 4.761 0 0 1-1.726 1.726a4.761 4.761 0 0 1 1.726 1.726a4.761 4.761 0 0 1 1.726-1.726a4.761 4.761 0 0 1-1.726-1.726z" fill="#626262"/></g><rect x="0" y="0" width="24" height="24" fill="rgba(0, 0, 0, 0)" /></svg>