<svg xmlns="http://www.w3.org/2000/svg" xmlns:xlink="http://www.w3.org/1999/xlink" width="24" height="24" preserveAspectRatio="xMidYMid meet" viewBox="0 0 24 24" style="-ms-transform: rotate(360deg); -webkit-transform: rotate(360deg); transform: rotate(360deg);"><g fill="none"><path d="M21 5.75a.75.75 0 0 0-.75-.75h-9.5a.75.75 0 0 0 0 1.5h9.5a.75.75 0 0 0 .75-.75z" fill="#626262"/><path d="M8 5.75A.75.75 0 0 0 7.25 5h-3.5a.75.75 0 0 0 0 1.5h3.5A.75.75 0 0 0 8 5.75z" fill="#626262"/><path d="M21 9.75a.75.75 0 0 0-.75-.75h-9.5a.75.75 0 0 0 0 1.5h9.5a.75.75 0 0 0 .75-.75z" fill="#626262"/><path d="M8 9.75A.75.75 0 0 0 7.25 9h-3.5a.75.75 0 0 0 0 1.5h3.5A.75.75 0 0 0 8 9.75z" fill="#626262"/><path d="M21 13.75a.75.75 0 0 0-.75-.75h-9.5a.75.75 0 0 0 0 1.5h9.5a.75.75 0 0 0 .75-.75z" fill="#626262"/><path d="M8 13.75a.75.75 0 0 0-.75-.75h-3.5a.75.75 0 0 0 0 1.5h3.5a.75.75 0 0 0 .75-.75z" fill="#626262"/><path d="M21 17.75a.75.75 0 0 0-.75-.75h-9.5a.75.75 0 0 0 0 1.5h9.5a.75.75 0 0 0 .75-.75z" fill="#626262"/><path d="M8 17.75a.75.75 0 0 0-.75-.75h-3.5a.75.75 0 0 0 0 1.5h3.5a.75.75 0 0 0 .75-.75z" fill="#626262"/></g><rect x="0" y="0" width="24" height="24" fill="rgba(0, 0, 0, 0)" /></svg>