<svg xmlns="http://www.w3.org/2000/svg" xmlns:xlink="http://www.w3.org/1999/xlink" width="24" height="24" preserveAspectRatio="xMidYMid meet" viewBox="0 0 24 24" style="-ms-transform: rotate(360deg); -webkit-transform: rotate(360deg); transform: rotate(360deg);"><g fill="none"><path d="M4 5.75A.75.75 0 0 1 4.75 5h14.5a.75.75 0 0 1 0 1.5H4.75A.75.75 0 0 1 4 5.75z" fill="#626262"/><path d="M6 18.75a.75.75 0 0 1 .75-.75h10.5a.75.75 0 0 1 0 1.5H6.75a.75.75 0 0 1-.75-.75z" fill="#626262"/><path d="M2.75 11.5a.75.75 0 0 0 0 1.5h18.5a.75.75 0 0 0 0-1.5H2.75z" fill="#626262"/></g><rect x="0" y="0" width="24" height="24" fill="rgba(0, 0, 0, 0)" /></svg>