<svg xmlns="http://www.w3.org/2000/svg" xmlns:xlink="http://www.w3.org/1999/xlink" width="24" height="24" preserveAspectRatio="xMidYMid meet" viewBox="0 0 24 24" style="-ms-transform: rotate(360deg); -webkit-transform: rotate(360deg); transform: rotate(360deg);"><g fill="none"><path d="M4.499 5.25A1.25 1.25 0 1 0 2 5.25a1.25 1.25 0 0 0 2.499 0z" fill="#626262"/><path d="M3.25 9a1.25 1.25 0 1 1 0 2.499A1.25 1.25 0 0 1 3.25 9z" fill="#626262"/><path d="M6.75 11a.75.75 0 0 1-.102-1.493L6.75 9.5h14.5a.75.75 0 0 1 .102 1.493L21.25 11H6.75z" fill="#626262"/><path d="M3.25 14a1.25 1.25 0 1 1 0 2.499a1.25 1.25 0 0 1 0-2.499z" fill="#626262"/><path d="M6.75 14.5h4.982c-.244.47-.433.972-.558 1.5H6.75a.75.75 0 0 1-.102-1.493l.102-.007z" fill="#626262"/><path d="M6.75 4.5h14.5a.75.75 0 0 1 .102 1.493L21.25 6H6.75a.75.75 0 0 1-.102-1.493L6.75 4.5z" fill="#626262"/><path d="M23 17.5a5.5 5.5 0 1 0-11 0a5.5 5.5 0 0 0 11 0zm-5 .5l.001 2.503a.5.5 0 1 1-1 0V18h-2.505a.5.5 0 1 1 0-1H17v-2.5a.5.5 0 1 1 1 0V17h2.503a.5.5 0 1 1 0 1h-2.502z" fill="#626262"/></g><rect x="0" y="0" width="24" height="24" fill="rgba(0, 0, 0, 0)" /></svg>