<svg xmlns="http://www.w3.org/2000/svg" xmlns:xlink="http://www.w3.org/1999/xlink" width="24" height="24" preserveAspectRatio="xMidYMid meet" viewBox="0 0 24 24" style="-ms-transform: rotate(360deg); -webkit-transform: rotate(360deg); transform: rotate(360deg);"><g fill="none"><path d="M3.25 16.001a1.25 1.25 0 1 1 0 2.499a1.25 1.25 0 0 1 0-2.499zm3.5.5h14.5a.75.75 0 0 1 .102 1.493l-.102.007H6.75a.75.75 0 0 1-.102-1.493l.102-.007h14.5h-14.5zm-3.5-5.5a1.25 1.25 0 1 1 0 2.498a1.25 1.25 0 0 1 0-2.498zm3.5.5h14.5a.75.75 0 0 1 .102 1.493L21.25 13H6.75a.75.75 0 0 1-.102-1.493l.102-.007h14.5h-14.5zM3.25 6a1.25 1.25 0 1 1 0 2.499A1.25 1.25 0 0 1 3.25 6zm3.5.5h14.5a.75.75 0 0 1 .102 1.493L21.25 8H6.75a.75.75 0 0 1-.102-1.493L6.75 6.5h14.5h-14.5z" fill="#626262"/></g><rect x="0" y="0" width="24" height="24" fill="rgba(0, 0, 0, 0)" /></svg>