<svg xmlns="http://www.w3.org/2000/svg" xmlns:xlink="http://www.w3.org/1999/xlink" width="24" height="24" preserveAspectRatio="xMidYMid meet" viewBox="0 0 24 24" style="-ms-transform: rotate(360deg); -webkit-transform: rotate(360deg); transform: rotate(360deg);"><path d="M12.38 4C15.017 4 17 6.182 17 8.625c0 .977-.317 1.912-.865 2.682C17.21 12.134 18 13.427 18 15.12c0 3.112-2.698 4.88-4.88 4.88H8a1.5 1.5 0 0 1-1.5-1.5l-.003-13a1.5 1.5 0 0 1 1.5-1.5h4.383zm.74 9.25H9.5V17h3.62c.873 0 1.88-.753 1.88-1.88c0-1.13-.975-1.87-1.88-1.87zM12.38 7H9.497l.002 3.25h2.881c.903 0 1.62-.76 1.62-1.625S13.282 7 12.38 7z" fill-rule="nonzero" fill="#626262"/><rect x="0" y="0" width="24" height="24" fill="rgba(0, 0, 0, 0)" /></svg>