<svg xmlns="http://www.w3.org/2000/svg" xmlns:xlink="http://www.w3.org/1999/xlink" width="24" height="24" preserveAspectRatio="xMidYMid meet" viewBox="0 0 24 24" style="-ms-transform: rotate(360deg); -webkit-transform: rotate(360deg); transform: rotate(360deg);"><g fill="none"><path d="M17.75 16a.75.75 0 0 1 0 1.5h-9a.75.75 0 0 1 0-1.5h9zM2.72 11.22l2-2a.75.75 0 0 1 1.133.976l-.073.084l-1.47 1.47l1.47 1.47a.75.75 0 0 1-.976 1.133l-.084-.073l-2-2a.75.75 0 0 1-.073-.976l.073-.084l2-2l-2 2zM20.75 11a.75.75 0 0 1 0 1.5h-12a.75.75 0 0 1 0-1.5h12zm-3-5a.75.75 0 0 1 0 1.5h-9a.75.75 0 0 1 0-1.5h9z" fill="#626262"/></g><rect x="0" y="0" width="24" height="24" fill="rgba(0, 0, 0, 0)" /></svg>