<svg xmlns="http://www.w3.org/2000/svg" xmlns:xlink="http://www.w3.org/1999/xlink" width="24" height="24" preserveAspectRatio="xMidYMid meet" viewBox="0 0 24 24" style="-ms-transform: rotate(360deg); -webkit-transform: rotate(360deg); transform: rotate(360deg);"><g fill="none"><path d="M3.75 4a.75.75 0 0 0 0 1.5h16.5a.75.75 0 0 0 0-1.5H3.75z" fill="#626262"/><path d="M12 8.5A2.5 2.5 0 0 0 9.708 10H8.126a4.002 4.002 0 0 1 7.748 0h-1.582A2.5 2.5 0 0 0 12 8.5z" fill="#626262"/><path d="M8 13.5h1.5v2.25a.75.75 0 0 1-1.5 0V13.5z" fill="#626262"/><path d="M16 13.5h-1.5v2.25a.75.75 0 0 0 1.5 0V13.5z" fill="#626262"/><path d="M20.25 11a.75.75 0 0 1 0 1.5H3.75a.75.75 0 0 1 0-1.5h16.5z" fill="#626262"/><path d="M3 18.75a.75.75 0 0 1 .75-.75h16.5a.75.75 0 0 1 0 1.5H3.75a.75.75 0 0 1-.75-.75z" fill="#626262"/></g><rect x="0" y="0" width="24" height="24" fill="rgba(0, 0, 0, 0)" /></svg>