<svg xmlns="http://www.w3.org/2000/svg" xmlns:xlink="http://www.w3.org/1999/xlink" width="24" height="24" preserveAspectRatio="xMidYMid meet" viewBox="0 0 24 24" style="-ms-transform: rotate(360deg); -webkit-transform: rotate(360deg); transform: rotate(360deg);"><g fill="none"><path d="M4 18a2 2 0 1 1 0 4a2 2 0 0 1 0-4zm0 1.5a.5.5 0 1 0 0 1a.5.5 0 0 0 0-1zM9.5 15a2.5 2.5 0 1 1 0 5a2.5 2.5 0 0 1 0-5zm0 1.5a1 1 0 1 0 0 2a1 1 0 0 0 0-2zM11.823 2a5.414 5.414 0 0 1 5.33 4.47h.082a3.765 3.765 0 1 1 0 7.53H6.412a3.765 3.765 0 1 1 0-7.53h.081A5.414 5.414 0 0 1 11.823 2zm.006 1.498a3.927 3.927 0 0 0-3.923 3.728a.693.693 0 0 1-.692.659h-.7a2.31 2.31 0 1 0 0 4.617h10.63a2.31 2.31 0 1 0 0-4.617h-.7a.693.693 0 0 1-.692-.659a3.927 3.927 0 0 0-3.923-3.728z" fill="#626262"/></g><rect x="0" y="0" width="24" height="24" fill="rgba(0, 0, 0, 0)" /></svg>