<svg xmlns="http://www.w3.org/2000/svg" xmlns:xlink="http://www.w3.org/1999/xlink" width="24" height="24" preserveAspectRatio="xMidYMid meet" viewBox="0 0 24 24" style="-ms-transform: rotate(360deg); -webkit-transform: rotate(360deg); transform: rotate(360deg);"><g fill="none"><path d="M12 4.998a8.5 8.5 0 0 1 8.432 9.578a3.483 3.483 0 0 0-1.453-.546a7 7 0 1 0-3.724 5.667a3.43 3.43 0 0 0-.253 1.302v.249l.009.168l.005.032A8.5 8.5 0 1 1 12 4.998zm6.503 10a2.5 2.5 0 0 1 .165 4.995l-.165.005a1 1 0 0 0-.846.464l-.02.035h2.616a.75.75 0 0 1 .744.649l.006.102a.75.75 0 0 1-.648.743l-.102.007h-3.501a.75.75 0 0 1-.744-.649l-.006-.101v-.25a2.501 2.501 0 0 1 2.336-2.495l.165-.005a1 1 0 0 0 .117-1.994l-.117-.006h-.251a.75.75 0 0 0-.744.648l-.006.102a.75.75 0 0 1-1.5 0a2.25 2.25 0 0 1 2.096-2.245l.154-.005h.251zM12 8a.75.75 0 0 1 .743.648l.007.102v4.5a.75.75 0 0 1-1.493.102l-.007-.102v-4.5A.75.75 0 0 1 12 8zm7.162-2.879l.08.062l1.132.986a.75.75 0 0 1-.905 1.192l-.081-.062l-1.13-.986a.75.75 0 0 1 .904-1.192zM14.25 2.487a.75.75 0 0 1 .102 1.493l-.102.007h-4.5a.75.75 0 0 1-.102-1.493l.102-.007h4.5z" fill="#626262"/></g><rect x="0" y="0" width="24" height="24" fill="rgba(0, 0, 0, 0)" /></svg>