<svg xmlns="http://www.w3.org/2000/svg" xmlns:xlink="http://www.w3.org/1999/xlink" width="24" height="24" preserveAspectRatio="xMidYMid meet" viewBox="0 0 24 24" style="-ms-transform: rotate(360deg); -webkit-transform: rotate(360deg); transform: rotate(360deg);"><g fill="none"><path d="M15.25 13c.966 0 1.75.784 1.75 1.75v4.5A1.75 1.75 0 0 1 15.25 21H3.75A1.75 1.75 0 0 1 2 19.25v-4.5c0-.966.783-1.75 1.75-1.75h11.5zM21 14.899v5.351a.75.75 0 0 1-1.494.102l-.006-.102v-5.338a3.006 3.006 0 0 0 1.5-.013zm-5.75-.399H3.75a.25.25 0 0 0-.25.25v4.5c0 .138.111.25.25.25h11.5a.25.25 0 0 0 .25-.25v-4.5a.25.25 0 0 0-.25-.25zm5-4.408a1.908 1.908 0 1 1 0 3.816a1.908 1.908 0 0 1 0-3.816zM15.244 3c.967 0 1.75.784 1.75 1.75v4.5a1.75 1.75 0 0 1-1.75 1.75h-11.5a1.75 1.75 0 0 1-1.75-1.75v-4.5a1.75 1.75 0 0 1 1.607-1.744L3.745 3h11.5zm0 1.5h-11.5l-.057.007a.25.25 0 0 0-.193.243v4.5c0 .138.112.25.25.25h11.5a.25.25 0 0 0 .25-.25v-4.5a.25.25 0 0 0-.25-.25zM20.25 3a.75.75 0 0 1 .743.648L21 3.75v5.351a3.004 3.004 0 0 0-1.5-.013V3.75a.75.75 0 0 1 .75-.75z" fill="#626262"/></g><rect x="0" y="0" width="24" height="24" fill="rgba(0, 0, 0, 0)" /></svg>