<svg xmlns="http://www.w3.org/2000/svg" xmlns:xlink="http://www.w3.org/1999/xlink" width="24" height="24" preserveAspectRatio="xMidYMid meet" viewBox="0 0 24 24" style="-ms-transform: rotate(360deg); -webkit-transform: rotate(360deg); transform: rotate(360deg);"><g fill="none"><path d="M7.25 14.5a2.5 2.5 0 1 1 0-5a2.5 2.5 0 0 1 0 5z" fill="#626262"/><path d="M22 12a5 5 0 0 0-5-5H7a5 5 0 0 0 0 10h10a5 5 0 0 0 5-5zm-5-3.5a3.5 3.5 0 1 1 0 7H7a3.5 3.5 0 1 1 0-7h10z" fill="#626262"/></g><rect x="0" y="0" width="24" height="24" fill="rgba(0, 0, 0, 0)" /></svg>