<svg xmlns="http://www.w3.org/2000/svg" xmlns:xlink="http://www.w3.org/1999/xlink" width="24" height="24" preserveAspectRatio="xMidYMid meet" viewBox="0 0 24 24" style="-ms-transform: rotate(360deg); -webkit-transform: rotate(360deg); transform: rotate(360deg);"><g fill="none"><path d="M4.75 4A2.75 2.75 0 0 0 2 6.75v8.5A2.75 2.75 0 0 0 4.75 18h14.5A2.75 2.75 0 0 0 22 15.25v-8.5A2.75 2.75 0 0 0 19.25 4H4.75zM3.5 6.75c0-.69.56-1.25 1.25-1.25h14.5c.69 0 1.25.56 1.25 1.25v8.5c0 .69-.56 1.25-1.25 1.25H4.75c-.69 0-1.25-.56-1.25-1.25v-8.5z" fill="#626262"/><path d="M5.75 19.5a.75.75 0 0 0 0 1.5h12.5a.75.75 0 0 0 0-1.5H5.75z" fill="#626262"/></g><rect x="0" y="0" width="24" height="24" fill="rgba(0, 0, 0, 0)" /></svg>