<svg xmlns="http://www.w3.org/2000/svg" xmlns:xlink="http://www.w3.org/1999/xlink" width="24" height="24" preserveAspectRatio="xMidYMid meet" viewBox="0 0 24 24" style="-ms-transform: rotate(360deg); -webkit-transform: rotate(360deg); transform: rotate(360deg);"><g fill="none"><path d="M18.998 10a3.001 3.001 0 1 1 0 6h-.03l-.102.007H17.7c.19.373.298.795.298 1.242c0 1.53-1.152 2.757-2.675 2.757c-1.505 0-2.415-.882-2.66-2.103a.75.75 0 1 1 1.47-.295c.114.565.457.898 1.19.898c.672 0 1.175-.535 1.175-1.256c0-.689-.568-1.25-1.273-1.25l-12.488.007a.75.75 0 0 1-.102-1.494l.102-.006h12.387l.101-.007c.065 0 .128.002.191.006l3.472.002l.054-.006l.2-.009a1.5 1.5 0 1 0-1.629-1.723l-.027.239A.75.75 0 0 1 16 12.817A3.001 3.001 0 0 1 18.998 10zM9.75 17.5a.75.75 0 1 1 0 1.5a.75.75 0 0 1 0-1.5zM12 4a4 4 0 0 1 .022 8H2.756a.75.75 0 0 1-.102-1.493l.102-.007H12l.165-.005A2.5 2.5 0 1 0 9.5 8A.75.75 0 1 1 8 8a4 4 0 0 1 4-4zm7.25 2.5a.75.75 0 1 1 0 1.5a.75.75 0 0 1 0-1.5zM5.75 5a.75.75 0 1 1 0 1.5a.75.75 0 0 1 0-1.5z" fill="#626262"/></g><rect x="0" y="0" width="24" height="24" fill="rgba(0, 0, 0, 0)" /></svg>