<svg xmlns="http://www.w3.org/2000/svg" xmlns:xlink="http://www.w3.org/1999/xlink" width="24" height="24" preserveAspectRatio="xMidYMid meet" viewBox="0 0 24 24" style="-ms-transform: rotate(360deg); -webkit-transform: rotate(360deg); transform: rotate(360deg);"><g fill="none"><path d="M17.745 10.751a8.291 8.291 0 0 1 1.492 2.07a.75.75 0 1 1-1.335.682a6.798 6.798 0 0 0-1.218-1.691a6.562 6.562 0 0 0-10.493 1.673a.75.75 0 1 1-1.339-.677a8.062 8.062 0 0 1 12.893-2.057zm-2.102 3.069c.448.447.816.997 1.072 1.582a.75.75 0 0 1-1.373.602a3.72 3.72 0 0 0-.76-1.124a3.592 3.592 0 0 0-5.08 0c-.31.311-.562.69-.746 1.111a.75.75 0 1 1-1.375-.601a5.11 5.11 0 0 1 1.061-1.57a5.092 5.092 0 0 1 7.201 0zm-2.582 2.62a1.5 1.5 0 1 1-2.122 2.121a1.5 1.5 0 0 1 2.122-2.122z" fill="#626262"/></g><rect x="0" y="0" width="24" height="24" fill="rgba(0, 0, 0, 0)" /></svg>