<svg xmlns="http://www.w3.org/2000/svg" xmlns:xlink="http://www.w3.org/1999/xlink" width="24" height="24" preserveAspectRatio="xMidYMid meet" viewBox="0 0 24 24" style="-ms-transform: rotate(360deg); -webkit-transform: rotate(360deg); transform: rotate(360deg);"><g fill="none"><path d="M10.94 16.44a1.5 1.5 0 1 1 2.12 2.12a1.5 1.5 0 0 1-2.12-2.12zm-2.498-2.62a5.092 5.092 0 0 1 7.201 0c.448.447.816.997 1.072 1.582a.75.75 0 1 1-1.373.602a3.72 3.72 0 0 0-.76-1.124a3.592 3.592 0 0 0-5.08 0c-.31.31-.562.689-.746 1.11a.75.75 0 1 1-1.375-.6a5.11 5.11 0 0 1 1.061-1.57z" fill="#626262"/></g><rect x="0" y="0" width="24" height="24" fill="rgba(0, 0, 0, 0)" /></svg>