<svg xmlns="http://www.w3.org/2000/svg" xmlns:xlink="http://www.w3.org/1999/xlink" width="24" height="24" preserveAspectRatio="xMidYMid meet" viewBox="0 0 24 24" style="-ms-transform: rotate(360deg); -webkit-transform: rotate(360deg); transform: rotate(360deg);"><g fill="none"><path d="M13.5 10a.75.75 0 0 0-.75-.75h-2v-2a.75.75 0 0 0-1.5 0v2h-2a.75.75 0 1 0 0 1.5h2v2a.75.75 0 0 0 1.5 0v-2h2a.75.75 0 0 0 .75-.75z" fill="#626262"/><path d="M10 2.75a7.25 7.25 0 0 1 5.63 11.819l4.9 4.9a.75.75 0 0 1-.976 1.134l-.084-.073l-4.901-4.9A7.25 7.25 0 1 1 10 2.75zm0 1.5a5.75 5.75 0 1 0 0 11.5a5.75 5.75 0 0 0 0-11.5z" fill="#626262"/></g><rect x="0" y="0" width="24" height="24" fill="rgba(0, 0, 0, 0)" /></svg>