<svg xmlns="http://www.w3.org/2000/svg" xmlns:xlink="http://www.w3.org/1999/xlink" width="24" height="24" preserveAspectRatio="xMidYMid meet" viewBox="0 0 24 24" style="-ms-transform: rotate(360deg); -webkit-transform: rotate(360deg); transform: rotate(360deg);"><g fill="none"><path d="M11.883 3.007L12 3a1 1 0 0 1 .993.883L13 4v7h7a1 1 0 0 1 .993.883L21 12a1 1 0 0 1-.883.993L20 13h-7v7a1 1 0 0 1-.883.993L12 21a1 1 0 0 1-.993-.883L11 20v-7H4a1 1 0 0 1-.993-.883L3 12a1 1 0 0 1 .883-.993L4 11h7V4a1 1 0 0 1 .883-.993L12 3l-.117.007z" fill="#626262"/></g><rect x="0" y="0" width="24" height="24" fill="rgba(0, 0, 0, 0)" /></svg>