<svg xmlns="http://www.w3.org/2000/svg" xmlns:xlink="http://www.w3.org/1999/xlink" width="24" height="24" preserveAspectRatio="xMidYMid meet" viewBox="0 0 24 24" style="-ms-transform: rotate(360deg); -webkit-transform: rotate(360deg); transform: rotate(360deg);"><g fill="none"><path d="M2 6a2 2 0 0 1 2-2h1v16H4a2 2 0 0 1-2-2V6z" fill="#626262"/><path d="M16 8.5h-4a.5.5 0 0 0-.5.5v1a.5.5 0 0 0 .5.5h4a.5.5 0 0 0 .5-.5V9a.5.5 0 0 0-.5-.5z" fill="#626262"/><path d="M6.5 20H20a2 2 0 0 0 2-2V6a2 2 0 0 0-2-2H6.5v16zM12 7h4a2 2 0 0 1 2 2v1a2 2 0 0 1-2 2h-4a2 2 0 0 1-2-2V9a2 2 0 0 1 2-2z" fill="#626262"/></g><rect x="0" y="0" width="24" height="24" fill="rgba(0, 0, 0, 0)" /></svg>