<svg xmlns="http://www.w3.org/2000/svg" xmlns:xlink="http://www.w3.org/1999/xlink" width="24" height="24" preserveAspectRatio="xMidYMid meet" viewBox="0 0 24 24" style="-ms-transform: rotate(360deg); -webkit-transform: rotate(360deg); transform: rotate(360deg);"><g fill="none"><path d="M10.997 5.998a6.14 6.14 0 0 1 5.8 4.125l.075.233l.044.145h2.33a2.749 2.749 0 0 1 2.744 2.581l.005.168v1a1.75 1.75 0 0 1-1.606 1.742l-.143.006H18.62l.241.584a1.75 1.75 0 0 1-.813 2.22l-.137.064a1.752 1.752 0 0 1-.496.123l-.171.009h-1.787a1.75 1.75 0 0 1-1.51-.867l-.072-.138l-.539-1.142l.054-.007c-1.4.186-2.817.208-4.221.066l-.497-.057l-.535 1.136a1.75 1.75 0 0 1-1.583 1.005H4.75a1.749 1.749 0 0 1-1.618-2.415l.433-1.05a3.242 3.242 0 0 1-1.57-2.78a.75.75 0 0 1 .648-.743L2.745 12h1.88l.497-1.642a6.137 6.137 0 0 1 5.875-4.36zm6.777 9.693c-.771.31-1.559.565-2.356.765l-.549.129l.362.77a.25.25 0 0 0 .117.118l.053.019l.056.006h1.787a.25.25 0 0 0 .248-.28l-.017-.065l-.478-1.155h-.043l.411-.148l.409-.159zm-13.552 0l.39.152l.388.141l-.482 1.165a.25.25 0 0 0 .232.345h1.804l.057-.006a.25.25 0 0 0 .17-.137l.359-.763l.044.01a18.159 18.159 0 0 1-2.962-.907zm-.202-1.695l.151-.499l-.507.001l.025.053c.086.166.198.316.33.445zM17.37 12l.756 2.498l2.12.001a.25.25 0 0 0 .243-.193l.007-.057v-1a1.25 1.25 0 0 0-1.122-1.242l-.128-.006L17.37 12z" fill="#626262"/></g><rect x="0" y="0" width="24" height="24" fill="rgba(0, 0, 0, 0)" /></svg>