<svg xmlns="http://www.w3.org/2000/svg" xmlns:xlink="http://www.w3.org/1999/xlink" width="24" height="24" preserveAspectRatio="xMidYMid meet" viewBox="0 0 24 24" style="-ms-transform: rotate(360deg); -webkit-transform: rotate(360deg); transform: rotate(360deg);"><g fill="none"><path d="M10.543 1.793a1 1 0 0 1 1.414 0l2.5 2.5a1 1 0 0 1 0 1.414l-2.5 2.5a1 1 0 1 1-1.414-1.414l.758-.759a7 7 0 1 0 7.645 7.842a1 1 0 1 1 1.984.248a9 9 0 1 1-9.572-10.101l-.815-.816a1 1 0 0 1 0-1.414z" fill="#626262"/><path d="M16.207 9.793a1 1 0 0 1 0 1.414l-4.5 4.5a1 1 0 0 1-1.414 0l-2-2a1 1 0 1 1 1.414-1.414L11 13.586l3.793-3.793a1 1 0 0 1 1.414 0z" fill="#626262"/></g><rect x="0" y="0" width="24" height="24" fill="rgba(0, 0, 0, 0)" /></svg>