<svg xmlns="http://www.w3.org/2000/svg" xmlns:xlink="http://www.w3.org/1999/xlink" width="24" height="24" preserveAspectRatio="xMidYMid meet" viewBox="0 0 24 24" style="-ms-transform: rotate(360deg); -webkit-transform: rotate(360deg); transform: rotate(360deg);"><g fill="none"><path d="M18.492 2.33l3.179 3.179a2.25 2.25 0 0 1 0 3.182l-2.423 2.422A2.501 2.501 0 0 1 21 13.5v5a2.5 2.5 0 0 1-2.5 2.5h-13A2.5 2.5 0 0 1 3 18.5v-13A2.5 2.5 0 0 1 5.5 3h5c1.121 0 2.07.737 2.387 1.754L15.31 2.33a2.25 2.25 0 0 1 3.182 0zM11 13H5v5.5a.5.5 0 0 0 .5.5H11v-6zm7.5 0H13v6h5.5a.5.5 0 0 0 .5-.5v-5a.5.5 0 0 0-.5-.5zm-4.06-2.001L13 9.559v1.44h1.44zm-3.94-6h-5a.5.5 0 0 0-.5.5V11h6V5.5a.5.5 0 0 0-.5-.5z" fill="#626262"/></g><rect x="0" y="0" width="24" height="24" fill="rgba(0, 0, 0, 0)" /></svg>