<svg xmlns="http://www.w3.org/2000/svg" xmlns:xlink="http://www.w3.org/1999/xlink" width="24" height="24" preserveAspectRatio="xMidYMid meet" viewBox="0 0 24 24" style="-ms-transform: rotate(360deg); -webkit-transform: rotate(360deg); transform: rotate(360deg);"><g fill="none"><path d="M6.248 16.002c.966 0 1.75.784 1.75 1.75v2.498A1.75 1.75 0 0 1 6.248 22H3.75A1.75 1.75 0 0 1 2 20.25v-2.498c0-.966.784-1.75 1.75-1.75h2.498zM9.748 18h11.505a.75.75 0 0 1 .102 1.493l-.102.007H9.748a.75.75 0 0 1-.102-1.493L9.748 18h11.505H9.748zm-3.5-8.999c.966 0 1.75.784 1.75 1.75v2.498a1.75 1.75 0 0 1-1.75 1.75H3.75A1.75 1.75 0 0 1 2 13.249V10.75c0-.966.784-1.75 1.75-1.75h2.498zM9.748 11h11.505a.75.75 0 0 1 .102 1.493l-.102.007H9.748a.75.75 0 0 1-.102-1.493L9.748 11h11.505H9.748zm-3.5-9c.966 0 1.75.784 1.75 1.75v2.498a1.75 1.75 0 0 1-1.75 1.75H3.75A1.75 1.75 0 0 1 2 6.248V3.75C2 2.784 2.784 2 3.75 2h2.498zm3.5 2h11.505a.75.75 0 0 1 .102 1.493l-.102.007H9.748a.75.75 0 0 1-.102-1.493L9.748 4h11.505H9.748z" fill="#626262"/></g><rect x="0" y="0" width="24" height="24" fill="rgba(0, 0, 0, 0)" /></svg>