<svg xmlns="http://www.w3.org/2000/svg" xmlns:xlink="http://www.w3.org/1999/xlink" width="24" height="24" preserveAspectRatio="xMidYMid meet" viewBox="0 0 24 24" style="-ms-transform: rotate(360deg); -webkit-transform: rotate(360deg); transform: rotate(360deg);"><g fill="none"><path d="M12 4.75a7.25 7.25 0 1 0 7.201 6.406c-.068-.588.358-1.156.95-1.156c.515 0 .968.358 1.03.87a9.25 9.25 0 1 1-3.432-6.116V4.25a1 1 0 1 1 2.001 0v2.698l.034.052h-.034v.25a1 1 0 0 1-1 1h-3a1 1 0 1 1 0-2h.666A7.219 7.219 0 0 0 12 4.75z" fill="#626262"/></g><rect x="0" y="0" width="24" height="24" fill="rgba(0, 0, 0, 0)" /></svg>