<svg xmlns="http://www.w3.org/2000/svg" xmlns:xlink="http://www.w3.org/1999/xlink" width="24" height="24" preserveAspectRatio="xMidYMid meet" viewBox="0 0 24 24" style="-ms-transform: rotate(360deg); -webkit-transform: rotate(360deg); transform: rotate(360deg);"><g fill="none"><path d="M7.948 5.029A1 1 0 0 1 7.76 6.43a7.002 7.002 0 0 0 3.157 12.487l-.709-.71a1 1 0 0 1 1.414-1.414l2.5 2.5a1 1 0 0 1 0 1.414l-2.5 2.5a1 1 0 0 1-1.414-1.414l.843-.842A9.001 9.001 0 0 1 6.547 4.84a1 1 0 0 1 1.401.189zm1.93-1.736l2.5-2.5a1 1 0 0 1 1.498 1.32l-.083.094l-.843.843a9.001 9.001 0 0 1 4.778 15.892a1 1 0 0 1-1.273-1.542a7.002 7.002 0 0 0-3.37-12.316l.708.709a1 1 0 0 1-1.32 1.497l-.094-.083l-2.5-2.5a1 1 0 0 1-.084-1.32l.084-.094l2.5-2.5l-2.5 2.5z" fill="#626262"/></g><rect x="0" y="0" width="24" height="24" fill="rgba(0, 0, 0, 0)" /></svg>