<svg xmlns="http://www.w3.org/2000/svg" xmlns:xlink="http://www.w3.org/1999/xlink" width="24" height="24" preserveAspectRatio="xMidYMid meet" viewBox="0 0 24 24" style="-ms-transform: rotate(360deg); -webkit-transform: rotate(360deg); transform: rotate(360deg);"><g fill="none"><path d="M5.25 20.5h13.498a.75.75 0 0 1 .101 1.493l-.101.007H5.25a.75.75 0 0 1-.102-1.494l.102-.006h13.498H5.25zm6.633-18.498L12 1.995a1 1 0 0 1 .993.883l.007.117v12.59l3.294-3.293a1 1 0 0 1 1.32-.083l.094.084a1 1 0 0 1 .083 1.32l-.083.094l-4.997 4.996a1 1 0 0 1-1.32.084l-.094-.083l-5.004-4.997a1 1 0 0 1 1.32-1.498l.094.083L11 15.58V2.995a1 1 0 0 1 .883-.993L12 1.995l-.117.007z" fill="#626262"/></g><rect x="0" y="0" width="24" height="24" fill="rgba(0, 0, 0, 0)" /></svg>