<svg xmlns="http://www.w3.org/2000/svg" xmlns:xlink="http://www.w3.org/1999/xlink" width="24" height="24" preserveAspectRatio="xMidYMid meet" viewBox="0 0 24 24" style="-ms-transform: rotate(360deg); -webkit-transform: rotate(360deg); transform: rotate(360deg);"><g fill="none"><path d="M12.497 3.002l7.555.001l.121.014l.088.02l.104.034l.09.04l.063.036l.063.042l.064.05l.063.058l.094.11l.072.11l.053.114l.035.105l.016.065l.01.053l.01.148v7.504a1 1 0 0 1-1.993.117l-.007-.117v-5.09L4.706 20.708a1 1 0 0 1-1.32.083l-.094-.083a1 1 0 0 1-.083-1.32l.083-.095L17.583 5.002h-5.086a1 1 0 0 1-.993-.883l-.007-.117a1 1 0 0 1 1-1z" fill="#626262"/></g><rect x="0" y="0" width="24" height="24" fill="rgba(0, 0, 0, 0)" /></svg>