<svg xmlns="http://www.w3.org/2000/svg" xmlns:xlink="http://www.w3.org/1999/xlink" width="24" height="24" preserveAspectRatio="xMidYMid meet" viewBox="0 0 24 24" style="-ms-transform: rotate(360deg); -webkit-transform: rotate(360deg); transform: rotate(360deg);"><g fill="none"><path d="M15.207 2.292l4 3.995a1 1 0 0 1 .084 1.32l-.083.094l-4 4.006a1 1 0 0 1-1.498-1.32l.083-.094L16.083 8H5.5a1 1 0 0 1-.994-.883L4.5 7a1 1 0 0 1 .883-.993L5.5 6h10.59l-2.296-2.293a1 1 0 0 1-.084-1.32l.083-.095a1 1 0 0 1 1.32-.084l.094.084l4 3.995l-4-3.995zm4.283 14.591l.007.117a1 1 0 0 1-.883.993l-.117.007H7.913l2.294 2.293a1 1 0 0 1 .084 1.32l-.083.094a1 1 0 0 1-1.32.084l-.095-.084l-4-3.996a1 1 0 0 1-.083-1.32l.083-.094l4-4.004a1 1 0 0 1 1.498 1.32l-.083.094L7.918 16h10.579a1 1 0 0 1 .993.883l.007.117l-.007-.117z" fill="#626262"/></g><rect x="0" y="0" width="24" height="24" fill="rgba(0, 0, 0, 0)" /></svg>