<svg xmlns="http://www.w3.org/2000/svg" xmlns:xlink="http://www.w3.org/1999/xlink" width="24" height="24" preserveAspectRatio="xMidYMid meet" viewBox="0 0 24 24" style="-ms-transform: rotate(360deg); -webkit-transform: rotate(360deg); transform: rotate(360deg);"><g fill="none"><path d="M12.497 3.002l7.555.001l.121.014l.088.02l.104.034l.09.04l.063.036l.063.042l.064.05l.063.058l.094.11l.072.11l.053.114l.035.105l.016.065l.01.053l.01.148v7.504a1 1 0 0 1-1.993.117l-.007-.117v-5.09L6.413 19h5.088a1 1 0 0 1 .993.884L12.5 20a1 1 0 0 1-.884.994l-.116.006L3.94 21l-.096-.01l-.077-.015l-.077-.022l-.07-.026l-.09-.042l-.089-.053l-.091-.07l.032.027a1.006 1.006 0 0 1-.166-.166l-.051-.07l-.04-.064l-.032-.064l-.034-.082l-.025-.08l-.024-.111l-.007-.061l-.004-.09v-7.503a1 1 0 0 1 1.993-.117l.007.117v5.088L17.583 5.002h-5.086a1 1 0 0 1-.993-.883l-.007-.117a1 1 0 0 1 1-1z" fill="#626262"/></g><rect x="0" y="0" width="24" height="24" fill="rgba(0, 0, 0, 0)" /></svg>