<svg xmlns="http://www.w3.org/2000/svg" xmlns:xlink="http://www.w3.org/1999/xlink" width="24" height="24" preserveAspectRatio="xMidYMid meet" viewBox="0 0 24 24" style="-ms-transform: rotate(360deg); -webkit-transform: rotate(360deg); transform: rotate(360deg);"><g fill="none"><path d="M12 3a9 9 0 0 1 9 9a9.005 9.005 0 0 1-4.873 8.001L18 20a1 1 0 0 1 .117 1.993L18 22h-4a1 1 0 0 1-.993-.883L13 21v-4a1 1 0 0 1 1.993-.117L15 17l.001 1.327A7.006 7.006 0 0 0 19 12a7 7 0 1 0-14 0a1 1 0 1 1-2 0a9 9 0 0 1 9-9zm0 6a3 3 0 1 1 0 6a3 3 0 0 1 0-6zm0 2a1 1 0 1 0 0 2a1 1 0 0 0 0-2z" fill="#626262"/></g><rect x="0" y="0" width="24" height="24" fill="rgba(0, 0, 0, 0)" /></svg>