<svg xmlns="http://www.w3.org/2000/svg" xmlns:xlink="http://www.w3.org/1999/xlink" width="24" height="24" preserveAspectRatio="xMidYMid meet" viewBox="0 0 24 24" style="-ms-transform: rotate(360deg); -webkit-transform: rotate(360deg); transform: rotate(360deg);"><g fill="none"><path d="M14.21 6.387l.083-.094a1 1 0 0 1 1.32-.083l.094.083l4.997 4.998a1 1 0 0 1 .083 1.32l-.083.093l-4.996 5.004a1 1 0 0 1-1.499-1.32l.083-.094L17.581 13H4a1 1 0 0 1-.993-.883L3 12a1 1 0 0 1 .883-.993L4 11h13.584l-3.291-3.293a1 1 0 0 1-.083-1.32l.083-.094l-.083.094z" fill="#626262"/></g><rect x="0" y="0" width="24" height="24" fill="rgba(0, 0, 0, 0)" /></svg>