<svg xmlns="http://www.w3.org/2000/svg" xmlns:xlink="http://www.w3.org/1999/xlink" width="24" height="24" preserveAspectRatio="xMidYMid meet" viewBox="0 0 24 24" style="-ms-transform: rotate(360deg); -webkit-transform: rotate(360deg); transform: rotate(360deg);"><g fill="none"><path d="M14.003 5.5H21a1 1 0 0 1 .993.883L22 6.5v7a1 1 0 0 1-1.994.117L20 13.5l-.001-4.586l-7.292 7.293a1 1 0 0 1-1.32.084l-.094-.083l-2.296-2.292l-5.288 5.29a1 1 0 0 1-1.497-1.32l.083-.095l5.994-5.996a1 1 0 0 1 1.32-.084l.094.083l2.296 2.292L18.584 7.5h-4.581a1 1 0 0 1-.993-.883l-.007-.117a1 1 0 0 1 .883-.993l.117-.007H21h-6.997z" fill="#626262"/></g><rect x="0" y="0" width="24" height="24" fill="rgba(0, 0, 0, 0)" /></svg>