<svg xmlns="http://www.w3.org/2000/svg" xmlns:xlink="http://www.w3.org/1999/xlink" width="24" height="24" preserveAspectRatio="xMidYMid meet" viewBox="0 0 24 24" style="-ms-transform: rotate(360deg); -webkit-transform: rotate(360deg); transform: rotate(360deg);"><g fill="none"><path d="M15.001 8.999H9.004l.001-2.25a.75.75 0 0 0-1.268-.542l-5.503 5.25a.75.75 0 0 0 0 1.086l5.504 5.25l.082.068a.75.75 0 0 0 1.185-.611V15H15v2.25c0 .66.792.998 1.269.542l5.497-5.25a.75.75 0 0 0 0-1.085l-5.497-5.25a.75.75 0 0 0-1.268.543v2.249z" fill="#626262"/></g><rect x="0" y="0" width="24" height="24" fill="rgba(0, 0, 0, 0)" /></svg>