<svg xmlns="http://www.w3.org/2000/svg" xmlns:xlink="http://www.w3.org/1999/xlink" width="24" height="24" preserveAspectRatio="xMidYMid meet" viewBox="0 0 24 24" style="-ms-transform: rotate(360deg); -webkit-transform: rotate(360deg); transform: rotate(360deg);"><g fill="none"><path d="M4.999 17.585l14.292-14.29a1 1 0 0 1 1.498 1.32l-.084.094L6.413 19h5.088a1 1 0 0 1 .993.884L12.5 20a1 1 0 0 1-.884.994l-.116.006L3.94 21l-.096-.01l-.077-.015l-.077-.022l-.07-.026l-.09-.042l-.089-.053l-.091-.07l.032.027a1.006 1.006 0 0 1-.166-.166l-.051-.07l-.04-.064l-.032-.064l-.034-.082l-.025-.08l-.024-.111l-.007-.061l-.004-.09v-7.503a1 1 0 0 1 1.993-.117l.007.117v5.088l14.292-14.29L5 17.585z" fill="#626262"/></g><rect x="0" y="0" width="24" height="24" fill="rgba(0, 0, 0, 0)" /></svg>