<svg xmlns="http://www.w3.org/2000/svg" xmlns:xlink="http://www.w3.org/1999/xlink" width="24" height="24" preserveAspectRatio="xMidYMid meet" viewBox="0 0 24 24" style="-ms-transform: rotate(360deg); -webkit-transform: rotate(360deg); transform: rotate(360deg);"><g fill="none"><path d="M12 22c5.523 0 10-4.477 10-10S17.523 2 12 2S2 6.477 2 12s4.477 10 10 10zM8.73 10.75H10a.75.75 0 0 1 0 1.5H7.25a.75.75 0 0 1-.75-.75V8.25a.75.75 0 0 1 1.5 0V9a4.991 4.991 0 0 1 4-2c1.537 0 2.904.66 3.827 1.77a.75.75 0 0 1-1.154.96C14.037 8.963 13.093 8.5 12 8.5a3.502 3.502 0 0 0-3.27 2.25zm7.27 5V15a5.013 5.013 0 0 1-7.821.237a.75.75 0 1 1 1.142-.972a3.513 3.513 0 0 0 5.842-.765H14a.75.75 0 0 1 0-1.5h2.75a.75.75 0 0 1 .75.75v3a.75.75 0 0 1-1.5 0z" fill="#626262"/></g><rect x="0" y="0" width="24" height="24" fill="rgba(0, 0, 0, 0)" /></svg>