<svg xmlns="http://www.w3.org/2000/svg" xmlns:xlink="http://www.w3.org/1999/xlink" width="24" height="24" preserveAspectRatio="xMidYMid meet" viewBox="0 0 24 24" style="-ms-transform: rotate(360deg); -webkit-transform: rotate(360deg); transform: rotate(360deg);"><g fill="none"><path d="M18 3a1 1 0 0 1 .993.883L19 4v16a1 1 0 0 1-1.993.117L17 20V4a1 1 0 0 1 1-1zm-12.707.293a1 1 0 0 1 1.32-.083l.094.083l8 8a1 1 0 0 1 .083 1.32l-.083.094l-8 8a1 1 0 0 1-1.497-1.32l.083-.094L12.586 12L5.293 4.707a1 1 0 0 1 0-1.414z" fill="#626262"/></g><rect x="0" y="0" width="24" height="24" fill="rgba(0, 0, 0, 0)" /></svg>