<svg xmlns="http://www.w3.org/2000/svg" xmlns:xlink="http://www.w3.org/1999/xlink" width="24" height="24" preserveAspectRatio="xMidYMid meet" viewBox="0 0 24 24" style="-ms-transform: rotate(360deg); -webkit-transform: rotate(360deg); transform: rotate(360deg);"><g fill="none"><path d="M22 12.001c0-5.523-4.476-10-10-10c-5.522 0-10 4.477-10 10s4.478 10 10 10c5.524 0 10-4.477 10-10zm-14.53.28a.75.75 0 0 1-.073-.976l.073-.085l4-4a.75.75 0 0 1 .977-.073l.085.073l4 4.001a.75.75 0 0 1-.977 1.133l-.084-.072l-2.72-2.722v6.691a.75.75 0 0 1-.649.744L12 17a.75.75 0 0 1-.743-.648l-.007-.102v-6.69l-2.72 2.72a.75.75 0 0 1-.976.073l-.084-.073z" fill="#626262"/></g><rect x="0" y="0" width="24" height="24" fill="rgba(0, 0, 0, 0)" /></svg>