<svg xmlns="http://www.w3.org/2000/svg" xmlns:xlink="http://www.w3.org/1999/xlink" width="24" height="24" preserveAspectRatio="xMidYMid meet" viewBox="0 0 24 24" style="-ms-transform: rotate(360deg); -webkit-transform: rotate(360deg); transform: rotate(360deg);"><g fill="none"><path d="M11.5 3.002l-7.555.001l-.121.014l-.088.02l-.104.034l-.089.04l-.064.036l-.062.042l-.064.05l-.063.058l-.095.11l-.071.11l-.054.114l-.035.105l-.016.065l-.009.053l-.011.148v7.504a1 1 0 0 0 1.993.117L5 11.505v-5.09l14.292 14.292a1 1 0 0 0 1.32.083l.094-.083a1 1 0 0 0 .084-1.32l-.084-.095L6.415 5.002H11.5a1 1 0 0 0 .993-.883l.007-.117a1 1 0 0 0-1-1z" fill="#626262"/></g><rect x="0" y="0" width="24" height="24" fill="rgba(0, 0, 0, 0)" /></svg>