<svg xmlns="http://www.w3.org/2000/svg" xmlns:xlink="http://www.w3.org/1999/xlink" width="24" height="24" preserveAspectRatio="xMidYMid meet" viewBox="0 0 24 24" style="-ms-transform: rotate(360deg); -webkit-transform: rotate(360deg); transform: rotate(360deg);"><g fill="none"><path d="M10.5 18H16a1 1 0 1 1 0 2h-5.5a6.5 6.5 0 1 1 0-13h5.14l-1.933-1.933a1 1 0 0 1 1.414-1.414l3.53 3.529a.997.997 0 0 1 .21.308a.997.997 0 0 1-.18 1.243a.94.94 0 0 1-.028.029l-3.531 3.53a1 1 0 0 1-1.415-1.413L15.586 9H10.5a4.5 4.5 0 1 0 0 9z" fill="#626262"/></g><rect x="0" y="0" width="24" height="24" fill="rgba(0, 0, 0, 0)" /></svg>