<svg xmlns="http://www.w3.org/2000/svg" xmlns:xlink="http://www.w3.org/1999/xlink" width="24" height="24" preserveAspectRatio="xMidYMid meet" viewBox="0 0 24 24" style="-ms-transform: rotate(360deg); -webkit-transform: rotate(360deg); transform: rotate(360deg);"><g fill="none"><path d="M13.793 18.707a1 1 0 1 0 1.414-1.414l-2.5-2.5a1 1 0 0 0-1.414 0l-2.5 2.5a1 1 0 1 0 1.414 1.414l.793-.793V21a1 1 0 1 0 2 0v-3.086l.793.793z" fill="#626262"/><path d="M4 12a1 1 0 0 1 1-1h14a1 1 0 1 1 0 2H5a1 1 0 0 1-1-1z" fill="#626262"/><path d="M13 3a1 1 0 1 0-2 0v3.086l-.793-.793a1 1 0 0 0-1.414 1.414l2.5 2.5a1 1 0 0 0 1.414 0l2.5-2.5a1 1 0 0 0-1.414-1.414L13 6.086V3z" fill="#626262"/></g><rect x="0" y="0" width="24" height="24" fill="rgba(0, 0, 0, 0)" /></svg>