<svg xmlns="http://www.w3.org/2000/svg" xmlns:xlink="http://www.w3.org/1999/xlink" width="24" height="24" preserveAspectRatio="xMidYMid meet" viewBox="0 0 24 24" style="-ms-transform: rotate(360deg); -webkit-transform: rotate(360deg); transform: rotate(360deg);"><g fill="none"><path d="M2.292 8.793l3.995-4a1 1 0 0 1 1.32-.084l.094.083l4.006 4a1 1 0 0 1-1.32 1.499l-.094-.083L8 7.917v10.584a1 1 0 0 1-.883.993L7 19.5a1 1 0 0 1-.993-.884L6 18.501V7.91l-2.293 2.297a1 1 0 0 1-1.32.084l-.095-.084a1 1 0 0 1-.084-1.32l.084-.094l3.995-4l-3.995 4zM16.883 4.51L17 4.503a1 1 0 0 1 .993.884l.007.116v10.584l2.293-2.294a1 1 0 0 1 1.32-.084l.094.084a1 1 0 0 1 .084 1.32l-.084.094l-3.996 4a1 1 0 0 1-1.32.084l-.094-.084l-4.004-4a1 1 0 0 1 1.32-1.498l.094.084L16 16.083V5.503a1 1 0 0 1 .883-.993L17 4.503l-.117.007z" fill="#626262"/></g><rect x="0" y="0" width="24" height="24" fill="rgba(0, 0, 0, 0)" /></svg>