<svg xmlns="http://www.w3.org/2000/svg" xmlns:xlink="http://www.w3.org/1999/xlink" width="24" height="24" preserveAspectRatio="xMidYMid meet" viewBox="0 0 24 24" style="-ms-transform: rotate(360deg); -webkit-transform: rotate(360deg); transform: rotate(360deg);"><g fill="none"><path d="M12 22c5.523 0 10-4.477 10-10S17.523 2 12 2S2 6.477 2 12s4.477 10 10 10zm2.5-13.25a.75.75 0 0 1 1.5 0v6.5a.75.75 0 0 1-.75.75h-6.5a.75.75 0 0 1 0-1.5h4.74L8.222 9.283a.75.75 0 0 1 1.056-1.066L14.5 13.39V8.75z" fill="#626262"/></g><rect x="0" y="0" width="24" height="24" fill="rgba(0, 0, 0, 0)" /></svg>