<svg xmlns="http://www.w3.org/2000/svg" xmlns:xlink="http://www.w3.org/1999/xlink" width="24" height="24" preserveAspectRatio="xMidYMid meet" viewBox="0 0 24 24" style="-ms-transform: rotate(360deg); -webkit-transform: rotate(360deg); transform: rotate(360deg);"><g fill="none"><path d="M7 3a5 5 0 0 1 4.995 4.783L12 8v11a3 3 0 0 1-5.995.176L6 19V9a1 1 0 0 1 1.993-.117L8 9v10a1 1 0 0 0 1.993.117L10 19V8a3 3 0 0 0-5.995-.176L4 8v9a1 1 0 0 1-1.993.117L2 17V8a5 5 0 0 1 5-5zm8 14h2a1 1 0 0 1 .117 1.993L17 19h-2a1 1 0 0 1-.117-1.993L15 17h2h-2zm0-4h5.5a1 1 0 0 1 .117 1.993L20.5 15H15a1 1 0 0 1-.117-1.993L15 13h5.5H15zm0-4h5.5a1 1 0 0 1 .117 1.993L20.5 11H15a1 1 0 0 1-.117-1.993L15 9h5.5H15zm0-4h5.5a1 1 0 0 1 .117 1.993L20.5 7H15a1 1 0 0 1-.117-1.993L15 5h5.5H15z" fill="#626262"/></g><rect x="0" y="0" width="24" height="24" fill="rgba(0, 0, 0, 0)" /></svg>