<svg xmlns="http://www.w3.org/2000/svg" xmlns:xlink="http://www.w3.org/1999/xlink" width="24" height="24" preserveAspectRatio="xMidYMid meet" viewBox="0 0 24 24" style="-ms-transform: rotate(360deg); -webkit-transform: rotate(360deg); transform: rotate(360deg);"><g fill="none"><path d="M13.594 4.723a3 3 0 0 1 .948.947l2.872 4.58H21.5a1 1 0 0 1 0 2l-2.75-.002a5 5 0 1 1-4-1.999h.303l-.284-.452l-1.922-3.064a1 1 0 0 0-1.626-.095l-.068.095L3.597 18.78a1 1 0 0 1-1.75-.96l.056-.103L9.459 5.67a3 3 0 0 1 4.135-.947zm1.156 7.527a3 3 0 1 0 0 6a3 3 0 0 0 0-6z" fill="#626262"/></g><rect x="0" y="0" width="24" height="24" fill="rgba(0, 0, 0, 0)" /></svg>