<svg xmlns="http://www.w3.org/2000/svg" xmlns:xlink="http://www.w3.org/1999/xlink" width="24" height="24" preserveAspectRatio="xMidYMid meet" viewBox="0 0 24 24" style="-ms-transform: rotate(360deg); -webkit-transform: rotate(360deg); transform: rotate(360deg);"><g fill="none"><path d="M9 4.5v6.238c0 .375-.094.744-.273 1.074L7.54 14h8.922l-1.188-2.188A2.25 2.25 0 0 1 15 10.738V4.5h1A.75.75 0 0 0 16 3H8a.75.75 0 0 0 0 1.5h1z" fill="#626262"/><path d="M17.275 15.5H6.725l-1.582 2.915A1.75 1.75 0 0 0 6.68 21h10.638a1.75 1.75 0 0 0 1.538-2.585L17.275 15.5z" fill="#626262"/></g><rect x="0" y="0" width="24" height="24" fill="rgba(0, 0, 0, 0)" /></svg>