<svg xmlns="http://www.w3.org/2000/svg" xmlns:xlink="http://www.w3.org/1999/xlink" width="24" height="24" preserveAspectRatio="xMidYMid meet" viewBox="0 0 24 24" style="-ms-transform: rotate(360deg); -webkit-transform: rotate(360deg); transform: rotate(360deg);"><g fill="none"><path d="M3 12a9 9 0 0 1 13.977-7.5H12v1h6.225a9.05 9.05 0 0 1 1.26 1.5H12v1h8.064c.238.477.434.979.584 1.5H12v1h8.876c.081.488.124.989.124 1.5h-9v1h8.945a8.963 8.963 0 0 1-.297 1.5H12v1h8.294a8.98 8.98 0 0 1-.81 1.5H12v1h6.708A9 9 0 0 1 3 12z" fill="#626262"/></g><rect x="0" y="0" width="24" height="24" fill="rgba(0, 0, 0, 0)" /></svg>