<svg xmlns="http://www.w3.org/2000/svg" xmlns:xlink="http://www.w3.org/1999/xlink" width="24" height="24" preserveAspectRatio="xMidYMid meet" viewBox="0 0 24 24" style="-ms-transform: rotate(360deg); -webkit-transform: rotate(360deg); transform: rotate(360deg);"><g fill="none"><path d="M4 4a2 2 0 0 0-2 2v12a2 2 0 0 0 2 2h6c.768 0 1.47-.289 2-.764c.53.475 1.232.764 2 .764h6a2 2 0 0 0 2-2V6a2 2 0 0 0-2-2h-6c-.768 0-1.47.289-2 .764A2.989 2.989 0 0 0 10 4H4zm7 3v10a1 1 0 0 1-1 1H4V6h6a1 1 0 0 1 1 1zm2 10V7a1 1 0 0 1 1-1h6v12h-6a1 1 0 0 1-1-1z" fill="#626262"/></g><rect x="0" y="0" width="24" height="24" fill="rgba(0, 0, 0, 0)" /></svg>