<svg xmlns="http://www.w3.org/2000/svg" xmlns:xlink="http://www.w3.org/1999/xlink" width="24" height="24" preserveAspectRatio="xMidYMid meet" viewBox="0 0 24 24" style="-ms-transform: rotate(360deg); -webkit-transform: rotate(360deg); transform: rotate(360deg);"><g fill="none"><path d="M3.28 2.22a.75.75 0 1 0-1.06 1.06l2.788 2.788a3.3 3.3 0 0 0-.005.181v14.996a.75.75 0 0 0 1.188.609L12 17.673l5.812 4.18A.75.75 0 0 0 19 21.246v-1.183l1.718 1.718a.75.75 0 0 0 1.061-1.06L3.28 2.22z" fill="#626262"/><path d="M19.001 6.25v9.57L6.621 3.437C7.1 3.16 7.657 3 8.252 3h7.498a3.25 3.25 0 0 1 3.25 3.25z" fill="#626262"/></g><rect x="0" y="0" width="24" height="24" fill="rgba(0, 0, 0, 0)" /></svg>