<svg xmlns="http://www.w3.org/2000/svg" xmlns:xlink="http://www.w3.org/1999/xlink" width="24" height="24" preserveAspectRatio="xMidYMid meet" viewBox="0 0 24 24" style="-ms-transform: rotate(360deg); -webkit-transform: rotate(360deg); transform: rotate(360deg);"><g fill="none"><path d="M12.5 8.743l1.12 2.757h-2.24l1.12-2.757z" fill="#626262"/><path d="M4 4.5v15A2.5 2.5 0 0 0 6.5 22h13.25a.75.75 0 0 0 0-1.5H6.5a1 1 0 0 1-1-1h14.25a.75.75 0 0 0 .75-.75V4.5A2.5 2.5 0 0 0 18 2H6.5A2.5 2.5 0 0 0 4 4.5zM12.5 6a.75.75 0 0 1 .695.468l3.25 8a.75.75 0 1 1-1.39.564L14.23 13h-3.46l-.825 2.032a.75.75 0 0 1-1.39-.564l3.25-8A.75.75 0 0 1 12.5 6z" fill="#626262"/></g><rect x="0" y="0" width="24" height="24" fill="rgba(0, 0, 0, 0)" /></svg>