<svg xmlns="http://www.w3.org/2000/svg" xmlns:xlink="http://www.w3.org/1999/xlink" width="24" height="24" preserveAspectRatio="xMidYMid meet" viewBox="0 0 24 24" style="-ms-transform: rotate(360deg); -webkit-transform: rotate(360deg); transform: rotate(360deg);"><g fill="none"><path d="M4 7a1 1 0 0 1-1-1a3 3 0 0 1 3-3h12a3 3 0 0 1 3 3a1 1 0 1 1-2 0a1 1 0 0 0-1-1H6a1 1 0 0 0-1 1a1 1 0 0 1-1 1z" fill="#626262"/><path d="M5 11a1 1 0 1 0-2 0v2a1 1 0 1 0 2 0v-2z" fill="#626262"/><path d="M19 11a1 1 0 1 1 2 0v2a1 1 0 1 1-2 0v-2z" fill="#626262"/><path d="M3 18a1 1 0 1 1 2 0a1 1 0 0 0 1 1h12a1 1 0 0 0 1-1a1 1 0 1 1 2 0a3 3 0 0 1-3 3H6a3 3 0 0 1-3-3z" fill="#626262"/></g><rect x="0" y="0" width="24" height="24" fill="rgba(0, 0, 0, 0)" /></svg>