<svg xmlns="http://www.w3.org/2000/svg" xmlns:xlink="http://www.w3.org/1999/xlink" width="24" height="24" preserveAspectRatio="xMidYMid meet" viewBox="0 0 24 24" style="-ms-transform: rotate(360deg); -webkit-transform: rotate(360deg); transform: rotate(360deg);"><g fill="none"><path d="M6 21a1 1 0 1 0 0-2a1 1 0 0 1-1-1V6a1 1 0 0 1 1-1a1 1 0 0 0 0-2a3 3 0 0 0-3 3v12a3 3 0 0 0 3 3z" fill="#626262"/><path d="M13 5a1 1 0 1 0 0-2h-2a1 1 0 1 0 0 2h2z" fill="#626262"/><path d="M19 11a1 1 0 1 1 2 0v2a1 1 0 1 1-2 0v-2z" fill="#626262"/><path d="M14 20a1 1 0 0 1-1 1h-2a1 1 0 1 1 0-2h2a1 1 0 0 1 1 1z" fill="#626262"/><path d="M18 3a1 1 0 1 0 0 2a1 1 0 0 1 1 1a1 1 0 1 0 2 0a3 3 0 0 0-3-3z" fill="#626262"/><path d="M17 20a1 1 0 0 0 1 1a3 3 0 0 0 3-3a1 1 0 1 0-2 0a1 1 0 0 1-1 1a1 1 0 0 0-1 1z" fill="#626262"/></g><rect x="0" y="0" width="24" height="24" fill="rgba(0, 0, 0, 0)" /></svg>