<svg xmlns="http://www.w3.org/2000/svg" xmlns:xlink="http://www.w3.org/1999/xlink" width="24" height="24" preserveAspectRatio="xMidYMid meet" viewBox="0 0 24 24" style="-ms-transform: rotate(360deg); -webkit-transform: rotate(360deg); transform: rotate(360deg);"><g fill="none"><path d="M2.5 5.75A3.25 3.25 0 0 1 5.75 2.5h12.5a3.25 3.25 0 0 1 3.25 3.25v12.5a3.25 3.25 0 0 1-3.25 3.25H5.75a3.25 3.25 0 0 1-3.25-3.25V5.75zM5.75 5a.75.75 0 0 0-.75.75v12.5c0 .414.336.75.75.75h12.5a.75.75 0 0 0 .75-.75V5.75a.75.75 0 0 0-.75-.75H5.75z" fill="#626262"/></g><rect x="0" y="0" width="24" height="24" fill="rgba(0, 0, 0, 0)" /></svg>