<svg xmlns="http://www.w3.org/2000/svg" xmlns:xlink="http://www.w3.org/1999/xlink" width="24" height="24" preserveAspectRatio="xMidYMid meet" viewBox="0 0 24 24" style="-ms-transform: rotate(360deg); -webkit-transform: rotate(360deg); transform: rotate(360deg);"><g fill="none"><path d="M16 3.75a.75.75 0 0 0-.75-.75h-6.5l-.102.007A.75.75 0 0 0 8 3.75V7H6.25A3.25 3.25 0 0 0 3 10.25v6.5A3.25 3.25 0 0 0 6.25 20h11.5A3.25 3.25 0 0 0 21 16.75v-6.5A3.25 3.25 0 0 0 17.75 7H16V3.75zm-6.5.75h5V7h-5V4.5zm2 11.25V14H9.75a.75.75 0 0 1 0-1.5h1.75v-1.75a.75.75 0 0 1 1.5 0v1.75h1.75a.75.75 0 0 1 0 1.5H13v1.75a.75.75 0 0 1-1.5 0z" fill="#626262"/></g><rect x="0" y="0" width="24" height="24" fill="rgba(0, 0, 0, 0)" /></svg>