<svg xmlns="http://www.w3.org/2000/svg" xmlns:xlink="http://www.w3.org/1999/xlink" width="24" height="24" preserveAspectRatio="xMidYMid meet" viewBox="0 0 24 24" style="-ms-transform: rotate(360deg); -webkit-transform: rotate(360deg); transform: rotate(360deg);"><g fill="none"><path d="M9.246 14.001c.967 0 1.75.784 1.75 1.75v3.5a1.75 1.75 0 0 1-1.75 1.75H3.75A1.75 1.75 0 0 1 2 19.251v-3.5c0-.966.784-1.75 1.75-1.75h5.496zm11.004 0c.966 0 1.75.784 1.75 1.75v3.5a1.75 1.75 0 0 1-1.75 1.75h-5.496a1.75 1.75 0 0 1-1.75-1.75v-3.5c0-.966.783-1.75 1.75-1.75h5.496zm0-11.005c.966 0 1.75.784 1.75 1.75v5.503A1.75 1.75 0 0 1 20.25 12H3.75A1.75 1.75 0 0 1 2 10.25V4.746a1.75 1.75 0 0 1 1.606-1.744l.144-.006h16.5z" fill="#626262"/></g><rect x="0" y="0" width="24" height="24" fill="rgba(0, 0, 0, 0)" /></svg>