<svg xmlns="http://www.w3.org/2000/svg" xmlns:xlink="http://www.w3.org/1999/xlink" width="24" height="24" preserveAspectRatio="xMidYMid meet" viewBox="0 0 24 24" style="-ms-transform: rotate(360deg); -webkit-transform: rotate(360deg); transform: rotate(360deg);"><g fill="none"><path d="M22.452 1.923a.75.75 0 0 1 0 1.06L16.14 9.296a6.814 6.814 0 0 0-1.067-1.053l6.32-6.32a.75.75 0 0 1 1.06 0z" fill="#626262"/><path d="M15.028 9.347a5.75 5.75 0 0 0-8.132 0l-.244.244l8.132 8.132l.244-.244a5.75 5.75 0 0 0 0-8.132z" fill="#626262"/><path d="M1.884 12.966l3.613-2.409l8.32 8.321l-2.408 3.613a.75.75 0 0 1-1.154.115L1.769 14.12a.75.75 0 0 1 .115-1.154z" fill="#626262"/></g><rect x="0" y="0" width="24" height="24" fill="rgba(0, 0, 0, 0)" /></svg>