<svg xmlns="http://www.w3.org/2000/svg" xmlns:xlink="http://www.w3.org/1999/xlink" width="24" height="24" preserveAspectRatio="xMidYMid meet" viewBox="0 0 24 24" style="-ms-transform: rotate(360deg); -webkit-transform: rotate(360deg); transform: rotate(360deg);"><g fill="none"><path d="M10.495 14.501v7.498H7.498v-7.498h2.996zm6.76-1.5h-3.502a.75.75 0 0 0-.75.75v3.502c0 .414.336.75.75.75h3.502a.75.75 0 0 0 .75-.75v-3.502a.75.75 0 0 0-.75-.75zm-.751 1.5v2.002h-2.001v-2.002h2zM8.166 7.002H3.5v1.165c0 1.18.878 2.157 2.016 2.311l.157.016l.16.005c1.234 0 2.245-.959 2.327-2.173l.005-.16V7.003zm6.165 0H9.666v1.165c0 1.18.878 2.157 2.016 2.311l.157.016l.16.005c1.234 0 2.245-.959 2.327-2.173l.005-.16V7.003zm6.167 0h-4.665v1.165c0 1.18.878 2.157 2.017 2.311l.156.016l.16.005c1.235 0 2.245-.959 2.327-2.173l.006-.16l-.001-1.164zM9.06 3.5H6.326L4.469 5.502h3.977L9.06 3.5zm4.307 0H10.63l-.616 2.002h3.97L13.369 3.5zm4.305 0h-2.734l.614 2.002h3.977L17.673 3.5zM2.2 5.742l3.25-3.502a.75.75 0 0 1 .446-.233L6 2h12a.75.75 0 0 1 .474.169l.076.07l3.272 3.53l.03.038c.102.136.148.29.148.44L22 8.168c0 .994-.379 1.9-1 2.58V21.25a.75.75 0 0 1-.649.743L20.25 22l-8.254-.001v-8.248a.75.75 0 0 0-.75-.75H6.75a.75.75 0 0 0-.75.75v8.248L3.75 22a.75.75 0 0 1-.743-.648l-.007-.102V10.748a3.818 3.818 0 0 1-.995-2.384l-.005-.197V6.29a.728.728 0 0 1 .096-.408l.05-.076l.054-.065z" fill="#626262"/></g><rect x="0" y="0" width="24" height="24" fill="rgba(0, 0, 0, 0)" /></svg>