<svg xmlns="http://www.w3.org/2000/svg" xmlns:xlink="http://www.w3.org/1999/xlink" width="24" height="24" preserveAspectRatio="xMidYMid meet" viewBox="0 0 24 24" style="-ms-transform: rotate(360deg); -webkit-transform: rotate(360deg); transform: rotate(360deg);"><g fill="none"><path d="M7.5 11.5v-2h9v2h-9z" fill="#626262"/><path d="M4 3a2 2 0 0 0-1 3.732V20.25c0 .414.336.75.75.75H6v-5.25a.75.75 0 0 1 .75-.75h4a.75.75 0 0 1 .75.75V21h8.75a.75.75 0 0 0 .75-.75V6.732A2 2 0 0 0 20 3H4zm-.5 2a.5.5 0 0 1 .5-.5h16a.5.5 0 0 1 0 1H4a.5.5 0 0 1-.5-.5zm3.25 3h10.5a.75.75 0 0 1 .75.75v3.5a.75.75 0 0 1-.75.75H6.75a.75.75 0 0 1-.75-.75v-3.5A.75.75 0 0 1 6.75 8zm8 7h2.5a.75.75 0 0 1 .75.75v2.5a.75.75 0 0 1-.75.75h-2.5a.75.75 0 0 1-.75-.75v-2.5a.75.75 0 0 1 .75-.75z" fill="#626262"/><path d="M10 16.5V21H7.5v-4.5H10z" fill="#626262"/></g><rect x="0" y="0" width="24" height="24" fill="rgba(0, 0, 0, 0)" /></svg>