<svg xmlns="http://www.w3.org/2000/svg" xmlns:xlink="http://www.w3.org/1999/xlink" width="24" height="24" preserveAspectRatio="xMidYMid meet" viewBox="0 0 24 24" style="-ms-transform: rotate(360deg); -webkit-transform: rotate(360deg); transform: rotate(360deg);"><g fill="none"><path d="M2.924 4.129A2.25 2.25 0 0 1 5.171 2h1.158a2.25 2.25 0 0 1 2.246 2.129l.838 15.5A2.25 2.25 0 0 1 7.167 22H4.333a2.25 2.25 0 0 1-2.247-2.371l.838-15.5z" fill="#626262"/><path d="M9.512 22c.6-.625.95-1.488.9-2.425L9.855 9.284l4.666-3.862A.75.75 0 0 1 15.75 6v4.24l4.98-4.781A.75.75 0 0 1 22 6v13.75A2.25 2.25 0 0 1 19.75 22H9.512zM13 20.5h5V16a1 1 0 0 0-1-1h-3a1 1 0 0 0-1 1v4.5z" fill="#626262"/></g><rect x="0" y="0" width="24" height="24" fill="rgba(0, 0, 0, 0)" /></svg>