<svg xmlns="http://www.w3.org/2000/svg" xmlns:xlink="http://www.w3.org/1999/xlink" width="24" height="24" preserveAspectRatio="xMidYMid meet" viewBox="0 0 24 24" style="-ms-transform: rotate(360deg); -webkit-transform: rotate(360deg); transform: rotate(360deg);"><g fill="none"><path d="M6.75 2A2.25 2.25 0 0 0 4.5 4.25v16.5c0 .414.336.75.75.75H7.5v-4.25a.75.75 0 0 1 .75-.75h7.5a.75.75 0 0 1 .75.75v4.25h2.25a.75.75 0 0 0 .75-.75v-9a2.25 2.25 0 0 0-2.25-2.25h-.75V4.25A2.25 2.25 0 0 0 14.25 2h-7.5zm.75 4.5a1 1 0 1 1 2 0a1 1 0 0 1-2 0zm1 6a1 1 0 1 1 0 2a1 1 0 0 1 0-2zm-1-2.5a1 1 0 1 1 2 0a1 1 0 0 1-2 0zM12 5.5a1 1 0 1 1 0 2a1 1 0 0 1 0-2zm-1 8a1 1 0 1 1 2 0a1 1 0 0 1-2 0zm4.5-1a1 1 0 1 1 0 2a1 1 0 0 1 0-2zM11 10a1 1 0 1 1 2 0a1 1 0 0 1-2 0z" fill="#626262"/><path d="M15 21.5V18h-2.25v3.5H15z" fill="#626262"/><path d="M11.25 21.5V18H9v3.5h2.25z" fill="#626262"/></g><rect x="0" y="0" width="24" height="24" fill="rgba(0, 0, 0, 0)" /></svg>