<svg xmlns="http://www.w3.org/2000/svg" xmlns:xlink="http://www.w3.org/1999/xlink" width="24" height="24" preserveAspectRatio="xMidYMid meet" viewBox="0 0 24 24" style="-ms-transform: rotate(360deg); -webkit-transform: rotate(360deg); transform: rotate(360deg);"><g fill="none"><path d="M7 16a1 1 0 1 0 0-2a1 1 0 0 0 0 2z" fill="#626262"/><path d="M8 18a1 1 0 1 1-2 0a1 1 0 0 1 2 0z" fill="#626262"/><path d="M7 13a1 1 0 1 0 0-2a1 1 0 0 0 0 2z" fill="#626262"/><path d="M8 9a1 1 0 1 1-2 0a1 1 0 0 1 2 0z" fill="#626262"/><path d="M7 7a1 1 0 1 0 0-2a1 1 0 0 0 0 2z" fill="#626262"/><path d="M14 4.25V5h4.75A2.25 2.25 0 0 1 21 7.25v13.5a.75.75 0 0 1-.75.75h-2.5a.5.5 0 0 1-.5-.5v-2.25a.5.5 0 0 0-.5-.5h-2.5a.5.5 0 0 0-.5.5V21a.5.5 0 0 1-.5.5h-9.5a.75.75 0 0 1-.75-.75V4.25A2.25 2.25 0 0 1 5.25 2h6.5A2.25 2.25 0 0 1 14 4.25zM5.25 3.5a.75.75 0 0 0-.75.75V20H10V7.25A2.25 2.25 0 0 1 12.25 5h.25v-.75a.75.75 0 0 0-.75-.75h-6.5zM18 15a1 1 0 1 0-2 0a1 1 0 0 0 2 0zm-4 1a1 1 0 1 0 0-2a1 1 0 0 0 0 2zm4-4a1 1 0 1 0-2 0a1 1 0 0 0 2 0zm-4 1a1 1 0 1 0 0-2a1 1 0 0 0 0 2zm4-4a1 1 0 1 0-2 0a1 1 0 0 0 2 0zm-4 1a1 1 0 1 0 0-2a1 1 0 0 0 0 2z" fill="#626262"/></g><rect x="0" y="0" width="24" height="24" fill="rgba(0, 0, 0, 0)" /></svg>