<svg xmlns="http://www.w3.org/2000/svg" xmlns:xlink="http://www.w3.org/1999/xlink" width="24" height="24" preserveAspectRatio="xMidYMid meet" viewBox="0 0 24 24" style="-ms-transform: rotate(360deg); -webkit-transform: rotate(360deg); transform: rotate(360deg);"><g fill="none"><path d="M21 8.5v3.522A6.5 6.5 0 0 0 12.022 21H6.25A3.25 3.25 0 0 1 3 17.75V8.5h18z" fill="#626262"/><path d="M17.75 3A3.25 3.25 0 0 1 21 6.25V7H3v-.75A3.25 3.25 0 0 1 6.25 3h11.5z" fill="#626262"/><path d="M23 17.5a5.5 5.5 0 1 0-11 0a5.5 5.5 0 0 0 11 0zM14.5 14a.5.5 0 0 1 .5.5v.55A3.49 3.49 0 0 1 17.5 14c1.168 0 2.202.572 2.837 1.45a.5.5 0 1 1-.81.586A2.496 2.496 0 0 0 17.5 15c-.817 0-1.544.392-2 1h1a.5.5 0 0 1 0 1h-2a.5.5 0 0 1-.5-.5v-2a.5.5 0 0 1 .5-.5zm5.5 5.95A3.49 3.49 0 0 1 17.5 21a3.493 3.493 0 0 1-2.675-1.243a.5.5 0 0 1 .764-.645c.46.544 1.145.888 1.911.888c.817 0 1.544-.392 2-1h-1a.5.5 0 0 1 0-1h2a.5.5 0 0 1 .5.5v2a.5.5 0 0 1-1 0v-.55z" fill="#626262"/></g><rect x="0" y="0" width="24" height="24" fill="rgba(0, 0, 0, 0)" /></svg>