<svg xmlns="http://www.w3.org/2000/svg" xmlns:xlink="http://www.w3.org/1999/xlink" width="24" height="24" preserveAspectRatio="xMidYMid meet" viewBox="0 0 24 24" style="-ms-transform: rotate(360deg); -webkit-transform: rotate(360deg); transform: rotate(360deg);"><g fill="none"><path d="M17.5 12a5.5 5.5 0 1 1 0 11a5.5 5.5 0 0 1 0-11zM21 8.5l.001 3.523a6.5 6.5 0 0 0-8.979 8.979L6.25 21A3.25 3.25 0 0 1 3 17.75V8.5h18zM17.5 14l-.09.008a.5.5 0 0 0-.402.402L17 14.5V17h-2.5l-.09.008a.5.5 0 0 0-.402.402L14 17.5l.008.09a.5.5 0 0 0 .402.402l.09.008H17v2.5l.008.09a.5.5 0 0 0 .402.402l.09.008l.09-.008a.5.5 0 0 0 .402-.402L18 20.5V18h2.5l.09-.008a.5.5 0 0 0 .402-.402L21 17.5l-.008-.09a.5.5 0 0 0-.402-.402L20.5 17H18v-2.5l-.008-.09a.5.5 0 0 0-.402-.402L17.5 14zm.25-11A3.25 3.25 0 0 1 21 6.25V7H3v-.75A3.25 3.25 0 0 1 6.25 3h11.5z" fill="#626262"/></g><rect x="0" y="0" width="24" height="24" fill="rgba(0, 0, 0, 0)" /></svg>