<svg xmlns="http://www.w3.org/2000/svg" xmlns:xlink="http://www.w3.org/1999/xlink" width="24" height="24" preserveAspectRatio="xMidYMid meet" viewBox="0 0 24 24" style="-ms-transform: rotate(360deg); -webkit-transform: rotate(360deg); transform: rotate(360deg);"><g fill="none"><path d="M21 8.5V11a3.75 3.75 0 1 0-5.55 5h-.95a2.5 2.5 0 0 0-2.5 2.5v.5c0 .7.17 1.379.488 2H6.25A3.25 3.25 0 0 1 3 17.75V8.5h18z" fill="#626262"/><path d="M17.75 3A3.25 3.25 0 0 1 21 6.25V7H3v-.75A3.25 3.25 0 0 1 6.25 3h11.5z" fill="#626262"/><path d="M23 18.5a1.5 1.5 0 0 0-1.5-1.5h-7a1.5 1.5 0 0 0-1.5 1.5v.5c0 1.971 1.86 4 5 4c3.14 0 5-2.029 5-4v-.5z" fill="#626262"/><path d="M20.75 13.25a2.75 2.75 0 1 0-5.5 0a2.75 2.75 0 0 0 5.5 0z" fill="#626262"/></g><rect x="0" y="0" width="24" height="24" fill="rgba(0, 0, 0, 0)" /></svg>