<svg xmlns="http://www.w3.org/2000/svg" xmlns:xlink="http://www.w3.org/1999/xlink" width="24" height="24" preserveAspectRatio="xMidYMid meet" viewBox="0 0 24 24" style="-ms-transform: rotate(360deg); -webkit-transform: rotate(360deg); transform: rotate(360deg);"><g fill="none"><path d="M3 8.5v9.25A3.25 3.25 0 0 0 6.25 21h11.5A3.25 3.25 0 0 0 21 17.75V8.5H3zM16.75 15a1.25 1.25 0 1 1 0 2.5a1.25 1.25 0 0 1 0-2.5zM12 15a1.25 1.25 0 1 1 0 2.5a1.25 1.25 0 0 1 0-2.5zm4.75-4.5a1.25 1.25 0 1 1 0 2.5a1.25 1.25 0 0 1 0-2.5zm-4.75 0a1.25 1.25 0 1 1 0 2.5a1.25 1.25 0 0 1 0-2.5zm-4.75 0a1.25 1.25 0 1 1 0 2.5a1.25 1.25 0 0 1 0-2.5zm-1-7.5A3.25 3.25 0 0 0 3 6.25V7h18v-.75A3.25 3.25 0 0 0 17.75 3H6.25z" fill="#626262"/></g><rect x="0" y="0" width="24" height="24" fill="rgba(0, 0, 0, 0)" /></svg>