<svg xmlns="http://www.w3.org/2000/svg" xmlns:xlink="http://www.w3.org/1999/xlink" width="24" height="24" preserveAspectRatio="xMidYMid meet" viewBox="0 0 24 24" style="-ms-transform: rotate(360deg); -webkit-transform: rotate(360deg); transform: rotate(360deg);"><g fill="none"><path d="M9.367 3.312l.86 2.028c.374.883.167 1.922-.514 2.568L7.819 9.706c.116 1.076.478 2.135 1.084 3.177a8.678 8.678 0 0 0 2.271 2.595l2.275-.76c.863-.287 1.802.044 2.33.821l1.233 1.81c.615.904.505 2.15-.258 2.916l-.818.821c-.814.817-1.977 1.114-3.052.778c-2.539-.792-4.873-3.143-7.003-7.053c-2.133-3.916-2.886-7.24-2.258-9.968c.264-1.148 1.081-2.063 2.149-2.404l1.076-.344c1.01-.322 2.087.199 2.52 1.217zm5.381-1.31h6.554l.1.013l.098.028l.064.027a.718.718 0 0 1 .216.15l.04.043l.044.057l.052.085l.04.093l.028.1l.013.09v.013l.002.02v6.534a.75.75 0 0 1-1.492.102l-.007-.102V4.56l-6.22 6.224a.75.75 0 0 1-.977.073l-.084-.072a.75.75 0 0 1-.073-.977l.073-.084l6.22-6.224l-4.69.001a.75.75 0 0 1-.744-.648l-.007-.102a.75.75 0 0 1 .648-.743L14.748 2z" fill="#626262"/></g><rect x="0" y="0" width="24" height="24" fill="rgba(0, 0, 0, 0)" /></svg>