<svg xmlns="http://www.w3.org/2000/svg" xmlns:xlink="http://www.w3.org/1999/xlink" width="24" height="24" preserveAspectRatio="xMidYMid meet" viewBox="0 0 24 24" style="-ms-transform: rotate(360deg); -webkit-transform: rotate(360deg); transform: rotate(360deg);"><g fill="none"><path d="M21.949 12.993l-.198 1.037c-.184.971-1.092 1.623-2.12 1.524l-2.047-.198c-.891-.086-1.651-.72-1.878-1.566l-.631-2.355c-.935-.383-1.965-.558-3.09-.526a8.102 8.102 0 0 0-3.14.708l-.392 2.205c-.148.836-.837 1.459-1.71 1.547l-2.035.204c-1.016.102-1.989-.544-2.277-1.51l-.31-1.038c-.308-1.031-.033-2.117.721-2.85c1.781-1.73 4.75-2.598 8.907-2.604c4.164-.005 7.225.857 9.185 2.588c.825.728 1.21 1.806 1.015 2.834z" fill="#626262"/></g><rect x="0" y="0" width="24" height="24" fill="rgba(0, 0, 0, 0)" /></svg>