<svg xmlns="http://www.w3.org/2000/svg" xmlns:xlink="http://www.w3.org/1999/xlink" width="24" height="24" preserveAspectRatio="xMidYMid meet" viewBox="0 0 24 24" style="-ms-transform: rotate(360deg); -webkit-transform: rotate(360deg); transform: rotate(360deg);"><g fill="none"><path d="M13.925 2.503a2.25 2.25 0 0 1 1.94 1.11L16.679 5h2.071A3.25 3.25 0 0 1 22 8.25v9.5A3.25 3.25 0 0 1 18.75 21H5.25A3.25 3.25 0 0 1 2 17.75v-9.5A3.25 3.25 0 0 1 5.25 5h2.08l.875-1.424a2.25 2.25 0 0 1 1.917-1.073h3.803zM12 8a4.5 4.5 0 1 0 0 9a4.5 4.5 0 0 0 0-9zm0 1.5a3 3 0 1 1 0 6a3 3 0 0 1 0-6z" fill="#626262"/></g><rect x="0" y="0" width="24" height="24" fill="rgba(0, 0, 0, 0)" /></svg>