<svg xmlns="http://www.w3.org/2000/svg" xmlns:xlink="http://www.w3.org/1999/xlink" width="24" height="24" preserveAspectRatio="xMidYMid meet" viewBox="0 0 24 24" style="-ms-transform: rotate(360deg); -webkit-transform: rotate(360deg); transform: rotate(360deg);"><g fill="none"><path d="M8 14c.552 0 1 .445 1 .994v4.012c0 .549-.448.994-1 .994s-1-.445-1-.994v-4.012c0-.549.448-.994 1-.994zm-4 3c.552 0 1 .44 1 .984v1.032A.992.992 0 0 1 4 20c-.552 0-1-.44-1-.984v-1.032A.992.992 0 0 1 4 17z" fill="#626262"/></g><rect x="0" y="0" width="24" height="24" fill="rgba(0, 0, 0, 0)" /></svg>