<svg xmlns="http://www.w3.org/2000/svg" xmlns:xlink="http://www.w3.org/1999/xlink" width="24" height="24" preserveAspectRatio="xMidYMid meet" viewBox="0 0 24 24" style="-ms-transform: rotate(360deg); -webkit-transform: rotate(360deg); transform: rotate(360deg);"><g fill="none"><path d="M21 3.75a.75.75 0 0 1-.75.75H3.75a.75.75 0 0 1 0-1.5h16.5a.75.75 0 0 1 .75.75z" fill="#626262"/><path d="M21 20.25a.75.75 0 0 1-.75.75H3.75a.75.75 0 0 1 0-1.5h16.5a.75.75 0 0 1 .75.75z" fill="#626262"/><path d="M5 14.5A1.5 1.5 0 0 0 6.5 16h11a1.5 1.5 0 0 0 1.5-1.5v-5A1.5 1.5 0 0 0 17.5 8h-11A1.5 1.5 0 0 0 5 9.5v5z" fill="#626262"/></g><rect x="0" y="0" width="24" height="24" fill="rgba(0, 0, 0, 0)" /></svg>