<svg xmlns="http://www.w3.org/2000/svg" xmlns:xlink="http://www.w3.org/1999/xlink" width="24" height="24" preserveAspectRatio="xMidYMid meet" viewBox="0 0 24 24" style="-ms-transform: rotate(360deg); -webkit-transform: rotate(360deg); transform: rotate(360deg);"><g fill="none"><path d="M3.75 3a.75.75 0 0 1 .75.75v16.5a.75.75 0 0 1-1.5 0V3.75A.75.75 0 0 1 3.75 3z" fill="#626262"/><path d="M20.25 3a.75.75 0 0 1 .75.75v16.5a.75.75 0 0 1-1.5 0V3.75a.75.75 0 0 1 .75-.75z" fill="#626262"/><path d="M9.5 5A1.5 1.5 0 0 0 8 6.5v11A1.5 1.5 0 0 0 9.5 19h5a1.5 1.5 0 0 0 1.5-1.5v-11A1.5 1.5 0 0 0 14.5 5h-5z" fill="#626262"/></g><rect x="0" y="0" width="24" height="24" fill="rgba(0, 0, 0, 0)" /></svg>