<svg xmlns="http://www.w3.org/2000/svg" xmlns:xlink="http://www.w3.org/1999/xlink" width="24" height="24" preserveAspectRatio="xMidYMid meet" viewBox="0 0 24 24" style="-ms-transform: rotate(360deg); -webkit-transform: rotate(360deg); transform: rotate(360deg);"><g fill="none"><path d="M17 2a3 3 0 0 1 3 3v7.154a3 3 0 0 0-3.236 4.83H16.5a2.5 2.5 0 0 0-2.5 2.5c0 .175.01.348.027.516H5a3 3 0 0 1-3-3V5a3 3 0 0 1 3-3h12zm-1.53 4.97L9 13.44l-2.47-2.47a.75.75 0 0 0-1.06 1.06l3 3a.75.75 0 0 0 1.06 0l7-7a.75.75 0 0 0-1.06-1.06zM19 12.984a2 2 0 1 1 .002 3.998A2 2 0 0 1 19 12.984zm-2.5 5h5a1.5 1.5 0 0 1 1.5 1.5c0 1.116-.459 2.01-1.212 2.614c-.741.595-1.735.886-2.788.886c-1.053 0-2.047-.29-2.788-.886A3.187 3.187 0 0 1 15.034 20a3.832 3.832 0 0 1-.034-.516a1.5 1.5 0 0 1 1.5-1.5z" fill="#626262"/></g><rect x="0" y="0" width="24" height="24" fill="rgba(0, 0, 0, 0)" /></svg>