<svg xmlns="http://www.w3.org/2000/svg" xmlns:xlink="http://www.w3.org/1999/xlink" width="24" height="24" preserveAspectRatio="xMidYMid meet" viewBox="0 0 24 24" style="-ms-transform: rotate(360deg); -webkit-transform: rotate(360deg); transform: rotate(360deg);"><g fill="none"><path d="M5.256 3a2.25 2.25 0 0 0-2.25 2.25v13.5A2.25 2.25 0 0 0 5.256 21h13.5a2.25 2.25 0 0 0 2.25-2.25V5.25A2.25 2.25 0 0 0 18.756 3h-13.5zM16.28 9.78l-5 5a.75.75 0 0 1-1.06 0l-2.004-2.004a.75.75 0 1 1 1.06-1.06l1.474 1.473l4.47-4.47a.75.75 0 0 1 1.06 1.061z" fill="#626262"/></g><rect x="0" y="0" width="24" height="24" fill="rgba(0, 0, 0, 0)" /></svg>