<svg xmlns="http://www.w3.org/2000/svg" xmlns:xlink="http://www.w3.org/1999/xlink" width="24" height="24" preserveAspectRatio="xMidYMid meet" viewBox="0 0 24 24" style="-ms-transform: rotate(360deg); -webkit-transform: rotate(360deg); transform: rotate(360deg);"><g fill="none"><path d="M17 2a3 3 0 0 1 3 3v7.903l-.26-.52c-.921-1.844-3.553-1.844-4.474 0L11.46 20H5a3 3 0 0 1-3-3V5a3 3 0 0 1 3-3h12zm-1.53 4.97L9 13.44l-2.47-2.47a.75.75 0 0 0-1.06 1.06l3 3a.75.75 0 0 0 1.06 0l7-7a.75.75 0 0 0-1.06-1.06zm.691 5.86l-3.997 7.998A1.5 1.5 0 0 0 13.507 23h7.994a1.5 1.5 0 0 0 1.343-2.172l-3.997-7.998c-.553-1.107-2.133-1.107-2.686 0zm1.843 2.666v3.001a.5.5 0 0 1-1 0v-3.001a.5.5 0 0 1 1 0zm-.5 5.503a.5.5 0 1 1 0-1.001a.5.5 0 0 1 0 1z" fill="#626262"/></g><rect x="0" y="0" width="24" height="24" fill="rgba(0, 0, 0, 0)" /></svg>