<svg xmlns="http://www.w3.org/2000/svg" xmlns:xlink="http://www.w3.org/1999/xlink" width="24" height="24" preserveAspectRatio="xMidYMid meet" viewBox="0 0 24 24" style="-ms-transform: rotate(360deg); -webkit-transform: rotate(360deg); transform: rotate(360deg);"><g fill="none"><path d="M12 2c5.523 0 10 4.477 10 10c0 .665-.065 1.316-.189 1.944A3.001 3.001 0 0 0 16 14.995v.052a2.5 2.5 0 0 0-2.014 2.453v4c0 .101.006.201.018.3c-.647.13-1.318.2-2.004.2c-5.523 0-10-4.477-10-10S6.477 2 12 2zm3.22 6.97l-4.47 4.47l-1.97-1.97a.75.75 0 0 0-1.06 1.06l2.5 2.5a.75.75 0 0 0 1.06 0l5-5a.75.75 0 1 0-1.06-1.06z" fill="#626262"/><path d="M17 16h-.514a1.5 1.5 0 0 0-1.5 1.5v4a1.5 1.5 0 0 0 1.5 1.5h5a1.5 1.5 0 0 0 1.5-1.5v-4a1.5 1.5 0 0 0-1.5-1.5H21v-1.005a2 2 0 1 0-4 0V16zm1-1.005a1 1 0 1 1 2 0V16h-2v-1.005zm1.75 4.505a.75.75 0 1 1-1.5 0a.75.75 0 0 1 1.5 0z" fill="#626262"/></g><rect x="0" y="0" width="24" height="24" fill="rgba(0, 0, 0, 0)" /></svg>