<svg xmlns="http://www.w3.org/2000/svg" xmlns:xlink="http://www.w3.org/1999/xlink" width="24" height="24" preserveAspectRatio="xMidYMid meet" viewBox="0 0 24 24" style="-ms-transform: rotate(360deg); -webkit-transform: rotate(360deg); transform: rotate(360deg);"><g fill="none"><path d="M10.25 2h3.5a2.25 2.25 0 0 1 2.236 2h1.764A2.25 2.25 0 0 1 20 6.25V18.5c-.19.142-.358.31-.5.5a2.496 2.496 0 0 0-2-1c-.818 0-1.544.393-2 1a2.5 2.5 0 0 0-4 3H6.25A2.25 2.25 0 0 1 4 19.75V6.25A2.25 2.25 0 0 1 6.25 4h1.764a2.25 2.25 0 0 1 2.236-2zm3.5 1.5h-3.5a.75.75 0 0 0 0 1.5h3.5a.75.75 0 0 0 0-1.5z" fill="#626262"/><path d="M17.5 22a1.5 1.5 0 1 1 0-3a1.5 1.5 0 0 1 0 3z" fill="#626262"/><path d="M13.5 19a1.5 1.5 0 1 1 0 3a1.5 1.5 0 0 1 0-3z" fill="#626262"/><path d="M21.5 22a1.5 1.5 0 1 0 0-3a1.5 1.5 0 0 0 0 3z" fill="#626262"/></g><rect x="0" y="0" width="24" height="24" fill="rgba(0, 0, 0, 0)" /></svg>