<svg xmlns="http://www.w3.org/2000/svg" xmlns:xlink="http://www.w3.org/1999/xlink" width="24" height="24" preserveAspectRatio="xMidYMid meet" viewBox="0 0 24 24" style="-ms-transform: rotate(360deg); -webkit-transform: rotate(360deg); transform: rotate(360deg);"><g fill="none"><path d="M17.808 9.018C17.517 6.273 15.52 4 12 4S6.485 6.255 6.193 9.018h-.09c-2.265 0-4.101 1.787-4.101 3.991S3.838 17 6.104 17H8.5l1-1l-1.975-1.975a1.768 1.768 0 1 1 2.5-2.5L12 13.5l1.975-1.975a1.768 1.768 0 1 1 2.5 2.5L14.5 16l1 1h2.396c2.266 0 4.102-1.787 4.102-3.991s-1.836-3.991-4.102-3.991h-.088z" fill="#626262"/><path d="M15.782 13.28a.75.75 0 1 0-1.06-1.06l-2.727 2.722L9.28 12.23l-.084-.072a.75.75 0 0 0-.977.073l-.072.084a.75.75 0 0 0 .073.976l2.713 2.711l-2.713 2.712a.75.75 0 1 0 1.06 1.06l2.715-2.712l2.727 2.724l.084.072a.75.75 0 0 0 .977-.073l.072-.084a.75.75 0 0 0-.073-.977l-2.726-2.722l2.726-2.721z" fill="#626262"/></g><rect x="0" y="0" width="24" height="24" fill="rgba(0, 0, 0, 0)" /></svg>