<svg xmlns="http://www.w3.org/2000/svg" xmlns:xlink="http://www.w3.org/1999/xlink" width="24" height="24" preserveAspectRatio="xMidYMid meet" viewBox="0 0 24 24" style="-ms-transform: rotate(360deg); -webkit-transform: rotate(360deg); transform: rotate(360deg);"><g fill="none"><path d="M12 4c3.52 0 5.517 2.273 5.808 5.018h.088c2.266 0 4.102 1.787 4.102 3.991S20.162 17 17.896 17H13.74v-4.035l.974.976l.14.12l.03.022a1.75 1.75 0 0 0 2.28-2.643L13.21 7.489l-.14-.12l-.029-.023a1.75 1.75 0 0 0-2.28.169l-3.95 3.95l-.121.14l-.022.03a1.75 1.75 0 0 0 .168 2.28l.026.026l.14.12l.03.022a1.75 1.75 0 0 0 2.28-.168l.928-.929V17H6.103c-2.266 0-4.102-1.787-4.102-3.991s1.836-3.991 4.102-3.991h.089C6.485 6.255 8.48 4 12 4z" fill="#626262"/><path d="M11.24 10.571v9.685a.75.75 0 0 0 1.5 0l-.002-9.708l2.657 2.66l.084.072a.753.753 0 0 0 .207.109a.75.75 0 0 0 .77-1.242L12.53 8.222l-.084-.073a.75.75 0 0 0-.977.073l-3.924 3.925l-.073.084a.75.75 0 0 0 .073.977l.084.072a.744.744 0 0 0 .207.109a.75.75 0 0 0 .77-.181l2.635-2.637z" fill="#626262"/></g><rect x="0" y="0" width="24" height="24" fill="rgba(0, 0, 0, 0)" /></svg>