<svg xmlns="http://www.w3.org/2000/svg" xmlns:xlink="http://www.w3.org/1999/xlink" width="24" height="24" preserveAspectRatio="xMidYMid meet" viewBox="0 0 24 24" style="-ms-transform: rotate(360deg); -webkit-transform: rotate(360deg); transform: rotate(360deg);"><g fill="none"><path d="M15.253 14.002c-.02 0-.038 0-.057-.002h-1.457V8.719l-.01-.17l-.005-.033a1.75 1.75 0 0 0-3.485.236L10.24 14H8.781l-.031.002H6.006a4.002 4.002 0 1 1 .33-7.99a6.004 6.004 0 0 1 11.328.002l.065-.006l.273-.01a4.002 4.002 0 1 1 0 8.004h-2.75z" fill="#626262"/><path d="M12.74 8.752l-.002 9.708l2.657-2.66l.084-.072a.75.75 0 0 1 1.049 1.05l-.073.083l-3.925 3.925l-.084.073a.75.75 0 0 1-.883.007l-.094-.08l-3.925-3.925l-.072-.084a.75.75 0 0 1-.007-.882l.08-.094l.083-.073a.75.75 0 0 1 .883-.007l.094.08l2.636 2.636l-.002-9.685a.75.75 0 0 1 1.494-.101l.006.101z" fill="#626262"/></g><rect x="0" y="0" width="24" height="24" fill="rgba(0, 0, 0, 0)" /></svg>