<svg xmlns="http://www.w3.org/2000/svg" xmlns:xlink="http://www.w3.org/1999/xlink" width="24" height="24" preserveAspectRatio="xMidYMid meet" viewBox="0 0 24 24" style="-ms-transform: rotate(360deg); -webkit-transform: rotate(360deg); transform: rotate(360deg);"><g fill="none"><path d="M16.195 12.186a.69.69 0 0 1 .943 0a.615.615 0 0 1 .07.822l-.07.078l-6 5.728a.69.69 0 0 1-.933.009l-.072-.078l-2-2.545a.618.618 0 0 1 .134-.89a.69.69 0 0 1 .861.049l.072.077l1.539 1.959l5.456-5.209zM12 4c3.52 0 5.517 2.273 5.808 5.018h.088c2.266 0 4.102 1.787 4.102 3.991S20.162 17 17.896 17h-3.411l3.344-3.19a1.616 1.616 0 0 0 0-2.347a1.69 1.69 0 0 0-2.324 0l-4.66 4.448l-.859-1.092a1.688 1.688 0 0 0-2.301-.323a1.617 1.617 0 0 0-.338 2.322l.144.182H6.104c-2.266 0-4.102-1.787-4.102-3.991s1.836-3.991 4.102-3.991h.089C6.485 6.255 8.48 4 12 4z" fill="#626262"/></g><rect x="0" y="0" width="24" height="24" fill="rgba(0, 0, 0, 0)" /></svg>