<svg xmlns="http://www.w3.org/2000/svg" xmlns:xlink="http://www.w3.org/1999/xlink" width="24" height="24" preserveAspectRatio="xMidYMid meet" viewBox="0 0 24 24" style="-ms-transform: rotate(360deg); -webkit-transform: rotate(360deg); transform: rotate(360deg);"><g fill="none"><path d="M14.777 2.451a3.74 3.74 0 0 1 1.784 2.14l.515 1.909H11.25l-.198.005h-.014A3.75 3.75 0 0 0 7.5 10.25v7.5l.005.198v.014c.015.25.053.491.113.725a3.744 3.744 0 0 1-1.707-.45a3.74 3.74 0 0 1-1.785-2.14L2.13 8.663A3.737 3.737 0 0 1 2.45 5.91a3.74 3.74 0 0 1 2.14-1.785l7.434-1.997a3.737 3.737 0 0 1 2.752.322z" fill="#626262"/><path d="M11.257 7.5l-.17.005A2.75 2.75 0 0 0 8.5 10.25v7.493l.005.17A2.75 2.75 0 0 0 11.25 20.5h.482a6.5 6.5 0 0 1 9.768-8.124v-2.119l-.005-.17A2.75 2.75 0 0 0 18.75 7.5h-7.493z" fill="#626262"/><path d="M23 17.5a5.5 5.5 0 1 0-11 0a5.5 5.5 0 0 0 11 0zm-5.59-3.493L17.5 14l.09.008a.5.5 0 0 1 .402.402l.008.09V17l2.505.001l.09.008a.5.5 0 0 1 .402.402l.008.09l-.008.09a.5.5 0 0 1-.403.402l-.09.008h-2.503v2.503l-.008.09a.5.5 0 0 1-.402.402l-.09.008l-.09-.008a.5.5 0 0 1-.402-.402l-.008-.09V18L14.498 18l-.09-.008a.5.5 0 0 1-.402-.402l-.008-.09l.008-.09a.5.5 0 0 1 .402-.402l.09-.008H17v-2.5l.008-.09a.5.5 0 0 1 .402-.403z" fill="#626262"/></g><rect x="0" y="0" width="24" height="24" fill="rgba(0, 0, 0, 0)" /></svg>