<svg xmlns="http://www.w3.org/2000/svg" xmlns:xlink="http://www.w3.org/1999/xlink" width="24" height="24" preserveAspectRatio="xMidYMid meet" viewBox="0 0 24 24" style="-ms-transform: rotate(360deg); -webkit-transform: rotate(360deg); transform: rotate(360deg);"><g fill="none"><path d="M3.28 2.22a.75.75 0 1 0-1.06 1.06l.702.702A3.24 3.24 0 0 0 2 6.25v8.5A3.25 3.25 0 0 0 5.25 18H6v3.002a1 1 0 0 0 1.578.815L12.965 18h3.974l3.78 3.78a.75.75 0 0 0 1.061-1.06L3.28 2.22z" fill="#626262"/><path d="M22 14.75a3.246 3.246 0 0 1-1.398 2.67L6.182 3H18.75A3.25 3.25 0 0 1 22 6.25v8.5z" fill="#626262"/></g><rect x="0" y="0" width="24" height="24" fill="rgba(0, 0, 0, 0)" /></svg>