<svg xmlns="http://www.w3.org/2000/svg" xmlns:xlink="http://www.w3.org/1999/xlink" width="24" height="24" preserveAspectRatio="xMidYMid meet" viewBox="0 0 24 24" style="-ms-transform: rotate(360deg); -webkit-transform: rotate(360deg); transform: rotate(360deg);"><g fill="none"><path d="M11.957 13.457l9.75-9.75a1 1 0 0 0-1.414-1.414l-9.75 9.75l-.293 1.707l1.707-.293z" fill="#626262"/><path d="M6.5 3A3.5 3.5 0 0 0 3 6.5v11A3.5 3.5 0 0 0 6.5 21h11a3.5 3.5 0 0 0 3.5-3.5V10a1 1 0 1 0-2 0v7.5a1.5 1.5 0 0 1-1.5 1.5h-11A1.5 1.5 0 0 1 5 17.5v-11A1.5 1.5 0 0 1 6.5 5H14a1 1 0 1 0 0-2H6.5z" fill="#626262"/></g><rect x="0" y="0" width="24" height="24" fill="rgba(0, 0, 0, 0)" /></svg>