<svg xmlns="http://www.w3.org/2000/svg" xmlns:xlink="http://www.w3.org/1999/xlink" width="24" height="24" preserveAspectRatio="xMidYMid meet" viewBox="0 0 24 24" style="-ms-transform: rotate(360deg); -webkit-transform: rotate(360deg); transform: rotate(360deg);"><g fill="none"><path d="M10 8.29v1.585A5.502 5.502 0 0 0 12 20.5a5.5 5.5 0 0 0 2.21-10.538L14 9.875l.001-1.585a7 7 0 1 1-4.247.078L10 8.29zm0 2.678v1.796a3 3 0 1 0 4.138.132l-.137-.131v-1.797a4.5 4.5 0 1 1-4.192.1l.19-.1zm1.387-8.758a1 1 0 0 1 1.226 0l.094.083l3 3l.083.094a1 1 0 0 1 0 1.226l-.083.094l-.094.083a1 1 0 0 1-1.226 0l-.094-.083L13 5.415V15a1 1 0 0 1-1.993.117L11 15V5.415L9.707 6.707l-.094.083A1 1 0 0 1 8.21 5.387l.083-.094l3-3l.094-.083z" fill="#626262"/></g><rect x="0" y="0" width="24" height="24" fill="rgba(0, 0, 0, 0)" /></svg>