<svg xmlns="http://www.w3.org/2000/svg" xmlns:xlink="http://www.w3.org/1999/xlink" width="24" height="24" preserveAspectRatio="xMidYMid meet" viewBox="0 0 24 24" style="-ms-transform: rotate(360deg); -webkit-transform: rotate(360deg); transform: rotate(360deg);"><g fill="none"><path d="M17.749 3l.184.005a3.25 3.25 0 0 1 3.062 3.06L21 6.25v5.772a6.463 6.463 0 0 0-2-.848L18.998 8H5L5 17.75c0 .647.492 1.18 1.122 1.244L6.25 19h4.925c.17.72.46 1.395.848 2H6.248a3.25 3.25 0 0 1-3.245-3.066L3 17.75V6.25a3.25 3.25 0 0 1 3.066-3.245L6.249 3h11.5z" fill="#626262"/><path d="M10.249 9.5a.75.75 0 0 1 .743.648l.007.102v7a.75.75 0 0 1-.648.743l-.102.007h-3.5a.75.75 0 0 1-.743-.648l-.007-.102v-7a.75.75 0 0 1 .648-.743L6.75 9.5h3.5zm-.75 1.5h-2v5.5h2V11z" fill="#626262"/><path d="M17.249 9.5a.75.75 0 0 1 .102 1.493l-.102.007h-4.496a.75.75 0 0 1-.101-1.493l.101-.007h4.496z" fill="#626262"/><path d="M12.5 15.629l.447.43a2 2 0 0 1 0 2.882l-.447.43c.2.574.49 1.103.853 1.57l.601-.178a2 2 0 0 1 2.511 1.45l.173.715a5.176 5.176 0 0 0 1.723 0l.173-.716a2 2 0 0 1 2.51-1.449l.603.178c.362-.467.652-.996.852-1.57l-.447-.43a2 2 0 0 1 0-2.882l.447-.43a5.549 5.549 0 0 0-.852-1.57l-.602.178a2 2 0 0 1-2.511-1.45l-.173-.715a5.175 5.175 0 0 0-1.723 0l-.173.716a2 2 0 0 1-2.51 1.449l-.602-.178a5.544 5.544 0 0 0-.853 1.57zm5 3.371c-.801 0-1.45-.672-1.45-1.5s.649-1.5 1.45-1.5c.8 0 1.45.672 1.45 1.5S18.3 19 17.5 19z" fill="#626262"/></g><rect x="0" y="0" width="24" height="24" fill="rgba(0, 0, 0, 0)" /></svg>