<svg xmlns="http://www.w3.org/2000/svg" xmlns:xlink="http://www.w3.org/1999/xlink" width="24" height="24" preserveAspectRatio="xMidYMid meet" viewBox="0 0 24 24" style="-ms-transform: rotate(360deg); -webkit-transform: rotate(360deg); transform: rotate(360deg);"><g fill="none"><path d="M5.5 4A1.5 1.5 0 0 0 4 5.5V8a1 1 0 0 1-2 0V5.5A3.5 3.5 0 0 1 5.5 2H8a1 1 0 0 1 0 2H5.5zm0 16A1.5 1.5 0 0 1 4 18.5V16a1 1 0 1 0-2 0v2.5A3.5 3.5 0 0 0 5.5 22H8a1 1 0 1 0 0-2H5.5zM20 5.5A1.5 1.5 0 0 0 18.5 4H16a1 1 0 1 1 0-2h2.5A3.5 3.5 0 0 1 22 5.5V8a1 1 0 1 1-2 0V5.5zM18.5 20a1.5 1.5 0 0 0 1.5-1.5V16a1 1 0 1 1 2 0v2.5a3.5 3.5 0 0 1-3.5 3.5H16a1 1 0 1 1 0-2h2.5zM7.75 6a1 1 0 0 0-1 1v1.5a1 1 0 0 0 2 0V8H11v8H9.75a1 1 0 1 0 0 2h4.5a1 1 0 1 0 0-2H13V8h2.25v.5a1 1 0 1 0 2 0V7a1 1 0 0 0-1-1h-8.5z" fill="#626262"/></g><rect x="0" y="0" width="24" height="24" fill="rgba(0, 0, 0, 0)" /></svg>