<svg xmlns="http://www.w3.org/2000/svg" xmlns:xlink="http://www.w3.org/1999/xlink" width="24" height="24" preserveAspectRatio="xMidYMid meet" viewBox="0 0 24 24" style="-ms-transform: rotate(360deg); -webkit-transform: rotate(360deg); transform: rotate(360deg);"><g fill="none"><path d="M13.409 2.515a3.75 3.75 0 0 0-2.818 0l-7.498 3.04A1.75 1.75 0 0 0 2 7.174v9.652a1.75 1.75 0 0 0 1.092 1.622l7.499 3.04a3.75 3.75 0 0 0 1.966.232A6.473 6.473 0 0 1 11 17.501a6.5 6.5 0 0 1 .25-1.79v-4.95L6.484 8.953a.75.75 0 1 1 .532-1.402L12 9.44l4.984-1.89a.75.75 0 0 1 .532 1.402l-4.766 1.808v2.304a6.482 6.482 0 0 1 4.75-2.063c1.746 0 3.332.688 4.5 1.809V7.176a1.75 1.75 0 0 0-1.093-1.622l-7.498-3.04zM23 17.5a5.5 5.5 0 1 1-11 0a5.5 5.5 0 0 1 11 0zM14.5 14a.5.5 0 0 0-.5.5v2a.5.5 0 0 0 .5.5h2a.5.5 0 1 0 0-1h-1c.457-.608 1.183-1 2-1c.834 0 1.572.407 2.027 1.036a.5.5 0 0 0 .81-.586A3.496 3.496 0 0 0 17.5 14a3.49 3.49 0 0 0-2.5 1.05v-.55a.5.5 0 0 0-.5-.5zM20 19.95v.55a.5.5 0 0 0 1 0v-2a.5.5 0 0 0-.5-.5h-2a.5.5 0 1 0 0 1h1c-.456.608-1.183 1-2 1a2.494 2.494 0 0 1-1.911-.888a.5.5 0 1 0-.764.645A3.494 3.494 0 0 0 17.5 21a3.49 3.49 0 0 0 2.5-1.05z" fill="#626262"/></g><rect x="0" y="0" width="24" height="24" fill="rgba(0, 0, 0, 0)" /></svg>