<svg xmlns="http://www.w3.org/2000/svg" xmlns:xlink="http://www.w3.org/1999/xlink" width="24" height="24" preserveAspectRatio="xMidYMid meet" viewBox="0 0 24 24" style="-ms-transform: rotate(360deg); -webkit-transform: rotate(360deg); transform: rotate(360deg);"><g fill="none"><path d="M13.409 2.512a3.75 3.75 0 0 0-2.818 0l-7.498 3.04A1.75 1.75 0 0 0 2 7.174v9.652a1.75 1.75 0 0 0 1.093 1.622l7.498 3.04a3.75 3.75 0 0 0 2.818 0l7.498-3.04A1.75 1.75 0 0 0 22 16.826V7.175a1.75 1.75 0 0 0-1.093-1.622l-7.498-3.04zm-7.36 5.472a.75.75 0 0 1 .967-.435L12 9.439l4.984-1.89a.75.75 0 1 1 .532 1.402L12.75 10.76v5.491a.75.75 0 0 1-1.5 0v-5.49L6.484 8.95a.75.75 0 0 1-.435-.967z" fill="#626262"/></g><rect x="0" y="0" width="24" height="24" fill="rgba(0, 0, 0, 0)" /></svg>