<svg xmlns="http://www.w3.org/2000/svg" xmlns:xlink="http://www.w3.org/1999/xlink" width="24" height="24" preserveAspectRatio="xMidYMid meet" viewBox="0 0 24 24" style="-ms-transform: rotate(360deg); -webkit-transform: rotate(360deg); transform: rotate(360deg);"><g fill="none"><path d="M19.248 7.504a2.752 2.752 0 1 0 0-5.504H4.75a2.752 2.752 0 0 0 0 5.504h14.498z" fill="#626262"/><path d="M17.248 14.504a2.752 2.752 0 1 0 0-5.504H6.75a2.752 2.752 0 0 0 0 5.504h10.498z" fill="#626262"/><path d="M17 18.752A2.752 2.752 0 0 0 14.248 16H9.75a2.752 2.752 0 0 0 0 5.504h4.498A2.752 2.752 0 0 0 17 18.752z" fill="#626262"/></g><rect x="0" y="0" width="24" height="24" fill="rgba(0, 0, 0, 0)" /></svg>