<svg xmlns="http://www.w3.org/2000/svg" xmlns:xlink="http://www.w3.org/1999/xlink" width="24" height="24" preserveAspectRatio="xMidYMid meet" viewBox="0 0 24 24" style="-ms-transform: rotate(360deg); -webkit-transform: rotate(360deg); transform: rotate(360deg);"><g fill="none"><path d="M15 3.51c0 .321.2.606.494.739a8.533 8.533 0 0 1 4.257 4.257a.82.82 0 0 0 .739.494c.521 0 .892-.508.684-.986a10.037 10.037 0 0 0-5.188-5.189c-.479-.208-.986.163-.986.685z" fill="#626262"/><path d="M8.014 2.825c.479-.208.986.163.986.685a.82.82 0 0 1-.494.739A8.532 8.532 0 0 0 4.25 8.506A.82.82 0 0 1 3.51 9c-.521 0-.892-.508-.684-.986a10.037 10.037 0 0 1 5.188-5.189z" fill="#626262"/><path d="M15 20.49c0-.322.2-.607.494-.74a8.533 8.533 0 0 0 4.257-4.257a.82.82 0 0 1 .739-.493c.521 0 .892.507.684.985a10.037 10.037 0 0 1-5.188 5.189c-.479.208-.986-.163-.986-.685z" fill="#626262"/><path d="M4.249 15.493A.82.82 0 0 0 3.51 15c-.521 0-.892.507-.684.985a10.037 10.037 0 0 0 5.188 5.189c.479.208.986-.163.986-.685a.82.82 0 0 0-.494-.738a8.533 8.533 0 0 1-4.257-4.258z" fill="#626262"/><path d="M12 6.5c-.193 0-.384.01-.572.029a.75.75 0 1 1-.154-1.492a7.002 7.002 0 0 1 7.552 5.406a.75.75 0 1 1-1.463.332A5.502 5.502 0 0 0 12 6.5z" fill="#626262"/><path d="M9.121 6.4a.75.75 0 0 1-.2 1.042A5.494 5.494 0 0 0 6.5 12c0 1.142.347 2.2.942 3.08a.75.75 0 1 1-1.242.84A6.97 6.97 0 0 1 5 12a6.994 6.994 0 0 1 3.08-5.8a.75.75 0 0 1 1.041.2z" fill="#626262"/><path d="M18.23 12.905c.4.107.637.519.53.919A7.003 7.003 0 0 1 8.75 18.2a.75.75 0 1 1 .697-1.328a5.503 5.503 0 0 0 7.864-3.44a.75.75 0 0 1 .92-.528z" fill="#626262"/><path d="M12 8a4 4 0 1 0 0 8a4 4 0 0 0 0-8z" fill="#626262"/></g><rect x="0" y="0" width="24" height="24" fill="rgba(0, 0, 0, 0)" /></svg>