<svg xmlns="http://www.w3.org/2000/svg" xmlns:xlink="http://www.w3.org/1999/xlink" width="24" height="24" preserveAspectRatio="xMidYMid meet" viewBox="0 0 24 24" style="-ms-transform: rotate(360deg); -webkit-transform: rotate(360deg); transform: rotate(360deg);"><g fill="none"><path d="M18.25 2.997A2.75 2.75 0 0 1 21 5.747v12.5a2.75 2.75 0 0 1-2.75 2.75H5.75A2.75 2.75 0 0 1 3 18.247v-12.5a2.75 2.75 0 0 1 2.75-2.75h12.5zM7.75 9a.748.748 0 0 0-.75.747v6.507c0 .412.336.746.75.746s.75-.334.75-.746V9.747A.748.748 0 0 0 7.75 9zm8.5-2a.74.74 0 0 0-.75.73v8.541c0 .403.336.73.75.73a.74.74 0 0 0 .75-.73V7.73a.74.74 0 0 0-.75-.73zm-4.275 4.997a.73.73 0 0 0-.725.734l.035 3.547a.73.73 0 0 0 .74.72a.73.73 0 0 0 .725-.734l-.035-3.548a.73.73 0 0 0-.74-.719z" fill="#626262"/></g><rect x="0" y="0" width="24" height="24" fill="rgba(0, 0, 0, 0)" /></svg>