<svg xmlns="http://www.w3.org/2000/svg" xmlns:xlink="http://www.w3.org/1999/xlink" width="24" height="24" preserveAspectRatio="xMidYMid meet" viewBox="0 0 24 24" style="-ms-transform: rotate(360deg); -webkit-transform: rotate(360deg); transform: rotate(360deg);"><g fill="none"><path d="M9 5.23a2.25 2.25 0 0 1 2.25-2.25h1.5A2.25 2.25 0 0 1 15 5.23V21H9V5.23z" fill="#626262"/><path d="M7.5 10H5.25A2.25 2.25 0 0 0 3 12.25v8c0 .415.336.75.75.75H7.5V10z" fill="#626262"/><path d="M16.5 21h3.75a.75.75 0 0 0 .75-.75v-11A2.25 2.25 0 0 0 18.75 7H16.5v14z" fill="#626262"/></g><rect x="0" y="0" width="24" height="24" fill="rgba(0, 0, 0, 0)" /></svg>