<svg xmlns="http://www.w3.org/2000/svg" xmlns:xlink="http://www.w3.org/1999/xlink" width="24" height="24" preserveAspectRatio="xMidYMid meet" viewBox="0 0 24 24" style="-ms-transform: rotate(360deg); -webkit-transform: rotate(360deg); transform: rotate(360deg);"><g fill="none"><path d="M10.25 4.25A.75.75 0 0 1 11 5v8h8a.75.75 0 0 1 .743.648l.007.102c0 4.97-4.03 8.5-9 8.5a9 9 0 0 1-9-9c0-4.97 3.53-9 8.5-9zm3-2.5a9 9 0 0 1 9 9a.75.75 0 0 1-.75.75h-8.25a.75.75 0 0 1-.75-.75V2.5a.75.75 0 0 1 .75-.75z" fill="#626262"/></g><rect x="0" y="0" width="24" height="24" fill="rgba(0, 0, 0, 0)" /></svg>