<svg xmlns="http://www.w3.org/2000/svg" xmlns:xlink="http://www.w3.org/1999/xlink" width="24" height="24" preserveAspectRatio="xMidYMid meet" viewBox="0 0 24 24" style="-ms-transform: rotate(360deg); -webkit-transform: rotate(360deg); transform: rotate(360deg);"><g fill="none"><path d="M21.5 6a1 1 0 0 1-.883.993L20.5 7h-.845l-1.231 12.52A2.75 2.75 0 0 1 15.687 22H8.313a2.75 2.75 0 0 1-2.737-2.48L4.345 7H3.5a1 1 0 0 1 0-2h5a3.5 3.5 0 1 1 7 0h5a1 1 0 0 1 1 1zm-7.25 3.25a.75.75 0 0 0-.743.648L13.5 10v7l.007.102a.75.75 0 0 0 1.486 0L15 17v-7l-.007-.102a.75.75 0 0 0-.743-.648zm-4.5 0a.75.75 0 0 0-.743.648L9 10v7l.007.102a.75.75 0 0 0 1.486 0L10.5 17v-7l-.007-.102a.75.75 0 0 0-.743-.648zM12 3.5A1.5 1.5 0 0 0 10.5 5h3A1.5 1.5 0 0 0 12 3.5z" fill="#626262"/></g><rect x="0" y="0" width="24" height="24" fill="rgba(0, 0, 0, 0)" /></svg>