<svg xmlns="http://www.w3.org/2000/svg" viewBox="0 0 24 24">
  <defs>
    <style>
      .beebb34c-7aab-4d84-85ca-efbcae1f0063 {
        opacity: 0;
      }

      .f05421b6-4e10-4595-8d1c-5bbb3d366b28 {
        fill: #626262;
      }
    </style>
  </defs>
  <g id="ad84b16b-2ac3-4050-a404-f5b335ca1cf4" data-name="BOX">
    <rect id="fab6dd50-790b-49b2-bed1-cf5cc8640faa" data-name="OVERLAY" class="beebb34c-7aab-4d84-85ca-efbcae1f0063" width="24" height="24"/>
  </g>
  <g id="f0e327be-03e6-412d-9095-16bdf69ccef0" data-name="Livello 10">
    <g>
      <path class="f05421b6-4e10-4595-8d1c-5bbb3d366b28" d="M9.62,17.12a6.51,6.51,0,0,1,6.51-6.5,6.44,6.44,0,0,1,3.09.78l.48-4.95h.71A.75.75,0,0,0,20.31,5H15.25V4.76A3,3,0,0,0,12,2,3,3,0,0,0,8.75,5H3.59a.75.75,0,0,0-.65.75v.1a.76.76,0,0,0,.75.65h.6l1.28,13.2,0,.18a2.65,2.65,0,0,0,2.69,2.22h3.6A6.48,6.48,0,0,1,9.62,17.12ZM10.25,4.8A1.56,1.56,0,0,1,12,3.45,1.56,1.56,0,0,1,13.75,5h-3.5Z" transform="translate(0 0)"/>
      <path class="f05421b6-4e10-4595-8d1c-5bbb3d366b28" d="M16.13,11.63a5.5,5.5,0,1,1-5.5,5.5A5.5,5.5,0,0,1,16.13,11.63Zm-2.79,2.58-.07.06-.06.07a.53.53,0,0,0,0,.57l.06.07,2.15,2.15-2.15,2.14-.06.07a.53.53,0,0,0,0,.57l.06.07.07.06a.53.53,0,0,0,.57,0L14,20l2.15-2.15L18.27,20l.07.06a.53.53,0,0,0,.57,0L19,20l.06-.07a.53.53,0,0,0,0-.57L19,19.27l-2.15-2.14L19,15l.06-.07a.53.53,0,0,0,0-.57L19,14.27l-.07-.06a.53.53,0,0,0-.57,0l-.07.06-2.14,2.15L14,14.27l-.07-.06a.51.51,0,0,0-.49,0Z" transform="translate(0 0)"/>
    </g>
  </g>
</svg>
