<svg xmlns="http://www.w3.org/2000/svg" viewBox="0 0 24 24">
  <defs>
    <style>
      .ee43a74a-0dd4-483b-a6ff-ef6dff78174d {
        opacity: 0;
      }

      .b84a899f-da83-40fb-9001-9b2e8027130d {
        fill: #626262;
      }
    </style>
  </defs>
  <g id="b0b0d1f4-df8a-44da-afbc-db003d51a298" data-name="BOX">
    <rect id="eda21bd6-f27f-49a6-a6ac-b0550621c2c2" data-name="OVERLAY" class="ee43a74a-0dd4-483b-a6ff-ef6dff78174d" width="24" height="24"/>
  </g>
  <g id="a45e4913-699c-427c-88cc-5a6929350519" data-name="Livello 9">
    <g>
      <path class="b84a899f-da83-40fb-9001-9b2e8027130d" d="M21.84,20.77l-3.21-3.21h0L14.5,13.42h0L13,11.93h0l-2-2h0L10.11,9h0L6,5H6L3.25,2.18a.75.75,0,0,0-1.11,1L3.88,5H3.59a.75.75,0,0,0-.65.75v.1a.76.76,0,0,0,.75.65h.6l1.28,13.2,0,.18a2.65,2.65,0,0,0,2.69,2.22h7.55a2.71,2.71,0,0,0,2.58-2.4l0-.15,2.33,2.34a.76.76,0,0,0,1.07-1.07ZM10.25,18.06a.74.74,0,0,1-.74-.65V10.56l1.5,1.5v5.25A.75.75,0,0,1,10.25,18.06Zm4.25-.75a.75.75,0,0,1-1.49.1V14.06l1.5,1.5Z" transform="translate(0 0)"/>
      <path class="b84a899f-da83-40fb-9001-9b2e8027130d" d="M13,9.76a.75.75,0,0,1,1.49-.1v1.63l4.32,4.31.88-9.15h.71A.75.75,0,0,0,20.31,5H15.25V4.76A3,3,0,0,0,12,2,3,3,0,0,0,8.75,5H8.16L13,9.79Zm-2.75-5A1.56,1.56,0,0,1,12,3.45,1.56,1.56,0,0,1,13.75,5h-3.5Z" transform="translate(0 0)"/>
    </g>
  </g>
</svg>
