<svg xmlns="http://www.w3.org/2000/svg" viewBox="0 0 24 24">
  <defs>
    <style>
      .a2cef71a-7b99-4444-92c5-0f44b261df09 {
        opacity: 0;
      }

      .bb283d3f-ae9c-43af-803d-6726eac03ddc {
        fill: #626262;
      }
    </style>
  </defs>
  <g id="b6290f85-f4f6-4ae5-87a3-1980c5703714" data-name="BOX">
    <rect id="e7cb3f35-f220-442e-82a4-41c1d6227816" data-name="OVERLAY" class="a2cef71a-7b99-4444-92c5-0f44b261df09" width="24" height="24"/>
  </g>
  <g id="af03f3c8-1fda-439c-b475-3653077d52af" data-name="Livello 10">
    <g>
      <path class="bb283d3f-ae9c-43af-803d-6726eac03ddc" d="M9.65,17.74a.62.62,0,0,1-.14-.33V9.76A.75.75,0,0,1,11,9.66v3.47a6.59,6.59,0,0,1,2-1.71V9.76a.75.75,0,0,1,1.49-.1v1.17a6.68,6.68,0,0,1,1.63-.21,6.44,6.44,0,0,1,3.09.78l.48-4.95h.71A.75.75,0,0,0,20.31,5H15.25V4.76A3,3,0,0,0,12,2,3,3,0,0,0,8.75,5H3.59a.75.75,0,0,0-.65.75v.1a.76.76,0,0,0,.75.65h.6l1.28,13.2,0,.18a2.65,2.65,0,0,0,2.69,2.22h3.6A6.49,6.49,0,0,1,9.65,17.74Zm.6-12.94A1.56,1.56,0,0,1,12,3.45,1.56,1.56,0,0,1,13.75,5h-3.5Z" transform="translate(0 0)"/>
      <path class="bb283d3f-ae9c-43af-803d-6726eac03ddc" d="M16.13,11.63a5.5,5.5,0,1,1-5.5,5.5A5.5,5.5,0,0,1,16.13,11.63Zm-2.79,2.58-.07.06-.06.07a.53.53,0,0,0,0,.57l.06.07,2.15,2.15-2.15,2.14-.06.07a.53.53,0,0,0,0,.57l.06.07.07.06a.53.53,0,0,0,.57,0L14,20l2.15-2.15L18.27,20l.07.06a.53.53,0,0,0,.57,0L19,20l.06-.07a.53.53,0,0,0,0-.57L19,19.27l-2.15-2.14L19,15l.06-.07a.53.53,0,0,0,0-.57L19,14.27l-.07-.06a.53.53,0,0,0-.57,0l-.07.06-2.14,2.15L14,14.27l-.07-.06a.51.51,0,0,0-.49,0Z" transform="translate(0 0)"/>
    </g>
  </g>
</svg>
