<svg xmlns="http://www.w3.org/2000/svg" viewBox="0 0 24 24">
  <defs>
    <style>
      .a180561d-0031-4a9b-9f50-3926f4a2d2e4 {
        opacity: 0;
      }

      .bb1bc611-dc26-4f15-947d-f6a20f36d133 {
        fill: #626262;
      }
    </style>
  </defs>
  <g id="b9258e76-3340-469f-a089-9bd91a41cc77" data-name="BOX">
    <rect id="baf54428-0a4c-433a-8188-3640f77231b2" data-name="OVERLAY" class="a180561d-0031-4a9b-9f50-3926f4a2d2e4" width="24" height="24"/>
  </g>
  <g id="ec838511-c871-4a15-8450-9a6cd3e76073" data-name="Livello 10">
    <path class="bb1bc611-dc26-4f15-947d-f6a20f36d133" d="M20.31,4.94H15.25V4.75A3,3,0,0,0,12,1.94a3,3,0,0,0-3.25,3H3.59a.76.76,0,0,0-.65.75v.1a.75.75,0,0,0,.74.65h.6l1.29,13.2,0,.18A2.65,2.65,0,0,0,8.29,22h7.55a2.7,2.7,0,0,0,2.58-2.39L19.7,6.44h.72a.75.75,0,0,0-.11-1.49Zm-10-.15A1.55,1.55,0,0,1,12,3.44a1.55,1.55,0,0,1,1.75,1.5h-3.5Zm0,13.26a.74.74,0,0,1-.74-.64V9.75A.75.75,0,0,1,11,9.65V17.3A.74.74,0,0,1,10.25,18.05Zm3.5,0a.74.74,0,0,1-.74-.64V9.75a.75.75,0,0,1,1.49-.1V17.3A.74.74,0,0,1,13.75,18.05Z" transform="translate(0 0)"/>
  </g>
</svg>
