<svg xmlns="http://www.w3.org/2000/svg" xmlns:xlink="http://www.w3.org/1999/xlink" width="24" height="24" preserveAspectRatio="xMidYMid meet" viewBox="0 0 24 24" style="-ms-transform: rotate(360deg); -webkit-transform: rotate(360deg); transform: rotate(360deg);"><g fill="none"><path d="M12 3a1 1 0 0 1 .993.883L13 4v16a1 1 0 0 1-1.993.117L11 20V4a1 1 0 0 1 1-1zM8 6a1 1 0 0 1 .993.883L9 7v10a1 1 0 0 1-1.993.117L7 17V7a1 1 0 0 1 1-1zm8 0a1 1 0 0 1 .993.883L17 7v10a1 1 0 0 1-1.993.117L15 17V7a1 1 0 0 1 1-1zM4 9a1 1 0 0 1 .993.883L5 10v4a1 1 0 0 1-1.993.117L3 14v-4a1 1 0 0 1 1-1zm16 0a1 1 0 0 1 .993.883L21 10v4a1 1 0 0 1-1.993.117L19 14v-4a1 1 0 0 1 1-1z" fill="#626262"/></g><rect x="0" y="0" width="24" height="24" fill="rgba(0, 0, 0, 0)" /></svg>