<svg xmlns="http://www.w3.org/2000/svg" xmlns:xlink="http://www.w3.org/1999/xlink" width="24" height="24" preserveAspectRatio="xMidYMid meet" viewBox="0 0 24 24" style="-ms-transform: rotate(360deg); -webkit-transform: rotate(360deg); transform: rotate(360deg);"><g fill="none"><path d="M3.28 2.22a.75.75 0 1 0-1.06 1.06l4.497 4.497a1.5 1.5 0 1 0 1.76 1.76l3.239 3.24a1.5 1.5 0 1 0 1.757 1.757l7.246 7.246a.75.75 0 0 0 1.061-1.06L3.28 2.22z" fill="#626262"/><path d="M18.496 14.25c0 .303-.09.585-.244.82l-2.076-2.076a1.5 1.5 0 0 1 2.32 1.256z" fill="#626262"/><path d="M13.5 9.25c0 .304-.09.586-.245.823l-2.078-2.078A1.5 1.5 0 0 1 13.5 9.25z" fill="#626262"/><path d="M8.504 4.25c0 .305-.09.588-.247.825L6.179 2.997A1.5 1.5 0 0 1 8.504 4.25z" fill="#626262"/><path d="M12 17.75a1.5 1.5 0 1 1 0 3a1.5 1.5 0 0 1 0-3z" fill="#626262"/><path d="M7.004 12.75a1.5 1.5 0 1 1 0 3a1.5 1.5 0 0 1 0-3z" fill="#626262"/><path d="M16.996 7.75a1.5 1.5 0 1 1 0 3a1.5 1.5 0 0 1 0-3z" fill="#626262"/><path d="M12 2.75a1.5 1.5 0 1 1 0 3a1.5 1.5 0 0 1 0-3z" fill="#626262"/><path d="M16.996 2.75a1.5 1.5 0 1 1 0 3a1.5 1.5 0 0 1 0-3z" fill="#626262"/></g><rect x="0" y="0" width="24" height="24" fill="rgba(0, 0, 0, 0)" /></svg>