<svg xmlns="http://www.w3.org/2000/svg" xmlns:xlink="http://www.w3.org/1999/xlink" width="24" height="24" preserveAspectRatio="xMidYMid meet" viewBox="0 0 24 24" style="-ms-transform: rotate(360deg); -webkit-transform: rotate(360deg); transform: rotate(360deg);"><g fill="none"><path d="M14.298 2.984l6.718 6.718a3.25 3.25 0 0 1 0 4.596l-6.718 6.717a3.25 3.25 0 0 1-4.596 0l-6.718-6.717a3.25 3.25 0 0 1 0-4.596l6.718-6.718a3.25 3.25 0 0 1 4.596 0zm-.707 4.236l-.084-.073a.75.75 0 0 0-.883-.007l-.094.08l-.072.084a.75.75 0 0 0-.008.883l.08.094l.719.718H11.75l-.168.006a2.75 2.75 0 0 0-2.577 2.57L9 11.75V15l.007.101a.75.75 0 0 0 1.486 0L10.5 15v-3.25l.006-.128a1.25 1.25 0 0 1 1.116-1.116l.128-.006h1.5l-.72.72l-.072.084a.75.75 0 0 0 1.049 1.05l.084-.073l2-2l.073-.084a.75.75 0 0 0 .007-.883l-.08-.094l-2-2l-.084-.073l.084.073z" fill="#626262"/></g><rect x="0" y="0" width="24" height="24" fill="rgba(0, 0, 0, 0)" /></svg>