<svg xmlns="http://www.w3.org/2000/svg" xmlns:xlink="http://www.w3.org/1999/xlink" width="24" height="24" preserveAspectRatio="xMidYMid meet" viewBox="0 0 24 24" style="-ms-transform: rotate(360deg); -webkit-transform: rotate(360deg); transform: rotate(360deg);"><g fill="none"><path d="M4.21 4.387l.083-.094a1 1 0 0 1 1.32-.083l.094.083L12 10.585l6.293-6.292a1 1 0 1 1 1.414 1.414L13.415 12l6.292 6.293a1 1 0 0 1 .083 1.32l-.083.094a1 1 0 0 1-1.32.083l-.094-.083L12 13.415l-6.293 6.292a1 1 0 0 1-1.414-1.414L10.585 12L4.293 5.707a1 1 0 0 1-.083-1.32l.083-.094l-.083.094z" fill="#626262"/></g><rect x="0" y="0" width="24" height="24" fill="rgba(0, 0, 0, 0)" /></svg>