<svg xmlns="http://www.w3.org/2000/svg" xmlns:xlink="http://www.w3.org/1999/xlink" width="24" height="24" preserveAspectRatio="xMidYMid meet" viewBox="0 0 24 24" style="-ms-transform: rotate(360deg); -webkit-transform: rotate(360deg); transform: rotate(360deg);"><g fill="none"><path d="M12 2v6a2 2 0 0 0 2 2h6v10.5a1.5 1.5 0 0 1-1.5 1.5H13v-8a2 2 0 0 0-2-2H4V3.5A1.5 1.5 0 0 1 5.5 2H12z" fill="#626262"/><path d="M13.5 2.5V8a.5.5 0 0 0 .5.5h5.5l-6-6z" fill="#626262"/><path d="M7.25 17.5a.75.75 0 0 0-1.5 0V21a.75.75 0 0 0 1.5 0v-3.5z" fill="#626262"/><path d="M7.25 15.25a.75.75 0 1 1-1.5 0a.75.75 0 0 1 1.5 0z" fill="#626262"/><path d="M4.5 13.75a.75.75 0 0 1-.75.75H2.5v7h1.25a.75.75 0 0 1 0 1.5H2.5A1.5 1.5 0 0 1 1 21.5v-7A1.5 1.5 0 0 1 2.5 13h1.25a.75.75 0 0 1 .75.75z" fill="#626262"/><path d="M9.25 14.5a.75.75 0 0 1 0-1.5h1.25a1.5 1.5 0 0 1 1.5 1.5v7a1.5 1.5 0 0 1-1.5 1.5H9.25a.75.75 0 0 1 0-1.5h1.25v-7H9.25z" fill="#626262"/></g><rect x="0" y="0" width="24" height="24" fill="rgba(0, 0, 0, 0)" /></svg>