<svg xmlns="http://www.w3.org/2000/svg" xmlns:xlink="http://www.w3.org/1999/xlink" width="24" height="24" preserveAspectRatio="xMidYMid meet" viewBox="0 0 24 24" style="-ms-transform: rotate(360deg); -webkit-transform: rotate(360deg); transform: rotate(360deg);"><g fill="none"><path d="M2 6.75A2.75 2.75 0 0 1 4.75 4h14.5A2.75 2.75 0 0 1 22 6.75v10.5A2.75 2.75 0 0 1 19.25 20H4.75A2.75 2.75 0 0 1 2 17.25V6.75zM12 7a2 2 0 0 0-2 2v6a2 2 0 1 0 4 0V9a2 2 0 0 0-2-2zm-5 5a2 2 0 0 0-2 2v1a2 2 0 1 0 4 0v-1a2 2 0 0 0-2-2zm8 0v3a2 2 0 1 0 4 0v-3a2 2 0 1 0-4 0z" fill="#626262"/></g><rect x="0" y="0" width="24" height="24" fill="rgba(0, 0, 0, 0)" /></svg>