<svg xmlns="http://www.w3.org/2000/svg" xmlns:xlink="http://www.w3.org/1999/xlink" width="24" height="24" preserveAspectRatio="xMidYMid meet" viewBox="0 0 24 24" style="-ms-transform: rotate(360deg); -webkit-transform: rotate(360deg); transform: rotate(360deg);"><g fill="none"><path d="M13 6.75V2H8.75A2.25 2.25 0 0 0 6.5 4.25v13a2.25 2.25 0 0 0 2.25 2.25h9A2.25 2.25 0 0 0 20 17.25V9h-4.75A2.25 2.25 0 0 1 13 6.75z" fill="#626262"/><path d="M14.5 6.75V2.5l5 5h-4.25a.75.75 0 0 1-.75-.75z" fill="#626262"/><path d="M5.503 4.627A2.251 2.251 0 0 0 4 6.75v10.504a4.75 4.75 0 0 0 4.75 4.75h6.494c.98 0 1.813-.626 2.122-1.5H8.75a3.25 3.25 0 0 1-3.25-3.25l.003-12.627z" fill="#626262"/></g><rect x="0" y="0" width="24" height="24" fill="rgba(0, 0, 0, 0)" /></svg>