<svg xmlns="http://www.w3.org/2000/svg" xmlns:xlink="http://www.w3.org/1999/xlink" width="24" height="24" preserveAspectRatio="xMidYMid meet" viewBox="0 0 24 24" style="-ms-transform: rotate(360deg); -webkit-transform: rotate(360deg); transform: rotate(360deg);"><g fill="none"><path d="M13 8V2H7a2 2 0 0 0-2 2v5.303a6 6 0 0 1 8.207 8.18l3.53 3.53c.278.277.443.626.495.987H19a2 2 0 0 0 2-2V10h-6a2 2 0 0 1-2-2z" fill="#626262"/><path d="M14.97 22.78a.75.75 0 1 0 1.06-1.06l-4.112-4.113A4.978 4.978 0 0 0 13 14.5a4.984 4.984 0 0 0-1.43-3.5A4.985 4.985 0 0 0 8 9.5a4.978 4.978 0 0 0-3 1a5 5 0 0 0 5.82 8.13l4.15 4.15zM8 11a3.5 3.5 0 1 1 0 7a3.5 3.5 0 0 1 0-7z" fill="#626262"/><path d="M14.5 8V2.5l6 6H15a.5.5 0 0 1-.5-.5z" fill="#626262"/></g><rect x="0" y="0" width="24" height="24" fill="rgba(0, 0, 0, 0)" /></svg>