<svg xmlns="http://www.w3.org/2000/svg" xmlns:xlink="http://www.w3.org/1999/xlink" width="24" height="24" preserveAspectRatio="xMidYMid meet" viewBox="0 0 24 24" style="-ms-transform: rotate(360deg); -webkit-transform: rotate(360deg); transform: rotate(360deg);"><g fill="none"><path d="M12 2v6a2 2 0 0 0 2 2h6v10.5a1.5 1.5 0 0 1-1.5 1.5H13v-5.002A1.999 1.999 0 0 0 11 15h-1v-1a2 2 0 0 0-2-2H5a1.99 1.99 0 0 0-1 .268V3.5A1.5 1.5 0 0 1 5.5 2H12z" fill="#626262"/><path d="M13.5 2.5V8a.5.5 0 0 0 .5.5h5.5l-6-6z" fill="#626262"/><path d="M4 16v-1.5A1.5 1.5 0 0 1 5.5 13h2A1.5 1.5 0 0 1 9 14.5V16h1.5a1.5 1.5 0 0 1 1.5 1.5V19H9v-.5a.5.5 0 0 0-1 0v.5H5v-.5a.5.5 0 0 0-1 0v.5H1v-1.5A1.5 1.5 0 0 1 2.5 16H4zm1-1.5V16h3v-1.5a.5.5 0 0 0-.5-.5h-2a.5.5 0 0 0-.5.5z" fill="#626262"/><path d="M9 20h3v1.5a1.5 1.5 0 0 1-1.5 1.5h-8A1.5 1.5 0 0 1 1 21.5V20h3v.5a.5.5 0 0 0 1 0V20h3v.5a.5.5 0 0 0 1 0V20z" fill="#626262"/></g><rect x="0" y="0" width="24" height="24" fill="rgba(0, 0, 0, 0)" /></svg>