<svg xmlns="http://www.w3.org/2000/svg" xmlns:xlink="http://www.w3.org/1999/xlink" width="24" height="24" preserveAspectRatio="xMidYMid meet" viewBox="0 0 24 24" style="-ms-transform: rotate(360deg); -webkit-transform: rotate(360deg); transform: rotate(360deg);"><g fill="none"><path d="M8.75 6.5a.25.25 0 0 0-.25.25v1.5c0 .138.112.25.25.25h6.5a.25.25 0 0 0 .25-.25v-1.5a.25.25 0 0 0-.25-.25h-6.5z" fill="#626262"/><path d="M8.5 15.75a.25.25 0 0 1 .25-.25h6.5a.25.25 0 0 1 .25.25v1.5a.25.25 0 0 1-.25.25h-6.5a.25.25 0 0 1-.25-.25v-1.5z" fill="#626262"/><path d="M17.745 1.996a2.25 2.25 0 0 1 2.245 2.096l.005.154v15.498a2.25 2.25 0 0 1-2.096 2.245l-.154.005h-11.5A2.25 2.25 0 0 1 4 19.898l-.005-.154V4.246a2.25 2.25 0 0 1 2.096-2.245l.154-.005h11.5zM7 6.75v1.5C7 9.217 7.784 10 8.75 10h6.5A1.75 1.75 0 0 0 17 8.25v-1.5A1.75 1.75 0 0 0 15.25 5h-6.5A1.75 1.75 0 0 0 7 6.75zM8.75 14A1.75 1.75 0 0 0 7 15.75v1.5c0 .967.784 1.75 1.75 1.75h6.5A1.75 1.75 0 0 0 17 17.25v-1.5A1.75 1.75 0 0 0 15.25 14h-6.5z" fill="#626262"/></g><rect x="0" y="0" width="24" height="24" fill="rgba(0, 0, 0, 0)" /></svg>