<svg xmlns="http://www.w3.org/2000/svg" xmlns:xlink="http://www.w3.org/1999/xlink" width="24" height="24" preserveAspectRatio="xMidYMid meet" viewBox="0 0 24 24" style="-ms-transform: rotate(360deg); -webkit-transform: rotate(360deg); transform: rotate(360deg);"><g fill="none"><path d="M12 2v6a2 2 0 0 0 2 2h6v10a2 2 0 0 1-2 2h-6.81A6.5 6.5 0 0 0 4 11.498V4a2 2 0 0 1 2-2h6z" fill="#626262"/><path d="M13.5 2.5V8a.5.5 0 0 0 .5.5h5.5l-6-6z" fill="#626262"/><path d="M6.5 12a5.5 5.5 0 1 0 0 11a5.5 5.5 0 0 0 0-11zm2.478 3.731l-1.77 1.77l1.77 1.769a.5.5 0 1 1-.707.707l-1.77-1.77l-1.769 1.768a.5.5 0 1 1-.707-.708L5.794 17.5L4.025 15.73a.5.5 0 1 1 .707-.707l1.77 1.769l1.77-1.769a.5.5 0 0 1 .706.707z" fill="#626262"/></g><rect x="0" y="0" width="24" height="24" fill="rgba(0, 0, 0, 0)" /></svg>