<svg xmlns="http://www.w3.org/2000/svg" xmlns:xlink="http://www.w3.org/1999/xlink" width="24" height="24" preserveAspectRatio="xMidYMid meet" viewBox="0 0 24 24" style="-ms-transform: rotate(360deg); -webkit-transform: rotate(360deg); transform: rotate(360deg);"><g fill="none"><path d="M2.5 12a.75.75 0 0 1 .75-.75h1.5a.75.75 0 0 1 0 1.5h-1.5A.75.75 0 0 1 2.5 12z" fill="#626262"/><path d="M6.5 12a.75.75 0 0 1 .75-.75h1.5a.75.75 0 0 1 0 1.5h-1.5A.75.75 0 0 1 6.5 12z" fill="#626262"/><path d="M10.5 12a.75.75 0 0 1 .75-.75h1.5a.75.75 0 0 1 0 1.5h-1.5a.75.75 0 0 1-.75-.75z" fill="#626262"/><path d="M14.5 12a.75.75 0 0 1 .75-.75h1.5a.75.75 0 0 1 0 1.5h-1.5a.75.75 0 0 1-.75-.75z" fill="#626262"/><path d="M18.5 12a.75.75 0 0 1 .75-.75h1.5a.75.75 0 0 1 0 1.5h-1.5a.75.75 0 0 1-.75-.75z" fill="#626262"/><path d="M5 2a1 1 0 0 0-1 1v4a2 2 0 0 0 2 2h12a2 2 0 0 0 2-2V3a1 1 0 0 0-1-1H5z" fill="#626262"/><path d="M19 22a1 1 0 0 0 1-1v-4a2 2 0 0 0-2-2H6a2 2 0 0 0-2 2v4a1 1 0 0 0 1 1h14z" fill="#626262"/></g><rect x="0" y="0" width="24" height="24" fill="rgba(0, 0, 0, 0)" /></svg>