<svg xmlns="http://www.w3.org/2000/svg" xmlns:xlink="http://www.w3.org/1999/xlink" width="24" height="24" preserveAspectRatio="xMidYMid meet" viewBox="0 0 24 24" style="-ms-transform: rotate(360deg); -webkit-transform: rotate(360deg); transform: rotate(360deg);"><g fill="none"><path d="M12 2v6a2 2 0 0 0 2 2h6v10a2 2 0 0 1-2 2h-6.81A6.5 6.5 0 0 0 4 11.498V4a2 2 0 0 1 2-2h6z" fill="#626262"/><path d="M13.5 2.5V8a.5.5 0 0 0 .5.5h5.5l-6-6z" fill="#626262"/><path d="M12 17.5a5.5 5.5 0 1 0-11 0a5.5 5.5 0 0 0 11 0zm-5.502-3.123a3.116 3.116 0 0 1 2.566 1.342a.5.5 0 0 1-.82.57a2.117 2.117 0 0 0-1.745-.913c-.805 0-1.516.45-1.876 1.124h.878a.5.5 0 1 1 0 1H3.966a.51.51 0 0 1-.088 0H3.5A.5.5 0 0 1 3 17v-2a.5.5 0 1 1 1 0v.623a3.124 3.124 0 0 1 2.498-1.246zM9 19.37a3.124 3.124 0 0 1-5.062-.08a.5.5 0 1 1 .819-.575a2.117 2.117 0 0 0 1.741.907c.803 0 1.514-.45 1.874-1.123H7.5a.5.5 0 0 1 0-1h2a.5.5 0 0 1 .5.5v2a.5.5 0 0 1-1 0v-.63z" fill="#626262"/></g><rect x="0" y="0" width="24" height="24" fill="rgba(0, 0, 0, 0)" /></svg>