<svg xmlns="http://www.w3.org/2000/svg" xmlns:xlink="http://www.w3.org/1999/xlink" width="24" height="24" preserveAspectRatio="xMidYMid meet" viewBox="0 0 24 24" style="-ms-transform: rotate(360deg); -webkit-transform: rotate(360deg); transform: rotate(360deg);"><g fill="none"><path d="M12 2v6a2 2 0 0 0 2 2h6v10a2 2 0 0 1-2 2h-6.81A6.5 6.5 0 0 0 4 11.498V4a2 2 0 0 1 2-2h6z" fill="#626262"/><path d="M13.5 2.5V8a.5.5 0 0 0 .5.5h5.5l-6-6z" fill="#626262"/><path d="M12 17.5a5.5 5.5 0 1 1-11 0a5.5 5.5 0 0 1 11 0zM6.5 14a.5.5 0 0 0-.5.5v4a.5.5 0 0 0 1 0v-4a.5.5 0 0 0-.5-.5zm0 7.125a.625.625 0 1 0 0-1.25a.625.625 0 0 0 0 1.25z" fill="#626262"/></g><rect x="0" y="0" width="24" height="24" fill="rgba(0, 0, 0, 0)" /></svg>