<svg xmlns="http://www.w3.org/2000/svg" xmlns:xlink="http://www.w3.org/1999/xlink" width="24" height="24" preserveAspectRatio="xMidYMid meet" viewBox="0 0 24 24" style="-ms-transform: rotate(360deg); -webkit-transform: rotate(360deg); transform: rotate(360deg);"><g fill="none"><path d="M8.5 15.75a.25.25 0 0 1 .25-.25h6.5a.25.25 0 0 1 .25.25v1.5a.25.25 0 0 1-.25.25h-6.5a.25.25 0 0 1-.25-.25v-1.5z" fill="#626262"/><path d="M19.99 4.092a2.25 2.25 0 0 0-2.245-2.096h-11.5l-.154.005a2.25 2.25 0 0 0-2.096 2.245v15.498l.005.154a2.25 2.25 0 0 0 2.245 2.096h11.5l.154-.005a2.25 2.25 0 0 0 2.095-2.245V4.246l-.005-.154zM8.75 14h6.5c.966 0 1.75.784 1.75 1.75v1.5A1.75 1.75 0 0 1 15.25 19h-6.5A1.75 1.75 0 0 1 7 17.25v-1.5c0-.966.783-1.75 1.75-1.75z" fill="#626262"/></g><rect x="0" y="0" width="24" height="24" fill="rgba(0, 0, 0, 0)" /></svg>