<svg xmlns="http://www.w3.org/2000/svg" xmlns:xlink="http://www.w3.org/1999/xlink" width="24" height="24" preserveAspectRatio="xMidYMid meet" viewBox="0 0 24 24" style="-ms-transform: rotate(360deg); -webkit-transform: rotate(360deg); transform: rotate(360deg);"><g fill="none"><path d="M12 6.5c-.49 0-.924.232-1.201.601A2.25 2.25 0 0 1 7.2 4.398A6 6 0 0 1 18 8v12a2 2 0 0 1-2 2H8a2 2 0 0 1-2-2v-8.5a2 2 0 0 1 2-2h4a1.5 1.5 0 0 0 0-3zm-2.25 11a.75.75 0 0 0 0 1.5h4.5a.75.75 0 0 0 0-1.5h-4.5z" fill="#626262"/></g><rect x="0" y="0" width="24" height="24" fill="rgba(0, 0, 0, 0)" /></svg>