<svg xmlns="http://www.w3.org/2000/svg" xmlns:xlink="http://www.w3.org/1999/xlink" width="24" height="24" preserveAspectRatio="xMidYMid meet" viewBox="0 0 24 24" style="-ms-transform: rotate(360deg); -webkit-transform: rotate(360deg); transform: rotate(360deg);"><g fill="none"><path d="M6.75 6a1 1 0 0 1 1 1v11.585l1.293-1.292a1 1 0 0 1 1.32-.083l.094.083a1 1 0 0 1 .083 1.32l-.083.094l-3 3a1 1 0 0 1-1.32.083l-.094-.083l-3-3a1 1 0 0 1 1.32-1.497l.094.083l1.293 1.292V7a1 1 0 0 1 1-1zm10.498 0a1 1 0 0 1 1 1v11.584l1.293-1.291a1 1 0 0 1 1.32-.083l.094.083a1 1 0 0 1 .083 1.32l-.083.094l-3 3a1 1 0 0 1-1.32.083l-.094-.083l-3-3a1 1 0 0 1 1.32-1.497l.094.083l1.293 1.293V7a1 1 0 0 1 1-1zM6.75 2a4.75 4.75 0 0 1 2 9.06l.001-1.749a3.25 3.25 0 1 0-4.001 0v1.749a4.75 4.75 0 0 1 2-9.06zm10.498 0a4.75 4.75 0 0 1 2 9.06V9.31a3.25 3.25 0 1 0-4.001 0l.001 1.749a4.75 4.75 0 0 1 2-9.06z" fill="#626262"/></g><rect x="0" y="0" width="24" height="24" fill="rgba(0, 0, 0, 0)" /></svg>