<svg xmlns="http://www.w3.org/2000/svg" xmlns:xlink="http://www.w3.org/1999/xlink" width="24" height="24" preserveAspectRatio="xMidYMid meet" viewBox="0 0 24 24" style="-ms-transform: rotate(360deg); -webkit-transform: rotate(360deg); transform: rotate(360deg);"><g fill="none"><path d="M13.939 5L19 10.06L9.062 20a2.25 2.25 0 0 1-1 .58l-5.115 1.395a.75.75 0 0 1-.92-.921l1.394-5.116a2.25 2.25 0 0 1 .58-.999L13.94 5zm-7.414 6l-1.5 1.5H2.75a.75.75 0 0 1 0-1.5h3.775zm14.352-8.174l.153.144l.145.153a3.579 3.579 0 0 1-.145 4.908L20.06 9l-5.061-5.06l.97-.97a3.579 3.579 0 0 1 4.908-.144zM10.525 7l-1.5 1.5H2.75a.75.75 0 1 1 0-1.5h7.775zm4-4l-1.5 1.5H2.75a.75.75 0 1 1 0-1.5h11.775z" fill="#626262"/></g><rect x="0" y="0" width="24" height="24" fill="rgba(0, 0, 0, 0)" /></svg>