<svg xmlns="http://www.w3.org/2000/svg" xmlns:xlink="http://www.w3.org/1999/xlink" width="24" height="24" preserveAspectRatio="xMidYMid meet" viewBox="0 0 24 24" style="-ms-transform: rotate(360deg); -webkit-transform: rotate(360deg); transform: rotate(360deg);"><g fill="none"><path d="M15.72 2.22a.75.75 0 0 1 1.06 1.06L15.56 4.5h2.19c.317 0 .6.2.706.498l1.25 3.5A.75.75 0 0 1 19 9.5h-1.044l-1.588 10.05c-.21 1.465-1.459 2.45-2.97 2.45h-2.796c-1.51 0-2.76-.985-2.968-2.44L6.044 9.5H5a.75.75 0 0 1-.706-1.002l1.25-3.5A.75.75 0 0 1 6.25 4.5h7.188l2.282-2.28zM17.222 6H6.779l-.715 2h11.872l-.714-2z" fill="#626262"/></g><rect x="0" y="0" width="24" height="24" fill="rgba(0, 0, 0, 0)" /></svg>