<svg xmlns="http://www.w3.org/2000/svg" xmlns:xlink="http://www.w3.org/1999/xlink" width="24" height="24" preserveAspectRatio="xMidYMid meet" viewBox="0 0 24 24" style="-ms-transform: rotate(360deg); -webkit-transform: rotate(360deg); transform: rotate(360deg);"><g fill="none"><path d="M21.996 9.972V20.25a1.75 1.75 0 0 1-1.75 1.75h-7.248c-.087 0-.172-.006-.256-.019V11.805A6.47 6.47 0 0 0 16.5 13a6.495 6.495 0 0 0 5.496-3.028zm-11.977-3.97a6.47 6.47 0 0 0 1.224 4.321v11.656a1.77 1.77 0 0 1-.245.017H3.75A1.75 1.75 0 0 1 2 20.246V7.751c0-.966.784-1.75 1.75-1.75h6.269zM9.243 17.5H7.74l-.102.007a.75.75 0 0 0 0 1.486l.102.007h1.502l.102-.007a.75.75 0 0 0 0-1.486l-.102-.007zm6.996 0h-1.5l-.102.007a.75.75 0 0 0 0 1.486l.102.007h1.5l.101-.007a.75.75 0 0 0 0-1.486l-.101-.007zM16.5 1c.293 0 .58.025.86.072l.174.716a2 2 0 0 0 2.413 1.475l.098-.026l.601-.179c.363.467.653.997.854 1.57l-.447.43a2 2 0 0 0-.17 2.7l.142.156l.475.457c-.2.574-.49 1.103-.853 1.57l-.602-.178a2 2 0 0 0-2.485 1.351l-.026.098l-.173.716a5.178 5.178 0 0 1-1.723 0l-.172-.716a2 2 0 0 0-2.413-1.475l-.098.026l-.602.178a5.545 5.545 0 0 1-.853-1.57l.447-.43a2 2 0 0 0 .17-2.698l-.142-.157l-.475-.457c.2-.574.49-1.103.853-1.57l.602.178a2 2 0 0 0 2.485-1.351l.026-.098l.172-.716c.28-.047.569-.072.862-.072zm0 4c-.8 0-1.45.672-1.45 1.5S15.7 8 16.5 8c.8 0 1.45-.672 1.45-1.5S17.3 5 16.5 5z" fill="#626262"/></g><rect x="0" y="0" width="24" height="24" fill="rgba(0, 0, 0, 0)" /></svg>