<svg xmlns="http://www.w3.org/2000/svg" xmlns:xlink="http://www.w3.org/1999/xlink" width="24" height="24" preserveAspectRatio="xMidYMid meet" viewBox="0 0 24 24" style="-ms-transform: rotate(360deg); -webkit-transform: rotate(360deg); transform: rotate(360deg);"><g fill="none"><path d="M20.252 4.003c.966 0 1.75.784 1.75 1.75v12.495a1.75 1.75 0 0 1-1.75 1.75h-7.248c-.086 0-.172-.006-.255-.018V4.022c.083-.012.169-.019.255-.019h7.248zm-2.081 5.411a.75.75 0 0 0-1.342 0l-2.25 4.5a.75.75 0 0 0 .67 1.086h4.5a.75.75 0 0 0 .672-1.086l-2.25-4.5z" fill="#626262"/><path d="M11.004 4.001c.084 0 .166.006.246.017V19.98c-.08.011-.162.017-.246.017H3.757a1.75 1.75 0 0 1-1.75-1.75V5.751c0-.967.783-1.75 1.75-1.75h7.247zM7.171 9.414a.75.75 0 0 0-1.342 0l-2.25 4.5A.75.75 0 0 0 4.249 15h4.5a.75.75 0 0 0 .672-1.086l-2.25-4.5z" fill="#626262"/></g><rect x="0" y="0" width="24" height="24" fill="rgba(0, 0, 0, 0)" /></svg>