<svg xmlns="http://www.w3.org/2000/svg" xmlns:xlink="http://www.w3.org/1999/xlink" width="24" height="24" preserveAspectRatio="xMidYMid meet" viewBox="0 0 24 24" style="-ms-transform: rotate(360deg); -webkit-transform: rotate(360deg); transform: rotate(360deg);"><g fill="none"><path d="M21.996 9.972V20.25a1.75 1.75 0 0 1-1.75 1.75h-7.248c-.087 0-.172-.006-.256-.019V11.805A6.47 6.47 0 0 0 16.5 13a6.495 6.495 0 0 0 5.496-3.028zm-11.977-3.97a6.47 6.47 0 0 0 1.224 4.321v11.656a1.77 1.77 0 0 1-.245.017H3.75A1.75 1.75 0 0 1 2 20.246V7.751c0-.966.784-1.75 1.75-1.75h6.269zM9.243 17.5H7.74l-.102.007a.75.75 0 0 0 0 1.486l.102.007h1.502l.102-.007a.75.75 0 0 0 0-1.486l-.102-.007zm6.996 0h-1.5l-.102.007a.75.75 0 0 0 0 1.486l.102.007h1.5l.101-.007a.75.75 0 0 0 0-1.486l-.101-.007zM16.505 1a5.5 5.5 0 1 1 0 11a5.5 5.5 0 0 1 0-11zm0 1.998a1.75 1.75 0 0 0-1.726 1.459l-.018.148l-.006.143v.782l-.116.037c-.3.118-.529.376-.606.694l-.022.122l-.006.115v2.5l.006.117a1 1 0 0 0 .764.857l.113.02l.117.006h3l.116-.007a1 1 0 0 0 .857-.764l.02-.112l.007-.117v-2.5l-.008-.126a1 1 0 0 0-.527-.76l-.11-.049l-.105-.033v-.782l-.006-.143a1.75 1.75 0 0 0-1.744-1.607zm0 1a.75.75 0 0 1 .723.55l.02.098l.007.102v.75h-1.5v-.75l.006-.102a.75.75 0 0 1 .744-.648z" fill="#626262"/></g><rect x="0" y="0" width="24" height="24" fill="rgba(0, 0, 0, 0)" /></svg>