<svg xmlns="http://www.w3.org/2000/svg" xmlns:xlink="http://www.w3.org/1999/xlink" width="24" height="24" preserveAspectRatio="xMidYMid meet" viewBox="0 0 24 24" style="-ms-transform: rotate(360deg); -webkit-transform: rotate(360deg); transform: rotate(360deg);"><g fill="none"><path d="M11.5 5.999v13L7.25 19a1.75 1.75 0 0 1-1.745-1.606l-.006-.144v-9.5a1.75 1.75 0 0 1 1.607-1.744L7.249 6l4.25-.001zM16.75 6a1.75 1.75 0 0 1 1.745 1.606l.006.144v9.5a1.75 1.75 0 0 1-1.607 1.744l-.143.006l-4.252-.001v-13L16.751 6zm-1.5 9.5h-1l-.102.007a.75.75 0 0 0 0 1.486l.102.007h1l.102-.007a.75.75 0 0 0-.102-1.493zm-5.5 0h-1l-.102.007a.75.75 0 0 0 0 1.486L8.75 17h1l.101-.007A.75.75 0 0 0 9.75 15.5zm11.366-7.461l.06.09l.045.093l.582 1.456a2.75 2.75 0 0 1-.244 2.514l-.109.157l-.151.202a1.25 1.25 0 0 0-.207 1.077l.046.137l.583 1.457a.75.75 0 0 1-1.349.649l-.044-.092l-.583-1.457a2.75 2.75 0 0 1 .244-2.514l.11-.157l.151-.202a1.25 1.25 0 0 0 .206-1.077l-.045-.137l-.583-1.456a.75.75 0 0 1 1.288-.74zm-17.549 0l.06.09l.045.093l.583 1.456a2.75 2.75 0 0 1-.244 2.514l-.11.157l-.151.202a1.25 1.25 0 0 0-.206 1.077l.045.137l.583 1.457a.75.75 0 0 1-1.349.649l-.044-.092l-.582-1.457a2.75 2.75 0 0 1 .244-2.514l.109-.157l.151-.202a1.25 1.25 0 0 0 .207-1.077l-.046-.137l-.583-1.456a.75.75 0 0 1 1.288-.74z" fill="#626262"/></g><rect x="0" y="0" width="24" height="24" fill="rgba(0, 0, 0, 0)" /></svg>