<svg xmlns="http://www.w3.org/2000/svg" xmlns:xlink="http://www.w3.org/1999/xlink" width="24" height="24" preserveAspectRatio="xMidYMid meet" viewBox="0 0 24 24" style="-ms-transform: rotate(360deg); -webkit-transform: rotate(360deg); transform: rotate(360deg);"><g fill="none"><path d="M14 15.061l6.72 6.72a.75.75 0 0 0 1.06-1.06L3.28 2.22a.75.75 0 1 0-1.06 1.06L8.94 10L4 14.938a2.25 2.25 0 0 0-.58 1l-1.394 5.115a.75.75 0 0 0 .92.92l5.116-1.394a2.25 2.25 0 0 0 1-.58L14 15.061z" fill="#626262"/><path d="M19 10.06l-2.88 2.88l-5.06-5.06L13.94 5L19 10.06z" fill="#626262"/><path d="M21.03 2.97a3.578 3.578 0 0 1 0 5.06l-.97.97L15 3.94l.97-.97a3.578 3.578 0 0 1 5.06 0z" fill="#626262"/></g><rect x="0" y="0" width="24" height="24" fill="rgba(0, 0, 0, 0)" /></svg>