<svg xmlns="http://www.w3.org/2000/svg" xmlns:xlink="http://www.w3.org/1999/xlink" width="24" height="24" preserveAspectRatio="xMidYMid meet" viewBox="0 0 24 24" style="-ms-transform: rotate(360deg); -webkit-transform: rotate(360deg); transform: rotate(360deg);"><g fill="none"><path d="M12 1.999c5.524 0 10.002 4.478 10.002 10.002c0 5.523-4.478 10.001-10.002 10.001c-5.524 0-10.002-4.478-10.002-10.001C1.998 6.477 6.476 1.999 12 1.999zM8.462 14.784a.75.75 0 1 0-1.178.928A5.991 5.991 0 0 0 12 18.002c1.86 0 3.581-.852 4.712-2.284a.75.75 0 0 0-1.177-.93A4.492 4.492 0 0 1 12 16.502c-1.398 0-2.69-.64-3.538-1.718zM9 8.75a1.25 1.25 0 1 0 0 2.499A1.25 1.25 0 0 0 9 8.75zm6 0a1.25 1.25 0 1 0 0 2.499a1.25 1.25 0 0 0 0-2.499z" fill="#626262"/></g><rect x="0" y="0" width="24" height="24" fill="rgba(0, 0, 0, 0)" /></svg>