<svg xmlns="http://www.w3.org/2000/svg" xmlns:xlink="http://www.w3.org/1999/xlink" width="24" height="24" preserveAspectRatio="xMidYMid meet" viewBox="0 0 24 24" style="-ms-transform: rotate(360deg); -webkit-transform: rotate(360deg); transform: rotate(360deg);"><g fill="none"><path d="M12.651 2.638a2.25 2.25 0 0 1 3.19.023l4.91 5.008a2.25 2.25 0 0 1-.007 3.158l-.687.695a6.5 6.5 0 0 0-9.043 5.552l-5.377-5.376l-1.529 1.514a.75.75 0 0 0 .003 1.068l5.099 5.008a.75.75 0 0 0 1.058-.008l.804-.812c.086.579.249 1.132.477 1.65l-.214.217a2.25 2.25 0 0 1-3.176.023l-5.1-5.008a2.25 2.25 0 0 1-.006-3.204l9.598-9.508z" fill="#626262"/><path d="M17.5 12a5.495 5.495 0 0 1 5.5 5.5a5.5 5.5 0 1 1-5.5-5.5z" fill="#626262"/></g><rect x="0" y="0" width="24" height="24" fill="rgba(0, 0, 0, 0)" /></svg>