<svg xmlns="http://www.w3.org/2000/svg" xmlns:xlink="http://www.w3.org/1999/xlink" width="24" height="24" preserveAspectRatio="xMidYMid meet" viewBox="0 0 24 24" style="-ms-transform: rotate(360deg); -webkit-transform: rotate(360deg); transform: rotate(360deg);"><g fill="none"><path d="M20 2.25a.75.75 0 0 1 .743.648L20.75 3v14a4.75 4.75 0 0 1-4.533 4.745L16 21.75H8a4.75 4.75 0 0 1-4.745-4.533L3.25 17V3.502A.75.75 0 0 1 4.743 3.4l.007.102V6.79h14.5V3a.75.75 0 0 1 .75-.75zm-.75 6.041H4.75V12h14.5V8.291z" fill="#626262"/></g><rect x="0" y="0" width="24" height="24" fill="rgba(0, 0, 0, 0)" /></svg>