<svg xmlns="http://www.w3.org/2000/svg" xmlns:xlink="http://www.w3.org/1999/xlink" width="24" height="24" preserveAspectRatio="xMidYMid meet" viewBox="0 0 24 24" style="-ms-transform: rotate(360deg); -webkit-transform: rotate(360deg); transform: rotate(360deg);"><g fill="none"><path d="M15.87 2.669l4.968 4.968a2.25 2.25 0 0 1 0 3.182l-8.681 8.68l6.097.001a.75.75 0 0 1 .744.648l.006.102a.75.75 0 0 1-.648.743l-.102.007l-8.41.001a2.244 2.244 0 0 1-1.714-.655l-4.968-4.969a2.25 2.25 0 0 1 0-3.182l9.526-9.526a2.25 2.25 0 0 1 3.182 0zm-4.172 15.09l-5.955-5.956l-1.506 1.467a.75.75 0 0 0 0 1.06l4.945 4.946a.75.75 0 0 0 1.06-.016l1.456-1.502z" fill="#626262"/></g><rect x="0" y="0" width="24" height="24" fill="rgba(0, 0, 0, 0)" /></svg>