<svg xmlns="http://www.w3.org/2000/svg" xmlns:xlink="http://www.w3.org/1999/xlink" width="24" height="24" preserveAspectRatio="xMidYMid meet" viewBox="0 0 24 24" style="-ms-transform: rotate(360deg); -webkit-transform: rotate(360deg); transform: rotate(360deg);"><g fill="none"><path d="M13 2a2.47 2.47 0 0 1 2.47 2.47l-.001.53H19a1 1 0 0 1 1 1l-.001 3.499l-1.53.001a2.47 2.47 0 0 0-2.464 2.307L16 11.97v.06a2.47 2.47 0 0 0 2.307 2.465l.163.005l1.529-.001l.001 3.504a1 1 0 0 1-1 1l-3.531-.001v.528a2.47 2.47 0 1 1-4.939 0v-.528H7a1 1 0 0 1-1-1l-.001-3.531h-.53a2.47 2.47 0 0 1 0-4.94H6L6 6a1 1 0 0 1 1-1h3.53v-.53A2.47 2.47 0 0 1 13 2z" fill="#626262"/></g><rect x="0" y="0" width="24" height="24" fill="rgba(0, 0, 0, 0)" /></svg>