<svg xmlns="http://www.w3.org/2000/svg" xmlns:xlink="http://www.w3.org/1999/xlink" width="24" height="24" preserveAspectRatio="xMidYMid meet" viewBox="0 0 24 24" style="-ms-transform: rotate(360deg); -webkit-transform: rotate(360deg); transform: rotate(360deg);"><g fill="none"><path d="M10 16h4a1 1 0 0 1 .117 1.993L14 18h-4a1 1 0 0 1-.117-1.993L10 16h4h-4zm-2-5h8a1 1 0 0 1 .117 1.993L16 13H8a1 1 0 0 1-.117-1.993L8 11h8h-8zM5 6h14a1 1 0 0 1 .117 1.993L19 8H5a1 1 0 0 1-.117-1.993L5 6h14H5z" fill="#626262"/></g><rect x="0" y="0" width="24" height="24" fill="rgba(0, 0, 0, 0)" /></svg>