<svg xmlns="http://www.w3.org/2000/svg" xmlns:xlink="http://www.w3.org/1999/xlink" width="24" height="24" preserveAspectRatio="xMidYMid meet" viewBox="0 0 24 24" style="-ms-transform: rotate(360deg); -webkit-transform: rotate(360deg); transform: rotate(360deg);"><g fill="none"><path d="M23 7.5a5.5 5.5 0 1 1-11 0a5.5 5.5 0 0 1 11 0zM14.5 4a.5.5 0 0 0-.5.5v2a.5.5 0 0 0 .5.5h2a.5.5 0 0 0 0-1h-1c.456-.608 1.183-1 2-1c.833 0 1.572.407 2.027 1.036a.5.5 0 0 0 .81-.586A3.496 3.496 0 0 0 17.5 4A3.49 3.49 0 0 0 15 5.05V4.5a.5.5 0 0 0-.5-.5zM20 9.95v.55a.5.5 0 0 0 1 0v-2a.5.5 0 0 0-.5-.5h-2a.5.5 0 0 0 0 1h1c-.456.608-1.183 1-2 1a2.494 2.494 0 0 1-1.911-.888a.5.5 0 1 0-.764.645A3.493 3.493 0 0 0 17.5 11A3.49 3.49 0 0 0 20 9.95zM8 11h4.022a6.534 6.534 0 0 0 2.012 2H8a1 1 0 0 1-.117-1.993L8 11zM5 6h6.174a6.52 6.52 0 0 0-.155 2H5a1 1 0 0 1-.117-1.993L5 6zm4.883 10.007L10 16h4a1 1 0 0 1 .117 1.993L14 18h-4a1 1 0 0 1-.117-1.993z" fill="#626262"/></g><rect x="0" y="0" width="24" height="24" fill="rgba(0, 0, 0, 0)" /></svg>