<svg xmlns="http://www.w3.org/2000/svg" xmlns:xlink="http://www.w3.org/1999/xlink" width="24" height="24" preserveAspectRatio="xMidYMid meet" viewBox="0 0 24 24" style="-ms-transform: rotate(360deg); -webkit-transform: rotate(360deg); transform: rotate(360deg);"><g fill="none"><path d="M3.75 4c.414 0 .75.308.75.688V6h6.75V4.687c0-.38.336-.687.75-.687s.75.308.75.688V6h6.75V4.687c0-.38.336-.687.75-.687s.75.308.75.688v4.125c0 .38-.336.687-.75.687s-.75-.308-.75-.688V7.5h-6.75v1.313c0 .38-.336.687-.75.687s-.75-.308-.75-.688V7.5H4.5v1.313c0 .38-.336.687-.75.687S3 9.192 3 8.812V4.689c0-.38.336-.688.75-.688z" fill="#626262"/><path d="M5.75 11A2.75 2.75 0 0 0 3 13.75v4a2.75 2.75 0 0 0 2.75 2.75h5.5V11h-5.5z" fill="#626262"/><path d="M18.25 20.5h-5.5V11h5.5A2.75 2.75 0 0 1 21 13.75v4a2.75 2.75 0 0 1-2.75 2.75z" fill="#626262"/></g><rect x="0" y="0" width="24" height="24" fill="rgba(0, 0, 0, 0)" /></svg>