<svg xmlns="http://www.w3.org/2000/svg" xmlns:xlink="http://www.w3.org/1999/xlink" width="24" height="24" preserveAspectRatio="xMidYMid meet" viewBox="0 0 24 24" style="-ms-transform: rotate(360deg); -webkit-transform: rotate(360deg); transform: rotate(360deg);"><g fill="none"><path d="M21.25 4.998a.75.75 0 0 1 .75.75v12.5a.75.75 0 0 1-.75.75h-5.502a2.75 2.75 0 0 1-2.75-2.75v-.252H3.746a1.75 1.75 0 0 1-1.75-1.75V9.75c0-.966.783-1.75 1.75-1.75h9.252v-.252a2.75 2.75 0 0 1 2.75-2.75h5.501zm-13.004 6.25l-2.497.002a.75.75 0 0 0 .002 1.5l2.497-.002a.75.75 0 1 0-.002-1.5z" fill="#626262"/></g><rect x="0" y="0" width="24" height="24" fill="rgba(0, 0, 0, 0)" /></svg>