<svg xmlns="http://www.w3.org/2000/svg" xmlns:xlink="http://www.w3.org/1999/xlink" width="24" height="24" preserveAspectRatio="xMidYMid meet" viewBox="0 0 24 24" style="-ms-transform: rotate(360deg); -webkit-transform: rotate(360deg); transform: rotate(360deg);"><g fill="none"><path d="M17.5 4.5a.75.75 0 0 0-1.108-.659l-11.5 6.25A.75.75 0 0 0 5.25 11.5h11.5a.75.75 0 0 0 .75-.75V4.5zm-2 5h-5.332L15.5 6.602V9.5z" fill="#626262"/><path d="M17.5 19.5a.75.75 0 0 1-1.108.659l-11.5-6.25A.75.75 0 0 1 5.25 12.5h11.5a.75.75 0 0 1 .75.75v6.25z" fill="#626262"/></g><rect x="0" y="0" width="24" height="24" fill="rgba(0, 0, 0, 0)" /></svg>