<svg xmlns="http://www.w3.org/2000/svg" xmlns:xlink="http://www.w3.org/1999/xlink" width="24" height="24" preserveAspectRatio="xMidYMid meet" viewBox="0 0 24 24" style="-ms-transform: rotate(360deg); -webkit-transform: rotate(360deg); transform: rotate(360deg);"><g fill="none"><path d="M12.41 2.508l.047-.006h.087l.106.021l.074.03l6 3a.5.5 0 0 1 0 .894L13.618 9l5.106 2.553a.5.5 0 0 1-.003.896l-5.757 2.837l.036 5.711a.5.5 0 0 1-.752.435l-6-3.5A.5.5 0 0 1 6 17.5l.002-11.544l.018-.097l.022-.059l.012-.025a.502.502 0 0 1 .06-.093l.066-.066l.072-.05l6.074-3.035l.085-.023z" fill="#626262"/></g><rect x="0" y="0" width="24" height="24" fill="rgba(0, 0, 0, 0)" /></svg>