<svg xmlns="http://www.w3.org/2000/svg" xmlns:xlink="http://www.w3.org/1999/xlink" width="24" height="24" preserveAspectRatio="xMidYMid meet" viewBox="0 0 24 24" style="-ms-transform: rotate(360deg); -webkit-transform: rotate(360deg); transform: rotate(360deg);"><g fill="none"><path d="M13.997 6.5h-.176L9.647 9.979l-.156.119a2.25 2.25 0 0 1-1.088.393l-.196.009L2 10.499v7.251l.005.154A2.25 2.25 0 0 0 4.25 20h11.247v-3.502h-.25a.75.75 0 0 1 0-1.5h.25v-1.5h-.25a.75.75 0 0 1 0-1.5h.25v-1.003h-.75a.75.75 0 0 1-.75-.75V6.5z" fill="#626262"/><path d="M15.497 6.5h1.5v2.75h-1.5V6.5z" fill="#626262"/><path d="M18.497 6.5h1.253a2.25 2.25 0 0 1 2.229 1.938l.016.158l.005.154v9a2.25 2.25 0 0 1-2.096 2.245L19.75 20h-2.753v-2h.25a.75.75 0 0 0 0-1.5h-.25V15h.25a.75.75 0 0 0 0-1.5h-.25v-2.505h.75a.75.75 0 0 0 .75-.75V6.5z" fill="#626262"/><path d="M9.49 4.402A2.25 2.25 0 0 0 8.208 4H4.25l-.154.005A2.25 2.25 0 0 0 2 6.25v2.749L8.207 9l.104-.007a.75.75 0 0 0 .291-.106l.085-.06l3.063-2.554l-2.103-1.752l-.156-.119z" fill="#626262"/></g><rect x="0" y="0" width="24" height="24" fill="rgba(0, 0, 0, 0)" /></svg>