<svg xmlns="http://www.w3.org/2000/svg" xmlns:xlink="http://www.w3.org/1999/xlink" width="24" height="24" preserveAspectRatio="xMidYMid meet" viewBox="0 0 24 24" style="-ms-transform: rotate(360deg); -webkit-transform: rotate(360deg); transform: rotate(360deg);"><g fill="none"><path d="M4.387 16.21a1 1 0 0 1 1.226 0l.094.083l.083.094a1 1 0 0 1 0 1.226l-.083.094l-.293.293h13.172l-.293-.293a1 1 0 0 1-.083-1.32l.083-.094a1 1 0 0 1 1.32-.083l.094.083l2 2a1 1 0 0 1 .083 1.32l-.083.094l-2 2a1 1 0 0 1-1.497-1.32l.083-.094l.292-.293H5.415l.292.293l.083.094a1 1 0 0 1-1.403 1.403l-.094-.083l-2-2l-.083-.094a1 1 0 0 1 0-1.226l.083-.094l2-2l.094-.083zM8.12 2.417l.064.103l.053.116l4.304 11a1 1 0 0 1-1.814.835l-.049-.107l-1.111-2.839H5.042l-1.11 2.84a1 1 0 0 1-1.185.602l-.111-.036a1 1 0 0 1-.603-1.184l.036-.111l4.304-11c.3-.767 1.31-.84 1.746-.22zm11.972.113a1 1 0 0 1 1.85.724l-.036.11l-4.304 11l-.053.116c-.372.694-1.386.694-1.757 0l-.053-.115l-4.304-11l-.036-.111a1 1 0 0 1 .496-1.136l.107-.049l.11-.036a1 1 0 0 1 1.136.497l.05.106l3.372 8.621l3.373-8.621l.05-.106zM7.304 5.743l-1.48 3.782h2.96l-1.48-3.782z" fill="#626262"/></g><rect x="0" y="0" width="24" height="24" fill="rgba(0, 0, 0, 0)" /></svg>