<svg xmlns="http://www.w3.org/2000/svg" xmlns:xlink="http://www.w3.org/1999/xlink" width="24" height="24" preserveAspectRatio="xMidYMid meet" viewBox="0 0 24 24" style="-ms-transform: rotate(360deg); -webkit-transform: rotate(360deg); transform: rotate(360deg);"><g fill="none"><path d="M12.81 4.41l.068.11l.053.115l5.5 14.004a1 1 0 0 1-1.813.837l-.049-.106L15.245 16H8.754l-1.323 3.37a1 1 0 0 1-1.186.602l-.11-.037a1 1 0 0 1-.602-1.185l.036-.11l5.5-14.005c.3-.764 1.304-.838 1.741-.224zM12 7.735L9.539 14h4.921L12 7.734zm5.683-4.663a.75.75 0 0 1 .636 0l.097.054l2.251 1.496l.088.068a.75.75 0 0 1-.821 1.236l-.097-.055l-1.836-1.22l-1.836 1.22l-.097.055a.75.75 0 0 1-.82-1.236l.087-.068l2.25-1.496l.098-.054z" fill="#626262"/></g><rect x="0" y="0" width="24" height="24" fill="rgba(0, 0, 0, 0)" /></svg>