<svg xmlns="http://www.w3.org/2000/svg" xmlns:xlink="http://www.w3.org/1999/xlink" width="24" height="24" preserveAspectRatio="xMidYMid meet" viewBox="0 0 24 24" style="-ms-transform: rotate(360deg); -webkit-transform: rotate(360deg); transform: rotate(360deg);"><g fill="none"><path d="M12.798 7.394l.068.105l.057.117l3.75 9a1 1 0 0 1-1.795.874l-.051-.105L13.833 15h-3.667l-.993 2.385a1 1 0 0 1-1.197.577l-.11-.039a1 1 0 0 1-.578-1.197l.039-.11l3.75-9c.308-.739 1.28-.813 1.72-.222zM12 10.6L11 13h2l-1-2.4zm8.877-7.263a.75.75 0 0 1-.122.972l-.088.068l-2.25 1.495a.75.75 0 0 1-.734.055l-.097-.055l-2.251-1.495a.75.75 0 0 1 .733-1.304l.097.054l1.836 1.22l1.836-1.22a.75.75 0 0 1 1.04.21z" fill="#626262"/></g><rect x="0" y="0" width="24" height="24" fill="rgba(0, 0, 0, 0)" /></svg>