<svg xmlns="http://www.w3.org/2000/svg" xmlns:xlink="http://www.w3.org/1999/xlink" width="24" height="24" preserveAspectRatio="xMidYMid meet" viewBox="0 0 24 24" style="-ms-transform: rotate(360deg); -webkit-transform: rotate(360deg); transform: rotate(360deg);"><g fill="none"><path d="M8.613 16.21l.094.083l2 2a1 1 0 0 1 .083 1.32l-.083.094l-2 2a1 1 0 0 1-1.497-1.32l.083-.094l.293-.294L4 20a1 1 0 0 1-.117-1.993L4 18l3.585-.001l-.292-.292a1 1 0 0 1-.083-1.32l.083-.094a1 1 0 0 1 1.32-.083zm6.774 0a1 1 0 0 1 1.226 0l.094.083l.083.094a1 1 0 0 1 0 1.226l-.083.094l-.292.292L20 18a1 1 0 0 1 .117 1.993L20 20l-3.586-.001l.293.294l.083.094a1 1 0 0 1-1.403 1.403l-.094-.083l-2-2l-.083-.094a1 1 0 0 1 0-1.226l.083-.094l2-2l.094-.083zM9.12 2.446l.064.104l.053.115l4.304 11a1 1 0 0 1-1.814.835l-.049-.106l-1.111-2.84H6.042l-1.11 2.84a1 1 0 0 1-1.185.603l-.111-.036a1 1 0 0 1-.603-1.185l.036-.11l4.304-11c.3-.768 1.31-.84 1.746-.22zm10.022.084a1 1 0 0 1 1.85.724l-.037.11l-4.304 11l-.053.116c-.371.694-1.385.694-1.756 0l-.053-.115l-4.305-11l-.036-.111a1 1 0 0 1 .497-1.136l.106-.049l.111-.036a1 1 0 0 1 1.136.497l.049.106l3.372 8.62l3.374-8.62l.049-.106zM8.304 5.773L6.825 9.554h2.958L8.304 5.773z" fill="#626262"/></g><rect x="0" y="0" width="24" height="24" fill="rgba(0, 0, 0, 0)" /></svg>