<svg xmlns="http://www.w3.org/2000/svg" xmlns:xlink="http://www.w3.org/1999/xlink" width="24" height="24" preserveAspectRatio="xMidYMid meet" viewBox="0 0 24 24" style="-ms-transform: rotate(360deg); -webkit-transform: rotate(360deg); transform: rotate(360deg);"><g fill="none"><path d="M9 4a1 1 0 0 0-2 0v2.5a.5.5 0 0 1-.5.5H4a1 1 0 0 0 0 2h2.5A2.5 2.5 0 0 0 9 6.5V4z" fill="#626262"/><path d="M9 20a1 1 0 1 1-2 0v-2.5a.5.5 0 0 0-.5-.5H4a1 1 0 1 1 0-2h2.5A2.5 2.5 0 0 1 9 17.5V20z" fill="#626262"/><path d="M16 3a1 1 0 0 0-1 1v2.5A2.5 2.5 0 0 0 17.5 9H20a1 1 0 1 0 0-2h-2.5a.5.5 0 0 1-.5-.5V4a1 1 0 0 0-1-1z" fill="#626262"/><path d="M15 20a1 1 0 1 0 2 0v-2.5a.5.5 0 0 1 .5-.5H20a1 1 0 1 0 0-2h-2.5a2.5 2.5 0 0 0-2.5 2.5V20z" fill="#626262"/></g><rect x="0" y="0" width="24" height="24" fill="rgba(0, 0, 0, 0)" /></svg>