<svg xmlns="http://www.w3.org/2000/svg" xmlns:xlink="http://www.w3.org/1999/xlink" width="24" height="24" preserveAspectRatio="xMidYMid meet" viewBox="0 0 24 24" style="-ms-transform: rotate(360deg); -webkit-transform: rotate(360deg); transform: rotate(360deg);"><g fill="none"><path d="M5 6a1 1 0 0 1 1-1h2a1 1 0 0 0 0-2H6a3 3 0 0 0-3 3v2a1 1 0 0 0 2 0V6z" fill="#626262"/><path d="M5 18a1 1 0 0 0 1 1h2a1 1 0 1 1 0 2H6a3 3 0 0 1-3-3v-2a1 1 0 1 1 2 0v2z" fill="#626262"/><path d="M18 5a1 1 0 0 1 1 1v2a1 1 0 1 0 2 0V6a3 3 0 0 0-3-3h-2a1 1 0 1 0 0 2h2z" fill="#626262"/><path d="M19 18a1 1 0 0 1-1 1h-2a1 1 0 1 0 0 2h2a3 3 0 0 0 3-3v-2a1 1 0 1 0-2 0v2z" fill="#626262"/></g><rect x="0" y="0" width="24" height="24" fill="rgba(0, 0, 0, 0)" /></svg>