<svg xmlns="http://www.w3.org/2000/svg" xmlns:xlink="http://www.w3.org/1999/xlink" width="24" height="24" preserveAspectRatio="xMidYMid meet" viewBox="0 0 24 24" style="-ms-transform: rotate(360deg); -webkit-transform: rotate(360deg); transform: rotate(360deg);"><g fill="none"><path d="M10.729 2.71a2.25 2.25 0 0 1 3.41.268l.32.441l-6.473 6.473l-.38-.253a2.25 2.25 0 0 1-.342-3.463l3.465-3.465z" fill="#626262"/><path d="M9.26 10.74l2.56 1.708c.088.058.161.134.217.222l1.234 1.938l6.011-6.012l-2.15-1.563a.75.75 0 0 1-.165-.166l-1.614-2.22l-6.094 6.094z" fill="#626262"/><path d="M14.364 16.325l-.268-.42l6.415-6.416l.51.372a2.25 2.25 0 0 1 .268 3.41l-3.436 3.437a2.25 2.25 0 0 1-3.49-.383z" fill="#626262"/><path d="M9.341 12.298l-6.073 5.958a1.76 1.76 0 1 0 2.476 2.5l6.085-6.085l-.79-1.241l-1.698-1.132z" fill="#626262"/><path d="M14.75 19a.75.75 0 0 0 0 1.5h-2a.75.75 0 0 0 0 1.5h8.5a.75.75 0 0 0 0-1.5h-2a.75.75 0 0 0 0-1.5h-4.5z" fill="#626262"/></g><rect x="0" y="0" width="24" height="24" fill="rgba(0, 0, 0, 0)" /></svg>