<svg xmlns="http://www.w3.org/2000/svg" xmlns:xlink="http://www.w3.org/1999/xlink" width="24" height="24" preserveAspectRatio="xMidYMid meet" viewBox="0 0 24 24" style="-ms-transform: rotate(360deg); -webkit-transform: rotate(360deg); transform: rotate(360deg);"><g fill="none"><path d="M15.096 16.5c-.072.383-.153.75-.242 1.102A2.494 2.494 0 0 0 14 19.484c0 .174.009.344.027.51C13.43 21.255 12.713 22 12 22c-1.197 0-2.4-2.094-3.038-5.204l-.058-.294h6.192zm.17 4.354a3.498 3.498 0 0 1-.266-1.37a1.5 1.5 0 0 1 1.5-1.5h5a1.5 1.5 0 0 1 1.5 1.5c0 1.116-.459 2.01-1.212 2.614c-.741.595-1.735.886-2.788.886c-1.053 0-2.047-.29-2.788-.886a3.221 3.221 0 0 1-.676-.739a3.126 3.126 0 0 1-.27-.505zM22.002 12c0 .663-.065 1.312-.188 1.94a3.001 3.001 0 0 0-4.822-1.186a28.968 28.968 0 0 0-.022-2.098L16.932 10h4.87c.13.646.2 1.315.2 2zM17 15v-.017a2 2 0 0 1 4 0V15a1.995 1.995 0 0 1-2 1.983c-.498 0-.953-.182-1.303-.483A1.995 1.995 0 0 1 17 15zm-.236 1.983a2.977 2.977 0 0 1-.183-.226l-.029.155l-.014.07h.226zM3.066 16.5h4.306c.364 2.082.983 3.854 1.792 5.093a10.029 10.029 0 0 1-5.952-4.814l-.146-.279zm-.867-6.5h4.87a28.211 28.211 0 0 0 .033 4.42l.057.58H2.456a10.047 10.047 0 0 1-.258-5zm13.226 0a25.838 25.838 0 0 1-.037 4.425l-.062.575H8.674a25.987 25.987 0 0 1-.132-4.512L8.576 10h6.849zm-.48-7.424l-.109-.17A10.027 10.027 0 0 1 21.372 8.5h-4.59c-.316-2.416-.957-4.492-1.838-5.923zm-5.903-.133l.122-.037C8.283 3.757 7.628 5.736 7.28 8.06l-.062.44H2.63a10.028 10.028 0 0 1 6.413-6.057zM12 2.002c1.319 0 2.646 2.542 3.214 6.183l.047.315H8.739C9.28 4.691 10.644 2.002 12 2.002z" fill="#626262"/></g><rect x="0" y="0" width="24" height="24" fill="rgba(0, 0, 0, 0)" /></svg>