<svg xmlns="http://www.w3.org/2000/svg" xmlns:xlink="http://www.w3.org/1999/xlink" width="24" height="24" preserveAspectRatio="xMidYMid meet" viewBox="0 0 24 24" style="-ms-transform: rotate(360deg); -webkit-transform: rotate(360deg); transform: rotate(360deg);"><g fill="none"><path d="M8.904 16.5H11v4c0 .48.136.93.37 1.31c-.973-.58-1.883-2.452-2.408-5.015l-.058-.294z" fill="#626262"/><path d="M8.674 15H11v-.5a2.5 2.5 0 0 1 2.5-2.5h2.002c0-.686-.027-1.354-.077-2h-6.85l-.033.489A25.987 25.987 0 0 0 8.674 15z" fill="#626262"/><path d="M21.668 12.686c.104-.069.211-.123.32-.163A10.153 10.153 0 0 0 21.802 10h-4.87l.038.657c.021.44.032.889.032 1.343H18.5a2.5 2.5 0 0 1 2.208 1.326l.96-.64z" fill="#626262"/><path d="M3.066 16.501h4.306c.364 2.082.983 3.854 1.792 5.093a10.029 10.029 0 0 1-5.952-4.814l-.146-.279z" fill="#626262"/><path d="M2.199 10h4.87a28.211 28.211 0 0 0 .033 4.42l.057.58H2.456a10.047 10.047 0 0 1-.258-5z" fill="#626262"/><path d="M14.944 2.577l-.108-.17A10.027 10.027 0 0 1 21.372 8.5h-4.59c-.316-2.416-.957-4.492-1.838-5.923z" fill="#626262"/><path d="M9.042 2.444l.122-.037C8.283 3.757 7.628 5.736 7.28 8.06l-.062.44H2.63a10.028 10.028 0 0 1 6.413-6.057z" fill="#626262"/><path d="M12 2.002c1.319 0 2.646 2.542 3.214 6.183l.047.315H8.739C9.28 4.691 10.644 2.002 12 2.002z" fill="#626262"/><path d="M12 14.5a1.5 1.5 0 0 1 1.5-1.5h5a1.5 1.5 0 0 1 1.5 1.5v.5l2.223-1.482a.5.5 0 0 1 .777.416v7.132a.5.5 0 0 1-.777.416L20 20v.5a1.5 1.5 0 0 1-1.5 1.5h-5a1.5 1.5 0 0 1-1.5-1.5v-6z" fill="#626262"/></g><rect x="0" y="0" width="24" height="24" fill="rgba(0, 0, 0, 0)" /></svg>