<svg xmlns="http://www.w3.org/2000/svg" xmlns:xlink="http://www.w3.org/1999/xlink" width="24" height="24" preserveAspectRatio="xMidYMid meet" viewBox="0 0 24 24" style="-ms-transform: rotate(360deg); -webkit-transform: rotate(360deg); transform: rotate(360deg);"><g fill="none"><path d="M5 7a2 2 0 1 0 0-4a2 2 0 0 0 0 4z" fill="#626262"/><path d="M19 7a2 2 0 1 0 0-4a2 2 0 0 0 0 4z" fill="#626262"/><path d="M21 19a2 2 0 1 1-4 0a2 2 0 0 1 4 0z" fill="#626262"/><path d="M5 21a2 2 0 1 0 0-4a2 2 0 0 0 0 4z" fill="#626262"/><path d="M7.83 6a2.995 2.995 0 0 0 0-2h4.67A2.5 2.5 0 0 1 15 6.5V9h2.5a2.5 2.5 0 0 1 2.5 2.5v4.67a2.997 2.997 0 0 0-2 0V11.5a.5.5 0 0 0-.5-.5H15v1.5a2.5 2.5 0 0 1-2.5 2.5H11v2.5a.5.5 0 0 0 .5.5h4.67a2.997 2.997 0 0 0 0 2H11.5A2.5 2.5 0 0 1 9 17.5V15H6.5A2.5 2.5 0 0 1 4 12.5V7.83a2.995 2.995 0 0 0 2 0v4.67a.5.5 0 0 0 .5.5H9v-1.5A2.5 2.5 0 0 1 11.5 9H13V6.5a.5.5 0 0 0-.5-.5H7.83zM13 12.5V11h-1.5a.5.5 0 0 0-.5.5V13h1.5a.5.5 0 0 0 .5-.5z" fill="#626262"/></g><rect x="0" y="0" width="24" height="24" fill="rgba(0, 0, 0, 0)" /></svg>