<svg xmlns="http://www.w3.org/2000/svg" xmlns:xlink="http://www.w3.org/1999/xlink" width="24" height="24" preserveAspectRatio="xMidYMid meet" viewBox="0 0 24 24" style="-ms-transform: rotate(360deg); -webkit-transform: rotate(360deg); transform: rotate(360deg);"><g fill="none"><path d="M18.492 3.431l1.184-1.185a1 1 0 0 1 1.415 0l.707.708a1 1 0 0 1 0 1.414l-1.185 1.184l-2.121-2.12zm-1.06 1.06L13.61 8.313l-.16-.159a2.75 2.75 0 0 0-4.404.715l-.416.833a.608.608 0 0 1-.664.324l-.072-.014a4.708 4.708 0 0 0-4.69 1.791a6.027 6.027 0 0 0 .56 7.878l.599.599a6.027 6.027 0 0 0 7.878.56a4.708 4.708 0 0 0 1.792-4.69l-.015-.072a.608.608 0 0 1 .325-.664l.832-.416a2.75 2.75 0 0 0 .715-4.404l-.16-.16l3.821-3.82l-2.12-2.121zm-7.993 10.07a1.5 1.5 0 1 1 2.122-2.122a1.5 1.5 0 0 1-2.122 2.122z" fill="#626262"/></g><rect x="0" y="0" width="24" height="24" fill="rgba(0, 0, 0, 0)" /></svg>