<svg xmlns="http://www.w3.org/2000/svg" xmlns:xlink="http://www.w3.org/1999/xlink" width="24" height="24" preserveAspectRatio="xMidYMid meet" viewBox="0 0 24 24" style="-ms-transform: rotate(360deg); -webkit-transform: rotate(360deg); transform: rotate(360deg);"><g fill="none"><path d="M5 9a7 7 0 0 1 14 0v5a2 2 0 0 1-2 2h-2a1 1 0 0 1-1-1v-4a1 1 0 0 1 1-1h2.5V9a5.5 5.5 0 1 0-11 0v1H9a1 1 0 0 1 1 1v4a1 1 0 0 1-1 1H7c-.173 0-.34-.022-.5-.063v.313a2.25 2.25 0 0 0 2.096 2.245l.154.005h1.128a2.251 2.251 0 1 1 0 1.5H8.75a3.75 3.75 0 0 1-3.745-3.55L5 16.25V9z" fill="#626262"/></g><rect x="0" y="0" width="24" height="24" fill="rgba(0, 0, 0, 0)" /></svg>