<svg xmlns="http://www.w3.org/2000/svg" xmlns:xlink="http://www.w3.org/1999/xlink" width="24" height="24" preserveAspectRatio="xMidYMid meet" viewBox="0 0 24 24" style="-ms-transform: rotate(360deg); -webkit-transform: rotate(360deg); transform: rotate(360deg);"><g fill="none"><path d="M5.25 2A2.25 2.25 0 0 0 3 4.25v3A2.25 2.25 0 0 0 5.25 9.5h13.5A2.25 2.25 0 0 0 21 7.25v-3A2.25 2.25 0 0 0 18.75 2H5.25z" fill="#626262"/><path d="M5 11.75V11h14v.75A2.25 2.25 0 0 1 16.75 14h-9.5A2.25 2.25 0 0 1 5 11.75z" fill="#626262"/><path d="M7.503 15.5H16.5v1.288a2.25 2.25 0 0 1-1.141 1.958l-.154.08l-6.635 3.106a.75.75 0 0 1-1.061-.578l-.007-.101V15.5z" fill="#626262"/></g><rect x="0" y="0" width="24" height="24" fill="rgba(0, 0, 0, 0)" /></svg>