<svg xmlns="http://www.w3.org/2000/svg" xmlns:xlink="http://www.w3.org/1999/xlink" width="24" height="24" preserveAspectRatio="xMidYMid meet" viewBox="0 0 24 24" style="-ms-transform: rotate(360deg); -webkit-transform: rotate(360deg); transform: rotate(360deg);"><g fill="none"><path d="M21 11.978a6.5 6.5 0 0 1-8.298-9.864a2.25 2.25 0 0 0-2.153.419L3.8 8.227A2.25 2.25 0 0 0 3 9.947v9.803c0 .966.784 1.75 1.75 1.75h3a1.75 1.75 0 0 0 1.75-1.75v-5a.75.75 0 0 1 .75-.75h3.5a.75.75 0 0 1 .75.75v5c0 .966.784 1.75 1.75 1.75h3A1.75 1.75 0 0 0 21 19.75v-7.772z" fill="#626262"/><path d="M17.5 1a5.5 5.5 0 1 1 0 11a5.5 5.5 0 0 1 0-11zm.501 8.504V7h2.502a.5.5 0 1 0 0-1H18V3.5a.5.5 0 0 0-1 0V6h-2.504a.5.5 0 0 0 0 1h2.505v2.504a.5.5 0 0 0 1 0z" fill="#626262"/></g><rect x="0" y="0" width="24" height="24" fill="rgba(0, 0, 0, 0)" /></svg>