<svg xmlns="http://www.w3.org/2000/svg" xmlns:xlink="http://www.w3.org/1999/xlink" width="24" height="24" preserveAspectRatio="xMidYMid meet" viewBox="0 0 24 24" style="-ms-transform: rotate(360deg); -webkit-transform: rotate(360deg); transform: rotate(360deg);"><g fill="none"><path d="M11.475 13.718l.083-.071a.75.75 0 0 1 .874-.007l.093.078l1.065 1.045l-2.101 2.102a3.685 3.685 0 0 0-.97 1.712l-.457 1.83c-.05.202-.07.4-.063.593H6.25a3.235 3.235 0 0 1-1.703-.481l6.928-6.801z" fill="#626262"/><path d="M15.752 7.5a.752.752 0 1 1 0 1.504a.752.752 0 0 1 0-1.504z" fill="#626262"/><path d="M13.576 12.648l1.075 1.055l2.74-2.74A3.287 3.287 0 0 1 21 10.26V6.25A3.25 3.25 0 0 0 17.75 3H6.25A3.25 3.25 0 0 0 3 6.25v11.5c0 .627.178 1.213.485 1.71l6.939-6.813l.135-.122a2.25 2.25 0 0 1 2.889.006l.128.117zM15.752 6a2.252 2.252 0 1 1 0 4.504a2.252 2.252 0 0 1 0-4.504z" fill="#626262"/><path d="M12.196 17.572l5.902-5.902a2.286 2.286 0 1 1 3.233 3.232l-5.903 5.902a2.685 2.685 0 0 1-1.247.707l-1.831.457a1.087 1.087 0 0 1-1.318-1.318l.457-1.83c.118-.473.363-.904.707-1.248zm6.963-4.842l-5.903 5.902c-.152.152-.26.343-.311.551l-.291 1.163l1.163-.29c.208-.053.399-.16.55-.312l5.903-5.903a.786.786 0 1 0-1.111-1.11z" fill="#626262"/></g><rect x="0" y="0" width="24" height="24" fill="rgba(0, 0, 0, 0)" /></svg>