<svg xmlns="http://www.w3.org/2000/svg" xmlns:xlink="http://www.w3.org/1999/xlink" width="24" height="24" preserveAspectRatio="xMidYMid meet" viewBox="0 0 24 24" style="-ms-transform: rotate(360deg); -webkit-transform: rotate(360deg); transform: rotate(360deg);"><g fill="none"><path d="M12 2.002a3.875 3.875 0 0 0-3.875 3.875c0 2.92 1.207 6.552 1.813 8.199a2.187 2.187 0 0 0 2.064 1.423c.904 0 1.739-.542 2.063-1.418c.606-1.64 1.81-5.254 1.81-8.204A3.875 3.875 0 0 0 12 2.002z" fill="#626262"/><path d="M12.001 17.001a2.501 2.501 0 1 0 0 5.002a2.501 2.501 0 0 0 0-5.002z" fill="#626262"/></g><rect x="0" y="0" width="24" height="24" fill="rgba(0, 0, 0, 0)" /></svg>