<svg xmlns="http://www.w3.org/2000/svg" xmlns:xlink="http://www.w3.org/1999/xlink" width="24" height="24" preserveAspectRatio="xMidYMid meet" viewBox="0 0 24 24" style="-ms-transform: rotate(360deg); -webkit-transform: rotate(360deg); transform: rotate(360deg);"><g fill="none"><path d="M19.499 4H17v2.499h2.249a.25.25 0 0 0 .243-.193l.007-.057V4zM15.5 6.499V4H4.501v2.249a.25.25 0 0 0 .193.243l.057.007H15.5zM11.617 18h.791l.036.185c.102.628.086 1.195-.045 1.708c-.041.16-.094.313-.16.46a.25.25 0 0 1-.459-.005a3.21 3.21 0 0 1-.15-.454a3.988 3.988 0 0 1-.05-1.71l.037-.184zm3-10.002l-2.642 5.947a.75.75 0 1 0 1.37.608L16.258 8h-1.64z" fill="#626262"/></g><rect x="0" y="0" width="24" height="24" fill="rgba(0, 0, 0, 0)" /></svg>