<svg xmlns="http://www.w3.org/2000/svg" xmlns:xlink="http://www.w3.org/1999/xlink" width="24" height="24" preserveAspectRatio="xMidYMid meet" viewBox="0 0 24 24" style="-ms-transform: rotate(360deg); -webkit-transform: rotate(360deg); transform: rotate(360deg);"><g fill="none"><path d="M21.25 19.5a.75.75 0 0 1 .102 1.493L21.25 21H2.75a.75.75 0 0 1-.102-1.493l.102-.007h18.5zM19.745 3a2.25 2.25 0 0 1 2.25 2.25v9.505a2.25 2.25 0 0 1-2.25 2.25h-6.521a1.25 1.25 0 0 1-2.448 0H4.25A2.25 2.25 0 0 1 2 14.755V5.25A2.25 2.25 0 0 1 4.25 3h15.495zm-2.495 9.5H6.75l-.102.007a.75.75 0 0 0 0 1.486L6.75 14h10.5l.102-.007a.75.75 0 0 0 0-1.486l-.102-.007zM16.5 9a1 1 0 1 0 0 2a1 1 0 0 0 0-2zm-5.995 0a1 1 0 1 0 0 2a1 1 0 0 0 0-2zm-3 0a1 1 0 1 0 0 2a1 1 0 0 0 0-2zm6 0a1 1 0 1 0 0 2a1 1 0 0 0 0-2zM6 6a1 1 0 1 0 0 2a1 1 0 0 0 0-2zm2.995 0a1 1 0 1 0 0 2a1 1 0 0 0 0-2zm3 0a1 1 0 1 0 0 2a1 1 0 0 0 0-2zm3 0a1 1 0 1 0 0 2a1 1 0 0 0 0-2zm3 0a1 1 0 1 0 0 2a1 1 0 0 0 0-2z" fill="#626262"/></g><rect x="0" y="0" width="24" height="24" fill="rgba(0, 0, 0, 0)" /></svg>