<svg xmlns="http://www.w3.org/2000/svg" xmlns:xlink="http://www.w3.org/1999/xlink" width="24" height="24" preserveAspectRatio="xMidYMid meet" viewBox="0 0 24 24" style="-ms-transform: rotate(360deg); -webkit-transform: rotate(360deg); transform: rotate(360deg);"><g fill="none"><path d="M3.707 2c-.941 0-1.705.763-1.705 1.705V8a6.002 6.002 0 0 0 5.003 5.917A7.961 7.961 0 0 1 8.408 9.47L6.22 7.28a.75.75 0 0 1 1.06-1.06l2.094 2.093a7.979 7.979 0 0 1 4.322-2.21A6.003 6.003 0 0 0 8.002 2H3.707z" fill="#626262"/><path d="M9.554 18.387L7.22 20.719a.75.75 0 1 0 1.06 1.061l2.335-2.333a6.999 6.999 0 0 0 11.389-5.451V8.748a1.75 1.75 0 0 0-1.75-1.75h-5.25a6.999 6.999 0 0 0-5.45 11.389zm6.226-4.102l-4.095 4.095a5.53 5.53 0 0 1-1.061-1.06l4.095-4.096a.75.75 0 0 1 1.061 1.061z" fill="#626262"/></g><rect x="0" y="0" width="24" height="24" fill="rgba(0, 0, 0, 0)" /></svg>