<svg xmlns="http://www.w3.org/2000/svg" xmlns:xlink="http://www.w3.org/1999/xlink" width="24" height="24" preserveAspectRatio="xMidYMid meet" viewBox="0 0 24 24" style="-ms-transform: rotate(360deg); -webkit-transform: rotate(360deg); transform: rotate(360deg);"><g fill="none"><path d="M5.5 3A1.5 1.5 0 0 1 7 4.5v15A1.5 1.5 0 0 1 5.5 21h-2A1.5 1.5 0 0 1 2 19.5v-15A1.5 1.5 0 0 1 3.5 3h2zm6 0A1.5 1.5 0 0 1 13 4.5v15a1.5 1.5 0 0 1-1.5 1.5h-2A1.5 1.5 0 0 1 8 19.5v-15A1.5 1.5 0 0 1 9.5 3h2zm7.281 3.124l3.214 12.519a1.5 1.5 0 0 1-1.08 1.826l-1.876.48a1.5 1.5 0 0 1-1.826-1.08L13.999 7.354a1.5 1.5 0 0 1 1.08-1.826l1.876-.483a1.502 1.502 0 0 1 1.826 1.08z" fill="#626262"/></g><rect x="0" y="0" width="24" height="24" fill="rgba(0, 0, 0, 0)" /></svg>