<svg xmlns="http://www.w3.org/2000/svg" xmlns:xlink="http://www.w3.org/1999/xlink" width="24" height="24" preserveAspectRatio="xMidYMid meet" viewBox="0 0 24 24" style="-ms-transform: rotate(360deg); -webkit-transform: rotate(360deg); transform: rotate(360deg);"><g fill="none"><path d="M2 6a1 1 0 0 1 1-1h3a1 1 0 0 1 0 2H3a1 1 0 0 1-1-1zm0 12.5A1.5 1.5 0 0 1 3.5 17h17a1.5 1.5 0 0 1 0 3h-17A1.5 1.5 0 0 1 2 18.5zM10.75 5a1 1 0 1 0 0 2h2.5a1 1 0 1 0 0-2h-2.5zM17 6a1 1 0 0 1 1-1h3a1 1 0 1 1 0 2h-3a1 1 0 0 1-1-1zM3 11a1 1 0 1 0 0 2h18a1 1 0 1 0 0-2H3z" fill="#626262"/></g><rect x="0" y="0" width="24" height="24" fill="rgba(0, 0, 0, 0)" /></svg>