<svg xmlns="http://www.w3.org/2000/svg" xmlns:xlink="http://www.w3.org/1999/xlink" width="24" height="24" preserveAspectRatio="xMidYMid meet" viewBox="0 0 24 24" style="-ms-transform: rotate(360deg); -webkit-transform: rotate(360deg); transform: rotate(360deg);"><g fill="none"><path d="M9 7a1 1 0 0 1 .117 1.993L9 9H7a3 3 0 0 0-.176 5.995L7 15h2a1 1 0 0 1 .117 1.993L9 17H7a5 5 0 0 1-.217-9.995L7 7h2zm8 0a5 5 0 0 1 .217 9.995L17 17h-2a1 1 0 0 1-.117-1.993L15 15h2a3 3 0 0 0 .176-5.995L17 9h-2a1 1 0 0 1-.117-1.993L15 7h2zM7 11h10a1 1 0 0 1 .117 1.993L17 13H7a1 1 0 0 1-.117-1.993L7 11h10H7z" fill="#626262"/></g><rect x="0" y="0" width="24" height="24" fill="rgba(0, 0, 0, 0)" /></svg>