<svg xmlns="http://www.w3.org/2000/svg" xmlns:xlink="http://www.w3.org/1999/xlink" width="24" height="24" preserveAspectRatio="xMidYMid meet" viewBox="0 0 24 24" style="-ms-transform: rotate(360deg); -webkit-transform: rotate(360deg); transform: rotate(360deg);"><g fill="none"><path d="M3 17h12a1 1 0 0 1 .117 1.993L15 19H3a1 1 0 0 1-.117-1.993L3 17h12H3zm0-6h18a1 1 0 0 1 .117 1.993L21 13H3a1 1 0 0 1-.117-1.993L3 11h18H3zm0-6h15a1 1 0 0 1 .117 1.993L18 7H3a1 1 0 0 1-.117-1.993L3 5h15H3z" fill="#626262"/></g><rect x="0" y="0" width="24" height="24" fill="rgba(0, 0, 0, 0)" /></svg>