<svg xmlns="http://www.w3.org/2000/svg" xmlns:xlink="http://www.w3.org/1999/xlink" width="24" height="24" preserveAspectRatio="xMidYMid meet" viewBox="0 0 24 24" style="-ms-transform: rotate(360deg); -webkit-transform: rotate(360deg); transform: rotate(360deg);"><g fill="none"><path d="M12 2.001a4 4 0 0 1 3.771 2.666a1 1 0 0 1-1.84.774l-.045-.107a2 2 0 0 0-3.88.517L10.002 6v1.999h7.749a2.25 2.25 0 0 1 2.245 2.097l.005.154v9.496a2.25 2.25 0 0 1-2.096 2.245l-.154.005H6.25A2.25 2.25 0 0 1 4.005 19.9L4 19.746V10.25a2.25 2.25 0 0 1 2.096-2.245L6.25 8l1.751-.001v-2A3.999 3.999 0 0 1 12 2.002zm0 11.498a1.499 1.499 0 1 0 0 2.998a1.499 1.499 0 0 0 0-2.998z" fill="#626262"/></g><rect x="0" y="0" width="24" height="24" fill="rgba(0, 0, 0, 0)" /></svg>