<svg xmlns="http://www.w3.org/2000/svg" xmlns:xlink="http://www.w3.org/1999/xlink" width="24" height="24" preserveAspectRatio="xMidYMid meet" viewBox="0 0 24 24" style="-ms-transform: rotate(360deg); -webkit-transform: rotate(360deg); transform: rotate(360deg);"><g fill="none"><path d="M17.5 12a5.5 5.5 0 1 1 0 11a5.5 5.5 0 0 1 0-11zm0 2l-.09.007a.5.5 0 0 0-.402.402L17 14.5V17L14.498 17l-.09.008a.5.5 0 0 0-.402.402l-.008.09l.008.09a.5.5 0 0 0 .402.402l.09.008H17v2.503l.008.09a.5.5 0 0 0 .402.402l.09.008l.09-.008a.5.5 0 0 0 .402-.402l.008-.09V18l2.504.001l.09-.008a.5.5 0 0 0 .402-.402l.008-.09l-.008-.09a.5.5 0 0 0-.403-.402l-.09-.008H18v-2.5l-.008-.09a.5.5 0 0 0-.402-.403L17.5 14zM22 6.607v6.202A6.5 6.5 0 0 0 11.019 18H5.251a3.25 3.25 0 0 1-3.245-3.066L2 14.75V6.608l9.652 5.056a.75.75 0 0 0 .696 0L22 6.608zM18.75 2a3.25 3.25 0 0 1 3.234 2.924L12 10.154l-9.984-5.23a3.25 3.25 0 0 1 3.048-2.919L5.25 2h13.5z" fill="#626262"/></g><rect x="0" y="0" width="24" height="24" fill="rgba(0, 0, 0, 0)" /></svg>