<svg xmlns="http://www.w3.org/2000/svg" xmlns:xlink="http://www.w3.org/1999/xlink" width="24" height="24" preserveAspectRatio="xMidYMid meet" viewBox="0 0 24 24" style="-ms-transform: rotate(360deg); -webkit-transform: rotate(360deg); transform: rotate(360deg);"><g fill="none"><path d="M2 10.127l9.653 5.038a.75.75 0 0 0 .694 0L22 10.128v7.622a3.25 3.25 0 0 1-3.066 3.245L18.75 21H5.25a3.25 3.25 0 0 1-3.245-3.066L2 17.75v-7.623zm1.1-1.958l8.517-5.064a.75.75 0 0 1 .662-.051l.104.051L20.9 8.17c.235.14.439.319.605.526L12 13.655l-9.505-4.96c.125-.155.27-.295.435-.414l.17-.112l8.517-5.064L3.1 8.17z" fill="#626262"/></g><rect x="0" y="0" width="24" height="24" fill="rgba(0, 0, 0, 0)" /></svg>