<svg xmlns="http://www.w3.org/2000/svg" xmlns:xlink="http://www.w3.org/1999/xlink" width="24" height="24" preserveAspectRatio="xMidYMid meet" viewBox="0 0 24 24" style="-ms-transform: rotate(360deg); -webkit-transform: rotate(360deg); transform: rotate(360deg);"><g fill="none"><path d="M2 5.25A2.25 2.25 0 0 1 4.25 3h15.5A2.25 2.25 0 0 1 22 5.25v5a.75.75 0 0 1-.75.75h-8.5v2.001h1a.75.75 0 0 1 .75.75v2.254h1.75a.75.75 0 0 1 .75.75v.745h4.25a.75.75 0 0 1 0 1.5H17v1.253a.75.75 0 0 1-.75.75H7.75a.75.75 0 0 1-.75-.75V19H2.75a.75.75 0 0 1 0-1.5h4.251v-.745a.75.75 0 0 1 .75-.75h1.75V13.75a.75.75 0 0 1 .75-.75h.999V11h-8.5a.75.75 0 0 1-.75-.75v-5zm15.998 2.752a1.002 1.002 0 1 0 0-2.004a1.002 1.002 0 0 0 0 2.004z" fill="#626262"/></g><rect x="0" y="0" width="24" height="24" fill="rgba(0, 0, 0, 0)" /></svg>