<svg xmlns="http://www.w3.org/2000/svg" xmlns:xlink="http://www.w3.org/1999/xlink" width="24" height="24" preserveAspectRatio="xMidYMid meet" viewBox="0 0 24 24" style="-ms-transform: rotate(360deg); -webkit-transform: rotate(360deg); transform: rotate(360deg);"><g fill="none"><path d="M8.5 4.358v12.465l-4.32 3.038a.75.75 0 0 1-1.174-.509l-.007-.104V8.615a.75.75 0 0 1 .238-.548l.08-.065L8.5 4.358zm12.494.29l.007.104v10.633a.75.75 0 0 1-.238.548l-.08.065L15.5 19.64V7.174l4.32-3.035a.75.75 0 0 1 1.174.509zM10 4.359l4 2.812v12.467l-4-2.814V4.359z" fill="#626262"/></g><rect x="0" y="0" width="24" height="24" fill="rgba(0, 0, 0, 0)" /></svg>