<svg xmlns="http://www.w3.org/2000/svg" xmlns:xlink="http://www.w3.org/1999/xlink" width="24" height="24" preserveAspectRatio="xMidYMid meet" viewBox="0 0 24 24" style="-ms-transform: rotate(360deg); -webkit-transform: rotate(360deg); transform: rotate(360deg);"><g fill="none"><path d="M9.5 8c.966 0 1.75.784 1.75 1.75v4.5A1.75 1.75 0 0 1 9.5 16H3.75A1.75 1.75 0 0 1 2 14.25v-4.5a1.75 1.75 0 0 1 1.606-1.744L3.75 8H9.5zm10.75 0c.966 0 1.75.784 1.75 1.75v4.5A1.75 1.75 0 0 1 20.25 16H14.5a1.75 1.75 0 0 1-1.75-1.75v-4.5c0-.966.784-1.75 1.75-1.75h5.75z" fill="#626262"/></g><rect x="0" y="0" width="24" height="24" fill="rgba(0, 0, 0, 0)" /></svg>