<svg xmlns="http://www.w3.org/2000/svg" xmlns:xlink="http://www.w3.org/1999/xlink" width="24" height="24" preserveAspectRatio="xMidYMid meet" viewBox="0 0 24 24" style="-ms-transform: rotate(360deg); -webkit-transform: rotate(360deg); transform: rotate(360deg);"><g fill="none"><path d="M15.444 4.952a.5.5 0 0 0-.727-.163l-.386.275a1 1 0 0 1-1.162-1.627l.385-.276a2.5 2.5 0 0 1 3.636.817l.508.91l1.595-1.595a1 1 0 1 1 1.414 1.414l-1.996 1.997l.793 1.42a.5.5 0 0 0 .752.145l.364-.295a1 1 0 0 1 1.26 1.553l-.364.295a2.5 2.5 0 0 1-3.759-.723l-.516-.925l-1.534 1.533a1 1 0 1 1-1.414-1.414l1.935-1.935l-.784-1.406z" fill="#626262"/><path d="M8.396 14.138c-1.416.276-3.002.345-4.53.36c-.273 1.11-.16 1.897.098 2.429c.302.623.884 1.064 1.708 1.27c1.698.423 4.174-.25 5.826-2.134a1 1 0 1 1 1.504 1.318c-2.098 2.393-5.32 3.378-7.815 2.756c-1.273-.318-2.411-1.076-3.023-2.338c-.607-1.253-.612-2.828.011-4.626c.84-2.423 2.118-3.941 3.406-4.886A8.161 8.161 0 0 1 8.8 6.871c1.626-.333 3.085.124 3.9 1.194c.828 1.088.801 2.567-.092 3.787c-.98 1.338-2.58 1.968-4.21 2.286zm.805-5.308A6.162 6.162 0 0 0 6.764 9.9c-.721.529-1.49 1.333-2.13 2.584c1.207-.03 2.36-.11 3.38-.31c1.455-.283 2.445-.773 2.98-1.503c.43-.589.345-1.09.114-1.394c-.245-.32-.848-.664-1.907-.447z" fill="#626262"/></g><rect x="0" y="0" width="24" height="24" fill="rgba(0, 0, 0, 0)" /></svg>