<svg xmlns="http://www.w3.org/2000/svg" xmlns:xlink="http://www.w3.org/1999/xlink" width="24" height="24" preserveAspectRatio="xMidYMid meet" viewBox="0 0 24 24" style="-ms-transform: rotate(360deg); -webkit-transform: rotate(360deg); transform: rotate(360deg);"><g fill="none"><path d="M21.907 5.622c.062.208.093.424.093.641V17.74a2.25 2.25 0 0 1-2.891 2.156l-5.514-1.64a4.002 4.002 0 0 1-7.59-1.556L6 16.5l-.001-.5l-2.39-.711A2.25 2.25 0 0 1 2 13.131V10.87a2.25 2.25 0 0 1 1.61-2.156l15.5-4.606a2.25 2.25 0 0 1 2.797 1.515zM7.499 16.445l.001.054a2.5 2.5 0 0 0 4.624 1.321l-4.625-1.375z" fill="#626262"/></g><rect x="0" y="0" width="24" height="24" fill="rgba(0, 0, 0, 0)" /></svg>