<svg xmlns="http://www.w3.org/2000/svg" xmlns:xlink="http://www.w3.org/1999/xlink" width="24" height="24" preserveAspectRatio="xMidYMid meet" viewBox="0 0 24 24" style="-ms-transform: rotate(360deg); -webkit-transform: rotate(360deg); transform: rotate(360deg);"><g fill="none"><path d="M18.25 11a.75.75 0 0 1 .743.648l.007.102v.5a6.75 6.75 0 0 1-6.249 6.732l-.001 2.268a.75.75 0 0 1-1.493.102l-.007-.102v-2.268a6.75 6.75 0 0 1-6.246-6.496L5 12.25v-.5a.75.75 0 0 1 1.493-.102l.007.102v.5a5.25 5.25 0 0 0 5.034 5.246l.216.004h.5a5.25 5.25 0 0 0 5.246-5.034l.004-.216v-.5a.75.75 0 0 1 .75-.75zM12 2a4 4 0 0 1 4 4v6a4 4 0 0 1-8 0V6a4 4 0 0 1 4-4z" fill="#626262"/></g><rect x="0" y="0" width="24" height="24" fill="rgba(0, 0, 0, 0)" /></svg>