<svg xmlns="http://www.w3.org/2000/svg" xmlns:xlink="http://www.w3.org/1999/xlink" width="24" height="24" preserveAspectRatio="xMidYMid meet" viewBox="0 0 24 24" style="-ms-transform: rotate(360deg); -webkit-transform: rotate(360deg); transform: rotate(360deg);"><g fill="none"><path d="M11.175 15.996A6.513 6.513 0 0 1 15 11.498V6a4 4 0 0 0-8 0v6a4 4 0 0 0 4.175 3.996z" fill="#626262"/><path d="M11 17.5c0 1.096.271 2.129.75 3.035v.715a.75.75 0 0 1-1.493.102l-.007-.102v-2.268a6.75 6.75 0 0 1-6.246-6.496L4 12.25v-.5a.75.75 0 0 1 1.493-.102l.007.102v.5a5.25 5.25 0 0 0 5.034 5.246l.216.004H11z" fill="#626262"/><path d="M23 17.5a5.5 5.5 0 1 1-11 0a5.5 5.5 0 0 1 11 0zm-9.5 0c0 .834.255 1.608.691 2.248l5.557-5.557A4 4 0 0 0 13.5 17.5zm4 4a4 4 0 0 0 3.309-6.248l-5.557 5.557c.64.436 1.414.691 2.248.691z" fill="#626262"/></g><rect x="0" y="0" width="24" height="24" fill="rgba(0, 0, 0, 0)" /></svg>