<svg xmlns="http://www.w3.org/2000/svg" xmlns:xlink="http://www.w3.org/1999/xlink" width="24" height="24" preserveAspectRatio="xMidYMid meet" viewBox="0 0 24 24" style="-ms-transform: rotate(360deg); -webkit-transform: rotate(360deg); transform: rotate(360deg);"><g fill="none"><path d="M17.5 12c.293 0 .58.024.86.072l.174.716a2 2 0 0 0 2.413 1.475l.098-.026l.601-.179c.363.467.653.997.854 1.57l-.447.43a2 2 0 0 0-.17 2.7l.142.156l.475.457c-.2.574-.49 1.103-.853 1.57l-.602-.178a2 2 0 0 0-2.485 1.351l-.026.098l-.173.716a5.178 5.178 0 0 1-1.723 0l-.172-.716a2 2 0 0 0-2.413-1.475l-.098.026l-.602.178a5.546 5.546 0 0 1-.853-1.57l.447-.43a2 2 0 0 0 .17-2.698l-.142-.157l-.475-.457c.2-.574.49-1.103.853-1.57l.602.178a2 2 0 0 0 2.485-1.351l.026-.098l.172-.716c.28-.047.569-.072.862-.072zM2.75 12a.75.75 0 0 1 .743.648l.007.102v.5a5.25 5.25 0 0 0 5.034 5.246l.216.004h.5a5.24 5.24 0 0 0 1.786-.312a6.46 6.46 0 0 0 .332 1.473c-.514.17-1.056.28-1.617.32L9.75 21.25a.75.75 0 0 1-1.493.102l-.007-.102v-1.268a6.75 6.75 0 0 1-6.246-6.495L2 13.25v-.5a.75.75 0 0 1 .75-.75zm14.75 4c-.8 0-1.45.672-1.45 1.5S16.7 19 17.5 19c.8 0 1.45-.672 1.45-1.5S18.3 16 17.5 16zM9 2a4 4 0 0 1 4 4v6.81a6.486 6.486 0 0 0-1.909 3.598A4 4 0 0 1 5 13V6a4 4 0 0 1 4-4z" fill="#626262"/></g><rect x="0" y="0" width="24" height="24" fill="rgba(0, 0, 0, 0)" /></svg>