<svg xmlns="http://www.w3.org/2000/svg" xmlns:xlink="http://www.w3.org/1999/xlink" width="24" height="24" preserveAspectRatio="xMidYMid meet" viewBox="0 0 24 24" style="-ms-transform: rotate(360deg); -webkit-transform: rotate(360deg); transform: rotate(360deg);"><g fill="none"><path d="M19.729 3.875l.05.16l.552 1.922a.75.75 0 0 1-.418.893l-.096.035L9.09 9.96h11.159a.75.75 0 0 1 .743.65l.007.1v8.499a2.75 2.75 0 0 1-2.583 2.745l-.167.005H5.75a2.75 2.75 0 0 1-2.745-2.582L3 19.209v-8.392l-.522-1.821a2.75 2.75 0 0 1 1.726-3.35l.16-.052L16.378 2.15a2.75 2.75 0 0 1 3.35 1.726zM6.273 6.607l-1.496.43a1.25 1.25 0 0 0-.886 1.42l.029.125l.344 1.201l.295-.085l1.714-3.09zm4.756-1.363l-2.717.779l-1.714 3.09l2.718-.778l1.713-3.091zm4.757-1.365l-2.717.78l-1.714 3.09l2.717-.778l1.714-3.092zm1.848-.233l-1.521 2.74l2.568-.737l-.343-1.2a1.248 1.248 0 0 0-.704-.803z" fill="#626262"/></g><rect x="0" y="0" width="24" height="24" fill="rgba(0, 0, 0, 0)" /></svg>