<svg xmlns="http://www.w3.org/2000/svg" xmlns:xlink="http://www.w3.org/1999/xlink" width="24" height="24" preserveAspectRatio="xMidYMid meet" viewBox="0 0 24 24" style="-ms-transform: rotate(360deg); -webkit-transform: rotate(360deg); transform: rotate(360deg);"><g fill="none"><path d="M8.65 15.24a1 1 0 0 1 .185 1.31l-.076.1l-3 3.502a1 1 0 0 1-1.26.215l-.1-.066l-2-1.501a1 1 0 0 1 1.096-1.669l.105.07l1.25.937l2.39-2.789a1 1 0 0 1 1.41-.108zM21 17a1 1 0 0 1 .117 1.993L21 19H11a1 1 0 0 1-.117-1.993L11 17h10zm-.012-6a1 1 0 0 1 .116 1.993l-.116.007h-10a1 1 0 0 1-.117-1.993l.117-.007h10zM8.65 3.24a1 1 0 0 1 .184 1.31l-.076.1l-3 3.502a1 1 0 0 1-1.26.215l-.1-.066l-2-1.501A1 1 0 0 1 3.496 5.13l.105.07l1.25.937l2.39-2.789a1 1 0 0 1 1.41-.108zM21 5a1 1 0 0 1 .116 1.993L21 7H11a1 1 0 0 1-.117-1.993L11 5h10z" fill="#626262"/></g><rect x="0" y="0" width="24" height="24" fill="rgba(0, 0, 0, 0)" /></svg>