<svg xmlns="http://www.w3.org/2000/svg" xmlns:xlink="http://www.w3.org/1999/xlink" width="24" height="24" preserveAspectRatio="xMidYMid meet" viewBox="0 0 24 24" style="-ms-transform: rotate(360deg); -webkit-transform: rotate(360deg); transform: rotate(360deg);"><g fill="none"><path d="M19.25 8.5a2.75 2.75 0 1 0 0-5.5a2.75 2.75 0 0 0 0 5.5z" fill="#626262"/><path d="M15.713 7a3.744 3.744 0 0 1-.138-2H3l-.117.007A1 1 0 0 0 3 7h12.713z" fill="#626262"/><path d="M21 17H3l-.117.007A1 1 0 0 0 3 19h18l.117-.007A1 1 0 0 0 21 17z" fill="#626262"/><path d="M3 11l18-.002a1 1 0 0 1 .117 1.993l-.117.007L3 13a1 1 0 0 1-.117-1.993L3 11z" fill="#626262"/></g><rect x="0" y="0" width="24" height="24" fill="rgba(0, 0, 0, 0)" /></svg>