<svg xmlns="http://www.w3.org/2000/svg" xmlns:xlink="http://www.w3.org/1999/xlink" width="24" height="24" preserveAspectRatio="xMidYMid meet" viewBox="0 0 24 24" style="-ms-transform: rotate(360deg); -webkit-transform: rotate(360deg); transform: rotate(360deg);"><g fill="none"><path d="M3 17h18a1 1 0 0 1 .117 1.993L21 19H3a1 1 0 0 1-.117-1.993L3 17h18H3zm0-6l18-.002a1 1 0 0 1 .117 1.993l-.117.007L3 13a1 1 0 0 1-.117-1.993L3 11l18-.002L3 11zm0-6h18a1 1 0 0 1 .117 1.993L21 7H3a1 1 0 0 1-.117-1.993L3 5h18H3z" fill="#626262"/></g><rect x="0" y="0" width="24" height="24" fill="rgba(0, 0, 0, 0)" /></svg>