<svg xmlns="http://www.w3.org/2000/svg" xmlns:xlink="http://www.w3.org/1999/xlink" width="24" height="24" preserveAspectRatio="xMidYMid meet" viewBox="0 0 24 24" style="-ms-transform: rotate(360deg); -webkit-transform: rotate(360deg); transform: rotate(360deg);"><g fill="none"><path d="M15.648 2.007L15.75 2a.75.75 0 0 1 .743.648l.007.102v8.326a6.502 6.502 0 0 0-5.004 8.92H9.25A2.25 2.25 0 0 1 7 17.746V6.25A2.25 2.25 0 0 1 9.25 4L15 3.999v-1.25a.75.75 0 0 1 .648-.742zM23 17.5a5.5 5.5 0 1 1-11 0a5.5 5.5 0 0 1 11 0zm-8.5-.5a.5.5 0 0 0 0 1h4.793l-1.647 1.646a.5.5 0 0 0 .708.708l2.5-2.5a.5.5 0 0 0 0-.708l-2.5-2.5a.5.5 0 0 0-.708.708L19.293 17H14.5z" fill="#626262"/></g><rect x="0" y="0" width="24" height="24" fill="rgba(0, 0, 0, 0)" /></svg>