<svg xmlns="http://www.w3.org/2000/svg" xmlns:xlink="http://www.w3.org/1999/xlink" width="24" height="24" preserveAspectRatio="xMidYMid meet" viewBox="0 0 24 24" style="-ms-transform: rotate(360deg); -webkit-transform: rotate(360deg); transform: rotate(360deg);"><g fill="none"><path d="M10.985 3.165a1 1 0 0 0-1.973-.33l-.86 5.163L3.998 8a1 1 0 1 0 .002 2l3.817-.002l-.667 4L3 14a1 1 0 1 0 0 2l3.817-.002l-.807 4.838a1 1 0 1 0 1.973.329l.862-5.167l4.975-.003l-.806 4.84a1 1 0 1 0 1.972.33l.862-5.17L20 15.992a1 1 0 0 0 0-2l-3.819.001l.667-4.001L21 9.99a1 1 0 0 0 0-2l-3.818.002l.804-4.827a1 1 0 1 0-1.972-.33l-.86 5.159l-4.975.003l.806-4.832zm-1.14 6.832l4.976-.003l-.667 4.001l-4.976.002l.667-4z" fill="#626262"/></g><rect x="0" y="0" width="24" height="24" fill="rgba(0, 0, 0, 0)" /></svg>