<svg xmlns="http://www.w3.org/2000/svg" xmlns:xlink="http://www.w3.org/1999/xlink" width="24" height="24" preserveAspectRatio="xMidYMid meet" viewBox="0 0 24 24" style="-ms-transform: rotate(360deg); -webkit-transform: rotate(360deg); transform: rotate(360deg);"><g fill="none"><path d="M3.28 2.22a.75.75 0 1 0-1.06 1.06L4.568 5.63A3.737 3.737 0 0 0 3.505 8.05l-.004.203l.002 8.498l.005.199a3.75 3.75 0 0 0 3.547 3.545l.203.005l8.496-.012l.199-.005a3.738 3.738 0 0 0 2.411-1.058l2.355 2.355a.75.75 0 0 0 1.061-1.06L3.28 2.22zm14.024 16.145c-.404.385-.95.622-1.552.623L7.254 19l-.154-.005a2.25 2.25 0 0 1-2.097-2.245L5 8.22l.008-.16c.044-.53.272-1.009.62-1.37l5.374 5.373a.996.996 0 0 0 .29.644l.095.083a.996.996 0 0 0 .55.208l5.367 5.367z" fill="#626262"/><path d="M12.884 9.702l1.414 1.414l4.703-4.703v3.594l.007.117a1 1 0 0 0 1.994-.117V4l-.008-.12a.998.998 0 0 0-.48-.738l-.052-.03l-.119-.052l-.108-.032l-.081-.016l-.1-.01L14.004 3a1 1 0 0 0-1 1l.006.117a1 1 0 0 0 .994.883h3.58l-4.7 4.702z" fill="#626262"/><path d="M19.499 16.317l-1.5-1.5v-1.585a.75.75 0 0 1 1.493-.102l.007.102v3.085z" fill="#626262"/><path d="M7.682 4.5l1.5 1.5h1.567l.102-.007A.75.75 0 0 0 10.75 4.5H7.682z" fill="#626262"/></g><rect x="0" y="0" width="24" height="24" fill="rgba(0, 0, 0, 0)" /></svg>