<svg xmlns="http://www.w3.org/2000/svg" xmlns:xlink="http://www.w3.org/1999/xlink" width="24" height="24" preserveAspectRatio="xMidYMid meet" viewBox="0 0 24 24" style="-ms-transform: rotate(360deg); -webkit-transform: rotate(360deg); transform: rotate(360deg);"><g fill="none"><path d="M8.75 13.5a3.251 3.251 0 0 1 3.163 2.5h9.337a.75.75 0 0 1 .102 1.493l-.102.007h-9.337a3.251 3.251 0 0 1-6.326 0H2.75a.75.75 0 0 1-.102-1.493L2.75 16h2.837a3.251 3.251 0 0 1 3.163-2.5zm6.5-9.5a3.251 3.251 0 0 1 3.163 2.5h2.837a.75.75 0 0 1 .102 1.493L21.25 8h-2.837a3.251 3.251 0 0 1-6.326 0H2.75a.75.75 0 0 1-.102-1.493L2.75 6.5h9.337A3.251 3.251 0 0 1 15.25 4z" fill="#626262"/></g><rect x="0" y="0" width="24" height="24" fill="rgba(0, 0, 0, 0)" /></svg>