<svg id="abcf2ac0-9ae4-4b7f-9699-ec8763c98f17" data-name="b35c941f-f87f-4431-b8d0-0bd526653e71" xmlns="http://www.w3.org/2000/svg" viewBox="0 0 24 24">
  <defs>
    <style>
      .eef01f7a-bdb2-4bce-ae25-a28c1c11d530 {
        fill: #626262;
      }

      .e57cc9ec-f2ba-470d-8c1c-ebccf8f8f263 {
        fill: #fff;
        fill-opacity: 0;
      }
    </style>
  </defs>
  <path class="eef01f7a-bdb2-4bce-ae25-a28c1c11d530" d="M20.25,16h-.5V13.28A2.25,2.25,0,0,0,17.53,11H12.75V8h5.5A1.75,1.75,0,0,0,20,6.25V3.75A1.75,1.75,0,0,0,18.25,2H5.75A1.75,1.75,0,0,0,4,3.75v2.5A1.75,1.75,0,0,0,5.75,8h5.5v3H6.5a2.25,2.25,0,0,0-2.25,2.25V16h-.5A1.75,1.75,0,0,0,2,17.75v2.5A1.75,1.75,0,0,0,3.75,22h2.5A1.75,1.75,0,0,0,8,20.25v-2.5A1.77,1.77,0,0,0,6.25,16h-.5V14.26h0v-1a.76.76,0,0,1,.75-.75h4.75V16h-.5A1.75,1.75,0,0,0,9,17.75H9v2.5A1.75,1.75,0,0,0,10.75,22h2.5A1.75,1.75,0,0,0,15,20.25v-2.5A1.75,1.75,0,0,0,13.25,16h-.5V12.53H17.5a.76.76,0,0,1,.75.75v.46h0V16h-.5A1.77,1.77,0,0,0,16,17.75v2.5A1.75,1.75,0,0,0,17.75,22h2.5A1.75,1.75,0,0,0,22,20.25v-2.5A1.75,1.75,0,0,0,20.25,16Z"/>
  <rect class="e57cc9ec-f2ba-470d-8c1c-ebccf8f8f263" width="24" height="24"/>
</svg>
