<svg xmlns="http://www.w3.org/2000/svg" xmlns:xlink="http://www.w3.org/1999/xlink" width="24" height="24" preserveAspectRatio="xMidYMid meet" viewBox="0 0 24 24" style="-ms-transform: rotate(360deg); -webkit-transform: rotate(360deg); transform: rotate(360deg);"><g fill="none"><path d="M12.5 2v3.252a.75.75 0 0 0 1.5 0V2h1v4.251a.75.75 0 0 0 1.5 0V2h1.75a.75.75 0 0 1 .75.75V11H5V2.75A.75.75 0 0 1 5.75 2h6.75z" fill="#626262"/><path d="M5 12.5v1.752a2.25 2.25 0 0 0 2.25 2.25H10V20a2 2 0 1 0 4 0v-3.498h2.75a2.25 2.25 0 0 0 2.25-2.25V12.5H5z" fill="#626262"/></g><rect x="0" y="0" width="24" height="24" fill="rgba(0, 0, 0, 0)" /></svg>