<svg xmlns="http://www.w3.org/2000/svg" xmlns:xlink="http://www.w3.org/1999/xlink" width="24" height="24" preserveAspectRatio="xMidYMid meet" viewBox="0 0 24 24" style="-ms-transform: rotate(360deg); -webkit-transform: rotate(360deg); transform: rotate(360deg);"><g fill="none"><path d="M17.995 12a.5.5 0 0 1-.5.5l-4.784.002l1.645 1.646a.5.5 0 0 1-.707.707l-2.499-2.5a.5.5 0 0 1 0-.707l2.5-2.499a.5.5 0 0 1 .706.707l-1.645 1.646l4.784-.002a.5.5 0 0 1 .5.5z" fill="#626262"/><path d="M4.75 4A2.75 2.75 0 0 0 2 6.75v10.5A2.75 2.75 0 0 0 4.75 20h14.5A2.75 2.75 0 0 0 22 17.25V6.75A2.75 2.75 0 0 0 19.25 4H4.75zm4.248 14.5v-13H19.25c.69 0 1.25.56 1.25 1.25v10.5c0 .69-.56 1.25-1.25 1.25H8.998z" fill="#626262"/></g><rect x="0" y="0" width="24" height="24" fill="rgba(0, 0, 0, 0)" /></svg>