<svg xmlns="http://www.w3.org/2000/svg" xmlns:xlink="http://www.w3.org/1999/xlink" width="24" height="24" preserveAspectRatio="xMidYMid meet" viewBox="0 0 24 24" style="-ms-transform: rotate(360deg); -webkit-transform: rotate(360deg); transform: rotate(360deg);"><g fill="none"><path d="M2 7.75A2.75 2.75 0 0 1 4.75 5h14.5A2.75 2.75 0 0 1 22 7.75V9.5H2V7.75z" fill="#626262"/><path d="M2 11h20v5.25A2.75 2.75 0 0 1 19.25 19H4.75A2.75 2.75 0 0 1 2 16.25V11zm13.75 3.5a.75.75 0 0 0 0 1.5h2.5a.75.75 0 0 0 0-1.5h-2.5z" fill="#626262"/></g><rect x="0" y="0" width="24" height="24" fill="rgba(0, 0, 0, 0)" /></svg>