<svg xmlns="http://www.w3.org/2000/svg" xmlns:xlink="http://www.w3.org/1999/xlink" width="24" height="24" preserveAspectRatio="xMidYMid meet" viewBox="0 0 24 24" style="-ms-transform: rotate(360deg); -webkit-transform: rotate(360deg); transform: rotate(360deg);"><g fill="none"><path d="M12.81 13L4 13a2 2 0 0 0-2 2V16.5l.005.23C2.165 20.044 5.778 21 8.5 21c1.03 0 2.189-.137 3.239-.487A6.472 6.472 0 0 1 11 17.5c0-1.746.689-3.332 1.81-4.5zM13 6.5a4.5 4.5 0 1 0-9 0a4.5 4.5 0 0 0 9 0zm8 1a3.5 3.5 0 1 0-7 0a3.5 3.5 0 0 0 7 0zm2 10a5.5 5.5 0 1 1-11 0a5.5 5.5 0 0 1 11 0zm-2.146-2.354a.5.5 0 0 0-.708 0L16.5 18.793l-1.646-1.647a.5.5 0 0 0-.708.708l2 2a.5.5 0 0 0 .708 0l4-4a.5.5 0 0 0 0-.708z" fill="#626262"/></g><rect x="0" y="0" width="24" height="24" fill="rgba(0, 0, 0, 0)" /></svg>