<svg xmlns="http://www.w3.org/2000/svg" xmlns:xlink="http://www.w3.org/1999/xlink" width="24" height="24" preserveAspectRatio="xMidYMid meet" viewBox="0 0 24 24" style="-ms-transform: rotate(360deg); -webkit-transform: rotate(360deg); transform: rotate(360deg);"><g fill="none"><path d="M12.022 14A6.47 6.47 0 0 0 11 17.5c0 1.63.6 3.12 1.592 4.261c-.796.16-1.66.24-2.592.24c-3.42 0-5.944-1.072-7.486-3.237a2.75 2.75 0 0 1-.51-1.595v-.92a2.249 2.249 0 0 1 2.249-2.25h7.77zm5.478-2a5.5 5.5 0 1 1 0 11a5.5 5.5 0 0 1 0-11zm0 7.75a.625.625 0 1 0 0 1.25a.625.625 0 0 0 0-1.25zm0-5.876c-1.048 0-1.864.817-1.853 1.954a.5.5 0 1 0 1-.01c-.006-.579.36-.944.853-.944c.473 0 .854.392.854.95c0 .192-.056.342-.224.56l-.094.117l-.1.113l-.265.29l-.136.157c-.384.457-.535.793-.535 1.31a.5.5 0 1 0 1 0c0-.203.059-.359.239-.59l.085-.104l.1-.116l.267-.29l.134-.155c.378-.45.529-.783.529-1.293c0-1.103-.823-1.95-1.854-1.95zM10 2.004a5 5 0 1 1 0 10a5 5 0 0 1 0-10z" fill="#626262"/></g><rect x="0" y="0" width="24" height="24" fill="rgba(0, 0, 0, 0)" /></svg>