<svg xmlns="http://www.w3.org/2000/svg" xmlns:xlink="http://www.w3.org/1999/xlink" width="24" height="24" preserveAspectRatio="xMidYMid meet" viewBox="0 0 24 24" style="-ms-transform: rotate(360deg); -webkit-transform: rotate(360deg); transform: rotate(360deg);"><g fill="none"><path d="M17.5 12a5.5 5.5 0 1 1 0 11a5.5 5.5 0 0 1 0-11zm-5.478 2A6.47 6.47 0 0 0 11 17.5c0 1.644.61 3.145 1.617 4.29c-.802.141-1.675.21-2.617.21c-2.89 0-5.128-.656-6.691-2a3.75 3.75 0 0 1-1.305-2.843v-.907A2.25 2.25 0 0 1 4.254 14h7.768zm4.697.588l-.069.058l-2.515 2.517l-.041.05l-.035.058l-.032.078l-.012.043l-.01.086l.003.088l.019.085l.032.078l.025.042l.05.066l2.516 2.516a.5.5 0 0 0 .765-.638l-.058-.069L15.711 18h4.79a.5.5 0 0 0 .491-.41L21 17.5a.5.5 0 0 0-.41-.492L20.5 17h-4.789l1.646-1.647a.5.5 0 0 0 .058-.637l-.058-.07a.5.5 0 0 0-.638-.058zM10 2.004a5 5 0 1 1 0 10a5 5 0 0 1 0-10z" fill="#626262"/></g><rect x="0" y="0" width="24" height="24" fill="rgba(0, 0, 0, 0)" /></svg>