<svg xmlns="http://www.w3.org/2000/svg" xmlns:xlink="http://www.w3.org/1999/xlink" width="24" height="24" preserveAspectRatio="xMidYMid meet" viewBox="0 0 24 24" style="-ms-transform: rotate(360deg); -webkit-transform: rotate(360deg); transform: rotate(360deg);"><g fill="none"><path d="M15.75 13.997a2.249 2.249 0 0 1 2.25 2.25v.918c0 .285-.045.567-.13.836h-2.035a1.75 1.75 0 0 0-2.822-1.98l-2.5 2.498a1.75 1.75 0 0 0 0 2.477l.935.933c-.465.046-.948.07-1.452.07c-3.42 0-5.943-1.073-7.486-3.237A2.75 2.75 0 0 1 2 17.166v-.92a2.249 2.249 0 0 1 2.249-2.249H15.75z" fill="#626262"/><path d="M9.996 2.002a5 5 0 1 1 0 10a5 5 0 0 1 0-10z" fill="#626262"/><path d="M14.78 17.784a.75.75 0 0 0-1.06-1.06l-2.5 2.5a.75.75 0 0 0 0 1.06l2.5 2.5a.75.75 0 0 0 1.06-1.061l-1.22-1.22h6.88l-1.22 1.22a.75.75 0 0 0 1.06 1.06l2.5-2.498a.75.75 0 0 0 0-1.06l-2.5-2.502a.75.75 0 1 0-1.06 1.06l1.218 1.22h-6.877l1.22-1.22z" fill="#626262"/></g><rect x="0" y="0" width="24" height="24" fill="rgba(0, 0, 0, 0)" /></svg>