<svg xmlns="http://www.w3.org/2000/svg" xmlns:xlink="http://www.w3.org/1999/xlink" width="24" height="24" preserveAspectRatio="xMidYMid meet" viewBox="0 0 24 24" style="-ms-transform: rotate(360deg); -webkit-transform: rotate(360deg); transform: rotate(360deg);"><g fill="none"><path d="M17.5 12a5.5 5.5 0 1 1 0 11a5.5 5.5 0 0 1 0-11zm-5.478 2A6.47 6.47 0 0 0 11 17.5c0 1.63.6 3.12 1.592 4.261c-.796.16-1.66.24-2.592.24c-3.42 0-5.944-1.072-7.486-3.237a2.75 2.75 0 0 1-.51-1.595v-.92a2.249 2.249 0 0 1 2.249-2.25h7.77zm2.832 3.146a.5.5 0 0 0-.707.707l2 2a.5.5 0 0 0 .707 0l4-4a.5.5 0 0 0-.707-.707L16.5 18.793l-1.646-1.647zM10 2.004a5 5 0 1 1 0 10a5 5 0 0 1 0-10z" fill="#626262"/></g><rect x="0" y="0" width="24" height="24" fill="rgba(0, 0, 0, 0)" /></svg>