<svg xmlns="http://www.w3.org/2000/svg" xmlns:xlink="http://www.w3.org/1999/xlink" width="24" height="24" preserveAspectRatio="xMidYMid meet" viewBox="0 0 24 24" style="-ms-transform: rotate(360deg); -webkit-transform: rotate(360deg); transform: rotate(360deg);"><g fill="none"><path d="M11 15c0-.35.06-.687.17-1H4.253a2.249 2.249 0 0 0-2.249 2.249v.92c0 .572.179 1.13.51 1.596C4.057 20.929 6.58 22 10 22c.397 0 .783-.014 1.156-.043A2.997 2.997 0 0 1 11 21v-6zM10 2.005a5 5 0 1 1 0 10a5 5 0 0 1 0-10zM12 15a2 2 0 0 1 2-2h7a2 2 0 0 1 2 2v6a2 2 0 0 1-2 2h-7a2 2 0 0 1-2-2v-6zm2.5 1a.5.5 0 0 0 0 1h6a.5.5 0 0 0 0-1h-6zm0 3a.5.5 0 0 0 0 1h6a.5.5 0 0 0 0-1h-6z" fill="#626262"/></g><rect x="0" y="0" width="24" height="24" fill="rgba(0, 0, 0, 0)" /></svg>