<svg xmlns="http://www.w3.org/2000/svg" xmlns:xlink="http://www.w3.org/1999/xlink" width="24" height="24" preserveAspectRatio="xMidYMid meet" viewBox="0 0 24 24" style="-ms-transform: rotate(360deg); -webkit-transform: rotate(360deg); transform: rotate(360deg);"><g fill="none"><path d="M17.5 12a5.5 5.5 0 1 1 0 11a5.5 5.5 0 0 1 0-11zM13.75 2A2.25 2.25 0 0 1 16 4.25v6.924a6.503 6.503 0 0 0-5 6.326H8.75a.75.75 0 0 0 0 1.5h2.424a6.487 6.487 0 0 0 1.636 3H6.25A2.25 2.25 0 0 1 4 19.75V4.25A2.25 2.25 0 0 1 6.25 2h7.5zm3.75 12l-.09.007a.5.5 0 0 0-.402.402L17 14.5V17L14.498 17l-.09.008a.5.5 0 0 0-.402.402l-.008.09l.008.09a.5.5 0 0 0 .402.402l.09.008H17v2.503l.008.09a.5.5 0 0 0 .402.402l.09.008l.09-.008a.5.5 0 0 0 .402-.402l.008-.09V18l2.504.001l.09-.008a.5.5 0 0 0 .402-.402l.008-.09l-.008-.09a.5.5 0 0 0-.403-.402l-.09-.008H18v-2.5l-.008-.09a.5.5 0 0 0-.402-.403L17.5 14z" fill="#626262"/></g><rect x="0" y="0" width="24" height="24" fill="rgba(0, 0, 0, 0)" /></svg>