<svg xmlns="http://www.w3.org/2000/svg" xmlns:xlink="http://www.w3.org/1999/xlink" width="24" height="24" preserveAspectRatio="xMidYMid meet" viewBox="0 0 24 24" style="-ms-transform: rotate(360deg); -webkit-transform: rotate(360deg); transform: rotate(360deg);"><g fill="none"><path d="M15.75 2A2.25 2.25 0 0 1 18 4.25v15.5A2.25 2.25 0 0 1 15.75 22h-7.5A2.25 2.25 0 0 1 6 19.75V4.25A2.25 2.25 0 0 1 8.25 2h7.5zM9.499 17.762a.75.75 0 1 0 0 1.5a.75.75 0 0 0 0-1.5zm2.5 0a.75.75 0 1 0 0 1.5a.75.75 0 0 0 0-1.5zm2.5 0a.75.75 0 1 0 0 1.5a.75.75 0 0 0 0-1.5z" fill="#626262"/></g><rect x="0" y="0" width="24" height="24" fill="rgba(0, 0, 0, 0)" /></svg>