<svg xmlns="http://www.w3.org/2000/svg" xmlns:xlink="http://www.w3.org/1999/xlink" width="24" height="24" preserveAspectRatio="xMidYMid meet" viewBox="0 0 24 24" style="-ms-transform: rotate(360deg); -webkit-transform: rotate(360deg); transform: rotate(360deg);"><g fill="none"><path d="M16.5 12.5a1 1 0 1 0 0-2a1 1 0 0 0 0 2z" fill="#626262"/><path d="M2 7.75A3.75 3.75 0 0 1 5.75 4h12.5A3.75 3.75 0 0 1 22 7.75v8.5A3.75 3.75 0 0 1 18.25 20H5.75A3.75 3.75 0 0 1 2 16.25v-8.5zM9.5 9A1.5 1.5 0 0 0 8 10.5v5c0 .267.07.517.191.734l3.4-3.613a1.25 1.25 0 0 1 1.817-.004l4.162 4.381A1.5 1.5 0 0 0 19 15.5v-5A1.5 1.5 0 0 0 17.5 9h-8zm6.003 8l-3-3.159L9.53 17h5.973z" fill="#626262"/></g><rect x="0" y="0" width="24" height="24" fill="rgba(0, 0, 0, 0)" /></svg>