<svg xmlns="http://www.w3.org/2000/svg" xmlns:xlink="http://www.w3.org/1999/xlink" width="24" height="24" preserveAspectRatio="xMidYMid meet" viewBox="0 0 24 24" style="-ms-transform: rotate(360deg); -webkit-transform: rotate(360deg); transform: rotate(360deg);"><g fill="none"><path d="M3.28 2.22a.75.75 0 1 0-1.06 1.06l6.125 6.125l-2.873 1.149l-.095.045a.75.75 0 0 0-.157 1.181l3.205 3.203l-4.953 4.962L3.47 21l1.065.003l4.951-4.959l3.238 3.236l.08.07a.75.75 0 0 0 1.146-.322l1.147-2.87l5.622 5.622a.75.75 0 0 0 1.061-1.06L3.28 2.22z" fill="#626262"/><path d="M20.974 11.343l-4.104 2.345l-6.086-6.086l2.323-4.357a2.25 2.25 0 0 1 3.502-.603l.125.124L21.5 7.85a2.251 2.251 0 0 1-.389 3.408l-.136.084z" fill="#626262"/></g><rect x="0" y="0" width="24" height="24" fill="rgba(0, 0, 0, 0)" /></svg>