<svg xmlns="http://www.w3.org/2000/svg" xmlns:xlink="http://www.w3.org/1999/xlink" width="24" height="24" preserveAspectRatio="xMidYMid meet" viewBox="0 0 24 24" style="-ms-transform: rotate(360deg); -webkit-transform: rotate(360deg); transform: rotate(360deg);"><g fill="none"><path d="M13.25 16.5a3.25 3.25 0 0 0 3.25-3.25v-8A3.25 3.25 0 0 0 13.25 2h-8A3.25 3.25 0 0 0 2 5.25v8a3.25 3.25 0 0 0 3.25 3.25h8z" fill="#626262"/><path d="M7.5 17.5H9v1.25c0 .966.784 1.75 1.75 1.75h8a1.75 1.75 0 0 0 1.75-1.75v-8A1.75 1.75 0 0 0 18.75 9H17.5V7.5h1.25A3.25 3.25 0 0 1 22 10.75v8A3.25 3.25 0 0 1 18.75 22h-8a3.25 3.25 0 0 1-3.25-3.25V17.5z" fill="#626262"/></g><rect x="0" y="0" width="24" height="24" fill="rgba(0, 0, 0, 0)" /></svg>