<svg xmlns="http://www.w3.org/2000/svg" xmlns:xlink="http://www.w3.org/1999/xlink" width="24" height="24" preserveAspectRatio="xMidYMid meet" viewBox="0 0 24 24" style="-ms-transform: rotate(360deg); -webkit-transform: rotate(360deg); transform: rotate(360deg);"><g fill="none"><path d="M16.5 6.5h-5.75a4.25 4.25 0 0 0-4.25 4.25v5.75H5.25A3.25 3.25 0 0 1 2 13.25v-8A3.25 3.25 0 0 1 5.25 2h8a3.25 3.25 0 0 1 3.25 3.25V6.5z" fill="#626262"/><path d="M22 18.75A3.25 3.25 0 0 1 18.75 22h-8a3.25 3.25 0 0 1-3.25-3.25v-8a3.25 3.25 0 0 1 3.25-3.25h8A3.25 3.25 0 0 1 22 10.75v8zm-3.25 1.75a1.75 1.75 0 0 0 1.75-1.75v-8A1.75 1.75 0 0 0 18.75 9h-8A1.75 1.75 0 0 0 9 10.75v8c0 .966.784 1.75 1.75 1.75h8z" fill="#626262"/></g><rect x="0" y="0" width="24" height="24" fill="rgba(0, 0, 0, 0)" /></svg>