<svg xmlns="http://www.w3.org/2000/svg" xmlns:xlink="http://www.w3.org/1999/xlink" width="24" height="24" preserveAspectRatio="xMidYMid meet" viewBox="0 0 24 24" style="-ms-transform: rotate(360deg); -webkit-transform: rotate(360deg); transform: rotate(360deg);"><g fill="none"><path d="M8.205 4.844a1 1 0 0 1 .844 1.813A6.997 6.997 0 0 0 12 20a6.998 6.998 0 0 0 2.965-13.336a1 1 0 0 1 .848-1.812A8.996 8.996 0 0 1 21 13.003C21 17.973 16.97 22 12 22s-9-4.028-9-8.996a8.996 8.996 0 0 1 5.205-8.16zM12 2a1 1 0 0 1 .993.883L13 3v7a1 1 0 0 1-1.993.118L11 10V3a1 1 0 0 1 1-1z" fill="#626262"/></g><rect x="0" y="0" width="24" height="24" fill="rgba(0, 0, 0, 0)" /></svg>