<svg xmlns="http://www.w3.org/2000/svg" xmlns:xlink="http://www.w3.org/1999/xlink" width="24" height="24" preserveAspectRatio="xMidYMid meet" viewBox="0 0 24 24" style="-ms-transform: rotate(360deg); -webkit-transform: rotate(360deg); transform: rotate(360deg);"><g fill="none"><path d="M8 6H6v2h2V6z" fill="#626262"/><path d="M3 5.5A2.5 2.5 0 0 1 5.5 3h3A2.5 2.5 0 0 1 11 5.5v3A2.5 2.5 0 0 1 8.5 11h-3A2.5 2.5 0 0 1 3 8.5v-3zM5.5 5a.5.5 0 0 0-.5.5v3a.5.5 0 0 0 .5.5h3a.5.5 0 0 0 .5-.5v-3a.5.5 0 0 0-.5-.5h-3z" fill="#626262"/><path d="M6 16h2v2H6v-2z" fill="#626262"/><path d="M3 15.5A2.5 2.5 0 0 1 5.5 13h3a2.5 2.5 0 0 1 2.5 2.5v3A2.5 2.5 0 0 1 8.5 21h-3A2.5 2.5 0 0 1 3 18.5v-3zm2.5-.5a.5.5 0 0 0-.5.5v3a.5.5 0 0 0 .5.5h3a.5.5 0 0 0 .5-.5v-3a.5.5 0 0 0-.5-.5h-3z" fill="#626262"/><path d="M18 6h-2v2h2V6z" fill="#626262"/><path d="M15.5 3A2.5 2.5 0 0 0 13 5.5v3a2.5 2.5 0 0 0 2.5 2.5h3A2.5 2.5 0 0 0 21 8.5v-3A2.5 2.5 0 0 0 18.5 3h-3zM15 5.5a.5.5 0 0 1 .5-.5h3a.5.5 0 0 1 .5.5v3a.5.5 0 0 1-.5.5h-3a.5.5 0 0 1-.5-.5v-3z" fill="#626262"/><path d="M13 13h2.75v2.75H13V13z" fill="#626262"/><path d="M18.25 15.75h-2.5v2.5H13V21h2.75v-2.75h2.5V21H21v-2.75h-2.75v-2.5z" fill="#626262"/><path d="M18.25 15.75V13H21v2.75h-2.75z" fill="#626262"/></g><rect x="0" y="0" width="24" height="24" fill="rgba(0, 0, 0, 0)" /></svg>