<svg xmlns="http://www.w3.org/2000/svg" xmlns:xlink="http://www.w3.org/1999/xlink" width="24" height="24" preserveAspectRatio="xMidYMid meet" viewBox="0 0 24 24" style="-ms-transform: rotate(360deg); -webkit-transform: rotate(360deg); transform: rotate(360deg);"><g fill="none"><path d="M12 4C9.238 4 7 6.238 7 9a1 1 0 0 0 2 0c0-1.658 1.342-3 3-3s3 1.342 3 3c0 .816-.199 1.294-.438 1.629c-.262.365-.625.638-1.128.985l-.116.078c-.447.306-1.023.699-1.469 1.247c-.527.648-.849 1.467-.849 2.561v.5a1 1 0 1 0 2 0v-.5c0-.656.178-1.024.4-1.299c.257-.314.603-.552 1.114-.903l.053-.037c.496-.34 1.133-.786 1.62-1.468C16.7 11.081 17 10.183 17 9c0-2.762-2.238-5-5-5z" fill="#626262"/><path d="M12 21.25a1.25 1.25 0 1 0 0-2.5a1.25 1.25 0 0 0 0 2.5z" fill="#626262"/></g><rect x="0" y="0" width="24" height="24" fill="rgba(0, 0, 0, 0)" /></svg>