<svg xmlns="http://www.w3.org/2000/svg" xmlns:xlink="http://www.w3.org/1999/xlink" width="24" height="24" preserveAspectRatio="xMidYMid meet" viewBox="0 0 24 24" style="-ms-transform: rotate(360deg); -webkit-transform: rotate(360deg); transform: rotate(360deg);"><g fill="none"><path d="M16 17a2 2 0 1 1 0 4a2 2 0 0 1 0-4zm-8 0a2 2 0 1 1 0 4a2 2 0 0 1 0-4zm8-7a2 2 0 1 1 0 4a2 2 0 0 1 0-4zm-8 0a2 2 0 1 1 0 4a2 2 0 0 1 0-4zm8-7a2 2 0 1 1 0 4a2 2 0 0 1 0-4zM8 3a2 2 0 1 1 0 4a2 2 0 0 1 0-4z" fill="#626262"/></g><rect x="0" y="0" width="24" height="24" fill="rgba(0, 0, 0, 0)" /></svg>