<svg xmlns="http://www.w3.org/2000/svg" xmlns:xlink="http://www.w3.org/1999/xlink" width="24" height="24" preserveAspectRatio="xMidYMid meet" viewBox="0 0 24 24" style="-ms-transform: rotate(360deg); -webkit-transform: rotate(360deg); transform: rotate(360deg);"><g fill="none"><path d="M9.9 4.562l.042.102l5 13.999a1 1 0 0 1-1.838.78l-.045-.107L11.509 15H6.49l-1.547 4.336a1 1 0 0 1-1.919-.552l.035-.121l5-14c.292-.814 1.374-.879 1.792-.195l.05.094zm5.961-2.469c2.086 1.14 3.652 2.603 4.682 4.388c1.03 1.784 1.515 3.871 1.459 6.248a.75.75 0 0 1-1.5-.036c.05-2.111-.372-3.927-1.258-5.462c-.886-1.536-2.249-2.809-4.102-3.821a.75.75 0 1 1 .72-1.317zm-.237 3.601c.967.527 1.742 1.295 2.316 2.29c.574.994.851 2.049.825 3.15a.75.75 0 0 1-1.5-.037c.02-.821-.186-1.605-.624-2.364c-.438-.759-1.014-1.329-1.735-1.722a.75.75 0 0 1 .718-1.317zM9 7.973L7.205 13h3.59L9.002 7.973z" fill="#626262"/></g><rect x="0" y="0" width="24" height="24" fill="rgba(0, 0, 0, 0)" /></svg>