<svg xmlns="http://www.w3.org/2000/svg" xmlns:xlink="http://www.w3.org/1999/xlink" width="24" height="24" preserveAspectRatio="xMidYMid meet" viewBox="0 0 24 24" style="-ms-transform: rotate(360deg); -webkit-transform: rotate(360deg); transform: rotate(360deg);"><g fill="none"><path d="M17.002 15.244L17 21.245a.75.75 0 0 1-1.182.613l-3.818-2.687l-3.817 2.687a.75.75 0 0 1-1.181-.613l-.002-6A7.966 7.966 0 0 0 12 17a7.966 7.966 0 0 0 5.002-1.756zM12 2a7 7 0 1 1 0 14a7 7 0 0 1 0-14z" fill="#626262"/></g><rect x="0" y="0" width="24" height="24" fill="rgba(0, 0, 0, 0)" /></svg>