<svg xmlns="http://www.w3.org/2000/svg" xmlns:xlink="http://www.w3.org/1999/xlink" width="24" height="24" preserveAspectRatio="xMidYMid meet" viewBox="0 0 24 24" style="-ms-transform: rotate(360deg); -webkit-transform: rotate(360deg); transform: rotate(360deg);"><g fill="none"><path d="M7 5a2 2 0 1 1-4 0a2 2 0 0 1 4 0z" fill="#626262"/><path d="M8 5a1 1 0 0 0 1 1h6a1 1 0 1 0 0-2H9a1 1 0 0 0-1 1z" fill="#626262"/><path d="M5 8a1 1 0 0 0-1 1v6a1 1 0 1 0 2 0V9a1 1 0 0 0-1-1z" fill="#626262"/><path d="M19 8a1 1 0 0 0-1 1v6a1 1 0 1 0 2 0V9a1 1 0 0 0-1-1z" fill="#626262"/><path d="M9 20a1 1 0 1 1 0-2h6a1 1 0 1 1 0 2H9z" fill="#626262"/><path d="M5 21a2 2 0 1 0 0-4a2 2 0 0 0 0 4z" fill="#626262"/><path d="M21 5a2 2 0 1 1-4 0a2 2 0 0 1 4 0z" fill="#626262"/><path d="M19 21a2 2 0 1 0 0-4a2 2 0 0 0 0 4z" fill="#626262"/></g><rect x="0" y="0" width="24" height="24" fill="rgba(0, 0, 0, 0)" /></svg>