<svg xmlns="http://www.w3.org/2000/svg" xmlns:xlink="http://www.w3.org/1999/xlink" width="24" height="24" preserveAspectRatio="xMidYMid meet" viewBox="0 0 24 24" style="-ms-transform: rotate(360deg); -webkit-transform: rotate(360deg); transform: rotate(360deg);"><g fill="none"><path d="M12.815 12.197l-7.532 1.256a.5.5 0 0 0-.386.318L2.3 20.728c-.248.64.421 1.25 1.035.943l18-9a.75.75 0 0 0 0-1.342l-18-9c-.614-.307-1.283.304-1.035.943l2.598 6.957a.5.5 0 0 0 .386.319l7.532 1.255a.2.2 0 0 1 0 .394z" fill="#626262"/></g><rect x="0" y="0" width="24" height="24" fill="rgba(0, 0, 0, 0)" /></svg>