<svg xmlns="http://www.w3.org/2000/svg" xmlns:xlink="http://www.w3.org/1999/xlink" width="24" height="24" preserveAspectRatio="xMidYMid meet" viewBox="0 0 24 24" style="-ms-transform: rotate(360deg); -webkit-transform: rotate(360deg); transform: rotate(360deg);"><g fill="none"><path d="M2.232 10.386A2.75 2.75 0 0 1 4.907 7h14.184a2.75 2.75 0 0 1 2.675 3.388l-1.074 4.501a2.75 2.75 0 0 1-2.675 2.112H5.98a2.75 2.75 0 0 1-2.676-2.113l-1.071-4.502zM7 11.5A.75.75 0 1 0 7 10a.75.75 0 0 0 0 1.5zm3.25-.75a.75.75 0 1 0-1.5 0a.75.75 0 0 0 1.5 0zm-2 3.25a.75.75 0 1 0 0-1.5a.75.75 0 0 0 0 1.5zm3.25-.75a.75.75 0 1 0-1.5 0a.75.75 0 0 0 1.5 0zm1.75.75a.75.75 0 1 0 0-1.5a.75.75 0 0 0 0 1.5zm3.25-.75a.75.75 0 1 0-1.5 0a.75.75 0 0 0 1.5 0zM12 11.5a.75.75 0 1 0 0-1.5a.75.75 0 0 0 0 1.5zm3.25-.75a.75.75 0 1 0-1.5 0a.75.75 0 0 0 1.5 0zm1.75.75a.75.75 0 1 0 0-1.5a.75.75 0 0 0 0 1.5z" fill="#626262"/></g><rect x="0" y="0" width="24" height="24" fill="rgba(0, 0, 0, 0)" /></svg>