<svg xmlns="http://www.w3.org/2000/svg" xmlns:xlink="http://www.w3.org/1999/xlink" width="24" height="24" preserveAspectRatio="xMidYMid meet" viewBox="0 0 24 24" style="-ms-transform: rotate(360deg); -webkit-transform: rotate(360deg); transform: rotate(360deg);"><g fill="none"><path d="M12 4.354v6.651l7.442-.001L17.72 9.28a.75.75 0 0 1-.073-.976l.073-.084a.75.75 0 0 1 .976-.073l.084.073l2.997 2.997a.75.75 0 0 1 .073.976l-.073.084l-2.996 3.004a.75.75 0 0 1-1.134-.975l.072-.085l1.713-1.717l-7.431.001L12 19.25a.75.75 0 0 1-.88.739l-8.5-1.502A.75.75 0 0 1 2 17.75V5.75a.75.75 0 0 1 .628-.74l8.5-1.396a.75.75 0 0 1 .872.74zM8.502 11.5a1.002 1.002 0 1 0 0 2.004a1.002 1.002 0 0 0 0-2.004z" fill="#626262"/><path d="M13 18.501h.765l.102-.006a.75.75 0 0 0 .648-.745l-.007-4.25H13v5.001z" fill="#626262"/><path d="M13.002 10L13 8.725V5h.745a.75.75 0 0 1 .743.647l.007.102l.007 4.251h-1.5z" fill="#626262"/></g><rect x="0" y="0" width="24" height="24" fill="rgba(0, 0, 0, 0)" /></svg>