<svg xmlns="http://www.w3.org/2000/svg" xmlns:xlink="http://www.w3.org/1999/xlink" width="24" height="24" preserveAspectRatio="xMidYMid meet" viewBox="0 0 24 24" style="-ms-transform: rotate(360deg); -webkit-transform: rotate(360deg); transform: rotate(360deg);"><g fill="none"><path d="M6.5 8.75a.25.25 0 0 1 .25-.25h10.5a.25.25 0 0 1 .25.25v1.75h-11V8.75z" fill="#626262"/><path d="M6.5 12v3.25c0 .138.112.25.25.25H9V12H6.5z" fill="#626262"/><path d="M17.25 15.5H10.5V12h7v3.25a.25.25 0 0 1-.25.25z" fill="#626262"/><path d="M2 6.75A2.75 2.75 0 0 1 4.75 4h14.5A2.75 2.75 0 0 1 22 6.75v10.5A2.75 2.75 0 0 1 19.25 20H4.75A2.75 2.75 0 0 1 2 17.25V6.75zM6.75 7A1.75 1.75 0 0 0 5 8.75v6.5c0 .966.784 1.75 1.75 1.75h10.5A1.75 1.75 0 0 0 19 15.25v-6.5A1.75 1.75 0 0 0 17.25 7H6.75z" fill="#626262"/></g><rect x="0" y="0" width="24" height="24" fill="rgba(0, 0, 0, 0)" /></svg>