<svg xmlns="http://www.w3.org/2000/svg" xmlns:xlink="http://www.w3.org/1999/xlink" width="24" height="24" preserveAspectRatio="xMidYMid meet" viewBox="0 0 24 24" style="-ms-transform: rotate(360deg); -webkit-transform: rotate(360deg); transform: rotate(360deg);"><g fill="none"><path d="M12 20.5a1.5 1.5 0 1 1-3 0a1.5 1.5 0 0 1 3 0z" fill="#626262"/><path d="M17 20.5a1.5 1.5 0 1 1-3 0a1.5 1.5 0 0 1 3 0z" fill="#626262"/><path d="M22 20.5a1.5 1.5 0 1 1-3 0a1.5 1.5 0 0 1 3 0z" fill="#626262"/><path d="M14.907 18.07l-1.166-2.845H5.885l-1.8 4.45c-.076.19-.185.35-.335.46a.862.862 0 0 1-.525.165c-.264 0-.5-.066-.667-.234a.931.931 0 0 1-.257-.6l-.001-.008v-.083c0-.106.008-.207.035-.288l.004-.013l6.6-16.148a.985.985 0 0 1 .362-.468c.165-.11.36-.158.574-.158c.205 0 .39.061.543.188c.163.105.285.25.365.43l.002.006l6.454 15.78a2.492 2.492 0 0 0-2.332-.634zM6.62 13.35h6.356l-3.2-7.819L6.62 13.35z" fill="#626262"/></g><rect x="0" y="0" width="24" height="24" fill="rgba(0, 0, 0, 0)" /></svg>