<svg xmlns="http://www.w3.org/2000/svg" xmlns:xlink="http://www.w3.org/1999/xlink" width="24" height="24" preserveAspectRatio="xMidYMid meet" viewBox="0 0 24 24" style="-ms-transform: rotate(360deg); -webkit-transform: rotate(360deg); transform: rotate(360deg);"><g fill="none"><path d="M15 4.25c0-1.079-1.274-1.65-2.08-.934L8.427 7.309a.75.75 0 0 1-.498.19H4.25A2.25 2.25 0 0 0 2 9.749v4.497a2.25 2.25 0 0 0 2.25 2.25h3.68a.75.75 0 0 1 .498.19l4.491 3.994c.806.716 2.081.144 2.081-.934V4.25z" fill="#626262"/><path d="M16.22 9.22a.75.75 0 0 1 1.06 0L19 10.94l1.72-1.72a.75.75 0 1 1 1.06 1.06L20.06 12l1.72 1.72a.75.75 0 1 1-1.06 1.06L19 13.06l-1.72 1.72a.75.75 0 1 1-1.06-1.06L17.94 12l-1.72-1.72a.75.75 0 0 1 0-1.06z" fill="#626262"/></g><rect x="0" y="0" width="24" height="24" fill="rgba(0, 0, 0, 0)" /></svg>