<svg xmlns="http://www.w3.org/2000/svg" xmlns:xlink="http://www.w3.org/1999/xlink" width="24" height="24" preserveAspectRatio="xMidYMid meet" viewBox="0 0 24 24" style="-ms-transform: rotate(360deg); -webkit-transform: rotate(360deg); transform: rotate(360deg);"><g fill="none"><path d="M16.5 11c.293 0 .58.025.86.072l.174.716a2 2 0 0 0 2.413 1.475l.098-.026l.601-.179c.363.467.653.997.854 1.57l-.447.431a2 2 0 0 0-.055 2.828l.055.054l.447.43c-.2.574-.49 1.103-.853 1.57l-.602-.178a2 2 0 0 0-2.485 1.352l-.026.097l-.173.716a5.178 5.178 0 0 1-1.723 0l-.172-.716a2 2 0 0 0-2.413-1.475l-.098.026l-.602.178a5.543 5.543 0 0 1-.853-1.57l.447-.43a2 2 0 0 0 .055-2.827l-.055-.055l-.447-.43c.2-.574.49-1.103.853-1.57l.602.178a2 2 0 0 0 2.485-1.351l.026-.098l.172-.716c.28-.047.569-.072.862-.072zm0 4c-.8 0-1.45.672-1.45 1.5c0 .829.65 1.5 1.45 1.5c.8 0 1.45-.671 1.45-1.5c0-.828-.65-1.5-1.45-1.5zM12.627 2.502c.239.235.373.556.373.89v7.63a6.495 6.495 0 0 0-3 5.478l.002.115L6.936 13.5H4.25A2.25 2.25 0 0 1 2 11.25v-2.5A2.25 2.25 0 0 1 4.25 6.5h2.686l3.923-3.984a1.25 1.25 0 0 1 1.768-.014z" fill="#626262"/></g><rect x="0" y="0" width="24" height="24" fill="rgba(0, 0, 0, 0)" /></svg>