<svg xmlns="http://www.w3.org/2000/svg" xmlns:xlink="http://www.w3.org/1999/xlink" width="24" height="24" preserveAspectRatio="xMidYMid meet" viewBox="0 0 24 24" style="-ms-transform: rotate(360deg); -webkit-transform: rotate(360deg); transform: rotate(360deg);"><g fill="none"><path d="M21.25 12.5a.75.75 0 0 0 0-1.5H2.75a.75.75 0 0 0 0 1.5h18.5zM17.75 2A2.25 2.25 0 0 1 20 4.25V10H4V4.25A2.25 2.25 0 0 1 6.25 2h11.5zM4 19.25V13.5h16v5.75a2.25 2.25 0 0 1-2.25 2.25H6.25A2.25 2.25 0 0 1 4 19.25z" fill="#626262"/></g><rect x="0" y="0" width="24" height="24" fill="rgba(0, 0, 0, 0)" /></svg>