<svg xmlns="http://www.w3.org/2000/svg" xmlns:xlink="http://www.w3.org/1999/xlink" width="24" height="24" preserveAspectRatio="xMidYMid meet" viewBox="0 0 24 24" style="-ms-transform: rotate(360deg); -webkit-transform: rotate(360deg); transform: rotate(360deg);"><g fill="none"><path d="M21.379 11.5a14.782 14.782 0 0 1-9.973 9.906l-8.812-8.812A14.782 14.782 0 0 1 12.5 2.62L21.38 11.5zm-7.66-2.28l-4.5 4.5a.75.75 0 1 0 1.061 1.06l4.5-4.5a.75.75 0 1 0-1.06-1.06z" fill="#626262"/><path d="M2.2 14.32l7.48 7.48c-.79.132-1.602.2-2.43.2h-1A4.25 4.25 0 0 1 2 17.75v-1c0-.828.068-1.64.2-2.43z" fill="#626262"/><path d="M14.217 2.217l7.566 7.566c.143-.823.217-1.67.217-2.533v-1A4.25 4.25 0 0 0 17.75 2h-1c-.864 0-1.71.074-2.533.217z" fill="#626262"/></g><rect x="0" y="0" width="24" height="24" fill="rgba(0, 0, 0, 0)" /></svg>