<svg xmlns="http://www.w3.org/2000/svg" xmlns:xlink="http://www.w3.org/1999/xlink" width="24" height="24" preserveAspectRatio="xMidYMid meet" viewBox="0 0 24 24" style="-ms-transform: rotate(360deg); -webkit-transform: rotate(360deg); transform: rotate(360deg);"><g fill="none"><path d="M12 2.35c-.482 0-.964.25-1.212.753L8.43 7.88l-5.273.766c-1.107.161-1.55 1.522-.748 2.303l3.815 3.72l-.9 5.25c-.15.873.544 1.582 1.331 1.582c.208 0 .422-.05.63-.159l4.714-2.478l4.715 2.479c.99.52 2.148-.32 1.96-1.424l-.902-5.25l3.816-3.72c.8-.78.359-2.142-.748-2.303l-5.273-.766l-2.358-4.777a1.335 1.335 0 0 0-1.21-.753zm0 14.994V4.042l2.257 4.573a1.35 1.35 0 0 0 1.016.738l5.05.734l-3.654 3.562a1.35 1.35 0 0 0-.388 1.195l.862 5.03l-4.516-2.375a1.35 1.35 0 0 0-.627-.155z" fill="#626262"/></g><rect x="0" y="0" width="24" height="24" fill="rgba(0, 0, 0, 0)" /></svg>