<svg xmlns="http://www.w3.org/2000/svg" xmlns:xlink="http://www.w3.org/1999/xlink" width="24" height="24" preserveAspectRatio="xMidYMid meet" viewBox="0 0 24 24" style="-ms-transform: rotate(360deg); -webkit-transform: rotate(360deg); transform: rotate(360deg);"><g fill="none"><path d="M10.788 3.103c.495-1.004 1.926-1.004 2.421 0l1.687 3.425a2.25 2.25 0 0 0-.678 4.222a2.25 2.25 0 0 0 0 4a2.25 2.25 0 0 0-.767 3.352l-6.168 3.24c-.99.521-2.148-.32-1.96-1.423l.901-5.25l-3.815-3.72c-.801-.78-.359-2.142.748-2.303L8.43 7.88l2.358-4.777z" fill="#626262"/><path d="M14.5 16.75a.75.75 0 0 1 .75-.75h6a.75.75 0 0 1 0 1.5h-6a.747.747 0 0 1-.75-.75z" fill="#626262"/><path d="M14.5 12.75a.75.75 0 0 1 .75-.75h6a.75.75 0 0 1 0 1.5h-6a.75.75 0 0 1-.75-.75z" fill="#626262"/><path d="M14.5 8.75a.75.75 0 0 1 .75-.75h6a.75.75 0 0 1 0 1.5h-6a.75.75 0 0 1-.75-.75z" fill="#626262"/></g><rect x="0" y="0" width="24" height="24" fill="rgba(0, 0, 0, 0)" /></svg>