<svg xmlns="http://www.w3.org/2000/svg" xmlns:xlink="http://www.w3.org/1999/xlink" width="24" height="24" preserveAspectRatio="xMidYMid meet" viewBox="0 0 24 24" style="-ms-transform: rotate(360deg); -webkit-transform: rotate(360deg); transform: rotate(360deg);"><g fill="none"><path d="M10.788 3.103c.495-1.004 1.926-1.004 2.421 0l2.358 4.777l5.273.766c1.107.161 1.549 1.522.748 2.303l-.906.883a6.5 6.5 0 0 0-9.442 7.43l-3.957 2.08c-.99.521-2.148-.32-1.96-1.423l.901-5.25l-3.815-3.72c-.801-.78-.359-2.142.748-2.303L8.43 7.88l2.358-4.777z" fill="#626262"/><path d="M22.998 17.5a5.5 5.5 0 1 1-11 0a5.5 5.5 0 0 1 11 0zm-9.5 0c0 .834.255 1.608.691 2.248l5.557-5.557a4 4 0 0 0-6.248 3.309zm4 4a4 4 0 0 0 3.309-6.248l-5.557 5.557c.64.436 1.415.691 2.248.691z" fill="#626262"/></g><rect x="0" y="0" width="24" height="24" fill="rgba(0, 0, 0, 0)" /></svg>