<svg xmlns="http://www.w3.org/2000/svg" xmlns:xlink="http://www.w3.org/1999/xlink" width="24" height="24" preserveAspectRatio="xMidYMid meet" viewBox="0 0 24 24" style="-ms-transform: rotate(360deg); -webkit-transform: rotate(360deg); transform: rotate(360deg);"><g fill="none"><path d="M13.209 3.103c-.495-1.004-1.926-1.004-2.421 0L8.43 7.88l-5.273.766c-1.107.161-1.55 1.522-.748 2.303l3.815 3.72l-.9 5.25c-.15.87.54 1.578 1.325 1.581c.21.002.426-.047.635-.157L9 20.44v-.001l2.998-1.577l4.716 2.48c.99.52 2.148-.32 1.96-1.424l-.902-5.25l3.816-3.72c.8-.78.359-2.142-.748-2.303l-5.273-.766l-2.358-4.777zM9 18.745V9.283a1.35 1.35 0 0 0 .74-.668l2.258-4.576l2.259 4.576a1.35 1.35 0 0 0 1.016.738l5.05.734l-3.654 3.562a1.35 1.35 0 0 0-.388 1.195l.862 5.03l-4.516-2.375a1.35 1.35 0 0 0-1.257 0L9 18.745z" fill="#626262"/></g><rect x="0" y="0" width="24" height="24" fill="rgba(0, 0, 0, 0)" /></svg>