<svg xmlns="http://www.w3.org/2000/svg" xmlns:xlink="http://www.w3.org/1999/xlink" width="24" height="24" preserveAspectRatio="xMidYMid meet" viewBox="0 0 24 24" style="-ms-transform: rotate(360deg); -webkit-transform: rotate(360deg); transform: rotate(360deg);"><g fill="none"><path d="M5 7h14a3 3 0 0 1 2.995 2.824L22 10v4a3 3 0 0 1-2.824 2.995L19 17H5a3 3 0 0 1-2.995-2.824L2 14v-4a3 3 0 0 1 2.824-2.995L5 7h14H5zm13 3a1 1 0 1 0 0 2a1 1 0 0 0 0-2zm-4 0a1 1 0 1 0 0 2a1 1 0 0 0 0-2z" fill="#626262"/></g><rect x="0" y="0" width="24" height="24" fill="rgba(0, 0, 0, 0)" /></svg>