<svg xmlns="http://www.w3.org/2000/svg" xmlns:xlink="http://www.w3.org/1999/xlink" width="24" height="24" preserveAspectRatio="xMidYMid meet" viewBox="0 0 24 24" style="-ms-transform: rotate(360deg); -webkit-transform: rotate(360deg); transform: rotate(360deg);"><g fill="none"><path d="M17.404 4.722l2.718 10.142a2.75 2.75 0 0 1-1.945 3.368L11.9 19.915A2.75 2.75 0 0 1 8.53 17.97L5.813 7.828A2.75 2.75 0 0 1 7.758 4.46l6.278-1.683a2.75 2.75 0 0 1 3.368 1.945zm-6.438 3.02a1 1 0 1 0-1.932.517a1 1 0 0 0 1.932-.518zm-5.163 3.916l1.762 6.57a3.732 3.732 0 0 0 1.002 1.714l-.443-.024a2.75 2.75 0 0 1-2.602-2.89l.281-5.37zm-.925-1.478l-.355 6.796c-.037.698.12 1.362.424 1.94l-.414-.161a2.75 2.75 0 0 1-1.582-3.553l1.927-5.022z" fill="#626262"/></g><rect x="0" y="0" width="24" height="24" fill="rgba(0, 0, 0, 0)" /></svg>