<svg xmlns="http://www.w3.org/2000/svg" xmlns:xlink="http://www.w3.org/1999/xlink" width="24" height="24" preserveAspectRatio="xMidYMid meet" viewBox="0 0 24 24" style="-ms-transform: rotate(360deg); -webkit-transform: rotate(360deg); transform: rotate(360deg);"><g fill="none"><path d="M6 12a1 1 0 0 0 1 1h11.585l-1.292 1.293a1 1 0 0 0-.083 1.32l.083.094a1 1 0 0 0 1.32.083l.094-.083l3-3a1 1 0 0 0 .083-1.32l-.083-.094l-3-3a1 1 0 0 0-1.497 1.32l.083.094L18.585 11H7a1 1 0 0 0-1 1zm-4 0a5 5 0 0 0 9.584 2H9.872a3.5 3.5 0 1 1 0-4h1.712A5.001 5.001 0 0 0 2 12z" fill="#626262"/></g><rect x="0" y="0" width="24" height="24" fill="rgba(0, 0, 0, 0)" /></svg>