<svg xmlns="http://www.w3.org/2000/svg" xmlns:xlink="http://www.w3.org/1999/xlink" width="24" height="24" preserveAspectRatio="xMidYMid meet" viewBox="0 0 24 24" style="-ms-transform: rotate(360deg); -webkit-transform: rotate(360deg); transform: rotate(360deg);"><g fill="none"><path d="M6.5 12.75c.5 0 .923.37.994.902l.006.115V16.5h2.75c.5 0 .923.37.994.902l.006.116c-.001.488-.376.906-.902.976l-.115.007H7.5v2.749c0 .5-.37.924-.902.994l-.116.007c-.489-.002-.907-.377-.977-.903l-.006-.115V18.5H2.75c-.5 0-.923-.37-.994-.902l-.006-.116c.001-.488.376-.906.902-.976l.115-.007H5.5V13.75c0-.45.301-.845.77-.973l.081-.016l.08-.009l.069-.002zm10.418 5a1 1 0 0 1 1 1c0 .5-.37.924-.902.994l-.115.007h-.364c.458.322 1.009.499 1.581.499c.905 0 1.744-.44 2.26-1.183a1 1 0 1 1 1.643 1.141a4.745 4.745 0 0 1-3.903 2.042c-.977 0-1.92-.299-2.711-.85l-.023.11a1 1 0 0 1-.966.74c-.5 0-.924-.37-.994-.902l-.007-.115l.001-2.483c0-.5.37-.924.902-.994l.085-.006h2.513zm4.282-5c.5 0 .923.37.994.902l.006.115v2.483c0 .5-.37.924-.902.994l-.115.007l-2.483-.001a1 1 0 0 1-1-1c0-.5.37-.924.901-.995l.115-.006h.365a2.748 2.748 0 0 0-1.581-.499c-.905 0-1.744.44-2.26 1.183a1 1 0 1 1-1.643-1.141A4.745 4.745 0 0 1 17.5 12.75c.976 0 1.92.299 2.71.85l.024-.11a1 1 0 0 1 .966-.74zm-14.7-11a4.75 4.75 0 1 1 0 9.5a4.75 4.75 0 0 1 0-9.5zM3.914 4.977a3 3 0 0 0 4.108 4.108L3.914 4.977zM6.5 3.5c-.556 0-1.077.151-1.523.415l4.108 4.108A3 3 0 0 0 6.5 3.5zm12.714-1.75c1.69 0 3.036 1.5 3.036 3.329c0 .91-.337 1.787-.89 2.351l-2.518 3.16a1.74 1.74 0 0 1-2.736-.008l-2.685-3.414a3.52 3.52 0 0 1-.671-2.089c0-1.829 1.346-3.329 3.035-3.329c.61 0 1.2.198 1.715.581l.023-.018a2.835 2.835 0 0 1 1.69-.563z" fill="#626262"/></g><rect x="0" y="0" width="24" height="24" fill="rgba(0, 0, 0, 0)" /></svg>