<svg xmlns="http://www.w3.org/2000/svg" xmlns:xlink="http://www.w3.org/1999/xlink" width="24" height="24" preserveAspectRatio="xMidYMid meet" viewBox="0 0 24 24" style="-ms-transform: rotate(360deg); -webkit-transform: rotate(360deg); transform: rotate(360deg);"><g fill="none"><path d="M5.75 3A2.75 2.75 0 0 0 3 5.75v5.351A6.979 6.979 0 0 1 8 9c.983 0 1.92.203 2.768.569A1.749 1.749 0 0 1 14 10.5v1.892A6.968 6.968 0 0 1 15 16c0 1.959-.805 3.73-2.101 5h5.351A2.75 2.75 0 0 0 21 18.25V8h-7.75A2.25 2.25 0 0 1 11 5.75V3H5.75z" fill="#626262"/><path d="M12.5 3v2.75c0 .414.336.75.75.75H21v-.75A2.75 2.75 0 0 0 18.25 3H12.5z" fill="#626262"/><path d="M13 13.25a.75.75 0 0 1-.75.75H9.5a.75.75 0 0 1 0-1.5h1.33a4.478 4.478 0 0 0-2.83-1a4.5 4.5 0 1 0 4.5 4.5a.75.75 0 0 1 1.5 0a6 6 0 1 1-2.5-4.874V10.5a.747.747 0 0 1 .75-.75a.75.75 0 0 1 .75.75v2.75z" fill="#626262"/></g><rect x="0" y="0" width="24" height="24" fill="rgba(0, 0, 0, 0)" /></svg>