<svg xmlns="http://www.w3.org/2000/svg" xmlns:xlink="http://www.w3.org/1999/xlink" width="24" height="24" preserveAspectRatio="xMidYMid meet" viewBox="0 0 24 24" style="-ms-transform: rotate(360deg); -webkit-transform: rotate(360deg); transform: rotate(360deg);"><g fill="none"><path d="M12.5 21h5.25A3.25 3.25 0 0 0 21 17.75V17h-8.5v4z" fill="#626262"/><path d="M21 7v-.75A3.25 3.25 0 0 0 17.75 3H12.5v4H21z" fill="#626262"/><path d="M11 3H6.25A3.25 3.25 0 0 0 3 6.25V7h8V3z" fill="#626262"/><path d="M3 8.5v7h18v-7H3z" fill="#626262"/><path d="M3 17v.75A3.25 3.25 0 0 0 6.25 21H11v-4H3z" fill="#626262"/></g><rect x="0" y="0" width="24" height="24" fill="rgba(0, 0, 0, 0)" /></svg>