<svg xmlns="http://www.w3.org/2000/svg" xmlns:xlink="http://www.w3.org/1999/xlink" width="24" height="24" preserveAspectRatio="xMidYMid meet" viewBox="0 0 24 24" style="-ms-transform: rotate(360deg); -webkit-transform: rotate(360deg); transform: rotate(360deg);"><g fill="none"><path d="M6.25 3H11v4H3v-.75A3.25 3.25 0 0 1 6.25 3z" fill="#626262"/><path d="M21 7v-.75A3.25 3.25 0 0 0 17.75 3H12.5v4H21z" fill="#626262"/><path d="M12.5 21h5.25A3.25 3.25 0 0 0 21 17.75V17h-8.5v4z" fill="#626262"/><path d="M3 8.5v7h18v-7H3zm9.5 1.5v4H11v-4h1.5z" fill="#626262"/><path d="M3 17.75V17h8v4H6.25A3.25 3.25 0 0 1 3 17.75z" fill="#626262"/></g><rect x="0" y="0" width="24" height="24" fill="rgba(0, 0, 0, 0)" /></svg>