<svg xmlns="http://www.w3.org/2000/svg" xmlns:xlink="http://www.w3.org/1999/xlink" width="24" height="24" preserveAspectRatio="xMidYMid meet" viewBox="0 0 24 24" style="-ms-transform: rotate(360deg); -webkit-transform: rotate(360deg); transform: rotate(360deg);"><g fill="none"><path d="M9.5 21h2.522a6.52 6.52 0 0 1-.848-5H9.5v5zM21 9.5v2.522a6.52 6.52 0 0 0-5-.848V9.5h5zm-6.5 0v2.232a6.53 6.53 0 0 0-2.768 2.768H9.5v-5h5zM21 8V6.25A3.25 3.25 0 0 0 17.75 3H16v5h5zm-6.5-5h-5v5h5V3zM8 3H6.25A3.25 3.25 0 0 0 3 6.25V8h5V3zM3 9.5v5h5v-5H3zM3 16v1.75A3.25 3.25 0 0 0 6.25 21H8v-5H3zm9.5-.371l.447.43a2 2 0 0 1 0 2.882l-.447.43c.2.574.49 1.103.853 1.57l.602-.178a2 2 0 0 1 2.51 1.45l.174.715a5.176 5.176 0 0 0 1.722 0l.173-.716a2 2 0 0 1 2.511-1.449l.602.178c.362-.467.652-.996.853-1.57l-.447-.43a2 2 0 0 1 0-2.882l.447-.43a5.544 5.544 0 0 0-.853-1.57l-.602.178a2 2 0 0 1-2.51-1.45l-.174-.715a5.174 5.174 0 0 0-1.723 0l-.172.716a2 2 0 0 1-2.511 1.449l-.602-.178a5.544 5.544 0 0 0-.853 1.57zm5 3.371c-.8 0-1.45-.672-1.45-1.5S16.7 16 17.5 16c.8 0 1.45.672 1.45 1.5S18.3 19 17.5 19z" fill="#626262"/></g><rect x="0" y="0" width="24" height="24" fill="rgba(0, 0, 0, 0)" /></svg>