<svg xmlns="http://www.w3.org/2000/svg" xmlns:xlink="http://www.w3.org/1999/xlink" width="24" height="24" preserveAspectRatio="xMidYMid meet" viewBox="0 0 24 24" style="-ms-transform: rotate(360deg); -webkit-transform: rotate(360deg); transform: rotate(360deg);"><g fill="none"><path d="M6.25 3A3.25 3.25 0 0 0 3 6.25v8.25h5v-5H4.5V6.25c0-.966.784-1.75 1.75-1.75h11.5c.966 0 1.75.784 1.75 1.75V9.5H16v5h5V6.25A3.25 3.25 0 0 0 17.75 3H6.25z" fill="#626262"/><path d="M21 16h-5v5h1.75A3.25 3.25 0 0 0 21 17.75V16z" fill="#626262"/><path d="M14.5 14.5v-5h-5v5h5z" fill="#626262"/><path d="M9.5 16h5v5h-5v-5z" fill="#626262"/><path d="M8 16H3v1.75A3.25 3.25 0 0 0 6.25 21H8v-5z" fill="#626262"/></g><rect x="0" y="0" width="24" height="24" fill="rgba(0, 0, 0, 0)" /></svg>