<svg xmlns="http://www.w3.org/2000/svg" xmlns:xlink="http://www.w3.org/1999/xlink" width="24" height="24" preserveAspectRatio="xMidYMid meet" viewBox="0 0 24 24" style="-ms-transform: rotate(360deg); -webkit-transform: rotate(360deg); transform: rotate(360deg);"><g fill="none"><path d="M3.75 2H8v5H6.25A3.25 3.25 0 0 1 3 3.75v-1A.75.75 0 0 1 3.75 2z" fill="#626262"/><path d="M9.5 2h5v5h-5V2z" fill="#626262"/><path d="M21 2.75a.75.75 0 0 0-.75-.75H16v5h1.75A3.25 3.25 0 0 0 21 3.75v-1z" fill="#626262"/><path d="M20.25 22a.75.75 0 0 0 .75-.75v-1A3.25 3.25 0 0 0 17.75 17H16v5h4.25z" fill="#626262"/><path d="M9.5 22h5v-5h-5v5z" fill="#626262"/><path d="M3.75 22H8v-5H6.25A3.25 3.25 0 0 0 3 20.25v1c0 .414.336.75.75.75z" fill="#626262"/><path d="M15.523 12.75h5.727a.75.75 0 0 0 0-1.5h-5.727a1.826 1.826 0 0 1-.072.076l-.674.674l.674.674l.072.076z" fill="#626262"/><path d="M8.727 12.75c.023-.026.047-.051.072-.076L9.473 12l-.674-.674a1.845 1.845 0 0 1-.072-.076H2.75a.75.75 0 0 0 0 1.5h5.977z" fill="#626262"/><path d="M14.53 14.53a.75.75 0 0 1-1.06 0L12 13.06l-1.47 1.47a.75.75 0 1 1-1.06-1.06L10.94 12l-1.47-1.47a.75.75 0 1 1 1.06-1.06L12 10.94l1.47-1.47a.75.75 0 1 1 1.06 1.06L13.06 12l1.47 1.47a.75.75 0 0 1 0 1.06z" fill="#626262"/></g><rect x="0" y="0" width="24" height="24" fill="rgba(0, 0, 0, 0)" /></svg>