<svg xmlns="http://www.w3.org/2000/svg" xmlns:xlink="http://www.w3.org/1999/xlink" width="24" height="24" preserveAspectRatio="xMidYMid meet" viewBox="0 0 24 24" style="-ms-transform: rotate(360deg); -webkit-transform: rotate(360deg); transform: rotate(360deg);"><g fill="none"><path d="M9.5 21h2.522a6.52 6.52 0 0 1-.848-5H9.5v5z" fill="#626262"/><path d="M21 9.5v2.522a6.52 6.52 0 0 0-5-.848V9.5h5z" fill="#626262"/><path d="M14.5 9.5v2.232a6.53 6.53 0 0 0-2.768 2.768H9.5v-5h5z" fill="#626262"/><path d="M21 8V6.25A3.25 3.25 0 0 0 17.75 3H16v5h5z" fill="#626262"/><path d="M14.5 3h-5v5h5V3z" fill="#626262"/><path d="M8 3H6.25A3.25 3.25 0 0 0 3 6.25V8h5V3z" fill="#626262"/><path d="M3 9.5v5h5v-5H3z" fill="#626262"/><path d="M3 16v1.75A3.25 3.25 0 0 0 6.25 21H8v-5H3z" fill="#626262"/><path d="M23 17.5a5.5 5.5 0 1 1-11 0a5.5 5.5 0 0 1 11 0zm-7.146-2.354a.5.5 0 0 0-.708.708l1.647 1.646l-1.647 1.646a.5.5 0 0 0 .708.708l1.646-1.647l1.646 1.647a.5.5 0 0 0 .708-.708L18.207 17.5l1.647-1.646a.5.5 0 0 0-.708-.708L17.5 16.793l-1.646-1.647z" fill="#626262"/></g><rect x="0" y="0" width="24" height="24" fill="rgba(0, 0, 0, 0)" /></svg>