<svg xmlns="http://www.w3.org/2000/svg" xmlns:xlink="http://www.w3.org/1999/xlink" width="24" height="24" preserveAspectRatio="xMidYMid meet" viewBox="0 0 24 24" style="-ms-transform: rotate(360deg); -webkit-transform: rotate(360deg); transform: rotate(360deg);"><g fill="none"><path d="M9.5 9.5v5h5v-5h-5z" fill="#626262"/><path d="M8 9.5v5H3.75a.75.75 0 0 1-.75-.75V9.5h5z" fill="#626262"/><path d="M9.5 8h5V3h-5v5z" fill="#626262"/><path d="M16 9.5v5h4.25a.75.75 0 0 0 .75-.75V9.5h-5z" fill="#626262"/><path d="M21 8h-5V3h1.75A3.25 3.25 0 0 1 21 6.25V8z" fill="#626262"/><path d="M8 8H3V6.25A3.25 3.25 0 0 1 6.25 3H8v5z" fill="#626262"/><path d="M3.75 19.5a.75.75 0 0 0 0 1.5h16.5a.75.75 0 0 0 0-1.5H3.75z" fill="#626262"/></g><rect x="0" y="0" width="24" height="24" fill="rgba(0, 0, 0, 0)" /></svg>