<svg xmlns="http://www.w3.org/2000/svg" xmlns:xlink="http://www.w3.org/1999/xlink" width="24" height="24" preserveAspectRatio="xMidYMid meet" viewBox="0 0 24 24" style="-ms-transform: rotate(360deg); -webkit-transform: rotate(360deg); transform: rotate(360deg);"><g fill="none"><path d="M9.5 21h5v-5h-5v5z" fill="#626262"/><path d="M16 21h1.75A3.25 3.25 0 0 0 21 17.75V16h-5v5z" fill="#626262"/><path d="M21 14.5v-5h-5v5h5z" fill="#626262"/><path d="M21 8V6.25A3.25 3.25 0 0 0 17.75 3H16v5h5z" fill="#626262"/><path d="M14.5 3h-5v5h5V3z" fill="#626262"/><path d="M8 3H6.25A3.25 3.25 0 0 0 3 6.25V8h5V3z" fill="#626262"/><path d="M3 9.5v5h5v-5H3z" fill="#626262"/><path d="M3 16v1.75A3.25 3.25 0 0 0 6.25 21H8v-5H3z" fill="#626262"/><path d="M14.5 9.5v5h-5v-5h5z" fill="#626262"/></g><rect x="0" y="0" width="24" height="24" fill="rgba(0, 0, 0, 0)" /></svg>