<svg xmlns="http://www.w3.org/2000/svg" xmlns:xlink="http://www.w3.org/1999/xlink" width="24" height="24" preserveAspectRatio="xMidYMid meet" viewBox="0 0 24 24" style="-ms-transform: rotate(360deg); -webkit-transform: rotate(360deg); transform: rotate(360deg);"><g fill="none"><path d="M16 21h1.75A3.25 3.25 0 0 0 21 17.75V16h-5v5z" fill="#626262"/><path d="M16 14.5h5v-5h-5v5z" fill="#626262"/><path d="M14.5 9.5v5h-5v-5h5z" fill="#626262"/><path d="M16 8h5V6.25A3.25 3.25 0 0 0 17.75 3H16v5z" fill="#626262"/><path d="M14.5 3v5h-5V3.75a.75.75 0 0 1 .75-.75h4.25z" fill="#626262"/><path d="M14.5 16v5h-4.25a.75.75 0 0 1-.75-.75V16h5z" fill="#626262"/><path d="M4.5 3.75a.75.75 0 0 0-1.5 0v16.5a.75.75 0 0 0 1.5 0V3.75z" fill="#626262"/></g><rect x="0" y="0" width="24" height="24" fill="rgba(0, 0, 0, 0)" /></svg>