<svg xmlns="http://www.w3.org/2000/svg" xmlns:xlink="http://www.w3.org/1999/xlink" width="24" height="24" preserveAspectRatio="xMidYMid meet" viewBox="0 0 24 24" style="-ms-transform: rotate(360deg); -webkit-transform: rotate(360deg); transform: rotate(360deg);"><g fill="none"><path d="M20.25 4.5a.75.75 0 0 0 0-1.5H3.75a.75.75 0 0 0 0 1.5h16.5z" fill="#626262"/><path d="M14.5 9.5v5h-5v-5h5z" fill="#626262"/><path d="M9.5 16h5v5h-5v-5z" fill="#626262"/><path d="M8 9.5v5H3v-4.25a.75.75 0 0 1 .75-.75H8z" fill="#626262"/><path d="M8 16H3v1.75A3.25 3.25 0 0 0 6.25 21H8v-5z" fill="#626262"/><path d="M21 16h-5v5h1.75A3.25 3.25 0 0 0 21 17.75V16z" fill="#626262"/><path d="M16 14.5h5v-4.25a.75.75 0 0 0-.75-.75H16v5z" fill="#626262"/></g><rect x="0" y="0" width="24" height="24" fill="rgba(0, 0, 0, 0)" /></svg>