<svg xmlns="http://www.w3.org/2000/svg" xmlns:xlink="http://www.w3.org/1999/xlink" width="24" height="24" preserveAspectRatio="xMidYMid meet" viewBox="0 0 24 24" style="-ms-transform: rotate(360deg); -webkit-transform: rotate(360deg); transform: rotate(360deg);"><g fill="none"><path d="M8.78 1.22a.75.75 0 0 0-1.06 1.06l.72.72H6.25A3.25 3.25 0 0 0 3 6.25v2.19l-.72-.72a.75.75 0 0 0-1.06 1.06l2 2a.75.75 0 0 0 1.06 0l2-2a.75.75 0 0 0-1.06-1.06l-.72.72V6.25c0-.966.784-1.75 1.75-1.75h2.19l-.72.72a.75.75 0 0 0 1.06 1.06l2-2a.75.75 0 0 0 0-1.06l-2-2z" fill="#626262"/><path d="M14.5 8H9.502V6.973l1.985-1.986A1.75 1.75 0 0 0 11.832 3H14.5v5z" fill="#626262"/><path d="M3 11.832V14.5h5v-5H6.975l-1.988 1.987A1.75 1.75 0 0 1 3 11.832z" fill="#626262"/><path d="M14.5 14.5v-5h-5v5h5z" fill="#626262"/><path d="M16 14.5v-5h5v5h-5z" fill="#626262"/><path d="M16 8h5V6.25A3.25 3.25 0 0 0 17.75 3H16v5z" fill="#626262"/><path d="M14.5 21v-5h-5v5h5z" fill="#626262"/><path d="M8 16H3v1.75A3.25 3.25 0 0 0 6.25 21H8v-5z" fill="#626262"/><path d="M16 16h5v1.75A3.25 3.25 0 0 1 17.75 21H16v-5z" fill="#626262"/></g><rect x="0" y="0" width="24" height="24" fill="rgba(0, 0, 0, 0)" /></svg>