<svg xmlns="http://www.w3.org/2000/svg" xmlns:xlink="http://www.w3.org/1999/xlink" width="24" height="24" preserveAspectRatio="xMidYMid meet" viewBox="0 0 24 24" style="-ms-transform: rotate(360deg); -webkit-transform: rotate(360deg); transform: rotate(360deg);"><g fill="none"><path d="M8 3H6.25A3.25 3.25 0 0 0 3 6.25V8h5V3z" fill="#626262"/><path d="M8 9.5H3v5h5v-5z" fill="#626262"/><path d="M9.5 14.5v-5h5v5h-5z" fill="#626262"/><path d="M8 16H3v1.75A3.25 3.25 0 0 0 6.25 21H8v-5z" fill="#626262"/><path d="M9.5 21v-5h5v4.25a.75.75 0 0 1-.75.75H9.5z" fill="#626262"/><path d="M9.5 8V3h4.25a.75.75 0 0 1 .75.75V8h-5z" fill="#626262"/><path d="M19.5 20.25a.75.75 0 0 0 1.5 0V3.75a.75.75 0 0 0-1.5 0v16.5z" fill="#626262"/></g><rect x="0" y="0" width="24" height="24" fill="rgba(0, 0, 0, 0)" /></svg>