<svg xmlns="http://www.w3.org/2000/svg" xmlns:xlink="http://www.w3.org/1999/xlink" width="24" height="24" preserveAspectRatio="xMidYMid meet" viewBox="0 0 24 24" style="-ms-transform: rotate(360deg); -webkit-transform: rotate(360deg); transform: rotate(360deg);"><g fill="none"><path d="M19.75 2A2.25 2.25 0 0 1 22 4.25v5.462a3.25 3.25 0 0 1-.952 2.298l-.026.026a6.5 6.5 0 0 0-9.028 8.92a3.256 3.256 0 0 1-4.043-.442L3.489 16.06a3.25 3.25 0 0 1-.003-4.596l8.5-8.51A3.25 3.25 0 0 1 14.284 2h5.465zM17 5.502a1.5 1.5 0 1 0 0 3a1.5 1.5 0 0 0 0-3z" fill="#626262"/><path d="M23 17.5a5.5 5.5 0 1 0-11 0a5.5 5.5 0 0 0 11 0zm-6.125 3.005a.625.625 0 1 1 1.25 0a.625.625 0 0 1-1.25 0zm-1.228-4.548c-.011-1.137.805-1.954 1.853-1.954c1.031 0 1.853.846 1.853 1.95c0 .566-.185.913-.663 1.447l-.265.29l-.101.116c-.248.292-.324.462-.324.695a.5.5 0 1 1-1 0c0-.576.187-.926.671-1.468l.265-.29l.1-.113c.242-.286.317-.453.317-.677c0-.558-.38-.95-.853-.95c-.494 0-.859.366-.853.945a.5.5 0 1 1-1 .01z" fill="#626262"/></g><rect x="0" y="0" width="24" height="24" fill="rgba(0, 0, 0, 0)" /></svg>