<svg xmlns="http://www.w3.org/2000/svg" xmlns:xlink="http://www.w3.org/1999/xlink" width="24" height="24" preserveAspectRatio="xMidYMid meet" viewBox="0 0 24 24" style="-ms-transform: rotate(360deg); -webkit-transform: rotate(360deg); transform: rotate(360deg);"><g fill="none"><path d="M12 14a2 2 0 1 0 0-4a2 2 0 0 0 0 4z" fill="#626262"/><path d="M6 12a6 6 0 1 1 12 0a6 6 0 0 1-12 0zm6-4a4 4 0 1 0 0 8a4 4 0 0 0 0-8z" fill="#626262"/><path d="M2 12C2 6.477 6.477 2 12 2s10 4.477 10 10s-4.477 10-10 10S2 17.523 2 12zm10-8a8 8 0 1 0 0 16a8 8 0 0 0 0-16z" fill="#626262"/></g><rect x="0" y="0" width="24" height="24" fill="rgba(0, 0, 0, 0)" /></svg>