<svg xmlns="http://www.w3.org/2000/svg" xmlns:xlink="http://www.w3.org/1999/xlink" width="24" height="24" preserveAspectRatio="xMidYMid meet" viewBox="0 0 24 24" style="-ms-transform: rotate(360deg); -webkit-transform: rotate(360deg); transform: rotate(360deg);"><g fill="none"><path d="M5.25 3A2.25 2.25 0 0 0 3 5.25v13.5A2.25 2.25 0 0 0 5.25 21h13.5A2.25 2.25 0 0 0 21 18.75V5.25A2.25 2.25 0 0 0 18.75 3H5.25zm5.53 5.78l-2 2a.75.75 0 0 1-1.06 0l-1-1a.75.75 0 0 1 1.06-1.06l.47.47l1.47-1.47a.75.75 0 1 1 1.06 1.06zm5.97-.28a.75.75 0 0 1 0 1.5h-3.5a.75.75 0 0 1 0-1.5h3.5zm-4.25 6.25a.75.75 0 0 1 .75-.75h3.5a.75.75 0 1 1 0 1.5h-3.5a.75.75 0 0 1-.75-.75zm-1.72-1.53a.75.75 0 0 1 0 1.06l-2 2a.75.75 0 0 1-1.06 0l-1-1a.75.75 0 1 1 1.06-1.06l.47.47l1.47-1.47a.75.75 0 0 1 1.06 0z" fill="#626262"/></g><rect x="0" y="0" width="24" height="24" fill="rgba(0, 0, 0, 0)" /></svg>