<svg xmlns="http://www.w3.org/2000/svg" xmlns:xlink="http://www.w3.org/1999/xlink" width="24" height="24" preserveAspectRatio="xMidYMid meet" viewBox="0 0 24 24" style="-ms-transform: rotate(360deg); -webkit-transform: rotate(360deg); transform: rotate(360deg);"><g fill="none"><path d="M8 3a1 1 0 0 1 1-1h4v5H8V3zM3 8a1 1 0 0 0-1 1v3a1 1 0 0 0 1 1h4V8H3zm10 0H8v5h4a1 1 0 0 0 1-1V8zm5-6h-4v5h4a1 1 0 0 0 1-1V3a1 1 0 0 0-1-1zM4 17a1 1 0 0 1 1-1h4v5H5a1 1 0 0 1-1-1v-3zm11-1h-5v5h5v-5zm1 0h5v4a1 1 0 0 1-1 1h-4v-5zm1-6a1 1 0 0 0-1 1v4h5v-4a1 1 0 0 0-1-1h-3z" fill="#626262"/></g><rect x="0" y="0" width="24" height="24" fill="rgba(0, 0, 0, 0)" /></svg>