<svg xmlns="http://www.w3.org/2000/svg" xmlns:xlink="http://www.w3.org/1999/xlink" width="24" height="24" preserveAspectRatio="xMidYMid meet" viewBox="0 0 24 24" style="-ms-transform: rotate(360deg); -webkit-transform: rotate(360deg); transform: rotate(360deg);"><g fill="none"><path d="M3 5a1 1 0 0 0 0 2h18a1 1 0 1 0 0-2H3z" fill="#626262"/><path d="M10 17a1 1 0 1 0 0 2h11a1 1 0 1 0 0-2H10z" fill="#626262"/><path d="M9 12a1 1 0 0 1 1-1h11a1 1 0 1 1 0 2H10a1 1 0 0 1-1-1z" fill="#626262"/><path d="M4.707 13.293a1 1 0 0 0-1.414 1.414L4.586 16l-1.293 1.293a1 1 0 1 0 1.414 1.414l2-2a1 1 0 0 0 0-1.414l-2-2z" fill="#626262"/></g><rect x="0" y="0" width="24" height="24" fill="rgba(0, 0, 0, 0)" /></svg>