<svg xmlns="http://www.w3.org/2000/svg" xmlns:xlink="http://www.w3.org/1999/xlink" width="24" height="24" preserveAspectRatio="xMidYMid meet" viewBox="0 0 24 24" style="-ms-transform: rotate(360deg); -webkit-transform: rotate(360deg); transform: rotate(360deg);"><g fill="none"><path d="M20.5 15.5a1.5 1.5 0 1 0 .002 2.999a1.5 1.5 0 0 0-.001-3zm-4 .5H3a1 1 0 0 0-.117 1.994L3 18h13.5a1 1 0 0 0 .117-1.994l-.116-.007zm4-5.504a1.5 1.5 0 1 0 .002 3a1.5 1.5 0 0 0-.001-3zm-4 .5H3a1 1 0 0 0-.117 1.995l.117.006h13.5a1 1 0 0 0 .117-1.994l-.116-.007zm4-5.496a1.5 1.5 0 1 0 .002 3a1.5 1.5 0 0 0-.001-3zm-4 .493H3a1 1 0 0 0-.117 1.995L3 7.994h13.5A1 1 0 0 0 16.618 6l-.116-.007z" fill="#626262"/></g><rect x="0" y="0" width="24" height="24" fill="rgba(0, 0, 0, 0)" /></svg>