<svg xmlns="http://www.w3.org/2000/svg" xmlns:xlink="http://www.w3.org/1999/xlink" width="24" height="24" preserveAspectRatio="xMidYMid meet" viewBox="0 0 24 24" style="-ms-transform: rotate(360deg); -webkit-transform: rotate(360deg); transform: rotate(360deg);"><g fill="none"><path d="M3 17h7.522l-2 2H3a1 1 0 0 1-.117-1.993L3 17z" fill="#626262"/><path d="M3 15h7.848a1.75 1.75 0 0 1-.775-2H3l-.117.007A1 1 0 0 0 3 15z" fill="#626262"/><path d="M3 7h18l.117-.007A1 1 0 0 0 21 5H3l-.117.007A1 1 0 0 0 3 7z" fill="#626262"/><path d="M12.72 16.216a.75.75 0 1 1 1.06 1.06l-4.5 4.5a.75.75 0 1 1-1.06-1.06l4.5-4.5z" fill="#626262"/><path d="M3 9h10a1 1 0 0 1 .117 1.993L13 11H3a1 1 0 0 1-.117-1.993L3 9z" fill="#626262"/><path d="M16.5 8a.75.75 0 0 1 .744.658l.14 1.13a3.25 3.25 0 0 0 2.828 2.829l1.13.139a.75.75 0 0 1 0 1.488l-1.13.14a3.25 3.25 0 0 0-2.829 2.828l-.139 1.13a.75.75 0 0 1-1.488 0l-.14-1.13a3.25 3.25 0 0 0-2.828-2.829l-1.13-.139a.75.75 0 0 1 0-1.488l1.13-.14a3.25 3.25 0 0 0 2.829-2.828l.139-1.13A.75.75 0 0 1 16.5 8z" fill="#626262"/></g><rect x="0" y="0" width="24" height="24" fill="rgba(0, 0, 0, 0)" /></svg>