<svg xmlns="http://www.w3.org/2000/svg" xmlns:xlink="http://www.w3.org/1999/xlink" width="24" height="24" preserveAspectRatio="xMidYMid meet" viewBox="0 0 24 24" style="-ms-transform: rotate(360deg); -webkit-transform: rotate(360deg); transform: rotate(360deg);"><g fill="none"><path d="M7.75 3a1 1 0 0 1 .923.615l3.75 9a1 1 0 1 1-1.846.77L9.584 11H5.917l-.994 2.385a1 1 0 0 1-1.846-.77l3.75-9A1 1 0 0 1 7.75 3zm0 3.6l-1 2.4h2l-1-2.4z" fill="#626262"/><path d="M17.293 5.293a1 1 0 0 1 1.414 0l1.927 1.934c.223.182.365.46.366.77v.006c0 .31-.143.588-.366.77l-1.927 1.934a1 1 0 0 1-1.414-1.414L17.586 9H13a1 1 0 0 1 0-2h4.586l-.293-.293a1 1 0 0 1 0-1.414z" fill="#626262"/><path d="M18.707 14.293a1 1 0 0 0-1.414 1.414l.293.293H4a1 1 0 1 0 0 2h13.586l-.293.293a1 1 0 0 0 1.414 1.414l2-2a1 1 0 0 0 0-1.414l-2-2z" fill="#626262"/></g><rect x="0" y="0" width="24" height="24" fill="rgba(0, 0, 0, 0)" /></svg>