<svg xmlns="http://www.w3.org/2000/svg" xmlns:xlink="http://www.w3.org/1999/xlink" width="24" height="24" preserveAspectRatio="xMidYMid meet" viewBox="0 0 24 24" style="-ms-transform: rotate(360deg); -webkit-transform: rotate(360deg); transform: rotate(360deg);"><g fill="none"><path d="M7 2a1 1 0 0 1 .94.658l2.882 7.926l-1.11 2.798L9.209 12H4.792l-.852 2.342a1 1 0 0 1-1.88-.684l4.001-11A1 1 0 0 1 7.001 2zm-1.48 8h2.962L7 5.926L5.519 10z" fill="#626262"/><path d="M15.368 6.528a1 1 0 0 0-1.86 0L8.151 20.022h-.15a1 1 0 1 0 0 2h.809a.89.89 0 0 0 .04 0H11a1 1 0 0 0 0-2h-.697L11.106 18h6.653l.8 2.023H18a1 1 0 0 0 0 2h2.014a.98.98 0 0 0 .035 0h.96a1 1 0 0 0 0-2h-.298L15.368 6.528zM16.967 16H11.9l2.537-6.39l2.53 6.39z" fill="#626262"/></g><rect x="0" y="0" width="24" height="24" fill="rgba(0, 0, 0, 0)" /></svg>