<svg xmlns="http://www.w3.org/2000/svg" xmlns:xlink="http://www.w3.org/1999/xlink" width="24" height="24" preserveAspectRatio="xMidYMid meet" viewBox="0 0 24 24" style="-ms-transform: rotate(360deg); -webkit-transform: rotate(360deg); transform: rotate(360deg);"><g fill="none"><path d="M4.75 5a1 1 0 0 1 1-1h12.5a1 1 0 0 1 1 1v2a1 1 0 1 1-2 0V6H13v12h1a1 1 0 1 1 0 2h-4a1 1 0 1 1 0-2h1V6H6.75v1a1 1 0 0 1-2 0V5z" fill="#626262"/></g><rect x="0" y="0" width="24" height="24" fill="rgba(0, 0, 0, 0)" /></svg>