<svg xmlns="http://www.w3.org/2000/svg" xmlns:xlink="http://www.w3.org/1999/xlink" width="24" height="24" preserveAspectRatio="xMidYMid meet" viewBox="0 0 24 24" style="-ms-transform: rotate(360deg); -webkit-transform: rotate(360deg); transform: rotate(360deg);"><g fill="none"><path d="M3.75 5a1 1 0 0 1 1-1h12.5a1 1 0 0 1 1 1v2a1 1 0 1 1-2 0V6H12v8.034a6.47 6.47 0 0 0-1 3.466c0 .886.177 1.73.498 2.5H9a1 1 0 1 1 0-2h1V6H5.75v1a1 1 0 0 1-2 0V5zM23 17.5a5.5 5.5 0 1 0-11 0a5.5 5.5 0 0 0 11 0zm-5 .5l.001 2.503a.5.5 0 1 1-1 0V18h-2.505a.5.5 0 0 1 0-1H17v-2.5a.5.5 0 1 1 1 0V17h2.497a.5.5 0 0 1 0 1H18z" fill="#626262"/></g><rect x="0" y="0" width="24" height="24" fill="rgba(0, 0, 0, 0)" /></svg>