<svg xmlns="http://www.w3.org/2000/svg" xmlns:xlink="http://www.w3.org/1999/xlink" width="24" height="24" preserveAspectRatio="xMidYMid meet" viewBox="0 0 24 24" style="-ms-transform: rotate(360deg); -webkit-transform: rotate(360deg); transform: rotate(360deg);"><g fill="none"><path d="M11.019 17H3l-.117.007A1 1 0 0 0 3 19h8.174a6.52 6.52 0 0 1-.155-2z" fill="#626262"/><path d="M11.498 15H3a1 1 0 0 1-.117-1.993L3 13h9.81c-.553.575-1 1.252-1.312 2z" fill="#626262"/><path d="M3 11a1 1 0 0 1-.117-1.993L3 9h18a1 1 0 0 1 .117 1.993L21 11H3z" fill="#626262"/><path d="M21 5H3l-.117.007A1 1 0 0 0 3 7h18l.117-.007A1 1 0 0 0 21 5z" fill="#626262"/><path d="M17.5 12c.293 0 .58.024.86.072l.174.716a2 2 0 0 0 2.413 1.475l.098-.026l.601-.179c.363.467.653.997.854 1.57l-.448.43a2 2 0 0 0-.168 2.7l.14.156l.476.457c-.2.574-.491 1.103-.853 1.57l-.602-.178a2 2 0 0 0-2.485 1.351l-.026.098l-.173.716a5.168 5.168 0 0 1-1.723 0l-.172-.716a2 2 0 0 0-2.414-1.475l-.097.026l-.602.178a5.549 5.549 0 0 1-.853-1.57l.447-.43a2 2 0 0 0 .055-2.828l-.055-.054l-.447-.43c.2-.574.49-1.103.853-1.57l.602.178a2 2 0 0 0 2.484-1.351l.027-.098l.172-.716c.28-.047.568-.072.862-.072zm0 4c-.8 0-1.45.672-1.45 1.5S16.7 19 17.5 19c.8 0 1.45-.672 1.45-1.5S18.3 16 17.5 16z" fill="#626262"/></g><rect x="0" y="0" width="24" height="24" fill="rgba(0, 0, 0, 0)" /></svg>