<svg xmlns="http://www.w3.org/2000/svg" xmlns:xlink="http://www.w3.org/1999/xlink" width="24" height="24" preserveAspectRatio="xMidYMid meet" viewBox="0 0 24 24" style="-ms-transform: rotate(360deg); -webkit-transform: rotate(360deg); transform: rotate(360deg);"><g fill="none"><path d="M3.75 3.75a1 1 0 0 0 0 2h16.5a1 1 0 1 0 0-2H3.75z" fill="#626262"/><path d="M12 8.75c-.78 0-1.467.397-1.871 1H7.937a4.252 4.252 0 0 1 8.126 0h-2.192a2.248 2.248 0 0 0-1.871-1z" fill="#626262"/><path d="M3.75 10.75a1 1 0 1 0 0 2h16.5a1 1 0 1 0 0-2H3.75z" fill="#626262"/><path d="M7.75 13.75h2v2a1 1 0 1 1-2 0v-2z" fill="#626262"/><path d="M16.25 13.75h-2v2a1 1 0 1 0 2 0v-2z" fill="#626262"/><path d="M2.75 18.75a1 1 0 0 1 1-1h16.5a1 1 0 1 1 0 2H3.75a1 1 0 0 1-1-1z" fill="#626262"/></g><rect x="0" y="0" width="24" height="24" fill="rgba(0, 0, 0, 0)" /></svg>