<svg xmlns="http://www.w3.org/2000/svg" xmlns:xlink="http://www.w3.org/1999/xlink" width="24" height="24" preserveAspectRatio="xMidYMid meet" viewBox="0 0 24 24" style="-ms-transform: rotate(360deg); -webkit-transform: rotate(360deg); transform: rotate(360deg);"><g fill="none"><path d="M4.999 5.006a1.5 1.5 0 1 0-2.999 0a1.5 1.5 0 0 0 2.999 0z" fill="#626262"/><path d="M4.999 10A1.5 1.5 0 1 0 2 10a1.5 1.5 0 0 0 2.999 0z" fill="#626262"/><path d="M3.5 13.5a1.5 1.5 0 1 1 0 3a1.5 1.5 0 0 1 0-3z" fill="#626262"/><path d="M7.5 14h4.522a6.466 6.466 0 0 0-.848 2H7.5a1 1 0 0 1-.116-1.993L7.5 14z" fill="#626262"/><path d="M7.5 9h13.503a1 1 0 0 1 .117 1.993l-.117.007H7.5a1 1 0 0 1-.116-1.993L7.5 9z" fill="#626262"/><path d="M7.5 4h13.503a1 1 0 0 1 .117 1.993L21.003 6H7.5a1 1 0 0 1-.116-1.993L7.5 4z" fill="#626262"/><path d="M23 17.5a5.5 5.5 0 1 0-11 0a5.5 5.5 0 0 0 11 0zm-5 .5l.001 2.503a.5.5 0 1 1-1 0V18h-2.505a.5.5 0 1 1 0-1H17v-2.5a.5.5 0 1 1 1 0V17h2.503a.5.5 0 1 1 0 1h-2.502z" fill="#626262"/></g><rect x="0" y="0" width="24" height="24" fill="rgba(0, 0, 0, 0)" /></svg>