<svg xmlns="http://www.w3.org/2000/svg" xmlns:xlink="http://www.w3.org/1999/xlink" width="24" height="24" preserveAspectRatio="xMidYMid meet" viewBox="0 0 24 24" style="-ms-transform: rotate(360deg); -webkit-transform: rotate(360deg); transform: rotate(360deg);"><g fill="none"><path d="M4 5a1 1 0 0 0 0 2h16a1 1 0 1 0 0-2H4z" fill="#626262"/><path d="M4 9a1 1 0 0 0 0 2h16a1 1 0 1 0 0-2H4z" fill="#626262"/><path d="M3 14a1 1 0 0 1 1-1h16a1 1 0 1 1 0 2H4a1 1 0 0 1-1-1z" fill="#626262"/><path d="M4 17a1 1 0 1 0 0 2h16a1 1 0 1 0 0-2H4z" fill="#626262"/></g><rect x="0" y="0" width="24" height="24" fill="rgba(0, 0, 0, 0)" /></svg>