<svg xmlns="http://www.w3.org/2000/svg" xmlns:xlink="http://www.w3.org/1999/xlink" width="24" height="24" preserveAspectRatio="xMidYMid meet" viewBox="0 0 24 24" style="-ms-transform: rotate(360deg); -webkit-transform: rotate(360deg); transform: rotate(360deg);"><g fill="none"><path d="M3 6a1 1 0 0 1 1-1h3V4a1 1 0 1 1 2 0v1h4.25a1 1 0 1 1 0 2H4a1 1 0 0 1-1-1z" fill="#626262"/><path d="M5 14a1 1 0 0 1-1-1V9a1 1 0 0 1 1-1h1.25c1.105 0 2.506.216 3.664.958C11.136 9.739 12 11.055 12 13a1 1 0 1 1-2 0c0-1.255-.51-1.94-1.164-2.358C8.119 10.184 7.146 10 6.25 10H6v3a1 1 0 0 1-1 1z" fill="#626262"/><path d="M19.707 14.293a1 1 0 0 0-1.414 1.414l.293.293H5a1 1 0 1 0 0 2h13.586l-.293.293a1 1 0 0 0 1.414 1.414l2-2a1 1 0 0 0 0-1.414l-2-2z" fill="#626262"/><path d="M18.293 6.293a1 1 0 0 1 1.414 0l2 2a1 1 0 0 1 0 1.414l-2 2a1 1 0 0 1-1.414-1.414l.293-.293H15a1 1 0 1 1 0-2h3.586l-.293-.293a1 1 0 0 1 0-1.414z" fill="#626262"/></g><rect x="0" y="0" width="24" height="24" fill="rgba(0, 0, 0, 0)" /></svg>