<svg xmlns="http://www.w3.org/2000/svg" xmlns:xlink="http://www.w3.org/1999/xlink" width="24" height="24" preserveAspectRatio="xMidYMid meet" viewBox="0 0 24 24" style="-ms-transform: rotate(360deg); -webkit-transform: rotate(360deg); transform: rotate(360deg);"><g fill="none"><path d="M3 5h18a1 1 0 0 1 .117 1.993L21 7H3a1 1 0 0 1-.117-1.993L3 5z" fill="#626262"/><path d="M3 11a1 1 0 0 1-.117-1.993L3 9h18a1 1 0 0 1 .117 1.993L21 11H3z" fill="#626262"/><path d="M3 15h8.498a6.506 6.506 0 0 1 1.312-2H3l-.117.007A1 1 0 0 0 3 15z" fill="#626262"/><path d="M3 17h8.019a6.62 6.62 0 0 0 .155 2H3a1 1 0 0 1-.117-1.993L3 17z" fill="#626262"/><path d="M12 17.5a5.5 5.5 0 1 0 11 0a5.5 5.5 0 0 0-11 0zm6.35 2.854l-.07.057a.5.5 0 0 1-.637-.057l-.058-.07a.5.5 0 0 1 .058-.638L19.289 18H14.5l-.09-.008A.5.5 0 0 1 14 17.5l.008-.09A.5.5 0 0 1 14.5 17h4.789l-1.646-1.646l-.058-.07a.5.5 0 0 1 .765-.638l2.516 2.517l.05.066l.035.061l.029.08l.014.086l-.002.11l-.019.085l-.023.059l-.044.077l-.04.05l-2.516 2.517z" fill="#626262"/></g><rect x="0" y="0" width="24" height="24" fill="rgba(0, 0, 0, 0)" /></svg>