<svg xmlns="http://www.w3.org/2000/svg" xmlns:xlink="http://www.w3.org/1999/xlink" width="24" height="24" preserveAspectRatio="xMidYMid meet" viewBox="0 0 24 24" style="-ms-transform: rotate(360deg); -webkit-transform: rotate(360deg); transform: rotate(360deg);"><g fill="none"><path d="M5.25 3A2.25 2.25 0 0 0 3 5.25v13.5A2.25 2.25 0 0 0 5.25 21h13.5A2.25 2.25 0 0 0 21 18.75V5.25A2.25 2.25 0 0 0 18.75 3H5.25zm3.5 5.25a1 1 0 1 1-2 0a1 1 0 0 1 2 0zm1.75 0a.75.75 0 0 1 .75-.75h5.5a.75.75 0 0 1 0 1.5h-5.5a.75.75 0 0 1-.75-.75zm0 3.75a.75.75 0 0 1 .75-.75h5.5a.75.75 0 1 1 0 1.5h-5.5a.75.75 0 0 1-.75-.75zm.75 3h5.5a.75.75 0 1 1 0 1.5h-5.5a.75.75 0 1 1 0-1.5zm-3.5-2a1 1 0 1 1 0-2a1 1 0 0 1 0 2zm1 2.75a1 1 0 1 1-2 0a1 1 0 0 1 2 0z" fill="#626262"/></g><rect x="0" y="0" width="24" height="24" fill="rgba(0, 0, 0, 0)" /></svg>