<svg xmlns="http://www.w3.org/2000/svg" xmlns:xlink="http://www.w3.org/1999/xlink" width="24" height="24" preserveAspectRatio="xMidYMid meet" viewBox="0 0 24 24" style="-ms-transform: rotate(360deg); -webkit-transform: rotate(360deg); transform: rotate(360deg);"><g fill="none"><path d="M3.707 3.293a1 1 0 0 0-1.414 1.414L3.586 6L2.293 7.293a1 1 0 0 0 1.414 1.414l2-2a1 1 0 0 0 0-1.414l-2-2z" fill="#626262"/><path d="M10 5a1 1 0 0 0 0 2h11a1 1 0 1 0 0-2H10z" fill="#626262"/><path d="M21 17H3a1 1 0 1 0 0 2h18a1 1 0 1 0 0-2z" fill="#626262"/><path d="M2 12a1 1 0 0 1 1-1h18a1 1 0 1 1 0 2H3a1 1 0 0 1-1-1z" fill="#626262"/></g><rect x="0" y="0" width="24" height="24" fill="rgba(0, 0, 0, 0)" /></svg>