<svg xmlns="http://www.w3.org/2000/svg" xmlns:xlink="http://www.w3.org/1999/xlink" width="24" height="24" preserveAspectRatio="xMidYMid meet" viewBox="0 0 24 24" style="-ms-transform: rotate(360deg); -webkit-transform: rotate(360deg); transform: rotate(360deg);"><g fill="none"><path d="M3.5 15.506a1.5 1.5 0 1 1-.002 3a1.5 1.5 0 0 1 .001-3zm4 .5H21a1 1 0 0 1 .117 1.995l-.117.006H7.5a1 1 0 0 1-.117-1.994l.116-.007H21H7.5zm-4-5.502a1.5 1.5 0 1 1-.002 2.999a1.5 1.5 0 0 1 .001-3zm4 .5H21a1 1 0 0 1 .117 1.994l-.117.006H7.5a1 1 0 0 1-.117-1.994l.116-.007H21H7.5zm-4-5.497a1.5 1.5 0 1 1-.002 3a1.5 1.5 0 0 1 .001-3zM7.5 6H21a1 1 0 0 1 .117 1.995L21 8H7.5a1 1 0 0 1-.117-1.994L7.499 6H21H7.5z" fill="#626262"/></g><rect x="0" y="0" width="24" height="24" fill="rgba(0, 0, 0, 0)" /></svg>