<svg xmlns="http://www.w3.org/2000/svg" xmlns:xlink="http://www.w3.org/1999/xlink" width="24" height="24" preserveAspectRatio="xMidYMid meet" viewBox="0 0 24 24" style="-ms-transform: rotate(360deg); -webkit-transform: rotate(360deg); transform: rotate(360deg);"><g fill="none"><path d="M20.536 17.934l.023.07c.116.346.169.7.169 1.05c0 .808-.304 1.58-.92 2.166a2.928 2.928 0 0 1-2.07.846a3.01 3.01 0 0 1-1.681-.512l-.082-.054l-.075-.062a3.47 3.47 0 0 1-.942-1.23l-.016-.034l-.863-2.046H9.947l-.812 1.97a2.937 2.937 0 0 1-1.099 1.433a2.91 2.91 0 0 1-1.694.535c-.648 0-1.466-.175-2.118-.828c-.617-.616-.828-1.39-.828-2.074c0-.253.047-.534.071-.681l.038-.224L9.209 4.434l.009-.02a3.179 3.179 0 0 1 1.126-1.38a2.884 2.884 0 0 1 1.884-.498a3.04 3.04 0 0 1 1.581.51c.555.37.926.886 1.133 1.452l5.594 13.436zM13.074 5.216a.997.997 0 0 0-.214-.371a.901.901 0 0 0-.16-.135a1.047 1.047 0 0 0-.594-.176a.89.89 0 0 0-.638.154a1.182 1.182 0 0 0-.418.528L5.44 18.812a2.7 2.7 0 0 0-.044.352c0 .278.08.498.242.66c.161.161.396.242.704.242a.911.911 0 0 0 .55-.176a.91.91 0 0 0 .31-.351c.024-.049.046-.1.064-.155l1.342-3.256h6.798l1.364 3.234c.103.22.235.396.396.528c.176.117.367.176.572.176a.931.931 0 0 0 .682-.286a.948.948 0 0 0 .308-.726c0-.147-.022-.286-.066-.418l-5.588-13.42zm-1.078 2.75l2.574 6.16H9.444l2.552-6.16z" fill="#626262"/></g><rect x="0" y="0" width="24" height="24" fill="rgba(0, 0, 0, 0)" /></svg>