<svg xmlns="http://www.w3.org/2000/svg" xmlns:xlink="http://www.w3.org/1999/xlink" width="24" height="24" preserveAspectRatio="xMidYMid meet" viewBox="0 0 24 24" style="-ms-transform: rotate(360deg); -webkit-transform: rotate(360deg); transform: rotate(360deg);"><g fill="none"><path d="M20.385 8.673l-9 3.75a1 1 0 1 1-.77-1.846L13 9.584V5.917l-2.385-.994a1 1 0 0 1 .77-1.846l9 3.75a1 1 0 0 1 0 1.846zM15 8.75l2.4-1l-2.4-1v2z" fill="#626262"/><path d="M8 4a1 1 0 0 0-2 0v13.586l-.293-.293a1 1 0 0 0-1.414 1.414l2 2a1 1 0 0 0 1.414 0l2-2a1 1 0 0 0-1.414-1.414L8 17.586V4z" fill="#626262"/><path d="M16 13a1 1 0 0 0-1 1v3.586l-.293-.293a1 1 0 0 0-1.414 1.414l2 2a1 1 0 0 0 1.414 0l2-2a1 1 0 0 0-1.414-1.414l-.293.293V14a1 1 0 0 0-1-1z" fill="#626262"/></g><rect x="0" y="0" width="24" height="24" fill="rgba(0, 0, 0, 0)" /></svg>