<svg xmlns="http://www.w3.org/2000/svg" xmlns:xlink="http://www.w3.org/1999/xlink" width="24" height="24" preserveAspectRatio="xMidYMid meet" viewBox="0 0 24 24" style="-ms-transform: rotate(360deg); -webkit-transform: rotate(360deg); transform: rotate(360deg);"><g fill="none"><path d="M18.25 3A2.75 2.75 0 0 1 21 5.75v12.5A2.75 2.75 0 0 1 18.25 21H5.75A2.75 2.75 0 0 1 3 18.25V5.75A2.75 2.75 0 0 1 5.75 3h12.5zM7 10l-.136.007c-.488.05-.864.363-.864.743c0 .414.448.75 1 .75h10l.136-.007c.488-.05.864-.363.864-.743c0-.414-.448-.75-1-.75H7zm10 3H7l-.136.007c-.488.05-.864.363-.864.743c0 .414.448.75 1 .75h10l.136-.007c.488-.05.864-.363.864-.743c0-.414-.448-.75-1-.75z" fill="#626262"/></g><rect x="0" y="0" width="24" height="24" fill="rgba(0, 0, 0, 0)" /></svg>