<svg xmlns="http://www.w3.org/2000/svg" xmlns:xlink="http://www.w3.org/1999/xlink" width="24" height="24" preserveAspectRatio="xMidYMid meet" viewBox="0 0 24 24" style="-ms-transform: rotate(360deg); -webkit-transform: rotate(360deg); transform: rotate(360deg);"><g fill="none"><path d="M20 6.414V10a1 1 0 1 1-2 0V6.414l-.293.293a1 1 0 1 1-1.414-1.414l2-2a.998.998 0 0 1 1.414 0l2 2a1 1 0 0 1-1.414 1.414L20 6.414z" fill="#626262"/><path d="M2 6a1 1 0 0 1 1-1h8a1 1 0 1 1 0 2H3a1 1 0 0 1-1-1z" fill="#626262"/><path d="M2 12a1 1 0 0 1 1-1h11a1 1 0 1 1 0 2H3a1 1 0 0 1-1-1z" fill="#626262"/><path d="M3 17a1 1 0 1 0 0 2h8a1 1 0 1 0 0-2H3z" fill="#626262"/><path d="M20 14v3.586l.293-.293a1 1 0 0 1 1.414 1.414l-2 2a1 1 0 0 1-1.414 0l-2-2a1 1 0 0 1 1.414-1.414l.293.293V14a1 1 0 1 1 2 0z" fill="#626262"/></g><rect x="0" y="0" width="24" height="24" fill="rgba(0, 0, 0, 0)" /></svg>