<svg xmlns="http://www.w3.org/2000/svg" xmlns:xlink="http://www.w3.org/1999/xlink" width="24" height="24" preserveAspectRatio="xMidYMid meet" viewBox="0 0 24 24" style="-ms-transform: rotate(360deg); -webkit-transform: rotate(360deg); transform: rotate(360deg);"><g fill="none"><path d="M9.97 16.168l4.59-12.512c.306-.834 1.446-.872 1.828-.114l.05.114l5.5 14.997a1 1 0 0 1-1.83.796l-.047-.107l-1.41-3.843h-6.306l-1.441 3.92l-.041.078l-.072.108l-.078.09l-.085.078l-.082.06l-.05.031l-.085.043l-.104.04l-.104.029l-.133.019l-.108.002l-.07-.005l-.103-.017l-.15-.044l-.07-.03l-.1-.054l-.11-.08l-.093-.087l-.064-.075l-.06-.09l-.055-.103l-.745-1.912H4.655l-.723 1.86a1 1 0 0 1-1.184.605l-.11-.036a1 1 0 0 1-.606-1.183l.036-.111l3.498-8.996c.315-.81 1.421-.849 1.811-.116l.053.116l2.54 6.529l4.59-12.512l-4.59 12.511zM6.498 12.76L5.433 15.5h2.13l-1.065-2.74zm9-5.856l-2.42 6.595h4.838l-2.418-6.595z" fill="#626262"/></g><rect x="0" y="0" width="24" height="24" fill="rgba(0, 0, 0, 0)" /></svg>