<svg xmlns="http://www.w3.org/2000/svg" xmlns:xlink="http://www.w3.org/1999/xlink" width="24" height="24" preserveAspectRatio="xMidYMid meet" viewBox="0 0 24 24" style="-ms-transform: rotate(360deg); -webkit-transform: rotate(360deg); transform: rotate(360deg);"><g fill="none"><path d="M2 7.75A3.75 3.75 0 0 1 5.75 4h12.5A3.75 3.75 0 0 1 22 7.75v8.5A3.75 3.75 0 0 1 18.25 20H5.75A3.75 3.75 0 0 1 2 16.25v-8.5zM8.25 7a.75.75 0 0 0-.75.75v1.5a.75.75 0 1 0 1.5 0V8.5h2.25v7h-.5a.75.75 0 0 0 0 1.5h2.5a.75.75 0 0 0 0-1.5h-.5v-7H15v.75a.75.75 0 0 0 1.5 0v-1.5a.75.75 0 0 0-.75-.75h-7.5z" fill="#626262"/></g><rect x="0" y="0" width="24" height="24" fill="rgba(0, 0, 0, 0)" /></svg>