<svg xmlns="http://www.w3.org/2000/svg" xmlns:xlink="http://www.w3.org/1999/xlink" width="24" height="24" preserveAspectRatio="xMidYMid meet" viewBox="0 0 24 24" style="-ms-transform: rotate(360deg); -webkit-transform: rotate(360deg); transform: rotate(360deg);"><g fill="none"><path d="M7.5 15.5a1.5 1.5 0 1 1 0 3a1.5 1.5 0 0 1 0-3zm4 .5h9.503a1 1 0 0 1 .117 1.993l-.117.007H11.5a1 1 0 0 1-.116-1.994L11.5 16zm-8-5.5a1.5 1.5 0 1 1 0 3a1.5 1.5 0 0 1 0-3zm4 .5h13.503a1 1 0 0 1 .117 1.993l-.117.007H7.5a1 1 0 0 1-.116-1.993L7.5 11zm-4-5.493a1.5 1.5 0 1 1 0 2.999a1.5 1.5 0 0 1 0-3zM7.5 6h13.503a1 1 0 0 1 .117 1.993L21.003 8H7.5a1 1 0 0 1-.116-1.993L7.5 6z" fill="#626262"/></g><rect x="0" y="0" width="24" height="24" fill="rgba(0, 0, 0, 0)" /></svg>