<svg xmlns="http://www.w3.org/2000/svg" xmlns:xlink="http://www.w3.org/1999/xlink" width="24" height="24" preserveAspectRatio="xMidYMid meet" viewBox="0 0 24 24" style="-ms-transform: rotate(360deg); -webkit-transform: rotate(360deg); transform: rotate(360deg);"><g fill="none"><path d="M3.75 3.75a1 1 0 0 0 0 2h16.5a1 1 0 1 0 0-2H3.75z" fill="#626262"/><path d="M2.75 8.25a1 1 0 0 1 1-1h2a1 1 0 0 1 0 2h-2a1 1 0 0 1-1-1z" fill="#626262"/><path d="M17.25 8.25a1 1 0 0 1 1-1h2a1 1 0 1 1 0 2h-2a1 1 0 0 1-1-1z" fill="#626262"/><path d="M3.75 10.75a1 1 0 1 0 0 2h2a1 1 0 1 0 0-2h-2z" fill="#626262"/><path d="M17.25 11.75a1 1 0 0 1 1-1h2a1 1 0 1 1 0 2h-2a1 1 0 0 1-1-1z" fill="#626262"/><path d="M3.75 14.25a1 1 0 1 0 0 2h2a1 1 0 1 0 0-2h-2z" fill="#626262"/><path d="M17.25 15.25a1 1 0 0 1 1-1h2a1 1 0 1 1 0 2h-2a1 1 0 0 1-1-1z" fill="#626262"/><path d="M2.75 18.75a1 1 0 0 1 1-1h16.5a1 1 0 1 1 0 2H3.75a1 1 0 0 1-1-1z" fill="#626262"/><path d="M9.75 11a2.25 2.25 0 0 1 4.5 0v4.75a1 1 0 1 0 2 0V11a4.25 4.25 0 0 0-8.5 0v4.75a1 1 0 1 0 2 0V11z" fill="#626262"/></g><rect x="0" y="0" width="24" height="24" fill="rgba(0, 0, 0, 0)" /></svg>