<svg xmlns="http://www.w3.org/2000/svg" xmlns:xlink="http://www.w3.org/1999/xlink" width="24" height="24" preserveAspectRatio="xMidYMid meet" viewBox="0 0 24 24" style="-ms-transform: rotate(360deg); -webkit-transform: rotate(360deg); transform: rotate(360deg);"><path d="M12.499 4c2.823 0 4.751 2.34 4.751 4.75c0 .931-.288 1.852-.803 2.632C17.369 12.239 18 13.47 18 15c0 3.133-2.677 5-5 5H7.75A1.75 1.75 0 0 1 6 18.25V5.75C6 4.784 6.784 4 7.75 4h4.749zM13 13.5H9.5v3H13c.312 0 .71-.138 1.024-.421c.288-.26.476-.615.476-1.079c0-.888-.745-1.5-1.5-1.5zm-.501-6H9.5V10h3c.715 0 1.25-.592 1.25-1.25c0-.657-.536-1.25-1.251-1.25z" fill-rule="nonzero" fill="#626262"/><rect x="0" y="0" width="24" height="24" fill="rgba(0, 0, 0, 0)" /></svg>