<svg xmlns="http://www.w3.org/2000/svg" xmlns:xlink="http://www.w3.org/1999/xlink" width="24" height="24" preserveAspectRatio="xMidYMid meet" viewBox="0 0 24 24" style="-ms-transform: rotate(360deg); -webkit-transform: rotate(360deg); transform: rotate(360deg);"><g fill="none"><path d="M18.25 21A2.75 2.75 0 0 0 21 18.25V5.75A2.75 2.75 0 0 0 18.25 3H5.75A2.75 2.75 0 0 0 3 5.75v12.5A2.75 2.75 0 0 0 5.75 21h12.5zm-5.75-6.75a.75.75 0 0 1-1.493.102L11 14.25v-7.5a.75.75 0 0 1 1.493-.102l.007.102v7.5zm-4-7.5v10.5a.75.75 0 0 1-1.493.102L7 17.25V6.75a.75.75 0 0 1 1.493-.102l.007.102zm8 10.5a.75.75 0 0 1-1.493.102L15 17.25V6.75a.75.75 0 0 1 1.493-.102l.007.102v10.5z" fill="#626262"/></g><rect x="0" y="0" width="24" height="24" fill="rgba(0, 0, 0, 0)" /></svg>