<svg xmlns="http://www.w3.org/2000/svg" xmlns:xlink="http://www.w3.org/1999/xlink" width="24" height="24" preserveAspectRatio="xMidYMid meet" viewBox="0 0 24 24" style="-ms-transform: rotate(360deg); -webkit-transform: rotate(360deg); transform: rotate(360deg);"><g fill="none"><path d="M7 18a1 1 0 1 0 0 2h14a1 1 0 1 0 0-2H7z" fill="#626262"/><path d="M13 9a1 1 0 0 1 1-1h7a1 1 0 1 1 0 2h-7a1 1 0 0 1-1-1z" fill="#626262"/><path d="M6 4a1 1 0 0 1 1-1h14a1 1 0 1 1 0 2H7a1 1 0 0 1-1-1z" fill="#626262"/><path d="M13 14a1 1 0 0 1 1-1h7a1 1 0 1 1 0 2h-7a1 1 0 0 1-1-1z" fill="#626262"/><path d="M11 11.5a4.5 4.5 0 1 1-9 0a4.5 4.5 0 0 1 9 0zm-4-2a.5.5 0 0 0-1 0V11H4.5a.5.5 0 0 0 0 1H6v1.5a.5.5 0 0 0 1 0V12h1.5a.5.5 0 0 0 0-1H7V9.5z" fill="#626262"/></g><rect x="0" y="0" width="24" height="24" fill="rgba(0, 0, 0, 0)" /></svg>