<svg xmlns="http://www.w3.org/2000/svg" xmlns:xlink="http://www.w3.org/1999/xlink" width="24" height="24" preserveAspectRatio="xMidYMid meet" viewBox="0 0 24 24" style="-ms-transform: rotate(360deg); -webkit-transform: rotate(360deg); transform: rotate(360deg);"><g fill="none"><path d="M3 6a1 1 0 0 1 1-1h16a1 1 0 1 1 0 2H4a1 1 0 0 1-1-1z" fill="#626262"/><path d="M8 10a1 1 0 0 1 1-1h11a1 1 0 1 1 0 2H9a1 1 0 0 1-1-1z" fill="#626262"/><path d="M8 14a1 1 0 0 1 1-1h11a1 1 0 1 1 0 2H9a1 1 0 0 1-1-1z" fill="#626262"/><path d="M20 19H4a1 1 0 1 1 0-2h16a1 1 0 1 1 0 2z" fill="#626262"/><path d="M3.293 11.207a1 1 0 0 1 1.414-1.414l1.5 1.5a1 1 0 0 1 0 1.414l-1.5 1.5a1 1 0 0 1-1.414-1.414L4.086 12l-.793-.793z" fill="#626262"/></g><rect x="0" y="0" width="24" height="24" fill="rgba(0, 0, 0, 0)" /></svg>