<svg xmlns="http://www.w3.org/2000/svg" xmlns:xlink="http://www.w3.org/1999/xlink" width="24" height="24" preserveAspectRatio="xMidYMid meet" viewBox="0 0 24 24" style="-ms-transform: rotate(360deg); -webkit-transform: rotate(360deg); transform: rotate(360deg);"><g fill="none"><path d="M17.5 12a5.5 5.5 0 1 1 0 11a5.5 5.5 0 0 1 0-11zm2.646 3.146l-4.092 4.093L14.9 17.7a.5.5 0 0 0-.8.6l1.5 2a.5.5 0 0 0 .754.053l4.5-4.5a.5.5 0 0 0-.707-.707z" fill="#626262"/><path d="M11.019 17H3l-.117.007A1 1 0 0 0 3 19h8.174a6.52 6.52 0 0 1-.155-2z" fill="#626262"/><path d="M11.498 15H3a1 1 0 0 1-.117-1.993L3 13h9.81c-.553.575-1 1.252-1.312 2z" fill="#626262"/><path d="M3 11a1 1 0 0 1-.117-1.993L3 9h18a1 1 0 0 1 .117 1.993L21 11H3z" fill="#626262"/><path d="M21 5H3l-.117.007A1 1 0 0 0 3 7h18l.117-.007A1 1 0 0 0 21 5z" fill="#626262"/></g><rect x="0" y="0" width="24" height="24" fill="rgba(0, 0, 0, 0)" /></svg>