<svg xmlns="http://www.w3.org/2000/svg" xmlns:xlink="http://www.w3.org/1999/xlink" width="24" height="24" preserveAspectRatio="xMidYMid meet" viewBox="0 0 24 24" style="-ms-transform: rotate(360deg); -webkit-transform: rotate(360deg); transform: rotate(360deg);"><g fill="none"><path d="M3.75 3.75a1 1 0 0 0 0 2h16.5a1 1 0 1 0 0-2H3.75z" fill="#626262"/><path d="M15.874 9.25a4.267 4.267 0 0 0-1.872-2A4.231 4.231 0 0 0 12 6.75c-.724 0-1.405.18-2.002.5a4.267 4.267 0 0 0-1.872 2A4.227 4.227 0 0 0 7.75 11v4.75a1 1 0 1 0 2 0V11A2.247 2.247 0 0 1 12 8.75A2.247 2.247 0 0 1 14.25 11v4.75a1 1 0 1 0 2 0V11a4.227 4.227 0 0 0-.376-1.75z" fill="#626262"/><path d="M3.75 7.25h4.576a5.253 5.253 0 0 0-1.277 2H3.75a1 1 0 0 1 0-2z" fill="#626262"/><path d="M3.75 10.75h3.006a5.329 5.329 0 0 0-.006.25v1.75h-3a1 1 0 1 1 0-2z" fill="#626262"/><path d="M3.75 14.25h3v1.5c0 .173.022.34.063.5H3.75a1 1 0 1 1 0-2z" fill="#626262"/><path d="M10.75 15.75c0 .173-.022.34-.063.5h2.626a2.005 2.005 0 0 1-.063-.5v-1.5h-2.5v1.5z" fill="#626262"/><path d="M17.25 15.75c0 .173-.022.34-.063.5h3.063a1 1 0 1 0 0-2h-3v1.5z" fill="#626262"/><path d="M20.25 12.75h-3V11c0-.084-.002-.167-.006-.25h3.006a1 1 0 1 1 0 2z" fill="#626262"/><path d="M13.25 11v1.75h-2.5V11c0-.086.009-.17.025-.25h2.45c.016.08.025.164.025.25z" fill="#626262"/><path d="M20.25 9.25h-3.299a5.252 5.252 0 0 0-1.277-2h4.576a1 1 0 1 1 0 2z" fill="#626262"/><path d="M3.75 17.75h16.5a1 1 0 1 1 0 2H3.75a1 1 0 1 1 0-2z" fill="#626262"/></g><rect x="0" y="0" width="24" height="24" fill="rgba(0, 0, 0, 0)" /></svg>