<svg xmlns="http://www.w3.org/2000/svg" xmlns:xlink="http://www.w3.org/1999/xlink" width="24" height="24" preserveAspectRatio="xMidYMid meet" viewBox="0 0 24 24" style="-ms-transform: rotate(360deg); -webkit-transform: rotate(360deg); transform: rotate(360deg);"><g fill="none"><path d="M4 18a2 2 0 1 1 0 4a2 2 0 0 1 0-4zm5.5-3a2.5 2.5 0 1 1 0 5a2.5 2.5 0 0 1 0-5zM12 2a5.414 5.414 0 0 1 5.33 4.47h.082a3.765 3.765 0 1 1 0 7.53H6.588a3.765 3.765 0 1 1 0-7.53h.082A5.414 5.414 0 0 1 12 2z" fill="#626262"/></g><rect x="0" y="0" width="24" height="24" fill="rgba(0, 0, 0, 0)" /></svg>