<svg id="a7f4267a-8360-4215-899c-e85f03b9bb01" data-name="Livello 1" xmlns="http://www.w3.org/2000/svg" viewBox="0 0 24 24">
  <defs>
    <style>
      .adb81fe0-c9ab-4e73-a0a3-1e93156c3d01 {
        opacity: 0;
      }

      .ff944fde-370a-4adc-82e1-0d4135fb6975 {
        fill: #626262;
      }
    </style>
  </defs>
  <rect class="adb81fe0-c9ab-4e73-a0a3-1e93156c3d01" width="24" height="24"/>
  <path class="ff944fde-370a-4adc-82e1-0d4135fb6975" d="M16.5,5.2c0-2.44-1.14-4.2-3-4.2-1,0-1.38.61-1.74,2-.08.29-.12.43-.15.57-.11.36-.28,1-.53,1.83l0,.07L8.17,10a5.87,5.87,0,0,1-2.85,2.33l-.47.18a2.75,2.75,0,0,0-1.72,3.09l.4,2.09A3.29,3.29,0,0,0,6,20.18l7.63,1.87a4.75,4.75,0,0,0,5.73-3.44l1.42-5.55a3.27,3.27,0,0,0-2.35-4,3.58,3.58,0,0,0-.8-.1H15.76a14.27,14.27,0,0,0,.74-3.8Z"/>
</svg>
