<svg id="e8d413f7-a14f-46a6-92cc-6ac97e00714a" data-name="Livello 1" xmlns="http://www.w3.org/2000/svg" viewBox="0 0 24 24">
  <defs>
    <style>
      .e36327be-a2b1-4bf1-a759-5824b200fed9 {
        opacity: 0;
      }

      .fe539fcc-5a02-45a3-92d4-46945c30e1a7 {
        fill: #626262;
      }
    </style>
  </defs>
  <rect class="e36327be-a2b1-4bf1-a759-5824b200fed9" width="24" height="24"/>
  <path class="fe539fcc-5a02-45a3-92d4-46945c30e1a7" d="M16.5,18c0,2.44-1.14,4.19-3,4.19-1,0-1.34-.54-1.69-1.79l-.2-.77c-.11-.36-.28-1-.53-1.83l0-.07L8.17,13.23a5.9,5.9,0,0,0-2.85-2.32l-.48-.18a2.76,2.76,0,0,1-1.71-3.1l.4-2.08A3.26,3.26,0,0,1,6,3l7.63-1.87a4.75,4.75,0,0,1,5.73,3.44l1.42,5.55a3.25,3.25,0,0,1-2.35,3.95,3.08,3.08,0,0,1-.8.1H15.75A14.09,14.09,0,0,1,16.5,18Z"/>
</svg>
