<svg xmlns="http://www.w3.org/2000/svg" xmlns:xlink="http://www.w3.org/1999/xlink" width="24" height="24" preserveAspectRatio="xMidYMid meet" viewBox="0 0 24 24" style="-ms-transform: rotate(360deg); -webkit-transform: rotate(360deg); transform: rotate(360deg);"><g fill="none"><path d="M3.28 2.22a.75.75 0 1 0-1.06 1.06l3.993 3.994a8.5 8.5 0 1 0 12.013 12.013l2.493 2.494a.75.75 0 0 0 1.061-1.061L3.28 2.22zm9.336 11.457a.75.75 0 0 1-1.36-.325l-.006-.102v-.94l1.366 1.367z" fill="#626262"/><path d="M12.75 8.75v.818l7.128 7.129A8.5 8.5 0 0 0 8.803 5.622l2.634 2.633a.75.75 0 0 1 1.306.393l.007.102z" fill="#626262"/><path d="M19.17 5.123l.082.061l1.149 1a.75.75 0 0 1-.904 1.193l-.081-.061l-1.149-1a.75.75 0 0 1 .903-1.193z" fill="#626262"/><path d="M14.25 2.5a.75.75 0 0 1 .102 1.493L14.25 4h-4.5a.75.75 0 0 1-.102-1.493L9.75 2.5h4.5z" fill="#626262"/></g><rect x="0" y="0" width="24" height="24" fill="rgba(0, 0, 0, 0)" /></svg>