<svg xmlns="http://www.w3.org/2000/svg" xmlns:xlink="http://www.w3.org/1999/xlink" width="24" height="24" preserveAspectRatio="xMidYMid meet" viewBox="0 0 24 24" style="-ms-transform: rotate(360deg); -webkit-transform: rotate(360deg); transform: rotate(360deg);"><g fill="none"><path d="M7 6.252V7H4.25A2.25 2.25 0 0 0 2 9.25v2.25h4.5v-.75a.75.75 0 0 1 1.5 0v.75h8v-.75a.75.75 0 0 1 1.5 0v.75H22V9.25A2.25 2.25 0 0 0 19.75 7H17v-.748a2.25 2.25 0 0 0-2.25-2.25h-5.5A2.25 2.25 0 0 0 7 6.252zm2.25-.75h5.5a.75.75 0 0 1 .75.75V7h-7v-.748a.75.75 0 0 1 .75-.75z" fill="#626262"/><path d="M22 13h-4.5v1.25a.75.75 0 0 1-1.5 0V13H8v1.25a.75.75 0 0 1-1.5 0V13H2v4.747a2.25 2.25 0 0 0 2.25 2.25h15.5a2.25 2.25 0 0 0 2.25-2.25V13z" fill="#626262"/></g><rect x="0" y="0" width="24" height="24" fill="rgba(0, 0, 0, 0)" /></svg>