<svg xmlns="http://www.w3.org/2000/svg" xmlns:xlink="http://www.w3.org/1999/xlink" width="24" height="24" preserveAspectRatio="xMidYMid meet" viewBox="0 0 24 24" style="-ms-transform: rotate(360deg); -webkit-transform: rotate(360deg); transform: rotate(360deg);"><g fill="none"><path d="M3.28 2.22a.75.75 0 1 0-1.06 1.06l1.567 1.567A3.25 3.25 0 0 0 2 7.75v8.5a3.25 3.25 0 0 0 3.25 3.25h7.5a3.251 3.251 0 0 0 3.168-2.521l4.801 4.802a.75.75 0 0 0 1.061-1.061L3.28 2.22z" fill="#626262"/><path d="M17 13.818l4.504 4.505a1 1 0 0 0 .496-.864V6.54a1 1 0 0 0-1.648-.762L17 8.628v5.19z" fill="#626262"/><path d="M7.682 4.5L16 12.818V7.75a3.25 3.25 0 0 0-3.25-3.25H7.682z" fill="#626262"/></g><rect x="0" y="0" width="24" height="24" fill="rgba(0, 0, 0, 0)" /></svg>