<svg xmlns="http://www.w3.org/2000/svg" xmlns:xlink="http://www.w3.org/1999/xlink" width="24" height="24" preserveAspectRatio="xMidYMid meet" viewBox="0 0 24 24" style="-ms-transform: rotate(360deg); -webkit-transform: rotate(360deg); transform: rotate(360deg);"><g fill="none"><path d="M4.692 4.017C3.318 3.825 2 4.875 2 6.317v11.368c0 1.44 1.318 2.49 2.691 2.298c.197-.027.41-.056.636-.084A54.303 54.303 0 0 1 12 19.5c3.19 0 5.732.262 7.31.483c1.372.193 2.69-.858 2.69-2.298V6.316c0-1.44-1.318-2.491-2.692-2.299c-1.576.221-4.117.483-7.308.483s-5.732-.262-7.308-.483zM19 18.43a52.22 52.22 0 0 0-3.5-.325V15H18a1 1 0 0 1 1 1v2.429zm-5-.395a59.332 59.332 0 0 0-4 0V15a1 1 0 0 1 1-1h2a1 1 0 0 1 1 1v3.034zm-5.5.07a52.216 52.216 0 0 0-3.5.325V16a1 1 0 0 1 1-1h2.5v3.104zM12 13a1.5 1.5 0 1 1 0-3a1.5 1.5 0 0 1 0 3zm-3.5-.5a1.5 1.5 0 1 1-3 0a1.5 1.5 0 0 1 3 0zm10 0a1.5 1.5 0 1 1-3 0a1.5 1.5 0 0 1 3 0z" fill="#626262"/></g><rect x="0" y="0" width="24" height="24" fill="rgba(0, 0, 0, 0)" /></svg>