<svg xmlns="http://www.w3.org/2000/svg" xmlns:xlink="http://www.w3.org/1999/xlink" width="24" height="24" preserveAspectRatio="xMidYMid meet" viewBox="0 0 24 24" style="-ms-transform: rotate(360deg); -webkit-transform: rotate(360deg); transform: rotate(360deg);"><g fill="none"><path d="M19.749 4a2.25 2.25 0 0 1 2.25 2.25v11.505a2.25 2.25 0 0 1-2.25 2.25H4.25A2.25 2.25 0 0 1 2 17.755V6.25A2.25 2.25 0 0 1 4.25 4h15.499zm-4 5H8l-.176.005a3 3 0 1 0 2.877 1.689L10.6 10.5H13.4a3 3 0 1 0 2.775-1.495L16 9l-.17.004L15.748 9zM8 10.5a1.5 1.5 0 1 1 0 3a1.5 1.5 0 0 1 0-3zm8 0a1.5 1.5 0 1 1 0 3a1.5 1.5 0 0 1 0-3z" fill="#626262"/></g><rect x="0" y="0" width="24" height="24" fill="rgba(0, 0, 0, 0)" /></svg>