<svg xmlns="http://www.w3.org/2000/svg" xmlns:xlink="http://www.w3.org/1999/xlink" width="24" height="24" preserveAspectRatio="xMidYMid meet" viewBox="0 0 24 24" style="-ms-transform: rotate(360deg); -webkit-transform: rotate(360deg); transform: rotate(360deg);"><g fill="none"><path d="M13.002 8.007c3.169 0 4.966 2.097 5.228 4.63h.08a3.687 3.687 0 0 1 3.692 3.683a3.687 3.687 0 0 1-3.692 3.682H7.694a3.687 3.687 0 0 1-3.692-3.682a3.687 3.687 0 0 1 3.692-3.683h.08c.263-2.55 2.059-4.63 5.227-4.63zm-8.634 4.155a.75.75 0 0 1-.315.935l-.091.045l-.926.384a.75.75 0 0 1-.666-1.34l.092-.046l.926-.383a.75.75 0 0 1 .98.405zm6.487-4.833l-.172.058c-1.784.63-3.062 2.005-3.615 3.823l-.07.25l-.058.238l-.206.039a4.64 4.64 0 0 0-1.67.714a3.942 3.942 0 0 1 5.791-5.122zM2.94 7.36l.106.035l.926.384a.75.75 0 0 1-.469 1.42L3.4 9.166l-.926-.384a.75.75 0 0 1 .468-1.42zm3.815-2.986l.046.091l.383.927a.75.75 0 0 1-1.34.665l-.046-.091l-.383-.927a.75.75 0 0 1 1.34-.665zm4.354-.319a.75.75 0 0 1 .44.875l-.035.105l-.383.927a.75.75 0 0 1-1.42-.469l.034-.106l.384-.926a.75.75 0 0 1 .98-.406z" fill="#626262"/></g><rect x="0" y="0" width="24" height="24" fill="rgba(0, 0, 0, 0)" /></svg>