<svg xmlns="http://www.w3.org/2000/svg" xmlns:xlink="http://www.w3.org/1999/xlink" width="24" height="24" preserveAspectRatio="xMidYMid meet" viewBox="0 0 24 24" style="-ms-transform: rotate(360deg); -webkit-transform: rotate(360deg); transform: rotate(360deg);"><g fill="none"><path d="M12 4c3.169 0 4.966 2.098 5.227 4.63h.08A3.687 3.687 0 0 1 21 12.314a3.687 3.687 0 0 1-3.693 3.683h-.582l-1.583 2.636a.75.75 0 0 1-1.344-.658l.045-.092l1.15-1.887h-2.136l-1.583 2.637a.75.75 0 0 1-1.344-.658l.045-.092l1.15-1.887H8.988l-1.582 2.637a.75.75 0 0 1-1.344-.658l.045-.092l1.149-1.887h-.563A3.687 3.687 0 0 1 3 12.314a3.687 3.687 0 0 1 3.692-3.682h.08C7.036 6.08 8.832 4 12 4z" fill="#626262"/></g><rect x="0" y="0" width="24" height="24" fill="rgba(0, 0, 0, 0)" /></svg>