<svg xmlns="http://www.w3.org/2000/svg" xmlns:xlink="http://www.w3.org/1999/xlink" width="24" height="24" preserveAspectRatio="xMidYMid meet" viewBox="0 0 24 24" style="-ms-transform: rotate(360deg); -webkit-transform: rotate(360deg); transform: rotate(360deg);"><g fill="none"><path d="M13.002 8.012c3.168 0 4.966 2.098 5.227 4.63h.08a3.687 3.687 0 0 1 3.692 3.683a3.687 3.687 0 0 1-3.692 3.683H7.694a3.687 3.687 0 0 1-3.692-3.683a3.687 3.687 0 0 1 3.692-3.683h.08c.263-2.549 2.06-4.63 5.228-4.63zM6.589 4.005a5.058 5.058 0 0 1 2.263.673a5.057 5.057 0 0 1 2.208 2.595c-1.984.563-3.404 2.002-3.994 3.947l-.069.246l-.058.238l-.206.038a4.67 4.67 0 0 0-2.804 1.814a5.06 5.06 0 0 1-1.797-1.599a.75.75 0 0 1 .366-1.132c1.643-.588 2.527-1.25 3.034-2.215c.552-1.055.654-2.174.287-3.678a.75.75 0 0 1 .77-.927z" fill="#626262"/></g><rect x="0" y="0" width="24" height="24" fill="rgba(0, 0, 0, 0)" /></svg>