<svg xmlns="http://www.w3.org/2000/svg" xmlns:xlink="http://www.w3.org/1999/xlink" width="24" height="24" preserveAspectRatio="xMidYMid meet" viewBox="0 0 24 24" style="-ms-transform: rotate(360deg); -webkit-transform: rotate(360deg); transform: rotate(360deg);"><g fill="none"><path d="M10.752 20a.75.75 0 1 1 0 1.5a.75.75 0 0 1 0-1.5zm4.5 0a.75.75 0 1 1 0 1.5a.75.75 0 0 1 0-1.5zm-6.75-1a.75.75 0 1 1 0 1.5a.75.75 0 0 1 0-1.5zm4.5 0a.75.75 0 1 1 0 1.5a.75.75 0 0 1 0-1.5zm4.5 0a.75.75 0 1 1 0 1.5a.75.75 0 0 1 0-1.5zm-4.5-12.99c3.169 0 4.966 2.098 5.228 4.63h.08a3.687 3.687 0 0 1 3.692 3.683a3.687 3.687 0 0 1-3.692 3.683H7.694a3.687 3.687 0 0 1-3.692-3.683a3.687 3.687 0 0 1 3.692-3.683h.08c.263-2.549 2.059-4.63 5.227-4.63zm-8.634 4.156a.75.75 0 0 1-.315.934l-.091.046l-.926.383a.75.75 0 0 1-.666-1.34l.092-.045l.926-.384a.75.75 0 0 1 .98.406zm6.487-4.833l-.172.057C8.9 6.02 7.621 7.396 7.068 9.213l-.07.25l-.058.239l-.206.038a4.638 4.638 0 0 0-1.67.715a3.942 3.942 0 0 1 5.791-5.122zm-7.914.03l.106.036l.926.383a.75.75 0 0 1-.469 1.421L3.4 7.168l-.926-.384a.75.75 0 0 1 .468-1.42zm3.815-2.986l.046.092l.383.926a.75.75 0 0 1-1.34.665l-.046-.091l-.383-.926a.75.75 0 0 1 1.34-.666zm4.354-.318a.75.75 0 0 1 .44.874l-.035.106l-.383.926a.75.75 0 0 1-1.42-.469l.034-.105l.384-.926a.75.75 0 0 1 .98-.406z" fill="#626262"/></g><rect x="0" y="0" width="24" height="24" fill="rgba(0, 0, 0, 0)" /></svg>