<svg xmlns="http://www.w3.org/2000/svg" xmlns:xlink="http://www.w3.org/1999/xlink" width="24" height="24" preserveAspectRatio="xMidYMid meet" viewBox="0 0 24 24" style="-ms-transform: rotate(360deg); -webkit-transform: rotate(360deg); transform: rotate(360deg);"><g fill="none"><path d="M11.996 18.532a1 1 0 0 1 .993.883l.007.117v1.456a1 1 0 0 1-1.993.116l-.007-.116v-1.456a1 1 0 0 1 1-1zm6.037-1.932l1.03 1.03a1 1 0 0 1-1.415 1.413l-1.03-1.029a1 1 0 0 1 1.415-1.414zm-10.66 0a1 1 0 0 1 0 1.414l-1.029 1.03a1 1 0 0 1-1.414-1.415l1.03-1.03a1 1 0 0 1 1.413 0zM12.01 6.472a5.525 5.525 0 1 1 0 11.05a5.525 5.525 0 0 1 0-11.05zm8.968 4.546a1 1 0 0 1 .117 1.993l-.117.007h-1.456a1 1 0 0 1-.116-1.993l.116-.007h1.456zM4.479 10.99a1 1 0 0 1 .116 1.993l-.116.007H3.023a1 1 0 0 1-.117-1.993l.117-.007h1.456zm1.77-6.116l.095.083l1.03 1.03a1 1 0 0 1-1.32 1.497L5.958 7.4L4.93 6.371a1 1 0 0 1 1.32-1.497zm12.813.083a1 1 0 0 1 .083 1.32l-.083.094l-1.03 1.03a1 1 0 0 1-1.497-1.32l.084-.095l1.029-1.03a1 1 0 0 1 1.414 0zM12 2.013a1 1 0 0 1 .993.883l.007.117v1.455a1 1 0 0 1-1.993.117L11 4.468V3.013a1 1 0 0 1 1-1z" fill="#626262"/></g><rect x="0" y="0" width="24" height="24" fill="rgba(0, 0, 0, 0)" /></svg>