<svg xmlns="http://www.w3.org/2000/svg" xmlns:xlink="http://www.w3.org/1999/xlink" width="24" height="24" preserveAspectRatio="xMidYMid meet" viewBox="0 0 24 24" style="-ms-transform: rotate(360deg); -webkit-transform: rotate(360deg); transform: rotate(360deg);"><g fill="none"><path d="M10.75 20a.75.75 0 1 1 0 1.5a.75.75 0 0 1 0-1.5zm4.5 0a.75.75 0 1 1 0 1.5a.75.75 0 0 1 0-1.5zM8.5 19a.75.75 0 1 1 0 1.5a.75.75 0 0 1 0-1.5zm4.5 0a.75.75 0 1 1 0 1.5a.75.75 0 0 1 0-1.5zm4.5 0a.75.75 0 1 1 0 1.5a.75.75 0 0 1 0-1.5zM13.001 6.018c3.169 0 4.966 2.097 5.228 4.63h.08A3.687 3.687 0 0 1 22 14.33a3.687 3.687 0 0 1-3.692 3.683H7.694a3.687 3.687 0 0 1-3.692-3.683a3.687 3.687 0 0 1 3.692-3.682h.08c.263-2.55 2.059-4.63 5.227-4.63zM6.588 2.01a5.058 5.058 0 0 1 2.263.674a5.056 5.056 0 0 1 2.209 2.595C9.075 5.84 7.655 7.28 7.066 9.225l-.07.246l-.057.238l-.206.038a4.67 4.67 0 0 0-2.804 1.815l-.155-.085a5.062 5.062 0 0 1-1.642-1.514a.75.75 0 0 1 .365-1.132c1.643-.588 2.528-1.25 3.034-2.216c.553-1.055.655-2.174.288-3.677a.75.75 0 0 1 .77-.928z" fill="#626262"/></g><rect x="0" y="0" width="24" height="24" fill="rgba(0, 0, 0, 0)" /></svg>