<svg xmlns="http://www.w3.org/2000/svg" xmlns:xlink="http://www.w3.org/1999/xlink" width="24" height="24" preserveAspectRatio="xMidYMid meet" viewBox="0 0 24 24" style="-ms-transform: rotate(360deg); -webkit-transform: rotate(360deg); transform: rotate(360deg);"><g fill="none"><path d="M9.75 18.151a.75.75 0 1 1 0 1.5a.75.75 0 0 1 0-1.5zm4.5 0a.75.75 0 1 1 0 1.5a.75.75 0 0 1 0-1.5zm-6.75-1a.75.75 0 1 1 0 1.5a.75.75 0 0 1 0-1.5zm4.5 0a.75.75 0 1 1 0 1.5a.75.75 0 0 1 0-1.5zm4.5 0a.75.75 0 1 1 0 1.5a.75.75 0 0 1 0-1.5zM12 4.001c3.169 0 4.966 2.097 5.227 4.63h.08A3.687 3.687 0 0 1 21 12.313a3.687 3.687 0 0 1-3.693 3.683H6.693A3.687 3.687 0 0 1 3 12.313a3.687 3.687 0 0 1 3.692-3.682h.08C7.036 6.08 8.832 4 12 4z" fill="#626262"/></g><rect x="0" y="0" width="24" height="24" fill="rgba(0, 0, 0, 0)" /></svg>