<svg xmlns="http://www.w3.org/2000/svg" xmlns:xlink="http://www.w3.org/1999/xlink" width="24" height="24" preserveAspectRatio="xMidYMid meet" viewBox="0 0 24 24" style="-ms-transform: rotate(360deg); -webkit-transform: rotate(360deg); transform: rotate(360deg);"><g fill="none"><path d="M9 17a2 2 0 1 1 0 4a2 2 0 0 1 0-4zm9.748-7.505a3.251 3.251 0 0 1 .184 6.494l-.2.005l-.116.007h-.787c.11.31.17.645.17.993c0 1.665-1.262 3.006-2.926 3.006c-1.3 0-2.235-.628-2.688-1.626a1 1 0 0 1 1.767-.93l.098.188c.14.242.373.368.823.368c.53 0 .925-.42.925-1.006c0-.51-.393-.936-.904-.993H3a1 1 0 0 1-.117-1.993L3 14.001h11.859l.117-.006c.063 0 .126.002.189.005l3.462.002l.06-.006l.189-.008a1.25 1.25 0 1 0-1.254-1.792l-.097.226a1 1 0 0 1-1.83-.796a3.253 3.253 0 0 1 3.053-2.131zM9 18.5a.5.5 0 1 0 0 1a.5.5 0 0 0 0-1zm2.75-15a4.25 4.25 0 0 1 .023 8.5H3a1 1 0 0 1-.117-1.993L3 10h8.75l.154-.005A2.25 2.25 0 1 0 9.499 7.75a1 1 0 0 1-2 0a4.25 4.25 0 0 1 4.25-4.25zM4 5a2 2 0 1 1 0 4a2 2 0 0 1 0-4zm16-1a2 2 0 1 1 0 4a2 2 0 0 1 0-4zM4 6.5a.5.5 0 1 0 0 1a.5.5 0 0 0 0-1zm16-1a.5.5 0 1 0 0 1a.5.5 0 0 0 0-1z" fill="#626262"/></g><rect x="0" y="0" width="24" height="24" fill="rgba(0, 0, 0, 0)" /></svg>