<svg xmlns="http://www.w3.org/2000/svg" xmlns:xlink="http://www.w3.org/1999/xlink" width="24" height="24" preserveAspectRatio="xMidYMid meet" viewBox="0 0 24 24" style="-ms-transform: rotate(360deg); -webkit-transform: rotate(360deg); transform: rotate(360deg);"><g fill="none"><path d="M12.75 2.75a.75.75 0 0 0-1.5 0v1.5a.75.75 0 0 0 1.5 0v-1.5z" fill="#626262"/><path d="M19.03 4.97a.75.75 0 0 1 0 1.06l-1.06 1.061a.75.75 0 0 1-1.061-1.06l1.06-1.061a.75.75 0 0 1 1.061 0z" fill="#626262"/><path d="M6.59 13a5.5 5.5 0 1 1 10.819 0h3.841a.75.75 0 0 1 0 1.5H2.75a.75.75 0 0 1 0-1.5h3.84z" fill="#626262"/><path d="M6.75 16a.75.75 0 0 0 0 1.5h10.5a.75.75 0 0 0 0-1.5H6.75z" fill="#626262"/><path d="M10.75 19a.75.75 0 0 0 0 1.5h2.5a.75.75 0 0 0 0-1.5h-2.5z" fill="#626262"/><path d="M4.97 4.97a.75.75 0 0 1 1.06 0l1.061 1.06a.75.75 0 1 1-1.06 1.061L4.97 6.031a.75.75 0 0 1 0-1.061z" fill="#626262"/></g><rect x="0" y="0" width="24" height="24" fill="rgba(0, 0, 0, 0)" /></svg>