<svg xmlns="http://www.w3.org/2000/svg" xmlns:xlink="http://www.w3.org/1999/xlink" width="24" height="24" preserveAspectRatio="xMidYMid meet" viewBox="0 0 24 24" style="-ms-transform: rotate(360deg); -webkit-transform: rotate(360deg); transform: rotate(360deg);"><g fill="none"><path d="M10.96 16.44a1.501 1.501 0 1 1 2.122 2.122a1.501 1.501 0 0 1-2.123-2.122zm-2.604-2.742a5.233 5.233 0 0 1 7.4 0c.46.461.838 1.025 1.101 1.625a1 1 0 1 1-1.832.803a3.358 3.358 0 0 0-.683-1.013a3.233 3.233 0 0 0-4.572 0a3.254 3.254 0 0 0-.672 1a1 1 0 1 1-1.832-.802a5.25 5.25 0 0 1 1.09-1.613zM6.31 10.707a8.128 8.128 0 0 1 11.495 0a8.353 8.353 0 0 1 1.503 2.085a1 1 0 0 1-1.78.91a6.357 6.357 0 0 0-1.137-1.581a6.128 6.128 0 0 0-9.8 1.562a1 1 0 1 1-1.785-.902a8.08 8.08 0 0 1 1.504-2.074z" fill="#626262"/></g><rect x="0" y="0" width="24" height="24" fill="rgba(0, 0, 0, 0)" /></svg>