<svg xmlns="http://www.w3.org/2000/svg" xmlns:xlink="http://www.w3.org/1999/xlink" width="24" height="24" preserveAspectRatio="xMidYMid meet" viewBox="0 0 24 24" style="-ms-transform: rotate(360deg); -webkit-transform: rotate(360deg); transform: rotate(360deg);"><g fill="none"><path d="M16.75 2.001a5.25 5.25 0 0 0-5.005 6.84l-9.068 9.38a2.344 2.344 0 1 0 3.37 3.257l8.963-9.272A5.25 5.25 0 0 0 21.797 5.8a.75.75 0 0 0-1.25-.323L17.36 8.66l-2.06-2.06l3.16-3.162a.75.75 0 0 0-.333-1.254a5.255 5.255 0 0 0-1.378-.183z" fill="#626262"/></g><rect x="0" y="0" width="24" height="24" fill="rgba(0, 0, 0, 0)" /></svg>