<svg xmlns="http://www.w3.org/2000/svg" xmlns:xlink="http://www.w3.org/1999/xlink" width="24" height="24" preserveAspectRatio="xMidYMid meet" viewBox="0 0 24 24" style="-ms-transform: rotate(360deg); -webkit-transform: rotate(360deg); transform: rotate(360deg);"><g fill="none"><path d="M5.75 2a.75.75 0 0 0-.75.75v18.5c0 .414.336.75.75.75H8V11.75a.75.75 0 0 1 1.5 0V22h8.75a.75.75 0 0 0 .75-.75V2.75a.75.75 0 0 0-.75-.75H5.75zM9.5 5.75a.75.75 0 1 1-1.5 0a.75.75 0 0 1 1.5 0z" fill="#626262"/></g><rect x="0" y="0" width="24" height="24" fill="rgba(0, 0, 0, 0)" /></svg>